<?xml version="1.0" encoding="utf-8"?>
<!-- Generator: Adobe Illustrator 25.4.1, SVG Export Plug-In . SVG Version: 6.00 Build 0)  -->
<svg version="1.1" id="Ebene_1" xmlns="http://www.w3.org/2000/svg" xmlns:xlink="http://www.w3.org/1999/xlink" x="0px" y="0px"
	 viewBox="0 0 595.28 841.89" style="enable-background:new 0 0 595.28 841.89;" xml:space="preserve">
<style type="text/css">
	.st0{fill:url(#SVGID_1_);}
	.st1{fill:#FFFFFF;}
</style>
<g>
	<linearGradient id="SVGID_1_" gradientUnits="userSpaceOnUse" x1="265.4978" y1="476.4799" x2="330.1576" y2="364.4858">
		<stop  offset="0" style="stop-color:#FFD678"/>
		<stop  offset="0.2463" style="stop-color:#F2A555"/>
		<stop  offset="0.3793" style="stop-color:#EB5E3E"/>
		<stop  offset="0.5394" style="stop-color:#D8496A"/>
		<stop  offset="0.6995" style="stop-color:#C33187"/>
		<stop  offset="0.913" style="stop-color:#8063A7"/>
		<stop  offset="0.9852" style="stop-color:#5C6CB1"/>
		<stop  offset="1" style="stop-color:#5C6CB1"/>
	</linearGradient>
	<path class="st0" d="M335.88,471.21h-76.1c-7.01,0-12.68-5.68-12.68-12.68v-76.1c0-7.01,5.68-12.68,12.68-12.68h76.1
		c7.01,0,12.68,5.68,12.68,12.68v76.1C348.56,465.54,342.88,471.21,335.88,471.21"/>
	<g>
		<path class="st1" d="M297.83,389.75c10.01,0,11.2,0.04,15.15,0.22c3.65,0.17,5.64,0.78,6.96,1.29c1.75,0.68,3,1.49,4.31,2.81
			c1.31,1.31,2.12,2.56,2.8,4.31c0.52,1.32,1.12,3.31,1.29,6.96c0.18,3.95,0.22,5.14,0.22,15.15c0,10.01-0.04,11.2-0.22,15.15
			c-0.17,3.66-0.78,5.64-1.29,6.96c-0.68,1.75-1.49,3-2.8,4.31c-1.31,1.31-2.56,2.12-4.31,2.8c-1.32,0.51-3.31,1.12-6.96,1.29
			c-3.96,0.18-5.14,0.22-15.15,0.22c-10.01,0-11.2-0.04-15.15-0.22c-3.65-0.17-5.64-0.78-6.96-1.29c-1.75-0.68-3-1.49-4.31-2.8
			s-2.12-2.56-2.8-4.31c-0.51-1.32-1.12-3.31-1.29-6.96c-0.18-3.95-0.22-5.14-0.22-15.15c0-10.01,0.04-11.2,0.22-15.15
			c0.17-3.65,0.78-5.64,1.29-6.96c0.68-1.75,1.49-3,2.8-4.31c1.31-1.31,2.56-2.12,4.31-2.81c1.32-0.51,3.31-1.12,6.96-1.29
			C286.63,389.78,287.82,389.75,297.83,389.75 M297.83,382.99c-10.18,0-11.46,0.04-15.46,0.23c-3.99,0.18-6.72,0.82-9.1,1.74
			c-2.46,0.96-4.56,2.24-6.64,4.32c-2.08,2.08-3.37,4.18-4.32,6.64c-0.93,2.38-1.56,5.11-1.74,9.1c-0.18,4-0.22,5.28-0.22,15.46
			c0,10.18,0.04,11.46,0.22,15.46c0.18,3.99,0.82,6.72,1.74,9.1c0.96,2.47,2.24,4.56,4.32,6.64c2.08,2.08,4.18,3.37,6.64,4.32
			c2.38,0.93,5.11,1.56,9.1,1.74c4,0.18,5.28,0.23,15.46,0.23c10.18,0,11.46-0.04,15.46-0.23c3.99-0.18,6.72-0.81,9.1-1.74
			c2.46-0.96,4.56-2.24,6.64-4.32c2.08-2.08,3.37-4.18,4.32-6.64c0.93-2.38,1.56-5.11,1.74-9.1c0.18-4,0.23-5.28,0.23-15.46
			c0-10.18-0.04-11.46-0.23-15.46c-0.18-3.99-0.82-6.72-1.74-9.1c-0.96-2.47-2.24-4.56-4.32-6.64c-2.09-2.08-4.18-3.37-6.64-4.32
			c-2.38-0.93-5.11-1.56-9.1-1.74C309.29,383.03,308.01,382.99,297.83,382.99"/>
		<path class="st1" d="M297.83,401.23c-10.63,0-19.25,8.62-19.25,19.25c0,10.63,8.62,19.25,19.25,19.25
			c10.63,0,19.25-8.62,19.25-19.25C317.08,409.85,308.46,401.23,297.83,401.23 M297.83,432.98c-6.9,0-12.5-5.6-12.5-12.5
			c0-6.9,5.6-12.5,12.5-12.5c6.9,0,12.5,5.6,12.5,12.5C310.33,427.39,304.73,432.98,297.83,432.98"/>
		<path class="st1" d="M322.34,400.47c0,2.49-2.01,4.5-4.5,4.5c-2.48,0-4.5-2.01-4.5-4.5c0-2.48,2.02-4.5,4.5-4.5
			C320.33,395.97,322.34,397.98,322.34,400.47"/>
	</g>
</g>
</svg>
