<?xml version="1.0" encoding="utf-8"?>
<!-- Generator: Adobe Illustrator 25.4.1, SVG Export Plug-In . SVG Version: 6.00 Build 0)  -->
<svg version="1.1" id="Ebene_1" xmlns="http://www.w3.org/2000/svg" xmlns:xlink="http://www.w3.org/1999/xlink" x="0px" y="0px"
	 viewBox="0 0 595.28 841.89" style="enable-background:new 0 0 595.28 841.89;" xml:space="preserve">
<style type="text/css">
	.st0{fill:#0577B3;}
	.st1{fill:#FFFFFF;}
</style>
<g>
	<path class="st0" d="M335.87,471.21h-76.1c-7,0-12.68-5.68-12.68-12.68v-76.09c0-7.01,5.68-12.68,12.68-12.68h76.1
		c7.01,0,12.68,5.68,12.68,12.68v76.09C348.56,465.53,342.88,471.21,335.87,471.21"/>
	<g>
		<path class="st1" d="M262.72,408.31h15.06v48.42h-15.06V408.31z M270.25,384.24c4.82,0,8.72,3.91,8.72,8.72
			c0,4.82-3.91,8.73-8.72,8.73c-4.83,0-8.73-3.91-8.73-8.73C261.52,388.15,265.42,384.24,270.25,384.24"/>
		<path class="st1" d="M287.22,408.31h14.43v6.62h0.21c2.01-3.81,6.92-7.82,14.24-7.82c15.23,0,18.04,10.02,18.04,23.07v26.56H319.1
			v-23.54c0-5.62-0.11-12.84-7.82-12.84c-7.83,0-9.03,6.12-9.03,12.43v23.95h-15.03V408.31z"/>
	</g>
</g>
</svg>
