<?xml version="1.0" encoding="utf-8"?>
<!-- Generator: Adobe Illustrator 25.4.1, SVG Export Plug-In . SVG Version: 6.00 Build 0)  -->
<svg version="1.1" id="Ebene_1" xmlns="http://www.w3.org/2000/svg" xmlns:xlink="http://www.w3.org/1999/xlink" x="0px" y="0px"
	 viewBox="0 0 595.28 841.89" style="enable-background:new 0 0 595.28 841.89;" xml:space="preserve">
<style type="text/css">
	.st0{fill:#2D2E2D;}
	.st1{fill:#55B262;}
</style>
<g>
	<path class="st0" d="M346.19,432.98h-76.1c-7.01,0-12.68-5.68-12.68-12.68v-76.1c0-7.01,5.68-12.68,12.68-12.68h76.1
		c7.01,0,12.68,5.68,12.68,12.68v76.1C358.88,427.3,353.2,432.98,346.19,432.98"/>
	<g>
		<path class="st1" d="M308.09,342.07c-22.19,0-40.18,17.99-40.18,40.18c0,22.2,17.99,40.18,40.18,40.18
			c22.19,0,40.18-17.99,40.18-40.18C348.28,360.06,330.29,342.07,308.09,342.07"/>
		<path class="st0" d="M326.52,400.02c-0.72,1.18-2.26,1.56-3.44,0.83c-9.44-5.77-21.31-7.07-35.3-3.87c-1.35,0.31-2.69-0.54-3-1.88
			c-0.31-1.35,0.53-2.69,1.88-3c15.31-3.5,28.44-1.99,39.03,4.48C326.87,397.3,327.24,398.84,326.52,400.02"/>
		<path class="st0" d="M331.44,389.08c-0.91,1.47-2.84,1.94-4.31,1.03c-10.8-6.64-27.27-8.56-40.04-4.68
			c-1.66,0.5-3.41-0.43-3.91-2.09c-0.5-1.66,0.43-3.4,2.09-3.91c14.59-4.43,32.74-2.28,45.14,5.34
			C331.88,385.68,332.34,387.61,331.44,389.08"/>
		<path class="st0" d="M331.86,377.69c-12.95-7.69-34.32-8.4-46.68-4.65c-1.99,0.6-4.08-0.52-4.69-2.5
			c-0.6-1.99,0.52-4.08,2.51-4.69c14.19-4.31,37.79-3.48,52.7,5.38c1.79,1.06,2.37,3.37,1.31,5.15
			C335.95,378.16,333.64,378.75,331.86,377.69"/>
	</g>
</g>
</svg>
