<?xml version="1.0" encoding="utf-8"?>
<!-- Generator: Adobe Illustrator 25.4.1, SVG Export Plug-In . SVG Version: 6.00 Build 0)  -->
<svg version="1.1" id="Ebene_1" xmlns="http://www.w3.org/2000/svg" xmlns:xlink="http://www.w3.org/1999/xlink" x="0px" y="0px"
	 viewBox="0 0 595.28 841.89" style="enable-background:new 0 0 595.28 841.89;" xml:space="preserve">
<style type="text/css">
	.st0{fill:#DA2933;}
	.st1{fill:#FFFFFF;}
</style>
<g>
	<path class="st0" d="M335.88,471.21h-76.1c-7.01,0-12.68-5.68-12.68-12.68v-76.09c0-7.01,5.68-12.68,12.68-12.68h76.1
		c7,0,12.68,5.68,12.68,12.68v76.09C348.56,465.53,342.88,471.21,335.88,471.21"/>
	<g>
		<path class="st1" d="M331.46,406.76c0,0-0.67-4.73-2.73-6.81c-2.61-2.73-5.53-2.75-6.88-2.91c-9.6-0.69-24.01-0.69-24.01-0.69
			h-0.03c0,0-14.41,0-24.01,0.69c-1.34,0.16-4.26,0.17-6.88,2.91c-2.06,2.08-2.73,6.81-2.73,6.81s-0.69,5.55-0.69,11.11v5.21
			c0,5.55,0.69,11.11,0.69,11.11s0.67,4.73,2.73,6.81c2.61,2.73,6.04,2.65,7.57,2.93c5.49,0.53,23.33,0.69,23.33,0.69
			s14.42-0.02,24.02-0.72c1.34-0.16,4.27-0.17,6.88-2.91c2.06-2.08,2.73-6.81,2.73-6.81s0.69-5.55,0.69-11.11v-5.21
			C332.14,412.31,331.46,406.76,331.46,406.76"/>
		<polygon class="st0" points="290.74,429.39 309.28,419.78 290.74,410.1 		"/>
	</g>
</g>
</svg>
