<?xml version="1.0" encoding="utf-8"?>
<!-- Generator: Adobe Illustrator 25.4.1, SVG Export Plug-In . SVG Version: 6.00 Build 0)  -->
<svg version="1.1" id="Ebene_1" xmlns="http://www.w3.org/2000/svg" xmlns:xlink="http://www.w3.org/1999/xlink" x="0px" y="0px"
	 viewBox="0 0 595.28 841.89" style="enable-background:new 0 0 595.28 841.89;" xml:space="preserve">
<style type="text/css">
	.st0{fill:none;}
</style>
<g>
	<g id="XMLID_1347_">
		<g>
			<g id="XMLID_00000146474584084821188860000012580007875812008382_">
				<path d="M296.37,407.05c4.29,0,4.79,0.02,6.48,0.09c1.56,0.07,2.41,0.33,2.98,0.55c0.75,0.29,1.28,0.64,1.85,1.2
					c0.56,0.56,0.91,1.1,1.2,1.85c0.22,0.57,0.48,1.42,0.55,2.98c0.08,1.69,0.09,2.2,0.09,6.48c0,4.29-0.02,4.79-0.09,6.48
					c-0.07,1.56-0.33,2.41-0.55,2.98c-0.29,0.75-0.64,1.28-1.2,1.85c-0.56,0.56-1.1,0.91-1.85,1.2c-0.57,0.22-1.42,0.48-2.98,0.55
					c-1.69,0.08-2.2,0.09-6.48,0.09s-4.79-0.02-6.48-0.09c-1.56-0.07-2.41-0.33-2.98-0.55c-0.75-0.29-1.28-0.64-1.85-1.2
					c-0.56-0.56-0.91-1.1-1.2-1.85c-0.22-0.57-0.48-1.41-0.55-2.98c-0.08-1.69-0.09-2.2-0.09-6.48c0-4.28,0.02-4.79,0.09-6.48
					c0.07-1.56,0.33-2.41,0.55-2.98c0.29-0.75,0.64-1.28,1.2-1.85c0.56-0.56,1.1-0.91,1.85-1.2c0.57-0.22,1.42-0.48,2.98-0.55
					C291.58,407.07,292.09,407.05,296.37,407.05 M296.37,404.16c-4.36,0-4.9,0.02-6.62,0.1c-1.71,0.08-2.87,0.35-3.9,0.75
					c-1.06,0.41-1.95,0.96-2.84,1.85c-0.89,0.89-1.44,1.79-1.85,2.84c-0.4,1.02-0.67,2.19-0.75,3.9c-0.08,1.71-0.1,2.26-0.1,6.62
					c0,4.36,0.02,4.9,0.1,6.62c0.08,1.71,0.35,2.87,0.75,3.9c0.41,1.05,0.96,1.95,1.85,2.84c0.89,0.89,1.79,1.44,2.84,1.85
					c1.02,0.4,2.19,0.67,3.9,0.75c1.71,0.08,2.26,0.1,6.62,0.1s4.9-0.02,6.62-0.1c1.71-0.08,2.87-0.35,3.9-0.75
					c1.06-0.41,1.95-0.96,2.84-1.85c0.89-0.89,1.44-1.79,1.85-2.84c0.4-1.02,0.67-2.19,0.75-3.9c0.08-1.71,0.1-2.26,0.1-6.62
					c0-4.36-0.02-4.9-0.1-6.62c-0.08-1.71-0.35-2.87-0.75-3.9c-0.41-1.06-0.96-1.95-1.85-2.84c-0.89-0.89-1.79-1.44-2.84-1.85
					c-1.02-0.4-2.19-0.67-3.9-0.75C301.28,404.18,300.73,404.16,296.37,404.16"/>
				<g>
					<path class="st0" d="M296.37,407.05c4.29,0,4.79,0.02,6.48,0.09c1.56,0.07,2.41,0.33,2.98,0.55c0.75,0.29,1.28,0.64,1.85,1.2
						c0.56,0.56,0.91,1.1,1.2,1.85c0.22,0.57,0.48,1.42,0.55,2.98c0.08,1.69,0.09,2.2,0.09,6.48c0,4.29-0.02,4.79-0.09,6.48
						c-0.07,1.56-0.33,2.41-0.55,2.98c-0.29,0.75-0.64,1.28-1.2,1.85c-0.56,0.56-1.1,0.91-1.85,1.2c-0.57,0.22-1.42,0.48-2.98,0.55
						c-1.69,0.08-2.2,0.09-6.48,0.09s-4.79-0.02-6.48-0.09c-1.56-0.07-2.41-0.33-2.98-0.55c-0.75-0.29-1.28-0.64-1.85-1.2
						c-0.56-0.56-0.91-1.1-1.2-1.85c-0.22-0.57-0.48-1.41-0.55-2.98c-0.08-1.69-0.09-2.2-0.09-6.48c0-4.28,0.02-4.79,0.09-6.48
						c0.07-1.56,0.33-2.41,0.55-2.98c0.29-0.75,0.64-1.28,1.2-1.85c0.56-0.56,1.1-0.91,1.85-1.2c0.57-0.22,1.42-0.48,2.98-0.55
						C291.58,407.07,292.09,407.05,296.37,407.05 M296.37,404.16c-4.36,0-4.9,0.02-6.62,0.1c-1.71,0.08-2.87,0.35-3.9,0.75
						c-1.06,0.41-1.95,0.96-2.84,1.85c-0.89,0.89-1.44,1.79-1.85,2.84c-0.4,1.02-0.67,2.19-0.75,3.9c-0.08,1.71-0.1,2.26-0.1,6.62
						c0,4.36,0.02,4.9,0.1,6.62c0.08,1.71,0.35,2.87,0.75,3.9c0.41,1.05,0.96,1.95,1.85,2.84c0.89,0.89,1.79,1.44,2.84,1.85
						c1.02,0.4,2.19,0.67,3.9,0.75c1.71,0.08,2.26,0.1,6.62,0.1s4.9-0.02,6.62-0.1c1.71-0.08,2.87-0.35,3.9-0.75
						c1.06-0.41,1.95-0.96,2.84-1.85c0.89-0.89,1.44-1.79,1.85-2.84c0.4-1.02,0.67-2.19,0.75-3.9c0.08-1.71,0.1-2.26,0.1-6.62
						c0-4.36-0.02-4.9-0.1-6.62c-0.08-1.71-0.35-2.87-0.75-3.9c-0.41-1.06-0.96-1.95-1.85-2.84c-0.89-0.89-1.79-1.44-2.84-1.85
						c-1.02-0.4-2.19-0.67-3.9-0.75C301.28,404.18,300.73,404.16,296.37,404.16"/>
					<g>
						<g>
							<g>
								<path d="M296.51,404.28c-0.17,0-0.11,0.02-0.13,0.02C296.65,404.3,296.5,404.28,296.51,404.28z"/>
								<polygon points="299.24,404.28 299.19,404.28 299.59,404.27 								"/>
								<path d="M301.79,404.31c-0.24-0.04-0.93-0.01-1.38-0.03l-0.07-0.01l-0.21,0.02C300.68,404.31,301.4,404.3,301.79,404.31z"/>
								<path d="M303.15,404.41c-0.08-0.02,0.29,0-0.32-0.02c0.03,0,0.04,0,0.06,0C302.95,404.4,303.02,404.41,303.15,404.41z"/>
								<path d="M302.89,404.4C302.62,404.4,303.07,404.42,302.89,404.4L302.89,404.4z"/>
								<path d="M304.12,404.49l-0.35-0.02c0.07,0.01,0.38,0.05,0.27,0.04C304.4,404.54,304.32,404.52,304.12,404.49z"/>
								<path d="M304.46,404.5l-0.18-0.02C304.3,404.49,304.35,404.5,304.46,404.5z"/>
								<path d="M303.89,404.45l0.39,0.03c-0.05-0.01-0.05-0.02-0.18-0.02C304.13,404.46,304.05,404.46,303.89,404.45z"/>
								<path d="M303.67,404.43c-0.2-0.02-0.45-0.04-0.1-0.03C302.9,404.36,303,404.38,303.67,404.43z"/>
								<path d="M301.92,404.28l-0.27-0.01l-0.23,0.01C301.54,404.27,301.94,404.29,301.92,404.28z"/>
								<path d="M306.25,404.94c0.02,0-0.11-0.05-0.13-0.07l-0.25-0.06C306,404.85,306.24,404.93,306.25,404.94z"/>
								<path d="M306.12,404.88l0.37,0.11C306.17,404.87,306.1,404.86,306.12,404.88z"/>
								<path d="M304.52,404.47l-0.64-0.05c0.25,0.02,0.51,0.04,0.76,0.07L304.52,404.47z"/>
								<polygon points="307.61,405.5 307.41,405.42 307.77,405.57 								"/>
								<path d="M308.45,405.99c-0.14-0.08,0.17,0.14,0.02,0.06c0.22,0.15,0.4,0.28,0.57,0.4
									C308.86,406.3,308.73,406.2,308.45,405.99z"/>
								<path d="M309.31,406.65c-0.07-0.06-0.17-0.13-0.27-0.21C309.11,406.5,309.2,406.57,309.31,406.65z"/>
								<path d="M307.11,405.22c0.03,0.02,0.08,0.05,0.27,0.14l-0.13-0.08C307.2,405.26,307.16,405.24,307.11,405.22z"/>
								<path d="M307.24,405.28L307.24,405.28c0.15,0.07,0.26,0.12,0.3,0.14C307.51,405.41,307.42,405.36,307.24,405.28z"/>
								<path d="M307.07,405.21l0.04,0.02C307.09,405.21,307.09,405.21,307.07,405.21z"/>
								<path d="M305.52,404.68c0.23,0.04,0.69,0.16,0.25,0.02C305.61,404.67,305.86,404.74,305.52,404.68z"/>
								<path d="M306.91,405.11l-0.39-0.15c0.01,0.01,0.07,0.04-0.03,0.01L306.91,405.11z"/>
								<polygon points="307.1,405.18 306.91,405.11 307.05,405.17 								"/>
								<path d="M308.78,406.19c0.15,0.1,0.3,0.22,0.46,0.37c-0.17-0.16-0.36-0.31-0.55-0.45
									C308.67,406.09,308.58,406.04,308.78,406.19z"/>
								<path d="M308.06,405.7l0.03,0.02C308.08,405.71,308.06,405.7,308.06,405.7z"/>
								<polygon points="310.67,408.17 310.65,408.14 310.64,408.13 								"/>
								<path d="M308.67,406.08c-0.14-0.11-0.23-0.16-0.32-0.21c0.11,0.07,0.23,0.15,0.35,0.24
									C308.71,406.11,308.71,406.11,308.67,406.08z"/>
								<path d="M309.75,407.07l-0.21-0.22C309.6,406.91,309.72,407.05,309.75,407.07z"/>
								<path d="M308.14,405.76l-0.02-0.01C308.17,405.78,308.16,405.77,308.14,405.76z"/>
								<path d="M308.14,405.76c0.06,0.04,0.14,0.08,0.2,0.11c-0.09-0.05-0.17-0.1-0.25-0.15
									C308.11,405.73,308.13,405.74,308.14,405.76z"/>
								<path d="M311.12,408.67c-0.03-0.02-0.27-0.42-0.5-0.76c-0.25-0.31-0.14-0.07,0.03,0.24c0.01,0.01,0.03,0,0.25,0.34
									c-0.05-0.13-0.48-0.77-0.27-0.49c0.31,0.44,0.24,0.38,0.36,0.61c-0.08-0.21,0.36,0.59,0.33,0.48
									c-0.07-0.14-0.15-0.28-0.23-0.42C311.09,408.64,311.18,408.78,311.12,408.67z"/>
								<path d="M310.19,407.52l-0.11-0.13c0.12,0.15,0.2,0.26,0.34,0.46c0.17,0.22,0.21,0.26,0.22,0.27
									c-0.15-0.23-0.32-0.45-0.49-0.66L310.19,407.52z"/>
								<path d="M309.56,406.85c0.11,0.07,0.39,0.36,0.24,0.17c-0.35-0.35-0.26-0.23-0.48-0.43
									C309.91,407.13,309.15,406.44,309.56,406.85c-0.13-0.12-0.22-0.21-0.32-0.29c0.11,0.1,0.2,0.19,0.29,0.28l-0.01-0.01l0,0
									l0,0c-0.02-0.03-0.03-0.03,0-0.01c0,0,0.01,0.01,0.01,0.01C309.54,406.83,309.55,406.84,309.56,406.85
									c0.16,0.16,0.02,0.03-0.03-0.02l-0.01,0l0,0c0.19,0.18,0.38,0.37,0.55,0.57C309.97,407.27,309.83,407.11,309.56,406.85z"/>
								<path d="M306.19,404.77c0.02,0.01,0.02,0.01,0.02,0.01C306.26,404.8,306.28,404.8,306.19,404.77z"/>
								<path d="M306.5,404.89c-0.06-0.02-0.1-0.02-0.28-0.08c-0.16-0.05,0-0.01,0-0.02c-0.11-0.03-0.39-0.1-0.05,0.01l0.05,0.01
									c0.31,0.1,0.68,0.27,0.63,0.26C306.77,405.02,306.7,404.97,306.5,404.89z"/>
								<path d="M308.17,405.7c0.19,0.11,0.38,0.23,0.56,0.36l-0.27-0.21l0.01,0.02C308.16,405.66,308.22,405.72,308.17,405.7z"/>
								<polygon points="310.7,408.24 310.63,408.18 310.86,408.48 								"/>
								<polygon points="311.13,408.98 311.1,408.96 311.21,409.16 								"/>
								<path d="M286.84,435.86l-0.19-0.05C286.73,435.83,286.79,435.85,286.84,435.86z"/>
								<path d="M288.24,436.14l0.04,0C288.21,436.13,288.19,436.13,288.24,436.14z"/>
								<path d="M311.7,430.02c-0.1,0.27-0.24,0.55-0.2,0.53l0.05-0.07C311.61,430.28,311.65,430.16,311.7,430.02z"/>
								<path d="M299.91,436.21l0.08,0.01c0.07-0.01,0.13-0.02,0.19-0.02C300.1,436.2,300.01,436.21,299.91,436.21z"/>
								<path d="M299.71,436.3l-0.38-0.01C299.44,436.3,299.55,436.3,299.71,436.3z"/>
								<path d="M281.09,430.89l-0.1-0.21C281.12,431.02,281.07,430.87,281.09,430.89z"/>
								<path d="M312.27,417.66c0,0.27,0,0.46,0,0.62C312.28,417.98,312.29,417.74,312.27,417.66z"/>
								<path d="M287.43,435.77c-0.12-0.02-0.17-0.03-0.17-0.02C287.39,435.78,287.46,435.78,287.43,435.77z"/>
								<path d="M312.28,418.99c0-0.05,0-0.09,0-0.13c0-0.19-0.01-0.37-0.01-0.58C312.26,418.5,312.26,418.75,312.28,418.99z"/>
								<path d="M285.83,404.89l0.06-0.02C285.89,404.87,285.87,404.88,285.83,404.89z"/>
								<path d="M293.99,404.29c-0.08,0-0.21,0-0.34,0.01C293.72,404.29,293.81,404.29,293.99,404.29z"/>
								<path d="M312.08,412.28C312.06,412.1,312.08,412.25,312.08,412.28L312.08,412.28z"/>
								<path d="M312.02,411.39c0.01,0.04,0.02,0.07,0.02,0.07C312.04,411.44,312.03,411.42,312.02,411.39z"/>
								<path d="M312.42,420.83l0,0.02C312.42,420.79,312.42,420.8,312.42,420.83z"/>
								<path d="M312.06,412.01c0.01,0.08,0.02,0.15,0.03,0.23C312.08,412.19,312.07,412.12,312.06,412.01z"/>
								<path d="M312.05,412.04c-0.01-0.06-0.02-0.11-0.02-0.16C312.02,411.86,312.03,411.88,312.05,412.04z"/>
								<path d="M312.12,412.53c-0.01-0.1-0.02-0.2-0.03-0.29c0,0.04,0,0.05,0,0.04C312.09,412.33,312.1,412.41,312.12,412.53z"/>
								<path d="M280.3,417.86c0-0.01,0-0.02,0-0.04C280.29,417.64,280.29,417.72,280.3,417.86z"/>
								<polygon points="309.3,434.09 309.32,434.08 309.3,434.1 								"/>
								<path d="M308.79,434.52c0.22-0.19,0.34-0.29,0.51-0.43l-0.21,0.1L308.79,434.52z"/>
								<path d="M283.75,434.37c0.12,0.1,0.24,0.2,0.37,0.29c-0.49-0.3-0.79-0.59-0.46-0.28c0.05,0,0.41,0.28,0.8,0.52
									c0.39,0.24,0.81,0.43,0.86,0.41l0.28,0.14c-0.08-0.03-0.1-0.04-0.18-0.07c0.55,0.26,0.43,0.14,1.16,0.39
									c0.26,0.08,0.44,0.14,0.26,0.1c0.2,0.05,0.39,0.09,0.59,0.12c0.17,0.04,0.13,0.04-0.04,0c0.3,0.06,0.6,0.11,0.9,0.15
									l-0.01,0c0.16,0.01,0.44,0.03,0.57,0.03c0.23,0.03-0.12,0-0.06,0.01l0.51,0.03c0.2,0.03-0.22,0.02-0.56-0.02
									c0.47,0.1,0.42,0.04,1.44,0.1l-0.48,0c0.31,0.05,0.68,0.03,1.21,0.07c-0.13-0.01-1.07-0.07-0.53-0.08
									c0.15,0.01,0.36,0.01,0.65,0c0,0.02,0.29,0.02,0.65,0.03l-0.03,0.03c0.39,0,0.36-0.02,0.59-0.03
									c0.43,0.01,0.52,0.03,0.63,0.06c0.7,0.02-0.48-0.05,0.34-0.04c0.58,0.02,0.98,0.01,1.68,0.01c0.4,0.02-0.07,0.02,0.07,0.03
									l0.36-0.02c0.09,0,0.06,0.01,0.04,0.01c0.3-0.01,0.03-0.03,0.5-0.03c0.13-0.02,0.98,0.05,1.56,0
									c0.15,0.01-0.07,0.02-0.03,0.03c0.75-0.04,0.6-0.03,1.35-0.07l0.56,0.01c-0.42-0.02,0.11-0.05,0.58-0.08
									c-0.15-0.01-0.29-0.02-0.36-0.02l0.74-0.03c0.09,0,0.02,0.02-0.11,0.03c0.05,0,0.1-0.01,0.14-0.01
									c0.27,0.01,0.13,0.03-0.06,0.05c-0.09,0-0.18-0.01-0.27-0.02c-0.18,0.02-0.35,0.04-0.31,0.06c0.07,0,0.16-0.01,0.24-0.01
									c-0.05,0.01-0.08,0.01-0.06,0.01c0.03,0,0.1-0.01,0.22-0.01l0.17,0.03l0.04-0.01l0.97,0.01c0.69-0.06,1.29-0.07,2.39-0.17
									c-0.27,0.05-0.06,0.05-0.07,0.08c-0.3,0-0.85,0.06-1.42,0.06c0.3,0,0.23,0.01,0.16,0.02c0.34-0.02,0.68-0.02,1.02-0.06
									c-0.02,0.02,0.22,0.01,0.48-0.01c-0.21-0.02,0.76-0.1,1.16-0.2c0.03,0.01-0.07,0.05-0.57,0.12
									c0.56-0.04,0.71-0.17,1.25-0.26c-0.12,0.03-0.19,0.04-0.23,0.06c0.28-0.07,0.96-0.26,0.81-0.2l-0.12,0.04
									c0.4-0.11,0.99-0.33,1.47-0.57c0.49-0.24,0.86-0.5,0.9-0.55c0.01,0-0.06,0.1-0.1,0.13c0.39-0.3,0.75-0.64,1.07-1.01
									c-0.07,0.11,0.35-0.16-0.14,0.31c0.15-0.13,0.34-0.28,0.62-0.59c-0.1,0.09-0.27,0.2-0.14,0.07
									c0.37-0.34,0.26-0.23,0.68-0.69c-0.13,0.15-0.03-0.05,0.16-0.31c-0.02,0.04,0.06,0.01,0,0.11c0.14-0.22,0.27-0.45,0.39-0.69
									c-0.09,0.17,0.02,0.05,0.12-0.09c-0.04,0.07,0.33-0.6,0.39-0.81l-0.15,0.3c0.37-0.81,0.28-0.84,0.54-1.68
									c-0.02,0.1,0,0.27,0.12-0.16c0.03-0.21,0.08-0.92,0.14-1.68l0.03-0.15l0.03-0.59c0.03,0.37,0.01,1.42-0.09,1.99
									c0.07-0.33,0.04-0.09,0.12-0.58c0.04-0.17-0.02,0.27-0.05,0.42c0.08-0.38,0.13-0.77,0.17-1.15c-0.03,0.05,0.04-0.89,0-0.85
									c-0.01,0.42-0.03,0.84-0.08,1.26c-0.04,0.05,0.01-0.73,0.03-1.55c0.02-0.21,0.06,0.16,0.07,0.14
									c-0.01-0.11-0.01-0.78,0-0.85l0.01,0.35c0.02-0.46-0.03-0.75,0.01-1.29c0-0.19,0.05-0.56,0.03-0.6
									c-0.04,0.31-0.16,0.36-0.18,0.16c0-0.06,0.05-0.89,0.07-1.21c0.03-0.31,0.06,0.47,0.09,0.2c-0.01-0.01-0.02-0.18-0.02-0.26
									c0.01-0.2,0.03,0.08,0.03-0.35c-0.03-0.07,0.02-0.88-0.02-0.2c0-0.42,0.01-0.45,0.02-0.94c-0.02,0.16-0.07-0.45-0.07-0.87
									c0.01,0.02,0.02-0.07,0.03-0.12c0.02-0.86,0.01-1.33,0-2.13c0.01-0.07,0.01-0.46,0.03-0.3c-0.01-0.12-0.02-0.22-0.02-0.47
									c0.02-0.48,0.01,0.55,0.04,0.19c-0.02-0.03-0.04-0.64-0.05-1c-0.03,0.11,0.01,0.82,0.02,1.17c-0.04,0-0.09-0.61-0.12-1.46
									c-0.02-0.67,0.02-0.29,0.01-0.41c-0.01-1.26-0.09-1.07-0.07-2.11c0.02-0.42,0.05-0.02,0.07-0.11c0.02,0.54,0,0.84,0,1.21
									l0.01-0.46c0.01,0.17,0.02,0.54,0.02,0.74c0-0.35,0.02-2.13-0.08-3.09c-0.02-0.17-0.07-0.46-0.07-0.32l0.04,0.3
									c0.01,0.28-0.09-0.57-0.06-0.18c-0.06-0.41-0.15-0.86-0.28-1.42l0-0.11c0,0.01,0.07,0.37,0.11,0.53
									c-0.05-0.23-0.16-0.87-0.29-1.11l0.1,0.39c-0.12-0.39-0.32-0.86-0.51-1.33c0.06,0.22,0.05,0.11,0.15,0.45
									c-0.05-0.31,0.41,1.23,0.3,0.74c0.06,0.37,0.15,0.62,0.21,1.11c0-0.02-0.01-0.17,0.06,0.25c0.01,0.03,0.02,0.07,0.02,0.09
									c0,0.01,0,0.02,0,0.03l0-0.02c0,0.02,0,0.02,0-0.01c-0.01-0.08-0.01-0.15-0.02-0.22c0.06,0.2,0.15,0.88,0.17,1.11
									c0.02,0.25-0.02-0.11-0.02,0.03l0.04,0.34c-0.02,0.04,0,0.68-0.04,0.08c0.01,0.18,0.02,0.36,0.02,0.54
									c-0.01,0.32-0.01,0.76,0.01,1.03c0,0.26,0.03,0.65,0.01,0.42l0.03,0.85l-0.01,0.01c0.01,0.84,0.06,1.73,0.04,2.69
									c0.01,0.3,0.01,0.57,0.02,1.05l-0.02,0.09c0.01,0.36-0.03,1.09-0.01,1.24c-0.06,0.39-0.04,1.76-0.05,2.4l0.02,0.02
									c0,0.43,0,0.84-0.01,1.41l0.02-0.03c0.01,0.47-0.03,1.21-0.05,1.95c0-0.05,0.01-0.24,0.01-0.37
									c-0.07,0.88-0.09,1.87-0.31,2.64c-0.04,0.2-0.08,0.33-0.12,0.47l0.01-0.05c-0.01,0.02-0.01,0.05-0.02,0.08
									c-0.03,0.08-0.06,0.17-0.09,0.26c0.03-0.09,0.06-0.17,0.08-0.22c-0.04,0.14-0.11,0.35-0.18,0.59l-0.05,0.08
									c-0.01,0.02-0.01,0.03-0.02,0.05c-0.09,0.21-0.05,0.17,0.01,0.07l-0.1,0.29c-0.1,0.15-0.23,0.55-0.38,0.75
									c-0.04,0.15-0.58,0.98-0.64,1.09c-0.01,0-0.05,0.05,0.02-0.04c-0.16,0.19-0.28,0.33-0.47,0.57l-0.1,0.06
									c-0.12,0.14-0.24,0.28-0.37,0.42c-0.26,0.22-0.37,0.3-0.14,0.06c-0.59,0.55-0.49,0.44-1.03,0.86l0.02-0.03
									c-0.2,0.14-0.54,0.35-0.68,0.4c-0.25,0.11-0.87,0.4-1.63,0.62c-0.76,0.22-1.65,0.36-2.36,0.4c0.28,0.04-0.66,0.02-0.71,0.06
									c-0.08-0.01-0.28-0.02-0.05-0.03c-0.73,0.02-1.09-0.01-1.59,0.04c-0.08-0.01,0.15-0.02,0.08-0.03
									c-0.06,0-0.23,0.01-0.31,0.01c-0.07-0.01,0.11-0.01,0.22-0.02c-0.74,0.01-0.82,0.05-0.87,0.09
									c-0.38-0.01-0.56-0.01-0.84,0.02c-0.13-0.01-0.35-0.02,0.11-0.03c-0.26,0-1.59,0-1.61,0.04c-0.08-0.01-0.36,0-0.43,0.01
									c-0.58,0.01-0.63,0.01-1.21,0.02l0.16,0c-0.23,0.04-0.48,0.01-0.94,0.01l0.01,0c-1.11-0.03-0.36-0.01-1.5-0.04l0.06,0.02
									c-0.1,0.05-0.92-0.04-1.53-0.03l0.22,0.02c-0.33,0.01-0.92-0.08-1.25-0.09c-0.07-0.01,0.11-0.01,0.22-0.01
									c-0.87-0.04-0.11,0.03-0.76,0.03c-0.12-0.02,0.16-0.04-0.28-0.05c-0.22-0.02-1.27,0.05-1.85-0.04
									c0.13,0.02,0.26,0.05-0.04,0.03c-0.46-0.03-1.22-0.2-1.63-0.25c-0.06-0.02-0.08-0.03-0.08-0.03
									c-0.35-0.06-1.1-0.29-1.3-0.35c-0.14-0.09-0.65-0.28-1.09-0.52c-0.45-0.23-0.82-0.5-0.8-0.52
									c-0.29-0.21-0.56-0.44-0.83-0.68l0.03,0.01c-0.49-0.48-0.65-0.66-0.82-0.84c-0.09-0.13-0.02-0.04-0.01-0.03
									c-0.59-0.81-0.63-0.9-1.03-1.64l-0.01-0.09c-0.12-0.2-0.52-1.36-0.69-2.33c0,0.01,0.01,0.03,0.03,0.1
									c-0.26-1.09-0.17-2.65-0.26-3.06l-0.03-0.74c0.01,0.95-0.04-0.14-0.05,0.25c-0.01-0.38,0.01-0.97,0.02-0.51l0,0.07
									c0.05,0.17,0-1.19,0.03-1.16c-0.03-1.88-0.05-3.71,0-5.46l-0.04,0.2l0.01-0.61c0.01-0.16,0.03-0.22,0.02,0.22
									c0.01-0.11,0.01-0.3,0-0.45c-0.01-0.16-0.01-0.29-0.02-0.29c0.03-0.86,0.04,0.34,0.04,0.07l0-0.36l-0.01,0.08
									c-0.01-0.29-0.02-0.32-0.02-0.84c0.01-0.33,0.02-0.17,0.03-0.3c0,0,0-0.04,0-0.2l0.01-0.77l-0.03,0.31
									c-0.01-0.34,0.01-0.73-0.02-0.37c0.03-0.26,0.03-0.98,0.07-1.67c0.04-0.69,0.14-1.35,0.17-1.51
									c0.06-0.47,0.16-0.94,0.34-1.49c-0.05,0.14-0.11,0.21,0.06-0.27c-0.01,0.19,0.35-0.86,0.6-1.19
									c-0.1,0.15,0.06-0.17,0.23-0.45c0.17-0.28,0.35-0.53,0.17-0.31c0.25-0.34,0.03-0.01,0.23-0.25c0.58-0.8,1.49-1.63,2.56-2.22
									c0.01-0.02-0.17,0.07,0.05-0.07c0.2-0.09,0.4-0.17,0.6-0.24c0.22-0.1,0.19-0.14,0.61-0.26c-0.06,0.01-0.15,0.04,0-0.02
									c2.3-0.82,4.9-0.65,7.35-0.65c-0.33-0.01-0.11-0.02,0.14-0.02c-0.17,0,0-0.02-0.03-0.03l1.03,0.02
									c0.19-0.03,1.11-0.02,1.22-0.05l-0.33,0.01c0.44-0.04-0.61-0.07-0.55-0.12c-0.49,0.05-1.29-0.04-2.09,0.03
									c-0.18-0.01,0.15-0.02,0.06-0.03c-0.2,0.02-0.45,0.03-0.9,0.03l0.05-0.01c-1.28,0.05-1.82-0.04-3.26,0.07l0.11,0.01
									c-0.26,0.02-0.36,0.03-0.52,0.04c-0.35,0.07,0.87-0.09,0.55-0.02c-0.21-0.01-0.75,0.05-1.27,0.14
									c-0.52,0.09-1.02,0.23-1.16,0.25c-0.46,0.14,0.14-0.02-0.31,0.13l-0.12,0.03l-0.11,0.06c-0.29,0.11-0.45,0.15-0.46,0.15
									c0.07-0.03,0.2-0.09,0.27-0.12c-0.39,0.12-1.05,0.48-1.17,0.55c0.14-0.07,0.27-0.14,0.41-0.21
									c-1.19,0.57-2.41,1.67-3.09,2.73l0.06-0.07c-0.51,0.82-0.45,0.64-0.87,1.6l0.01-0.04c-0.09,0.26-0.17,0.49-0.26,0.74
									c0.07-0.26-0.17,0.47-0.08,0.13c-0.26,1.01-0.13,0.5-0.23,1.18l-0.05,0.15c-0.03,0.31-0.04,0.37-0.08,0.77
									c0.04-0.43-0.07,0.33-0.03-0.15c-0.17,1.1-0.07,1.64-0.14,2.14c0.04,0.51,0.04-0.95,0.05-0.67
									c0.02-0.24,0.03,0.42,0.02,0.76c-0.01,0.35-0.07,0.59-0.08,1.48c0-0.08,0-0.1,0-0.18c-0.02,0.33,0.01,0.65-0.02,1.05
									c0.03,0.23-0.01,0.53,0.03,0.59l0-0.81c0,0.46,0.04,0.89,0.01,1.65c0-0.11-0.01-0.31-0.02-0.44
									c-0.01,0.3-0.01,0.35-0.01,0.65c-0.04-0.07,0.01-0.98-0.02-1.48c-0.02,0.24,0.01,0.93-0.02,0.68
									c0.05,0.36-0.02,0.87,0.01,1.47l-0.02-0.04c0,0.1,0,0.32,0.01,0.46l-0.02-0.32c0.02,0.48-0.04,0.93-0.01,1.4
									c-0.01-0.97,0.02-0.22,0.04-0.63c0.04,1.2-0.05,0.69-0.02,2.03c-0.01-0.18,0-0.68,0.02-0.4c0,0.22-0.01,0.51-0.01,0.75
									c0.02,0.89,0.02-0.14,0.04,0.24c-0.02,0.3,0.02,0.44,0.03,0.83l-0.02,0c0,1.01,0.05,0.27,0.05,1.18l-0.04-0.38l0.02,0.48
									l-0.03-0.1c0.03,0.52,0.02,0.68,0.02,1.19c0.01-0.12,0.04,0.06,0.05,0.51c-0.01,0.31-0.03-0.17-0.01,0.47
									c-0.02-0.14-0.04-0.3-0.02-0.58c-0.01-0.06-0.02-0.12-0.02-0.17c-0.01,0.33,0.01,0.83,0.03,1.06c0-0.08-0.01-0.17-0.01-0.25
									c0.02,0.31,0.06,0.62,0.1,0.92c0.01,0.15-0.01,0.03-0.03-0.08c0.02,0.17,0.05,0.35,0.09,0.59c-0.03-0.07-0.05-0.05-0.1-0.44
									c0.04,0.29,0.09,0.59,0.14,0.88c0,0.06,0.06,0.45,0.04,0.34c0.08,0.49,0.33,1.17,0.56,1.78c0.03,0.06,0.06,0.12,0.1,0.22
									c0.24,0.56,0.49,1.06,0.95,1.63l0.23,0.35c0.38,0.43-0.34-0.45,0.3,0.26c0.47,0.48,0.15,0.2,0.31,0.38
									c0.25,0.22,0.7,0.59,1.2,0.95C284.03,434.58,283.9,434.49,283.75,434.37z M290.37,436.28c-0.13,0-0.4,0.01-0.5,0
									C290.02,436.25,290.14,436.27,290.37,436.28z M300.93,436.24c-0.1,0.01-0.25,0.01-0.43,0
									C300.63,436.24,300.74,436.24,300.93,436.24z M312.22,414.28l0,0.01C312.22,414.6,312.22,414.49,312.22,414.28z
									 M312.23,413.66c0-0.06-0.01-0.06-0.01-0.03c0.01,0.04,0.01,0.18,0.01,0.34C312.23,413.93,312.23,413.85,312.23,413.66z
									 M280.48,415.9l-0.01,0.12C280.47,415.74,280.48,415.82,280.48,415.9z"/>
								<path d="M299.74,436.29c-0.04,0-0.05-0.01-0.06-0.01C299.63,436.28,299.62,436.29,299.74,436.29z"/>
								<polygon points="281.11,430.93 281.1,430.91 281.09,430.89 								"/>
								<path d="M312.47,423.31c-0.01,0.1-0.01,0.18-0.02,0.25C312.46,423.57,312.47,423.51,312.47,423.31z"/>
								<path d="M311.69,410.44l0.11,0.38c-0.04-0.16-0.06-0.24-0.09-0.34C311.71,410.48,311.72,410.56,311.69,410.44z"/>
								<path d="M310.2,407.36c-0.05-0.06-0.07-0.08-0.12-0.13l0,0.02C310.25,407.43,310.36,407.56,310.2,407.36z"/>
								<path d="M311.65,410.07c0.01-0.04-0.08-0.27-0.19-0.53l0.02,0.05C311.42,409.52,311.54,409.79,311.65,410.07z"/>
								<path d="M311.43,409.48c-0.04-0.08-0.07-0.16-0.1-0.24C311.31,409.22,311.37,409.34,311.43,409.48z"/>
								<path d="M312.16,412.88c-0.01-0.13-0.03-0.08-0.03-0.15C312.1,412.58,312.23,413.59,312.16,412.88z"/>
								<polygon points="311.63,409.83 311.64,409.94 311.71,410.08 								"/>
								<path d="M312.16,411.97l-0.07-0.44c0,0.01-0.02-0.05-0.03-0.12C312.11,411.69,312.15,411.99,312.16,411.97z"/>
								<path d="M312.06,411.42c-0.03-0.14-0.06-0.27-0.08-0.35C311.99,411.14,312.03,411.29,312.06,411.42z"/>
								<polygon points="311.83,410.41 311.87,410.54 311.95,410.84 								"/>
								<path d="M312.35,416.77l0.01,0.49c0.01,0.05,0.01-0.08,0.01-0.27C312.36,416.87,312.36,416.69,312.35,416.77z"/>
								<path d="M312.39,415.29c0,0.13-0.01,0.14-0.02,0.22l0.03,0.01L312.39,415.29z"/>
								<path d="M312.42,416.71c0.01,0.05,0.03,0.71,0.02,0.09C312.44,416.75,312.42,416.27,312.42,416.71z"/>
								<polygon points="312.38,424.07 312.38,423.94 312.33,423.96 								"/>
								<path d="M311.8,430.52c0.2-0.55,0.02-0.14,0.19-0.64c0.03-0.13-0.13,0.41-0.1,0.27
									C311.78,430.49,311.71,430.66,311.8,430.52z"/>
								<path d="M311.88,430.15c0.01-0.05,0.03-0.11,0.05-0.17C311.9,430.06,311.89,430.11,311.88,430.15z"/>
								<polygon points="295.35,404.3 295.72,404.3 295.48,404.29 								"/>
								<path d="M296.06,404.25l0.09,0.03l0.22-0.03C296.29,404.25,296.13,404.26,296.06,404.25z"/>
								<path d="M291.4,436.35l0.03-0.01c-0.06-0.01-0.14-0.01-0.32-0.01L291.4,436.35z"/>
								<polygon points="286.37,435.75 286.46,435.78 286.31,435.7 								"/>
								<path d="M282.73,433.53c0.12,0.13,0.27,0.27,0.4,0.39C282.85,433.66,282.73,433.47,282.73,433.53z"/>
							</g>
						</g>
					</g>
					<g>
						<g>
							<g>
								<path d="M296.26,406.94c0.14,0,0.09-0.02,0.11-0.02C296.14,406.92,296.27,406.94,296.26,406.94z"/>
								<polygon points="293.97,407.02 294.01,407.01 293.68,407.03 								"/>
								<path d="M291.83,407.05c0.2,0.03,0.78-0.02,1.16-0.01l0.06,0.01l0.17-0.03C292.76,407.03,292.16,407.05,291.83,407.05z"/>
								<path d="M290.68,406.99c0.07,0.01-0.25,0.02,0.27,0c-0.02,0-0.03,0-0.05,0C290.86,406.99,290.79,406.99,290.68,406.99z"/>
								<path d="M290.9,406.99C291.13,406.98,290.75,406.98,290.9,406.99L290.9,406.99z"/>
								<path d="M289.86,407.01l0.3-0.02c-0.06-0.01-0.33,0-0.23-0.01C289.62,407,289.68,407.01,289.86,407.01z"/>
								<path d="M289.58,407.05l0.15-0.01C289.71,407.04,289.66,407.04,289.58,407.05z"/>
								<path d="M290.06,407.02c-0.11,0-0.22,0.01-0.33,0.02c0.04,0,0.05,0.01,0.15-0.01C289.86,407.04,289.92,407.03,290.06,407.02
									z"/>
								<path d="M290.25,407.02c0.17,0.01,0.38,0.01,0.08,0.02C290.9,407.03,290.81,407.01,290.25,407.02z"/>
								<path d="M291.72,407.09l0.22,0.01l0.19-0.01C292.04,407.09,291.71,407.08,291.72,407.09z"/>
								<path d="M288,407.22c-0.02,0.01,0.1,0,0.13,0l0.22-0.05C288.23,407.19,288.02,407.22,288,407.22z"/>
								<path d="M288.13,407.22l-0.32,0.08C288.09,407.24,288.15,407.23,288.13,407.22z"/>
								<path d="M289.53,407.1c0.18-0.02,0.36-0.04,0.54-0.05c-0.21,0.01-0.43,0.03-0.64,0.06L289.53,407.1z"/>
								<polygon points="286.77,407.59 286.95,407.5 286.64,407.65 								"/>
								<path d="M286.01,407.96c0.12-0.09-0.18,0.08-0.06,0c-0.2,0.12-0.36,0.25-0.49,0.37
									C285.61,408.21,285.77,408.09,286.01,407.96z"/>
								<path d="M285.24,408.54c0.06-0.05,0.14-0.13,0.22-0.21C285.38,408.4,285.31,408.46,285.24,408.54z"/>
								<path d="M287.25,407.45c-0.03,0-0.08,0.01-0.26,0.07l0.13-0.02C287.17,407.48,287.21,407.47,287.25,407.45z"/>
								<path d="M287.13,407.49L287.13,407.49c-0.14,0.05-0.23,0.08-0.27,0.1C286.9,407.58,286.98,407.55,287.13,407.49z"/>
								<path d="M287.29,407.44l-0.03,0.01C287.27,407.45,287.27,407.45,287.29,407.44z"/>
								<path d="M288.66,407.16c-0.19,0.04-0.59,0.12-0.2,0.07C288.6,407.2,288.38,407.22,288.66,407.16z"/>
								<path d="M287.45,407.42l0.34-0.09c-0.01,0-0.07,0,0.02-0.02L287.45,407.42z"/>
								<polygon points="287.29,407.48 287.45,407.42 287.32,407.46 								"/>
								<path d="M285.74,408.17c-0.17,0.14-0.27,0.22-0.4,0.32c0.16-0.13,0.33-0.26,0.49-0.37
									C285.85,408.11,285.92,408.05,285.74,408.17z"/>
								<path d="M286.4,407.79l-0.03,0.02C286.38,407.8,286.4,407.8,286.4,407.79z"/>
								<polygon points="284.13,409.92 284.15,409.89 284.15,409.88 								"/>
								<path d="M285.86,408.11c0.12-0.07,0.17-0.11,0.28-0.18c-0.1,0.06-0.2,0.13-0.31,0.19
									C285.82,408.14,285.82,408.14,285.86,408.11z"/>
								<path d="M284.87,408.91l0.2-0.18C285.01,408.77,284.89,408.88,284.87,408.91z"/>
								<path d="M286.32,407.83l0.02-0.01C286.29,407.84,286.3,407.84,286.32,407.83z"/>
								<path d="M286.32,407.83c-0.05,0.03-0.11,0.07-0.17,0.11l0.22-0.12C286.35,407.82,286.33,407.82,286.32,407.83z"/>
								<path d="M284,410.47c-0.01-0.03,0.14-0.4,0.34-0.68c0.17-0.29,0-0.15-0.19,0.09c0,0.01,0,0.01-0.15,0.33
									c0.05-0.11,0.41-0.66,0.27-0.4c-0.18,0.32-0.19,0.33-0.3,0.52c0.09-0.16-0.2,0.55-0.12,0.47l0.14-0.37
									C284,410.44,283.95,410.57,284,410.47z"/>
								<path d="M284.53,409.34l0.09-0.11c-0.08,0.09-0.16,0.19-0.32,0.39c-0.13,0.21-0.14,0.26-0.15,0.27
									c0.12-0.21,0.26-0.4,0.41-0.59L284.53,409.34z"/>
								<path d="M285.06,408.75c-0.07,0.09-0.3,0.35-0.14,0.21c0.19-0.2,0.23-0.25,0.38-0.4
									C284.8,409.03,285.43,408.42,285.06,408.75c0.1-0.1,0.19-0.18,0.27-0.26c-0.09,0.08-0.18,0.15-0.27,0.23l0.01-0.01l0,0l0,0
									c0.02-0.02,0.03-0.02,0.01,0l-0.01,0.01C285.08,408.73,285.07,408.74,285.06,408.75c-0.14,0.14-0.03,0.02,0.02-0.03l0-0.01
									l0,0c-0.16,0.16-0.32,0.33-0.46,0.51C284.71,409.11,284.83,408.98,285.06,408.75z"/>
								<path d="M288.12,407.34c-0.02,0-0.02,0-0.02,0C288.05,407.35,288.04,407.36,288.12,407.34z"/>
								<path d="M287.84,407.39c0.05-0.01,0.08-0.03,0.24-0.06c0.14-0.02,0,0.01,0.01,0.02c0.09-0.03,0.33-0.08,0.03-0.03
									l-0.05,0.01c-0.27,0.04-0.61,0.12-0.57,0.1C287.59,407.42,287.66,407.41,287.84,407.39z"/>
								<path d="M286.35,407.88c-0.17,0.09-0.33,0.19-0.49,0.29l0.25-0.14l-0.02,0C286.38,407.89,286.32,407.91,286.35,407.88z"/>
								<path d="M284.09,409.97l0.02-0.08c-0.05,0.1-0.09,0.2-0.13,0.31L284.09,409.97z"/>
								<polygon points="283.78,410.64 283.77,410.61 283.71,410.8 								"/>
								<path d="M304.34,433.01l0.16-0.03C304.44,432.99,304.39,433,304.34,433.01z"/>
								<path d="M303.17,433.14l-0.03,0.01C303.2,433.14,303.22,433.14,303.17,433.14z"/>
								<path d="M283.4,428.51c0.03,0.24,0.07,0.51,0.09,0.48l0-0.08C283.44,428.75,283.42,428.62,283.4,428.51z"/>
								<path d="M293.41,433.32l-0.07-0.01c-0.06,0.01-0.11,0.01-0.16,0.02C293.25,433.33,293.33,433.32,293.41,433.32z"/>
								<path d="M293.58,433.24l0.32,0.02C293.81,433.25,293.71,433.24,293.58,433.24z"/>
								<path d="M308.93,429.13l0.03-0.19C308.88,429.22,308.93,429.1,308.93,429.13z"/>
								<path d="M283.14,418.07c-0.01,0.24-0.01,0.39-0.02,0.52C283.13,418.34,283.15,418.14,283.14,418.07z"/>
								<path d="M303.91,433.3c0.1-0.02,0.14-0.03,0.14-0.03C303.95,433.28,303.89,433.29,303.91,433.3z"/>
								<path d="M283.11,419.19c0-0.04,0-0.07,0.01-0.11c0-0.16,0-0.31,0-0.49C283.1,418.77,283.1,418.98,283.11,419.19z"/>
								<path d="M305.19,407.61c-0.02-0.01-0.03-0.01-0.05-0.02C305.13,407.59,305.16,407.6,305.19,407.61z"/>
								<path d="M298.38,406.99c0.07,0,0.18,0,0.28,0C298.6,406.99,298.53,406.99,298.38,406.99z"/>
								<path d="M283.19,413.54C283.2,413.38,283.19,413.51,283.19,413.54L283.19,413.54z"/>
								<path d="M283.34,412.79c0,0.03,0,0.06,0,0.06C283.34,412.84,283.33,412.82,283.34,412.79z"/>
								<path d="M283.23,420.73c0,0,0,0.01,0,0.01C283.23,420.69,283.23,420.7,283.23,420.73z"/>
								<path d="M283.22,413.31l-0.02,0.2C283.2,413.47,283.21,413.41,283.22,413.31z"/>
								<path d="M283.2,413.34c0-0.05,0.01-0.1,0.01-0.14C283.21,413.18,283.21,413.2,283.2,413.34z"/>
								<path d="M283.18,413.76c0.01-0.09,0.01-0.17,0.01-0.25c0,0.03,0,0.04-0.01,0.03C283.19,413.59,283.19,413.65,283.18,413.76z
									"/>
								<path d="M309.44,418.24c0-0.01,0-0.02,0-0.03C309.43,418.05,309.43,418.12,309.44,418.24z"/>
								<polygon points="285.54,431.82 285.52,431.81 285.54,431.83 								"/>
								<path d="M285.98,432.13c-0.21-0.11-0.31-0.19-0.44-0.3l0.1,0.16C285.76,432.04,285.87,432.09,285.98,432.13z"/>
								<path d="M306.93,432.01c-0.11,0.07-0.22,0.13-0.33,0.19c0.37-0.26,0.62-0.47,0.33-0.28c0,0.04-0.3,0.26-0.63,0.43
									c-0.33,0.17-0.68,0.29-0.69,0.33l-0.24,0.07c0.06-0.02,0.08-0.03,0.15-0.05c-0.48,0.12-0.33,0.17-0.96,0.29
									c-0.22,0.04-0.37,0.05-0.23,0.02l-0.49,0.09c-0.14,0.01-0.11,0,0.03-0.02c-0.25,0.03-0.5,0.06-0.75,0.07l0.01,0
									c-0.11,0.02-0.35,0.05-0.47,0.05c-0.19-0.01,0.1-0.01,0.05-0.02l-0.42,0.02c-0.17-0.01,0.18-0.04,0.47-0.04
									c-0.4-0.06-0.35,0.02-1.2,0l0.4-0.01c-0.26-0.03-0.57-0.02-1.02-0.03c0.11,0.01,0.9,0.05,0.45,0.07c-0.13,0-0.3,0-0.55,0.01
									c0-0.02-0.24-0.01-0.55-0.01l0.02-0.03c-0.33,0.01-0.3,0.03-0.49,0.05c-0.36,0-0.44-0.02-0.53-0.04
									c-0.58,0,0.4,0.03-0.29,0.05c-0.48,0-0.82,0.01-1.4,0.04c-0.34-0.01,0.06-0.02-0.06-0.03l-0.3,0.03
									c-0.07,0-0.05-0.01-0.04-0.01c-0.25,0.01-0.02,0.03-0.42,0.05c-0.11,0.04-0.82-0.05-1.31-0.02
									c-0.12-0.01,0.06-0.02,0.02-0.03c-0.68,0.02-0.58,0.01-1.13,0.04l-0.47-0.03c0.35,0.03-0.1,0.05-0.49,0.07
									c0.13,0.01,0.24,0.02,0.3,0.03l-0.62,0.01c-0.07-0.01-0.01-0.02,0.09-0.03c-0.04,0-0.08,0-0.11,0.01
									c-0.22-0.01-0.11-0.03,0.05-0.05c0.07,0.01,0.15,0.01,0.22,0.02c0.15-0.02,0.3-0.04,0.27-0.05c-0.06,0-0.13,0-0.2,0.01
									c0.04,0,0.07-0.01,0.05-0.01c-0.02,0-0.09,0-0.19,0.01l-0.14-0.04l-0.03,0.01l-0.81-0.03c-0.58,0.03-1.09,0.07-2.01,0.07
									c0.23-0.02,0.05-0.04,0.06-0.07c0.25,0.04,0.71,0,1.19,0.01c-0.25-0.01-0.19-0.02-0.13-0.02l-0.85,0.02
									c0.02-0.02-0.18-0.02-0.4-0.03c0.17,0.06-0.64,0.02-0.98-0.01c-0.02-0.02,0.06-0.02,0.48,0.01
									c-0.46-0.07-0.6,0.01-1.05-0.08c0.1,0.01,0.16,0.02,0.2,0.02c-0.24-0.01-0.81-0.13-0.68-0.12l0.1,0.02
									c-0.68-0.09-1.96-0.63-2.05-0.68c0-0.01,0.1,0,0.14,0.01c-0.37-0.15-0.73-0.35-1.07-0.6c0.1,0.04-0.15-0.29,0.29,0.07
									c-0.13-0.12-0.22-0.21-0.51-0.48c0.07,0.08,0.16,0.23,0.05,0.13c-0.25-0.33-0.19-0.22-0.48-0.64
									c0.09,0.13-0.07,0.03-0.21-0.2c0.03,0.03,0.03-0.05,0.09,0.03c-0.13-0.17-0.26-0.35-0.37-0.54
									c0.08,0.14,0.05,0.01,0.01-0.13c0.01,0.07-0.22-0.51-0.27-0.68l0.08,0.26c-0.23-0.69-0.3-0.67-0.44-1.39
									c0.03,0.09,0.1,0.2,0.05-0.16c-0.05-0.16-0.24-0.73-0.28-1.39l0.01-0.13l-0.03-0.5c0.04,0.31,0.15,1.18,0.25,1.64
									c-0.02-0.27,0.01-0.08-0.03-0.49c0-0.15,0.04,0.22,0.05,0.34c-0.03-0.32-0.05-0.64-0.05-0.96c-0.03,0.04-0.04-0.74-0.07-0.7
									c0.02,0.35,0.02,0.7,0.06,1.05c-0.04,0.05-0.11-0.6-0.11-1.29c0.01-0.17,0.06,0.13,0.07,0.11
									c-0.01-0.09-0.03-0.65-0.02-0.71l0.02,0.29c0.01-0.38-0.05-0.62-0.03-1.08c0-0.16,0.03-0.47,0.02-0.5
									c-0.03,0.26-0.15,0.31-0.18,0.14c0-0.05,0.03-0.73,0.04-1.01c0.03-0.26,0.07,0.39,0.1,0.17c-0.01-0.01-0.02-0.15-0.03-0.21
									c0.01-0.17,0.03,0.07,0.02-0.29c-0.03-0.06-0.01-0.73-0.03-0.17c-0.01-0.35,0-0.38-0.01-0.79
									c-0.02,0.13-0.08-0.37-0.09-0.73c0.01,0.02,0.02-0.06,0.02-0.1c-0.01-0.72,0.02-1.11,0.03-1.79
									c0.01-0.06,0.02-0.39,0.04-0.25c0-0.1-0.01-0.19-0.01-0.39c0.03-0.4,0,0.46,0.04,0.16c-0.02-0.03-0.02-0.54-0.03-0.84
									c-0.03,0.09-0.02,0.69-0.01,0.98c-0.04,0-0.08-0.52-0.08-1.22c0-0.56,0.03-0.24,0.03-0.34c0.02-1.05-0.06-0.9-0.02-1.77
									c0.03-0.35,0.05-0.01,0.07-0.09c0,0.46-0.03,0.7-0.03,1.01l0.02-0.38c0.01,0.15,0.01,0.45,0,0.62
									c0.03-0.29,0.03-1.78,0.06-2.59c-0.01-0.14,0-0.39-0.02-0.28l-0.01,0.26c-0.03,0.24-0.01-0.49-0.03-0.16
									c0-0.35,0.01-0.74,0.09-1.22l0.04-0.09c-0.01,0.01-0.06,0.31-0.07,0.45c0.01-0.21,0.14-0.73,0.15-0.96l-0.09,0.33
									c0.04-0.35,0.11-0.78,0.26-1.19c-0.09,0.18-0.03,0.1-0.15,0.38c0.09-0.25-0.25,1.09-0.11,0.68
									c-0.1,0.31-0.11,0.54-0.18,0.95c0.01-0.01,0.03-0.14-0.01,0.22c0,0.03,0,0.06,0,0.08c0,0.01,0,0.01,0,0.02l0-0.02
									c0,0.02,0,0.02,0-0.01c0.01-0.09,0.02-0.16,0.03-0.18c0,0.18-0.03,0.76-0.01,0.95c-0.01,0.21-0.01-0.09-0.02,0.03l0.01,0.29
									c-0.02,0.03-0.04,0.57-0.05,0.06l-0.01,0.46c-0.02,0.27-0.03,0.64-0.02,0.86c-0.01,0.21,0.02,0.54,0,0.36l0,0.71l-0.01,0.01
									c-0.01,0.7,0.01,1.45-0.04,2.25c0,0.24,0.01,0.48-0.01,0.88l-0.02,0.08c0,0.3-0.01,0.91,0.01,1.04
									c-0.05,0.33,0.01,1.48,0.01,2.01l0.02,0.02c0.01,0.35,0.02,0.7,0.03,1.18l0.02-0.03c0.02,0.39,0,1.01,0.01,1.64
									c-0.01-0.04-0.01-0.2-0.01-0.31c-0.04,0.75,0.05,1.57,0.11,2.25c0.03,0.2,0.04,0.27,0.06,0.41c0-0.01-0.01-0.03-0.01-0.04
									c0,0.02,0.01,0.04,0.01,0.07c0.01,0.08,0.02,0.16,0.03,0.23c-0.01-0.08-0.02-0.15-0.03-0.2c0.02,0.13,0.07,0.32,0.12,0.51
									l0,0.09c0,0.02,0.01,0.03,0.01,0.04c0.04,0.19,0.05,0.15,0.04,0.04c0.03,0.08,0.06,0.16,0.09,0.24
									c0.01,0.16,0.18,0.48,0.23,0.69c0.05,0.12,0.46,0.88,0.58,0.92c0,0.01,0.03,0.06-0.03-0.03c0.12,0.18,0.26,0.35,0.39,0.49
									l0.04,0.09c0.12,0.11,0.24,0.21,0.36,0.31c0.2,0.21,0.29,0.29,0.06,0.12c0.56,0.42,0.45,0.35,0.97,0.63l-0.03,0
									c0.18,0.1,0.5,0.22,0.61,0.28c0.21,0.11,0.76,0.31,1.42,0.43c0.66,0.12,1.42,0.19,2.02,0.2c-0.23-0.06,0.55,0.03,0.6-0.01
									c0.07,0.01,0.24,0.02,0.04,0.03c0.61,0,0.92,0.03,1.34,0c0.07,0.01-0.13,0.02-0.07,0.03c0.05,0,0.19-0.01,0.26,0
									c0.06,0.01-0.09,0.01-0.19,0.01c0.62,0.01,0.69-0.03,0.73-0.07c0.32,0.02,0.47,0.02,0.7,0c0.11,0.01,0.29,0.03-0.09,0.03
									c0.22,0,1.33,0.04,1.35,0.01c0.07,0.01,0.3,0.01,0.36,0c0.49,0.01,0.53,0.01,1.01,0.02l-0.13-0.01
									c0.19-0.03,0.4-0.01,0.79-0.02l-0.01,0c0.89,0.01,0.38-0.02,1.26,0l-0.05-0.02c0.08-0.05,0.78,0.02,1.28-0.01l-0.18-0.01
									c0.28-0.02,0.78,0.06,1.06,0.06c0.06,0-0.1,0.01-0.18,0.01c0.73,0.02,0.09-0.03,0.64-0.05c0.1,0.01-0.13,0.04,0.24,0.04
									c0.18,0.01,1.06-0.07,1.56-0.04c-0.11-0.01-0.22-0.02,0.03-0.03c0.39,0,1.05,0,1.4-0.09c0.05,0,0.07,0,0.07,0
									c0.3-0.04,0.95-0.19,1.12-0.26c0.14,0,0.59-0.14,0.98-0.33c0.39-0.18,0.72-0.41,0.73-0.38c0.26-0.17,0.5-0.36,0.72-0.58
									l-0.01,0.02c0.43-0.4,0.54-0.59,0.65-0.76c0.09-0.11,0.03-0.02,0.03-0.01c0.5-0.7,0.51-0.81,0.74-1.48l0.05-0.06
									c0.07-0.18,0.39-1.19,0.42-2.03c0,0.01,0,0.03,0,0.09c0.07-0.94,0.13-2.24,0.06-2.59l-0.01-0.62
									c-0.02,0.8-0.04-0.12-0.05,0.21c0-0.31,0.04-0.81,0.04-0.43l-0.01,0.06c0.04,0.14,0.03-0.99,0.06-0.97
									c0.02-1.57,0.08-3.11,0.04-4.59l-0.03,0.17l-0.01-0.51c0.01-0.14,0.02-0.18,0.03,0.19c0.02-0.19-0.03-0.62-0.03-0.63
									c0-0.72,0.04,0.28,0.04,0.06l-0.01-0.3l0,0.07c-0.02-0.24-0.03-0.26-0.04-0.7c0-0.28,0.02-0.14,0.02-0.25c0,0,0-0.04,0-0.17
									l-0.01-0.65l-0.02,0.26c-0.02-0.29-0.01-0.61-0.03-0.31c0.04-0.44,0-2.42-0.04-2.69c-0.06-0.4-0.1-0.8-0.21-1.28
									c0.02,0.12,0.01,0.2-0.08-0.22c0.11,0.13-0.17-0.76-0.29-1.09c0.05,0.15-0.07-0.13-0.2-0.38c-0.13-0.25-0.29-0.47-0.17-0.25
									c-0.19-0.31,0.01-0.03-0.13-0.27c-0.51-0.68-1.24-1.46-2.23-1.87c-0.02,0,0.14,0.08-0.07,0.01
									c-0.16-0.09-0.33-0.17-0.5-0.24c-0.2-0.06-0.2-0.02-0.56-0.14c0.05,0.02,0.13,0.05-0.01,0.02c-1-0.27-2.06-0.31-3.1-0.31
									c-1.05-0.01-2.1-0.03-3.13-0.08c0.28,0.02,0.09,0.02-0.12,0.02c0.14,0.01,0,0.02,0.02,0.03l-0.87-0.04
									c-0.16,0.03-0.93-0.01-1.02,0.02l0.27,0c-0.37,0.03,0.51,0.09,0.46,0.13c0.41-0.03,1.08,0.08,1.75,0.03
									c0.15,0.01-0.13,0.01-0.05,0.02c0.17-0.02,0.38-0.02,0.76,0l-0.04,0c1.04,0.03,1.53,0.04,2.73,0.07l-0.09-0.02
									c0.26,0.01,0.31,0.01,0.43,0.03c0.3-0.03-0.72-0.02-0.45-0.05c0.34,0.02,1.81,0.13,2.02,0.25c0.38,0.08-0.11-0.05,0.28,0.03
									l0.1,0.04l0.1,0.01c0.25,0.07,0.36,0.13,0.37,0.14c-0.06-0.02-0.17-0.05-0.23-0.07c0.32,0.1,0.88,0.31,0.98,0.36l-0.34-0.16
									c1.02,0.34,2.02,1.25,2.57,2.12l-0.03-0.07c0.4,0.68,0.3,0.56,0.61,1.37l-0.01-0.03c0.06,0.16,0.13,0.39,0.18,0.62
									c-0.06-0.21,0.06,0.41-0.01,0.13c0.12,0.59,0.08,0.36,0.2,0.97l-0.01,0.13c0.03,0.19,0.05,0.21,0.07,0.64
									c-0.03-0.36-0.01,0.28-0.05-0.12c-0.01,0.92,0.06,1.36,0.01,1.79c0.06,0.42,0.02-0.8,0.03-0.56
									c0.01-0.2,0.04,0.35,0.04,0.64c0,0.29-0.06,0.5-0.04,1.24c0-0.07,0-0.09-0.01-0.15c-0.01,0.28,0.02,0.54,0.01,0.88
									c0.03,0.19,0,0.44,0.04,0.49l-0.02-0.68c0.02,0.38,0.07,0.74,0.05,1.38c-0.01-0.05-0.02-0.24-0.03-0.37
									c0,0.27,0,0.27,0,0.55c-0.04-0.05-0.02-0.82-0.06-1.23c-0.01,0.2,0.04,0.78-0.01,0.57c0.06,0.3,0,0.73,0.05,1.23l-0.02-0.03
									c0,0.09,0.01,0.27,0.02,0.39l-0.03-0.26c0.03,0.4-0.01,0.78,0,1.17c0.01-0.81,0.03-0.18,0.05-0.53
									c0.02,1-0.07,0.58-0.07,1.7c0-0.15,0.02-0.57,0.03-0.33c-0.01,0.21-0.02,0.5-0.03,0.63c-0.01,0.74,0.03-0.11,0.03,0.2
									c-0.03,0.25,0.01,0.37,0.01,0.69l-0.02,0c-0.03,0.85,0.05,0.23,0.02,0.99l-0.03-0.32l0,0.4l-0.03-0.08
									c0.01,0.43,0.01,0.57-0.01,0.99c0.02-0.1,0.04,0.06,0.04,0.43c-0.02,0.26-0.02-0.14-0.02,0.39c-0.01-0.12-0.03-0.25,0-0.48
									l-0.02-0.14c-0.02,0.28-0.01,0.69-0.02,0.89c0-0.07,0.01-0.14,0.01-0.21l0.02,0.77c-0.01,0.12-0.02,0.02-0.02-0.07
									c0,0.16,0.01,0.26-0.01,0.49c-0.01-0.06-0.03-0.05-0.03-0.37c0,0.24-0.01,0.49-0.03,0.73c-0.01,0.05-0.06,0.37-0.06,0.27
									c-0.06,0.4-0.1,0.98-0.28,1.49c0,0.03-0.02,0.08-0.05,0.19c-0.17,0.47-0.36,0.87-0.67,1.37c-0.07,0.08-0.15,0.17-0.23,0.25
									c-0.29,0.36,0.33-0.32-0.16,0.28c-0.37,0.4-0.16,0.13-0.3,0.26c-0.18,0.2-0.51,0.55-0.96,0.77
									C306.7,432.17,306.81,432.1,306.93,432.01z M301.4,433.19c0.11-0.01,0.34-0.02,0.42-0.01
									C301.69,433.21,301.59,433.2,301.4,433.19z M292.56,433.26c0.08-0.01,0.21,0,0.36,0.01
									C292.81,433.27,292.72,433.27,292.56,433.26z M283.18,415.24l0,0.01C283.17,415.5,283.17,415.41,283.18,415.24z
									 M283.2,414.71c0-0.05-0.01-0.05-0.01-0.03c0.01,0.04,0,0.15,0,0.29C283.19,414.94,283.2,414.87,283.2,414.71z
									 M309.57,416.59l0,0.1C309.56,416.46,309.56,416.53,309.57,416.59z"/>
								<path d="M293.56,433.25c0.03,0,0.04,0.01,0.05,0.01C293.65,433.26,293.65,433.25,293.56,433.25z"/>
								<polygon points="308.92,429.16 308.93,429.14 308.93,429.13 								"/>
								<path d="M283.35,422.81c0,0.08-0.01,0.14-0.01,0.21C283.35,423.02,283.35,422.97,283.35,422.81z"/>
								<path d="M283.37,411.93l-0.05,0.34c0.03-0.16,0.04-0.22,0.06-0.3C283.37,411.98,283.35,412.04,283.37,411.93z"/>
								<path d="M284.68,409.33c0.04-0.05,0.05-0.06,0.1-0.12l-0.02,0C284.62,409.38,284.54,409.5,284.68,409.33z"/>
								<path d="M283.52,411.64c0.03-0.02,0.07-0.23,0.13-0.46l-0.01,0.04C283.63,411.15,283.57,411.4,283.52,411.64z"/>
								<path d="M283.67,411.14c0.02-0.07,0.05-0.14,0.07-0.21C283.74,410.9,283.7,411.01,283.67,411.14z"/>
								<path d="M283.19,414.05c0.01-0.11-0.02-0.07-0.02-0.13C283.15,413.79,283.2,414.66,283.19,414.05z"/>
								<polygon points="283.63,411.47 283.58,411.55 283.57,411.68 								"/>
								<path d="M283.32,413.3l0.04-0.37c0,0.01,0-0.04,0-0.1C283.33,413.06,283.31,413.31,283.32,413.3z"/>
								<path d="M283.36,412.83c0.01-0.11,0.02-0.2,0.03-0.3C283.39,412.59,283.37,412.72,283.36,412.83z"/>
								<polygon points="283.52,411.97 283.49,412.08 283.45,412.34 								"/>
								<path d="M283.24,417.33l0,0.41c0.01,0.04,0.01-0.07,0.01-0.22C283.25,417.42,283.25,417.26,283.24,417.33z"/>
								<path d="M283.32,416.09c-0.01,0.11-0.01,0.12-0.02,0.18l0.03,0.01L283.32,416.09z"/>
								<path d="M283.31,417.28c0.01,0.04,0.02,0.59,0.02,0.08C283.32,417.32,283.32,416.91,283.31,417.28z"/>
								<polygon points="283.28,423.44 283.28,423.34 283.23,423.35 								"/>
								<path d="M283.73,428.82c-0.1-0.47-0.06-0.1-0.13-0.53c-0.03-0.11,0.06,0.35,0.02,0.24
									C283.69,428.81,283.73,428.95,283.73,428.82z"/>
								<path d="M283.62,428.53c-0.01-0.04-0.02-0.09-0.04-0.14C283.6,428.45,283.61,428.49,283.62,428.53z"/>
								<polygon points="297.23,406.95 296.92,406.93 297.12,406.95 								"/>
								<path d="M296.64,406.98l-0.07-0.03l-0.19,0.03C296.45,406.97,296.58,406.97,296.64,406.98z"/>
								<path d="M300.53,433.14l-0.02,0.01c0.05,0.01,0.12,0.01,0.27,0.01L300.53,433.14z"/>
								<polygon points="304.72,432.91 304.65,432.92 304.78,432.92 								"/>
								<path d="M307.68,431.26c-0.1,0.1-0.21,0.22-0.32,0.32C307.59,431.37,307.73,431.26,307.68,431.26z"/>
							</g>
						</g>
					</g>
				</g>
			</g>
			<g id="XMLID_00000181805334375119842210000015824912358816271525_">
				<path d="M296.37,411.97c-4.55,0-8.24,3.69-8.24,8.24s3.69,8.24,8.24,8.24c4.55,0,8.24-3.69,8.24-8.24
					S300.93,411.97,296.37,411.97 M296.37,425.56c-2.95,0-5.35-2.4-5.35-5.35c0-2.95,2.39-5.35,5.35-5.35
					c2.95,0,5.35,2.39,5.35,5.35C301.72,423.17,299.33,425.56,296.37,425.56"/>
				<g>
					<path class="st0" d="M296.37,411.97c-4.55,0-8.24,3.69-8.24,8.24s3.69,8.24,8.24,8.24c4.55,0,8.24-3.69,8.24-8.24
						S300.93,411.97,296.37,411.97 M296.37,425.56c-2.95,0-5.35-2.4-5.35-5.35c0-2.95,2.39-5.35,5.35-5.35
						c2.95,0,5.35,2.39,5.35,5.35C301.72,423.17,299.33,425.56,296.37,425.56"/>
					<g>
						<g>
							<g>
								<path d="M296.41,425.68c-0.05,0-0.03,0.02-0.04,0.02C296.46,425.69,296.41,425.67,296.41,425.68z"/>
								<polygon points="297.24,425.56 297.23,425.57 297.34,425.53 								"/>
								<path d="M298,425.39c-0.08-0.01-0.27,0.08-0.41,0.1l-0.02,0l-0.05,0.04C297.67,425.48,297.88,425.41,298,425.39z"/>
								<path d="M298.41,425.31c-0.03,0,0.08-0.04-0.09,0.03c0.01,0,0.01,0,0.02,0C298.35,425.33,298.37,425.33,298.41,425.31z"/>
								<path d="M298.34,425.34C298.26,425.37,298.39,425.33,298.34,425.34L298.34,425.34z"/>
								<path d="M298.69,425.18l-0.09,0.06c0.02,0,0.11-0.04,0.08-0.02C298.77,425.16,298.75,425.17,298.69,425.18z"/>
								<path d="M298.77,425.12l-0.05,0.03C298.73,425.14,298.74,425.14,298.77,425.12z"/>
								<path d="M298.62,425.21l0.1-0.06c-0.02,0-0.02-0.01-0.05,0.03C298.68,425.16,298.66,425.18,298.62,425.21z"/>
								<path d="M298.55,425.23c-0.06,0.02-0.13,0.04-0.04-0.01C298.32,425.3,298.36,425.31,298.55,425.23z"/>
								<path d="M298.02,425.34c-0.03,0.01-0.05,0.01-0.08,0.02l-0.06,0.03C297.91,425.37,298.03,425.35,298.02,425.34z"/>
								<path d="M299.29,424.87c0-0.01-0.04,0-0.05,0l-0.06,0.05C299.21,424.9,299.28,424.87,299.29,424.87z"/>
								<path d="M299.24,424.87l0.1-0.07C299.24,424.85,299.23,424.87,299.24,424.87z"/>
								<polygon points="298.77,425.07 298.6,425.18 298.8,425.06 								"/>
								<polygon points="299.67,424.61 299.63,424.67 299.71,424.57 								"/>
								<path d="M299.91,424.42c-0.03,0.04,0.07-0.03,0.03,0.01c0.06-0.06,0.11-0.12,0.15-0.17
									C300.04,424.32,299.99,424.37,299.91,424.42z"/>
								<path d="M300.16,424.19c-0.02,0.02-0.04,0.05-0.07,0.08C300.11,424.25,300.14,424.22,300.16,424.19z"/>
								<path d="M299.5,424.69c0.01,0,0.03,0,0.09-0.04l-0.05,0.01L299.5,424.69z"/>
								<path d="M299.54,424.66L299.54,424.66c0.04-0.03,0.07-0.05,0.08-0.06C299.61,424.61,299.59,424.63,299.54,424.66z"/>
								<path d="M299.49,424.7L299.49,424.7C299.5,424.69,299.5,424.69,299.49,424.7z"/>
								<path d="M299.05,424.94c0.05-0.05,0.17-0.13,0.04-0.07C299.06,424.91,299.14,424.88,299.05,424.94z"/>
								<path d="M299.43,424.71l-0.11,0.06c0.01,0,0.03,0,0,0.02L299.43,424.71z"/>
								<polygon points="299.48,424.67 299.43,424.71 299.47,424.68 								"/>
								<path d="M299.98,424.32c0.03-0.04,0.08-0.08,0.13-0.13c-0.07,0.06-0.12,0.1-0.17,0.14
									C299.94,424.34,299.92,424.37,299.98,424.32z"/>
								<path d="M299.77,424.49L299.77,424.49C299.77,424.49,299.77,424.49,299.77,424.49z"/>
								<polygon points="300.57,423.71 300.56,423.71 300.56,423.72 								"/>
								<path d="M299.93,424.34c-0.04,0.03-0.06,0.06-0.08,0.09c0.04-0.04,0.07-0.06,0.09-0.09
									C299.95,424.33,299.94,424.33,299.93,424.34z"/>
								<path d="M300.29,424.05c-0.03,0.02-0.05,0.04-0.07,0.06C300.24,424.1,300.28,424.06,300.29,424.05z"/>
								<path d="M299.8,424.48L299.8,424.48C299.81,424.48,299.81,424.48,299.8,424.48z"/>
								<path d="M299.8,424.48c0.01-0.01,0.03-0.03,0.05-0.05c-0.02,0.02-0.04,0.04-0.07,0.06L299.8,424.48z"/>
								<path d="M300.59,423.47c0.01,0.02-0.06,0.15-0.16,0.22c-0.07,0.1,0.03,0.08,0.13,0.03c0-0.01-0.01-0.01,0.06-0.12
									c-0.03,0.03-0.2,0.2-0.14,0.11c0.1-0.13,0.09-0.1,0.15-0.16c-0.06,0.04,0.1-0.19,0.05-0.18l-0.08,0.12
									C300.59,423.48,300.62,423.44,300.59,423.47z"/>
								<path d="M300.4,423.89l-0.03,0.04c0.04-0.04,0.08-0.07,0.14-0.12c0.05-0.07,0.06-0.09,0.06-0.1l-0.17,0.19L300.4,423.89z"/>
								<path d="M300.21,424.1c0.02-0.04,0.09-0.14,0.03-0.1c-0.1,0.11-0.06,0.09-0.12,0.15
									C300.29,423.98,300.07,424.21,300.21,424.1c-0.05,0.05-0.07,0.07-0.1,0.09c0.03-0.02,0.06-0.05,0.1-0.08l-0.01,0l0,0l0,0
									c-0.01,0.01-0.01,0.01,0,0l0,0C300.2,424.11,300.21,424.1,300.21,424.1c0.06-0.04,0.01,0,0,0.01l0,0l0,0
									c0.06-0.06,0.11-0.12,0.16-0.19C300.31,423.98,300.29,424.01,300.21,424.1z"/>
								<path d="M299.18,424.77C299.19,424.76,299.19,424.77,299.18,424.77C299.21,424.76,299.21,424.75,299.18,424.77z"/>
								<path d="M299.28,424.72c-0.01,0.01-0.02,0.03-0.07,0.05c-0.05,0.02-0.01-0.01-0.01-0.01c-0.03,0.02-0.1,0.08,0,0.03
									l0.01-0.01c0.09-0.04,0.21-0.09,0.2-0.08C299.37,424.7,299.34,424.71,299.28,424.72z"/>
								<path d="M299.76,424.43c0.05-0.04,0.1-0.09,0.15-0.14l-0.09,0.06l0.01,0C299.74,424.42,299.76,424.41,299.76,424.43z"/>
								<path d="M300.6,423.7l0,0.03c0.02-0.03,0.03-0.08,0.05-0.11L300.6,423.7z"/>
								<polygon points="300.75,423.48 300.76,423.5 300.8,423.44 								"/>
								<path d="M293.71,415.71l-0.05,0.03L293.71,415.71z"/>
								<path d="M294.08,415.51l0.01-0.01C294.07,415.51,294.06,415.52,294.08,415.51z"/>
								<path d="M301.02,417.34c-0.03-0.08-0.06-0.18-0.07-0.16l0,0.03C300.98,417.26,301,417.3,301.02,417.34z"/>
								<path d="M297.43,414.97l0.02,0.01l0.06-0.01C297.48,414.97,297.46,414.97,297.43,414.97z"/>
								<path d="M297.35,415.05l-0.11-0.03L297.35,415.05z"/>
								<path d="M292.08,417.26l-0.02,0.07C292.11,417.24,292.08,417.28,292.08,417.26z"/>
								<path d="M301.78,420.99c0.02-0.11,0.03-0.15,0.04-0.19C301.79,420.89,301.76,420.96,301.78,420.99z"/>
								<path d="M293.74,415.43c-0.03,0.02-0.04,0.04-0.04,0.04C293.74,415.45,293.75,415.43,293.74,415.43z"/>
								<path d="M301.83,420.59c0,0.02,0,0.03-0.01,0.04c0,0.06,0,0.11-0.01,0.18C301.84,420.74,301.84,420.66,301.83,420.59z"/>
								<path d="M293.45,424.55l0.01,0.01C293.46,424.56,293.46,424.55,293.45,424.55z"/>
								<path d="M295.65,425.6c-0.03,0-0.07-0.01-0.1-0.01C295.58,425.59,295.58,425.59,295.65,425.6z"/>
								<path d="M301.32,422.57C301.29,422.62,301.31,422.58,301.32,422.57L301.32,422.57z"/>
								<path d="M301.12,422.78c0-0.01,0-0.02,0-0.02C301.13,422.76,301.13,422.77,301.12,422.78z"/>
								<path d="M301.71,420.03L301.71,420.03C301.71,420.04,301.71,420.04,301.71,420.03z"/>
								<path d="M301.27,422.64c0.01-0.02,0.03-0.05,0.04-0.06C301.3,422.6,301.29,422.62,301.27,422.64z"/>
								<path d="M301.28,422.64c-0.01,0.02-0.02,0.03-0.02,0.04C301.26,422.69,301.26,422.68,301.28,422.64z"/>
								<path d="M301.35,422.5c-0.01,0.03-0.02,0.05-0.04,0.08c0.01-0.01,0.01-0.01,0.01-0.01
									C301.32,422.56,301.33,422.53,301.35,422.5z"/>
								<path d="M291.14,420.9c0,0,0,0.01,0,0.01C291.16,420.97,291.15,420.95,291.14,420.9z"/>
								<polygon points="299.94,416.37 299.95,416.37 299.94,416.36 								"/>
								<path d="M299.79,416.25c0.08,0.04,0.11,0.07,0.15,0.12l-0.01-0.09L299.79,416.25z"/>
								<path d="M292.91,416.3l0.11-0.08c-0.1,0.13-0.19,0.2-0.08,0.14c-0.04-0.07,0.4-0.34,0.38-0.4l0.08-0.04l-0.04,0.04
									c0.16-0.08,0.08-0.11,0.28-0.23c0.07-0.04,0.12-0.06,0.08-0.02l0.14-0.1c0.04-0.02,0.04-0.01,0,0.02
									c0.08-0.05,0.16-0.08,0.24-0.12l0,0c0.04-0.03,0.11-0.08,0.14-0.1c0.07-0.02-0.03,0.02-0.01,0.02l0.13-0.08
									c0.06-0.01-0.05,0.05-0.14,0.1c0.15,0,0.1-0.07,0.4-0.14l-0.13,0.06c0.1,0,0.19-0.05,0.35-0.08c-0.04,0-0.31,0.05-0.17-0.02
									c0.04-0.01,0.1-0.03,0.18-0.07c0.01,0.02,0.09,0,0.19-0.03l0,0.03c0.11-0.04,0.1-0.05,0.16-0.08c0.12-0.03,0.15-0.01,0.19,0
									c0.2-0.03-0.15-0.02,0.09-0.06c0.17-0.01,0.28-0.05,0.49-0.08c0.12,0-0.02,0.02,0.02,0.03l0.1-0.03
									c0.03,0,0.02,0.01,0.01,0.01c0.09-0.01,0.01-0.03,0.15-0.05c0.04-0.04,0.29,0.04,0.46,0.02c0.04,0.01-0.02,0.02-0.01,0.03
									c0.24-0.01,0.2-0.01,0.4-0.02l0.16,0.05c-0.12-0.04,0.04-0.04,0.18-0.05c-0.04-0.02-0.08-0.03-0.1-0.04
									c0.07,0.01,0.15,0.01,0.22,0.03c0.03,0.01,0,0.02-0.04,0.02l0.04,0c0.07,0.03,0.03,0.04-0.03,0.04l-0.07-0.04
									c-0.06,0.01-0.11,0.02-0.1,0.04c0.01,0,0.04,0,0.07,0c-0.01,0-0.02,0.01-0.02,0.01c0.01,0.01,0.03,0,0.07,0l0.04,0.05
									l0.01-0.01l0.27,0.09c0.21,0.01,0.39,0.04,0.7,0.14c-0.08-0.01-0.03,0.03-0.05,0.06c-0.07-0.06-0.24-0.08-0.4-0.14
									c0.08,0.03,0.06,0.04,0.04,0.04l0.29,0.08c-0.02,0.02,0.05,0.04,0.12,0.08c-0.03-0.07,0.21,0.07,0.33,0.11
									c0,0.02-0.03,0.02-0.17-0.05c0.13,0.11,0.22,0.04,0.34,0.15c-0.03-0.02-0.05-0.03-0.06-0.03c0.08,0.03,0.25,0.15,0.2,0.14
									l-0.03-0.02c0.21,0.12,0.6,0.43,0.66,0.41c0,0.01-0.05,0.02-0.07,0.01l0.41,0.19c-0.05,0,0,0.16-0.16,0.04
									c0.04,0.04,0.09,0.09,0.18,0.17c-0.02-0.03-0.03-0.11,0.01-0.07c0.07,0.14,0.05,0.09,0.15,0.25
									c-0.03-0.05,0.05-0.04,0.11,0.03c-0.02-0.01-0.04,0.04-0.06,0.02c0.07,0.04,0.13,0.09,0.19,0.14
									c-0.04-0.04-0.04,0.02-0.02,0.07c-0.01-0.03,0.12,0.16,0.16,0.21l-0.05-0.09c0.15,0.21,0.21,0.17,0.35,0.39
									c-0.03-0.02-0.1-0.03-0.04,0.08c0.06,0.03,0.25,0.17,0.37,0.38l0.01,0.05c0.03,0.05,0.06,0.1,0.09,0.16
									c-0.08-0.09-0.3-0.33-0.4-0.47c0.03,0.09,0,0.03,0.06,0.16c0.01,0.05-0.05-0.06-0.07-0.1l0.14,0.31
									c0.03-0.03,0.14,0.22,0.15,0.2c-0.05-0.11-0.12-0.22-0.18-0.32c0.02-0.03,0.19,0.15,0.26,0.38
									c0.01,0.06-0.07-0.02-0.08-0.01c0.02,0.03,0.1,0.21,0.1,0.23l-0.05-0.09c0.04,0.13,0.12,0.19,0.13,0.36
									c0.01,0.05,0,0.17,0.02,0.18c0.01-0.1,0.12-0.14,0.16-0.09c0,0.02,0.04,0.3,0.02,0.37c-0.01,0.1-0.09-0.13-0.1-0.04
									c0.01,0,0.03,0.05,0.03,0.07c0,0.06-0.03-0.02-0.01,0.11c0.04,0.02,0.04,0.26,0.04,0.06c0.03,0.12,0.02,0.13,0.03,0.28
									c0.02-0.05,0.08,0.13,0.09,0.25c-0.01-0.01-0.02,0.02-0.02,0.04c0.02,0.26-0.03,0.4-0.03,0.64
									c-0.01,0.02-0.03,0.14-0.04,0.09c0,0.03,0.01,0.07,0,0.14c-0.05,0.14,0.02-0.16-0.03-0.06c0.02,0.01,0,0.19-0.01,0.3
									c0.03-0.03,0.04-0.24,0.05-0.35c0.04,0,0.05,0.19,0.03,0.45c-0.03,0.2-0.04,0.08-0.04,0.12c-0.11,0.36,0,0.34-0.13,0.63
									c-0.07,0.11-0.05-0.01-0.08,0.01c0.05-0.16,0.1-0.23,0.12-0.34l-0.05,0.13c0-0.05,0.03-0.16,0.05-0.22
									c-0.04,0.1-0.18,0.61-0.33,0.86c-0.01,0.05-0.05,0.13-0.02,0.1l0.04-0.08c0.06-0.07-0.05,0.17,0.01,0.07
									c-0.05,0.12-0.07,0.26-0.18,0.4l-0.04,0.01c0.01,0,0.08-0.09,0.09-0.14c-0.03,0.07-0.17,0.21-0.18,0.3l0.08-0.09
									c-0.05,0.11-0.1,0.27-0.21,0.39c0.07-0.04,0.02-0.03,0.11-0.1c-0.09,0.06,0.21-0.34,0.09-0.23
									c0.09-0.08,0.12-0.16,0.22-0.28c-0.01,0-0.04,0.04,0.02-0.08c0-0.01,0-0.02,0-0.03l0-0.01l0,0.01c0-0.01,0-0.01,0,0
									c-0.02,0.03-0.03,0.05-0.04,0.05c0.01-0.07,0.1-0.26,0.12-0.32c0.04-0.07,0,0.03,0.02,0c0.01-0.03,0.02-0.07,0.03-0.1
									c0.02,0,0.1-0.18,0.05,0l0.06-0.16c0.04-0.09,0.1-0.21,0.11-0.29c0.02-0.07,0.03-0.2,0.03-0.13l0.05-0.26l0.01,0
									c0.06-0.25,0.07-0.52,0.13-0.81c0-0.09,0-0.18,0.01-0.32l0.02-0.03c0-0.11,0.01-0.33-0.01-0.38
									c0.06-0.12-0.04-0.54-0.07-0.73l-0.03,0c-0.02-0.13-0.07-0.26-0.12-0.41l-0.02,0.02c-0.04-0.14-0.1-0.36-0.18-0.57
									c0.01,0.01,0.03,0.07,0.04,0.11c-0.04-0.28-0.26-0.51-0.34-0.74c-0.04-0.05-0.06-0.09-0.08-0.13c0,0,0,0.01,0.01,0.01
									l-0.01-0.02c-0.01-0.03-0.02-0.05-0.03-0.08c0.01,0.03,0.02,0.05,0.03,0.07c-0.02-0.03-0.05-0.08-0.11-0.16l0-0.04
									c0-0.01,0-0.01-0.01-0.01c-0.03-0.06-0.04-0.04-0.03,0c-0.02-0.03-0.05-0.05-0.06-0.07c0-0.07-0.12-0.14-0.13-0.22
									c-0.04-0.03-0.23-0.27-0.29-0.27c0-0.01-0.01-0.02,0.02,0.01c-0.05-0.06-0.1-0.12-0.15-0.17l0-0.04
									c-0.05-0.03-0.1-0.07-0.15-0.09c-0.06-0.08-0.09-0.12,0-0.07c-0.21-0.14-0.16-0.13-0.34-0.24l0.02-0.01
									c-0.06-0.04-0.17-0.1-0.2-0.14c-0.1-0.14-0.69-0.47-1.07-0.67c0.06,0.08-0.18-0.1-0.21-0.06c-0.02-0.02-0.07-0.05,0-0.04
									c-0.21-0.06-0.31-0.14-0.47-0.14c-0.02-0.02,0.05-0.01,0.03-0.02c-0.02,0-0.07-0.01-0.09-0.02c-0.02-0.01,0.03,0,0.07,0
									c-0.22-0.05-0.25-0.02-0.28,0.01c-0.11-0.05-0.16-0.06-0.25-0.04c-0.04-0.02-0.1-0.04,0.04-0.02
									c-0.08-0.01-0.47-0.09-0.49-0.06c-0.02-0.01-0.11-0.01-0.13-0.01c-0.18-0.01-0.19-0.01-0.37-0.02l0.05,0.01
									c-0.07,0.03-0.14,0.01-0.28,0.02l0,0c-0.32-0.01-0.14,0.01-0.45,0.02l0.02,0.02c-0.02,0.05-0.28,0.01-0.46,0.06l0.07,0
									c-0.09,0.03-0.29,0-0.39,0.02c-0.02,0,0.03-0.02,0.06-0.03c-0.27,0.04-0.03,0.04-0.22,0.09c-0.04,0,0.03-0.05-0.1-0.02
									c-0.07,0.01-0.35,0.18-0.53,0.22c0.04-0.01,0.08-0.01,0,0.04c-0.12,0.07-0.37,0.12-0.46,0.22c-0.02,0.01-0.03,0-0.03,0
									c-0.09,0.06-0.29,0.2-0.33,0.25c-0.13-0.01-0.51,0.42-0.55,0.38l-0.24,0.23l0-0.01c-0.16,0.14-0.19,0.22-0.23,0.28
									c-0.04,0.03-0.02,0-0.02,0c-0.22,0.21-0.23,0.25-0.35,0.48l-0.04,0.01c-0.04,0.06-0.28,0.35-0.4,0.63c0,0,0-0.01,0.01-0.03
									c-0.14,0.31-0.39,0.72-0.35,0.87c-0.02,0.07-0.03,0.15-0.04,0.22c0.08-0.28,0.03,0.05,0.07-0.06
									c-0.02,0.11-0.1,0.28-0.07,0.14l0.01-0.02c-0.03-0.06-0.11,0.34-0.13,0.33c-0.11,0.56-0.14,1.12-0.1,1.66l0.03-0.06
									l0.02,0.18c0,0.05-0.02,0.07-0.04-0.06c-0.01,0.07,0.05,0.22,0.06,0.22c0.03,0.26-0.06-0.09-0.04-0.02l0.02,0.11l0-0.03
									c0.03,0.08,0.03,0.09,0.08,0.25c0.02,0.1-0.01,0.06,0,0.09c0,0,0,0.01,0.01,0.06l0.06,0.23l0-0.1
									c0.04,0.1,0.06,0.21,0.06,0.1c-0.01,0.17,0.29,0.82,0.34,0.91c0.16,0.26,0.18,0.29,0.25,0.4c-0.02-0.04-0.01-0.08,0.07,0.05
									c-0.09-0.01,0.13,0.25,0.18,0.37c-0.05-0.1,0.28,0.34,0.2,0.17c0.08,0.1-0.01,0.02,0.04,0.1c0.22,0.21,0.45,0.5,0.76,0.73
									c0.01,0-0.03-0.05,0.04-0.01l0.13,0.15c0.06,0.04,0.08,0.01,0.18,0.1c-0.01-0.02-0.03-0.04,0.01-0.02
									c0.6,0.44,1.36,0.66,2.08,0.85c-0.1-0.03-0.03-0.02,0.05-0.01c-0.05-0.01,0-0.02,0-0.03c0.1,0.02,0.2,0.06,0.31,0.08
									c0.06-0.03,0.34,0.01,0.37-0.01l-0.1,0c0.13-0.03-0.18-0.09-0.16-0.13c-0.15,0.04-0.37-0.11-0.61-0.08
									c-0.05-0.02,0.05-0.01,0.02-0.02c-0.06,0.01-0.13,0-0.26-0.05l0.02,0c-0.37-0.08-0.51-0.16-0.9-0.33l0.02,0.03
									c-0.08-0.04-0.09-0.06-0.13-0.08c-0.11-0.01,0.23,0.11,0.13,0.11c-0.09-0.09-0.58-0.28-0.61-0.38
									c-0.12-0.07,0.02,0.04-0.1-0.03l-0.02-0.03l-0.04,0c-0.08-0.05-0.1-0.1-0.1-0.11c0.02,0.01,0.05,0.04,0.07,0.05
									c-0.08-0.08-0.27-0.19-0.3-0.22l0.1,0.09c-0.32-0.21-0.64-0.55-0.9-0.81l0.01,0.03c-0.2-0.2-0.13-0.19-0.32-0.42l0.01,0.01
									c-0.05-0.04-0.09-0.11-0.14-0.18c0.05,0.06-0.06-0.14,0.01-0.06c-0.17-0.25-0.1-0.12-0.23-0.28l0-0.05
									c-0.04-0.05-0.05-0.06-0.13-0.19c0.07,0.11-0.02-0.1,0.06,0.02c-0.11-0.3-0.22-0.43-0.22-0.59c-0.1-0.12,0.07,0.27,0.03,0.2
									c0.01,0.07-0.08-0.1-0.11-0.2c-0.04-0.1,0.01-0.19-0.06-0.44c0,0.01,0.01,0.04,0.02,0.05c-0.01-0.1-0.07-0.18-0.07-0.3
									c-0.04-0.06-0.02-0.15-0.06-0.17l0.04,0.24c-0.03-0.13-0.09-0.25-0.11-0.48c0.01,0.02,0.03,0.08,0.04,0.13
									c0-0.07-0.03-0.12-0.02-0.19c0.03,0.02,0.05,0.29,0.1,0.43c0.01-0.07-0.07-0.27-0.02-0.2c-0.07-0.1-0.03-0.25-0.07-0.43
									l0.02,0.01c0-0.03-0.02-0.08-0.02-0.14l0.03,0.09c-0.03-0.14,0-0.27,0-0.41c-0.01,0.28-0.03,0.06-0.05,0.18
									c-0.02-0.35,0.07-0.2,0.08-0.59c0,0.05-0.02,0.2-0.03,0.11c0-0.07,0.03-0.17,0.05-0.22c0.03-0.26-0.03,0.04-0.03-0.07
									c0.04-0.08,0.01-0.13,0.02-0.24l0.02,0c0.07-0.29-0.03-0.09,0.05-0.35l0,0.12l0.03-0.14l0.02,0.03
									c0.02-0.15,0.03-0.2,0.09-0.34c-0.03,0.03-0.03-0.03,0.01-0.16c0.04-0.08,0,0.05,0.06-0.12c0,0.05,0,0.09-0.05,0.16
									c0,0.01,0,0.04,0,0.05c0.05-0.09,0.09-0.23,0.11-0.29c-0.01,0.02-0.01,0.03-0.03,0.07c0.02-0.09,0.05-0.18,0.08-0.26
									c0.03-0.03,0.02,0,0.01,0.03c0.01-0.03,0.05-0.12,0.06-0.16c0.01,0.03,0.03,0.03-0.01,0.14l0.09-0.24
									c0.01-0.01,0.08-0.11,0.07-0.07c0.08-0.11,0.15-0.32,0.26-0.47c0-0.01,0.01-0.03,0.03-0.06c0.11-0.14,0.21-0.26,0.34-0.43
									l0.11-0.07c0.1-0.13-0.14,0.09,0.04-0.12c0.12-0.15,0.07-0.03,0.12-0.08c0.06-0.08,0.16-0.22,0.31-0.32
									C292.99,416.24,292.95,416.26,292.91,416.3z M294.65,415.27c-0.04,0.02-0.1,0.06-0.14,0.06
									C294.54,415.28,294.58,415.28,294.65,415.27z M297.71,415.09c-0.03,0-0.07-0.02-0.12-0.04
									C297.63,415.06,297.67,415.07,297.71,415.09z M301.53,421.99L301.53,421.99C301.57,421.9,301.56,421.93,301.53,421.99z
									 M301.46,422.17c0,0.02,0,0.02,0.01,0.01c0-0.01,0.01-0.05,0.03-0.1C301.49,422.09,301.47,422.11,301.46,422.17z
									 M291.1,421.51l0-0.04C291.12,421.56,291.11,421.53,291.1,421.51z"/>
								<path d="M297.36,415.04c-0.01-0.01-0.01-0.01-0.01-0.01C297.33,415.03,297.33,415.03,297.36,415.04z"/>
								<polygon points="292.08,417.25 292.08,417.26 292.08,417.26 								"/>
								<path d="M301.55,419.3c0-0.04,0-0.06,0-0.07C301.54,419.23,301.54,419.25,301.55,419.3z"/>
								<path d="M301.04,423.09l0.06-0.11c-0.03,0.05-0.05,0.07-0.06,0.09C301.04,423.07,301.06,423.06,301.04,423.09z"/>
								<path d="M300.3,423.84c-0.02,0.03-0.01,0.01-0.03,0.04l0.01,0C300.32,423.83,300.35,423.79,300.3,423.84z"/>
								<path d="M300.92,423.15c-0.02,0-0.05,0.07-0.1,0.14c0,0,0-0.01,0.01-0.01C300.84,423.31,300.88,423.23,300.92,423.15z"/>
								<path d="M300.81,423.3c-0.02,0.02-0.03,0.04-0.05,0.06C300.76,423.38,300.78,423.34,300.81,423.3z"/>
								<path d="M301.38,422.4c-0.02,0.03,0.01,0.03-0.01,0.05C301.38,422.5,301.46,422.19,301.38,422.4z"/>
								<polygon points="300.83,423.17 300.87,423.16 300.87,423.1 								"/>
								<path d="M301.17,422.6l-0.06,0.12c0,0,0,0.02-0.01,0.04C301.14,422.68,301.18,422.6,301.17,422.6z"/>
								<path d="M301.1,422.76c-0.01,0.03-0.02,0.04-0.05,0.1C301.06,422.83,301.09,422.79,301.1,422.76z"/>
								<polygon points="300.92,423.01 300.94,422.98 301,422.9 								"/>
								<path d="M301.65,421.24l0.02-0.15c-0.01-0.02-0.02,0.02-0.02,0.08C301.64,421.21,301.63,421.26,301.65,421.24z"/>
								<path d="M301.48,421.65c0.01-0.04,0.02-0.04,0.03-0.06l-0.03-0.01L301.48,421.65z"/>
								<path d="M301.57,421.24c-0.01-0.02,0.01-0.21-0.02-0.03C301.56,421.23,301.54,421.37,301.57,421.24z"/>
								<polygon points="301.59,419.07 301.59,419.1 301.64,419.09 								"/>
								<path d="M300.74,417.36c0.08,0.15,0.05,0.02,0.11,0.16c0.03,0.03-0.05-0.11-0.03-0.08
									C300.77,417.35,300.74,417.3,300.74,417.36z"/>
								<path d="M300.83,417.43c0.01,0.01,0.02,0.02,0.03,0.04C300.85,417.45,300.84,417.44,300.83,417.43z"/>
								<polygon points="296.06,425.66 296.17,425.68 296.1,425.66 								"/>
								<path d="M296.28,425.64l0.03,0.03l0.07-0.02C296.35,425.64,296.3,425.65,296.28,425.64z"/>
								<path d="M294.95,415.23L294.95,415.23c-0.01-0.01-0.04-0.01-0.09,0L294.95,415.23z"/>
								<polygon points="293.61,415.81 293.63,415.8 293.58,415.8 								"/>
								<path d="M292.68,416.6c0.03-0.04,0.07-0.08,0.11-0.11C292.71,416.56,292.64,416.59,292.68,416.6z"/>
							</g>
						</g>
					</g>
					<g>
						<g>
							<g>
								<path d="M296.43,412.09c-0.08-0.01-0.05,0.02-0.06,0.02C296.5,412.11,296.43,412.09,296.43,412.09z"/>
								<polygon points="297.68,412.16 297.66,412.16 297.84,412.17 								"/>
								<path d="M298.82,412.41c-0.1-0.06-0.41-0.1-0.61-0.17l-0.03-0.02l-0.1,0C298.32,412.3,298.65,412.36,298.82,412.41z"/>
								<path d="M299.38,412.7c-0.03-0.03,0.13,0.04-0.13-0.05c0.01,0.01,0.02,0.01,0.02,0.01
									C299.29,412.67,299.32,412.68,299.38,412.7z"/>
								<path d="M299.27,412.66C299.15,412.62,299.34,412.69,299.27,412.66L299.27,412.66z"/>
								<path d="M299.79,412.87l-0.15-0.06c0.03,0.02,0.15,0.09,0.1,0.07C299.89,412.94,299.87,412.92,299.79,412.87z"/>
								<path d="M299.94,412.91l-0.08-0.03C299.87,412.89,299.89,412.9,299.94,412.91z"/>
								<path d="M299.69,412.81l0.16,0.07c-0.02-0.02-0.02-0.03-0.07-0.03C299.8,412.85,299.76,412.84,299.69,412.81z"/>
								<path d="M299.61,412.77c-0.08-0.05-0.19-0.09-0.03-0.04C299.28,412.62,299.32,412.65,299.61,412.77z"/>
								<path d="M298.88,412.4c-0.04-0.02-0.07-0.04-0.11-0.05l-0.11-0.02C298.72,412.34,298.89,412.41,298.88,412.4z"/>
								<path d="M300.66,413.36c0.01,0-0.04-0.04-0.04-0.06l-0.11-0.05C300.56,413.28,300.66,413.35,300.66,413.36z"/>
								<path d="M300.62,413.3l0.16,0.08C300.64,413.3,300.61,413.29,300.62,413.3z"/>
								<polygon points="299.98,412.89 299.7,412.79 300.03,412.92 								"/>
								<polygon points="301.21,413.75 301.12,413.7 301.28,413.79 								"/>
								<path d="M301.57,414.02c-0.06-0.04,0.06,0.09,0,0.04c0.09,0.08,0.18,0.14,0.25,0.2
									C301.74,414.19,301.67,414.12,301.57,414.02z"/>
								<path d="M301.95,414.35c-0.03-0.02-0.08-0.06-0.13-0.09C301.85,414.28,301.89,414.3,301.95,414.35z"/>
								<path d="M301.03,413.56c0.01,0.01,0.02,0.04,0.1,0.1l-0.04-0.06L301.03,413.56z"/>
								<path d="M301.08,413.6L301.08,413.6c0.06,0.05,0.1,0.08,0.12,0.09C301.19,413.68,301.15,413.65,301.08,413.6z"/>
								<path d="M301.01,413.55l0.01,0.01C301.02,413.55,301.02,413.55,301.01,413.55z"/>
								<path d="M300.39,413.12c0.1,0.04,0.29,0.15,0.12,0.02C300.43,413.12,300.53,413.19,300.39,413.12z"/>
								<path d="M300.96,413.47c-0.05-0.04-0.11-0.07-0.16-0.11c0,0.01,0.03,0.03-0.02,0.01
									C300.84,413.41,300.9,413.44,300.96,413.47z"/>
								<polygon points="301.03,413.52 300.96,413.47 301.01,413.52 								"/>
								<path d="M301.72,414.12c0.07,0.05,0.13,0.11,0.21,0.17c-0.09-0.09-0.17-0.16-0.24-0.22
									C301.68,414.06,301.64,414.04,301.72,414.12z"/>
								<path d="M301.42,413.85l0.02,0.01C301.43,413.86,301.42,413.85,301.42,413.85z"/>
								<path d="M302.62,415.01c0,0-0.01-0.01-0.01-0.01l-0.01,0L302.62,415.01z"/>
								<path d="M301.68,414.05c-0.06-0.06-0.1-0.09-0.14-0.11c0.05,0.05,0.1,0.09,0.15,0.13
									C301.7,414.07,301.7,414.07,301.68,414.05z"/>
								<path d="M302.16,414.53c-0.02-0.04-0.06-0.07-0.09-0.11C302.09,414.46,302.14,414.53,302.16,414.53z"/>
								<path d="M301.45,413.88l-0.01-0.01C301.46,413.9,301.46,413.89,301.45,413.88z"/>
								<path d="M301.45,413.88c0.02,0.01,0.06,0.04,0.09,0.06c-0.03-0.02-0.07-0.05-0.11-0.08L301.45,413.88z"/>
								<path d="M302.91,415.17c-0.03,0-0.16-0.17-0.28-0.32c-0.13-0.13-0.1,0-0.02,0.14c0.01,0,0.02-0.01,0.14,0.13
									c-0.02-0.07-0.25-0.33-0.13-0.23c0.18,0.18,0.12,0.16,0.19,0.26c-0.04-0.1,0.22,0.23,0.21,0.17l-0.14-0.17
									C302.88,415.16,302.94,415.22,302.91,415.17z"/>
								<path d="M302.37,414.73l-0.05-0.06c0.06,0.07,0.09,0.12,0.16,0.21c0.09,0.09,0.12,0.1,0.13,0.11l-0.25-0.28L302.37,414.73z"
									/>
								<path d="M302.08,414.42c0.06,0.02,0.19,0.16,0.13,0.06c-0.16-0.16-0.13-0.1-0.23-0.18
									C302.25,414.54,301.89,414.24,302.08,414.42c-0.07-0.06-0.11-0.1-0.15-0.13c0.04,0.04,0.08,0.08,0.13,0.13l-0.01-0.01l0,0h0
									c-0.01-0.01-0.01-0.02,0,0l0.01,0C302.06,414.42,302.07,414.42,302.08,414.42c0.08,0.07,0.01,0.02-0.02-0.01l-0.01,0l0,0
									c0.09,0.08,0.17,0.17,0.26,0.26C302.27,414.62,302.21,414.54,302.08,414.42z"/>
								<path d="M300.69,413.21c0.01,0.01,0.01,0.01,0.01,0.01C300.72,413.23,300.73,413.23,300.69,413.21z"/>
								<path d="M300.82,413.3c-0.02-0.01-0.05-0.02-0.12-0.06c-0.06-0.04,0.01-0.01,0.01-0.02c-0.05-0.02-0.17-0.08-0.03,0.01
									l0.02,0.01c0.12,0.08,0.27,0.2,0.25,0.19C300.92,413.4,300.89,413.37,300.82,413.3z"/>
								<path d="M301.49,413.83c0.09,0.06,0.16,0.12,0.24,0.19l-0.1-0.12l0,0.01C301.5,413.8,301.51,413.84,301.49,413.83z"/>
								<path d="M302.63,415.04l-0.04-0.02c0.05,0.03,0.09,0.08,0.13,0.12L302.63,415.04z"/>
								<polygon points="302.87,415.36 302.85,415.36 302.92,415.44 								"/>
								<path d="M292.12,427.39l-0.08-0.04C292.07,427.37,292.1,427.38,292.12,427.39z"/>
								<path d="M292.71,427.71l0.02,0C292.7,427.7,292.68,427.7,292.71,427.71z"/>
								<path d="M303.27,424.48c-0.08,0.1-0.18,0.21-0.15,0.21l0.04-0.02C303.2,424.59,303.24,424.53,303.27,424.48z"/>
								<path d="M298,428.3l0.04,0c0.03-0.01,0.06-0.03,0.08-0.04C298.08,428.27,298.04,428.29,298,428.3z"/>
								<path d="M297.92,428.39l-0.18,0.01C297.8,428.4,297.86,428.4,297.92,428.39z"/>
								<path d="M289.47,424.95c-0.03-0.02-0.06-0.05-0.08-0.08C289.48,425.01,289.45,424.94,289.47,424.95z"/>
								<path d="M304.41,419.06c0.02,0.15,0.02,0.22,0.03,0.28C304.43,419.2,304.43,419.09,304.41,419.06z"/>
								<path d="M292.45,427.34c-0.05-0.03-0.07-0.03-0.07-0.03C292.43,427.33,292.46,427.35,292.45,427.34z"/>
								<path d="M304.46,419.66c0-0.02,0-0.04,0-0.06c-0.01-0.1-0.01-0.17-0.02-0.26C304.45,419.43,304.44,419.55,304.46,419.66z"/>
								<path d="M291.7,413.28c0.01,0,0.02-0.01,0.03-0.01C291.73,413.27,291.72,413.27,291.7,413.28z"/>
								<path d="M295.29,412.14c-0.04,0.01-0.1,0.02-0.15,0.02C295.17,412.16,295.2,412.16,295.29,412.14z"/>
								<path d="M303.69,416.72C303.65,416.64,303.68,416.71,303.69,416.72L303.69,416.72z"/>
								<path d="M303.58,416.31c0.01,0.02,0.02,0.03,0.02,0.03C303.6,416.34,303.59,416.33,303.58,416.31z"/>
								<path d="M304.6,420.49L304.6,420.49C304.61,420.48,304.61,420.48,304.6,420.49z"/>
								<path d="M303.64,416.6c0.02,0.04,0.03,0.07,0.04,0.1C303.67,416.68,303.66,416.65,303.64,416.6z"/>
								<path d="M303.64,416.62c-0.01-0.03-0.02-0.05-0.03-0.07C303.6,416.55,303.6,416.56,303.64,416.62z"/>
								<path d="M303.74,416.82c-0.02-0.04-0.04-0.08-0.06-0.12c0.01,0.02,0.01,0.02,0.01,0.02
									C303.7,416.74,303.71,416.77,303.74,416.82z"/>
								<path d="M288.15,419.12c0-0.01,0-0.01,0-0.02C288.16,419.02,288.16,419.06,288.15,419.12z"/>
								<polygon points="302.04,426.32 302.05,426.31 302.04,426.32 								"/>
								<path d="M301.82,426.54c0.08-0.11,0.14-0.16,0.22-0.22l-0.12,0.02L301.82,426.54z"/>
								<path d="M290.83,426.46l0.15,0.16c-0.21-0.15-0.35-0.29-0.22-0.13c0.05-0.01,0.66,0.54,0.73,0.5l0.11,0.1
									c-0.03-0.02-0.04-0.03-0.07-0.05c0.21,0.19,0.19,0.08,0.49,0.28c0.1,0.07,0.17,0.12,0.1,0.08l0.25,0.13
									c0.07,0.04,0.05,0.04-0.02,0c0.12,0.07,0.26,0.12,0.38,0.18l0,0c0.08,0.03,0.2,0.07,0.25,0.09c0.09,0.06-0.05-0.02-0.03,0
									c0.07,0.03,0.14,0.06,0.22,0.08c0.08,0.05-0.11,0-0.25-0.08c0.17,0.16,0.18,0.08,0.61,0.27l-0.21-0.07
									c0.12,0.08,0.29,0.13,0.52,0.24c-0.05-0.03-0.46-0.23-0.21-0.16c0.07,0.03,0.15,0.07,0.29,0.1
									c-0.01,0.02,0.13,0.05,0.29,0.09l-0.02,0.03c0.18,0.04,0.17,0.02,0.28,0.03c0.2,0.05,0.23,0.09,0.28,0.11
									c0.32,0.05-0.22-0.07,0.17-0.02c0.27,0.05,0.45,0.08,0.78,0.08c0.19,0.02-0.03,0.02,0.03,0.03l0.17-0.02
									c0.04,0,0.03,0.01,0.02,0.01c0.14,0,0.01-0.03,0.23-0.03c0.06-0.02,0.45,0.06,0.73,0c0.07,0.01-0.03,0.02-0.01,0.03
									c0.37-0.04,0.32-0.03,0.62-0.11l0.26-0.02c-0.19,0.01,0.05-0.06,0.25-0.11c-0.07,0-0.14,0-0.17,0
									c0.11-0.02,0.22-0.04,0.33-0.08c0.04-0.01,0.01,0.01-0.04,0.04l0.06-0.02c0.12-0.02,0.06,0.01-0.02,0.05l-0.12,0.01
									c-0.08,0.03-0.15,0.06-0.13,0.08c0.04-0.01,0.08-0.02,0.11-0.03c-0.02,0.01-0.03,0.01-0.02,0.02c0.01,0,0.05-0.01,0.1-0.03
									l0.08,0.01l0.02-0.02l0.44-0.09c0.31-0.1,0.55-0.27,1.02-0.46c-0.1,0.08-0.01,0.05,0,0.08c-0.14,0.03-0.37,0.15-0.62,0.24
									c0.13-0.04,0.11-0.02,0.08,0l0.44-0.19c0,0.03,0.1-0.02,0.22-0.06c-0.1,0,0.31-0.18,0.47-0.28
									c0.02,0.01-0.02,0.04-0.23,0.14c0.25-0.08,0.28-0.19,0.51-0.3c-0.05,0.03-0.08,0.04-0.09,0.06
									c0.11-0.08,0.39-0.24,0.33-0.19l-0.05,0.03c0.34-0.17,0.95-0.67,0.97-0.73c0.01,0-0.01,0.07-0.02,0.09l0.41-0.55
									c-0.02,0.07,0.21-0.03-0.01,0.2c0.07-0.06,0.16-0.12,0.29-0.27c-0.04,0.04-0.14,0.08-0.09,0.01
									c0.18-0.14,0.12-0.1,0.34-0.29c-0.07,0.06-0.04-0.05,0.06-0.16c-0.01,0.02,0.05,0.03,0.02,0.07c0.07-0.1,0.14-0.2,0.19-0.31
									c-0.05,0.08,0.03,0.04,0.09-0.01c-0.03,0.02,0.19-0.25,0.24-0.33l-0.1,0.12c0.26-0.32,0.17-0.38,0.39-0.72
									c-0.02,0.05,0,0.14,0.11-0.03c0.03-0.09,0.09-0.43,0.22-0.76l0.04-0.05c0.03-0.08,0.07-0.17,0.09-0.26
									c-0.02,0.17-0.16,0.64-0.24,0.9c0.08-0.13,0.04-0.03,0.14-0.24c0.05-0.07-0.03,0.12-0.06,0.19l0.24-0.48
									c-0.03,0.01,0.14-0.39,0.1-0.38c-0.05,0.19-0.13,0.37-0.21,0.55c-0.05,0,0.08-0.33,0.2-0.69c0.05-0.09,0.03,0.09,0.04,0.08
									c0.01-0.05,0.1-0.35,0.12-0.38l-0.04,0.16c0.09-0.2,0.08-0.34,0.17-0.58c0.02-0.08,0.11-0.25,0.09-0.26
									c-0.07,0.13-0.19,0.13-0.19,0.03c0.01-0.03,0.15-0.43,0.17-0.53c0.05-0.14,0.04,0.23,0.08,0.11c-0.01-0.01-0.01-0.09,0-0.12
									c0.02-0.09,0.02,0.04,0.05-0.16c-0.03-0.04,0.06-0.4-0.01-0.1c0.02-0.2,0.05-0.2,0.06-0.43c-0.02,0.07-0.06-0.21-0.06-0.41
									c0.01,0.01,0.02-0.03,0.03-0.05c0.04-0.4,0-0.61,0-0.99c0.01-0.04,0-0.22,0.02-0.14c-0.01-0.05-0.03-0.1-0.05-0.21
									c-0.01-0.22,0.04,0.25,0.05,0.08c-0.02-0.01-0.07-0.29-0.11-0.45c-0.02,0.05,0.05,0.37,0.09,0.54
									c-0.04,0-0.13-0.27-0.2-0.65c-0.06-0.3,0-0.14-0.02-0.19c-0.15-0.56-0.17-0.46-0.3-0.92c-0.04-0.19,0.05-0.02,0.05-0.07
									c0.1,0.23,0.11,0.37,0.15,0.53l-0.04-0.21c0.03,0.07,0.08,0.24,0.09,0.33c0-0.17-0.27-0.94-0.45-1.35
									c-0.04-0.07-0.11-0.19-0.09-0.13l0.06,0.13c0.04,0.13-0.14-0.23-0.07-0.06c-0.12-0.21-0.21-0.37-0.33-0.58l0-0.06
									c0,0.01,0.08,0.16,0.12,0.22c-0.07-0.09-0.18-0.37-0.27-0.45l0.08,0.17c-0.13-0.17-0.28-0.38-0.39-0.53
									c0.04,0.1,0.04,0.04,0.11,0.19c-0.04-0.15,0.31,0.51,0.23,0.29c0.05,0.17,0.15,0.26,0.22,0.47c0.01-0.01-0.02-0.08,0.06,0.1
									c0.01,0.01,0.02,0.03,0.03,0.03l0.01,0.01l0-0.01c0,0.01,0.01,0.01,0,0c-0.02-0.04-0.03-0.08-0.03-0.1
									c0.06,0.08,0.2,0.36,0.25,0.45c0.05,0.11-0.03-0.04-0.01,0.02c0.03,0.04,0.06,0.09,0.08,0.14c-0.01,0.02,0.07,0.3-0.03,0.05
									l0.08,0.23c0.04,0.14,0.11,0.33,0.15,0.44c0.02,0.11,0.1,0.28,0.05,0.18l0.11,0.37l0,0c0.08,0.37,0.19,0.77,0.18,1.21
									c0.01,0.13,0.03,0.26,0.03,0.48l-0.02,0.04c0.02,0.16-0.04,0.49-0.02,0.57c-0.04,0.18-0.09,0.79-0.15,1.08l0.02,0.02
									c-0.04,0.17-0.08,0.35-0.14,0.62l0.02-0.01c-0.02,0.22-0.18,0.52-0.29,0.84c0-0.02,0.03-0.1,0.06-0.16
									c-0.17,0.37-0.31,0.8-0.51,1.11c-0.04,0.08-0.08,0.14-0.12,0.19c0-0.01,0.01-0.01,0.01-0.02l-0.02,0.03
									c-0.02,0.03-0.05,0.07-0.08,0.1c0.03-0.04,0.05-0.07,0.07-0.09c-0.03,0.05-0.08,0.13-0.14,0.25l-0.04,0.03
									c0,0.01-0.01,0.01-0.01,0.02c-0.06,0.08-0.03,0.08,0.01,0.04c-0.02,0.04-0.04,0.08-0.07,0.12c-0.08,0.05-0.16,0.23-0.26,0.3
									c-0.02,0.08-0.31,0.42-0.33,0.49c-0.01,0-0.03,0.02,0.01-0.02c-0.08,0.08-0.16,0.17-0.23,0.25l-0.05,0.02
									c-0.05,0.07-0.1,0.14-0.15,0.21c-0.13,0.09-0.18,0.13-0.08,0.01c-0.3,0.31-0.14,0.15-0.43,0.45l0-0.02
									c-0.09,0.07-0.22,0.2-0.28,0.23c-0.21,0.14-1.04,0.71-1.66,0.93c0.14,0.01-0.29,0.1-0.3,0.14c-0.04,0-0.13,0.02-0.03-0.02
									c-0.31,0.12-0.47,0.16-0.68,0.25c-0.04,0,0.06-0.04,0.03-0.04c-0.02,0.01-0.1,0.04-0.13,0.04c-0.03,0,0.04-0.02,0.09-0.04
									c-0.33,0.09-0.35,0.13-0.36,0.18c-0.17,0.03-0.25,0.05-0.37,0.09c-0.06,0-0.16,0,0.05-0.04c-0.12,0.01-0.72,0.1-0.73,0.12
									c-0.04-0.01-0.17,0.01-0.2,0.01c-0.27,0.01-0.29,0.01-0.55,0.03l0.07,0c-0.1,0.05-0.22,0.01-0.43,0l0.01,0
									c-0.48-0.06-0.21,0.02-0.68-0.07l0.02,0.03c-0.05,0.04-0.42-0.09-0.69-0.12l0.1,0.03c-0.16,0-0.4-0.17-0.54-0.21
									c-0.03-0.01,0.05,0.01,0.1,0.01c-0.38-0.13-0.06,0.02-0.35-0.05c-0.05-0.03,0.08-0.02-0.11-0.08
									c-0.09-0.05-0.56-0.14-0.8-0.28c0.05,0.04,0.1,0.07-0.03,0.02c-0.19-0.09-0.5-0.28-0.68-0.34
									c-0.02-0.02-0.03-0.03-0.03-0.03c-0.14-0.07-0.46-0.26-0.55-0.29c-0.08-0.15-0.83-0.56-0.77-0.64l-0.37-0.33l0.01,0
									c-0.23-0.22-0.3-0.3-0.39-0.37c-0.05-0.06,0-0.02,0-0.02c-0.31-0.35-0.32-0.4-0.58-0.68l0-0.05
									c-0.09-0.07-0.34-0.58-0.58-0.96c0,0,0.01,0.01,0.03,0.04c-0.27-0.44-0.43-1.14-0.57-1.29c-0.05-0.1-0.08-0.21-0.11-0.32
									c0.1,0.43-0.05-0.05-0.02,0.13c-0.05-0.17-0.09-0.44-0.03-0.24l0,0.03c0.07,0.06-0.13-0.53-0.08-0.53
									c-0.17-0.85-0.15-1.69-0.08-2.49c-0.02,0.03-0.03,0.06-0.05,0.09l0.04-0.28c0.02-0.07,0.04-0.09,0.01,0.1
									c0.04-0.1,0.03-0.33,0.03-0.34c0.07-0.38,0.02,0.16,0.04,0.04l0.02-0.16l-0.01,0.04c0.01-0.13-0.02-0.15,0.05-0.38
									c0.04-0.15,0.04-0.07,0.06-0.13c0,0,0.01-0.02,0.02-0.09l0.09-0.34l-0.06,0.13c0.02-0.16,0.09-0.32,0.01-0.17
									c0.06-0.11,0.18-0.41,0.29-0.71c0.12-0.29,0.26-0.57,0.3-0.63c0.07-0.21,0.2-0.39,0.34-0.62c-0.04,0.05-0.09,0.07,0.04-0.12
									c0,0.1,0.26-0.34,0.42-0.45c-0.13,0.11,0.4-0.52,0.2-0.34c0.13-0.14,0.03,0.01,0.14-0.09c0.28-0.36,0.71-0.72,1.15-1.07
									c0-0.01-0.08,0.03,0.01-0.05l0.26-0.15c0.09-0.07,0.05-0.11,0.24-0.19c-0.03,0.01-0.07,0.02-0.01-0.02
									c0.95-0.57,2.03-1.07,3.16-1.17c-0.15,0.01-0.05-0.01,0.06-0.03c-0.08,0.01,0-0.02-0.02-0.03c0.16-0.01,0.31-0.03,0.47-0.03
									c0.08-0.04,0.51-0.03,0.55-0.06l-0.15,0.01c0.2-0.05-0.28-0.07-0.26-0.11c-0.22,0.04-0.6,0.02-0.96,0.12
									c-0.08,0,0.07-0.03,0.02-0.03c-0.09,0.03-0.2,0.07-0.41,0.11l0.02-0.01c-0.58,0.14-0.82,0.22-1.45,0.46l0.05,0
									c-0.13,0.06-0.16,0.07-0.22,0.09c-0.13,0.1,0.36-0.17,0.24-0.07c-0.2,0.03-0.91,0.45-1.03,0.49
									c-0.19,0.11,0.07-0.01-0.12,0.1l-0.06,0.02l-0.04,0.04c-0.13,0.07-0.19,0.11-0.2,0.1c0.03-0.02,0.08-0.06,0.11-0.09
									c-0.16,0.1-0.42,0.32-0.48,0.36l0.18-0.12c-0.49,0.35-1.02,0.87-1.39,1.33l0.04-0.03c-0.27,0.35-0.23,0.27-0.52,0.67
									l0.01-0.02c-0.09,0.15-0.14,0.23-0.18,0.31c0.05-0.11-0.14,0.19-0.07,0.04c-0.23,0.43-0.12,0.21-0.23,0.51l-0.05,0.06
									c-0.03,0.1-0.03,0.12-0.13,0.34c0.07-0.19-0.09,0.13-0.01-0.08c-0.27,0.44-0.25,0.72-0.39,0.91
									c-0.03,0.24,0.18-0.41,0.14-0.28c0.05-0.1-0.03,0.19-0.09,0.34c-0.06,0.15-0.14,0.25-0.24,0.64
									c0.01-0.03,0.01-0.05,0.02-0.08c-0.04,0.15-0.07,0.29-0.11,0.48c0.01,0.11-0.04,0.24-0.01,0.28l0.05-0.37
									c-0.02,0.21-0.01,0.42-0.08,0.76c0-0.03,0-0.13,0.01-0.2c-0.02,0.1-0.03,0.2-0.04,0.3c-0.05-0.04,0.06-0.45,0.06-0.69
									c-0.03,0.11-0.04,0.43-0.06,0.31c0.02,0.17-0.07,0.4-0.03,0.68l-0.02-0.02c0,0.04,0.01,0.14,0,0.22l-0.02-0.15
									c0.02,0.23-0.05,0.44-0.02,0.65c-0.02-0.45,0.02-0.1,0.04-0.29c0.05,0.56-0.05,0.32,0,0.95c-0.01-0.08,0-0.32,0.01-0.19
									c0,0.12,0.01,0.28,0.01,0.35c0.07,0.41,0.01-0.07,0.05,0.11c-0.01,0.14,0.04,0.2,0.08,0.38l-0.02,0.01
									c0.07,0.47,0.07,0.11,0.15,0.53l-0.08-0.17l0.06,0.21l-0.04-0.04c0.08,0.23,0.08,0.31,0.16,0.53c0-0.06,0.05,0.02,0.12,0.21
									c0.04,0.14-0.05-0.07,0.06,0.21c-0.04-0.06-0.08-0.12-0.1-0.25l-0.05-0.07c0.04,0.15,0.13,0.37,0.17,0.47
									c-0.01-0.03-0.02-0.06-0.04-0.11c0.05,0.13,0.12,0.26,0.2,0.38c0.02,0.06-0.01,0.02-0.04-0.03
									c0.03,0.06,0.09,0.17,0.13,0.24c-0.03-0.02-0.05-0.01-0.13-0.17l0.2,0.36c0,0.03,0.07,0.2,0.04,0.16
									c0.11,0.2,0.32,0.46,0.47,0.72c0.01,0.01,0.03,0.03,0.07,0.08c0.17,0.22,0.28,0.46,0.54,0.68l0.1,0.16
									c0.18,0.19-0.14-0.22,0.16,0.1c0.22,0.22,0.06,0.11,0.13,0.19c0.13,0.09,0.35,0.25,0.54,0.46
									C290.92,426.53,290.9,426.52,290.83,426.46z M293.62,428.08c-0.06-0.02-0.18-0.05-0.22-0.07
									C293.48,428.01,293.53,428.04,293.62,428.08z M298.47,428.22c-0.04,0.02-0.11,0.03-0.19,0.04
									C298.33,428.25,298.39,428.24,298.47,428.22z M304.05,417.56L304.05,417.56C304.09,417.7,304.08,417.65,304.05,417.56z
									 M303.96,417.29c-0.01-0.03-0.02-0.02-0.01-0.01c0.01,0.02,0.03,0.08,0.06,0.15C304.01,417.4,304,417.37,303.96,417.29z
									 M288.47,418.26l-0.02,0.05C288.48,418.19,288.47,418.23,288.47,418.26z"/>
								<path d="M297.93,428.38c-0.02,0-0.02,0-0.03-0.01C297.88,428.38,297.88,428.39,297.93,428.38z"/>
								<path d="M289.48,424.96L289.48,424.96c-0.01-0.01-0.02-0.01-0.02-0.01L289.48,424.96z"/>
								<path d="M304.58,421.65c-0.01,0.06-0.02,0.09-0.03,0.11C304.55,421.77,304.56,421.74,304.58,421.65z"/>
								<path d="M303.26,415.97l0.1,0.15c-0.05-0.07-0.06-0.1-0.08-0.14C303.28,415.98,303.29,416.01,303.26,415.97z"/>
								<path d="M302.42,414.62c-0.03-0.03-0.02-0.02-0.06-0.06l0,0.01C302.43,414.66,302.49,414.71,302.42,414.62z"/>
								<path d="M303.24,415.78c0.01-0.02-0.05-0.12-0.13-0.22l0.01,0.02C303.08,415.56,303.17,415.67,303.24,415.78z"/>
								<path d="M303.09,415.54c-0.03-0.03-0.05-0.06-0.07-0.09C303,415.44,303.04,415.48,303.09,415.54z"/>
								<path d="M303.82,416.96c-0.02-0.06-0.04-0.02-0.05-0.06C303.72,416.85,303.97,417.26,303.82,416.96z"/>
								<polygon points="303.24,415.66 303.24,415.71 303.3,415.76 								"/>
								<path d="M303.73,416.55l-0.08-0.19c0,0-0.02-0.02-0.03-0.05C303.67,416.43,303.72,416.56,303.73,416.55z"/>
								<path d="M303.61,416.31c-0.03-0.06-0.07-0.11-0.09-0.14C303.54,416.2,303.58,416.25,303.61,416.31z"/>
								<polygon points="303.39,415.89 303.42,415.95 303.49,416.07 								"/>
								<path d="M304.44,418.64l0.04,0.22c0.01,0.02,0.01-0.04-0.01-0.12C304.46,418.68,304.44,418.6,304.44,418.64z"/>
								<path d="M304.34,417.96c0.01,0.06,0.01,0.07,0.01,0.1l0.03,0L304.34,417.96z"/>
								<path d="M304.51,418.6c0.01,0.02,0.07,0.32,0.03,0.04C304.53,418.61,304.48,418.39,304.51,418.6z"/>
								<polygon points="304.43,421.98 304.45,421.92 304.4,421.92 								"/>
								<path d="M303.38,424.79c0.15-0.23,0.01-0.07,0.15-0.27c0.02-0.06-0.11,0.16-0.09,0.1
									C303.36,424.77,303.31,424.84,303.38,424.79z"/>
								<path d="M303.44,424.62c0.01-0.02,0.02-0.04,0.04-0.07C303.46,424.58,303.45,424.6,303.44,424.62z"/>
								<polygon points="295.91,412.11 296.08,412.11 295.97,412.1 								"/>
								<path d="M296.23,412.06l0.04,0.03l0.1-0.03C296.34,412.06,296.26,412.06,296.23,412.06z"/>
								<path d="M294.07,428.29l0.01,0c-0.02-0.01-0.06-0.03-0.14-0.05L294.07,428.29z"/>
								<polygon points="291.92,427.31 291.95,427.33 291.9,427.26 								"/>
								<path d="M290.35,426.09c0.05,0.06,0.13,0.12,0.19,0.18C290.4,426.15,290.36,426.05,290.35,426.09z"/>
							</g>
						</g>
					</g>
				</g>
			</g>
			<g id="XMLID_00000111186172618814565530000011234231932904522885_">
				<path d="M306.87,411.64c0,1.06-0.86,1.93-1.93,1.93c-1.06,0-1.93-0.86-1.93-1.93c0-1.06,0.86-1.93,1.93-1.93
					C306,409.72,306.87,410.58,306.87,411.64"/>
				<g>
					<g>
						<g>
							<g>
								<path d="M306.98,411.63c0,0.02,0.02,0.01,0.02,0.01C307,411.61,306.98,411.63,306.98,411.63z"/>
								<polygon points="306.91,411.33 306.92,411.33 306.89,411.29 								"/>
								<path d="M306.85,411.05c-0.03,0.04,0.03,0.1,0.03,0.15l-0.01,0.01l0.03,0.02C306.89,411.16,306.85,411.09,306.85,411.05z"/>
								<path d="M306.86,410.88c-0.01,0.01-0.02-0.03,0.01,0.04l0-0.01C306.87,410.9,306.87,410.9,306.86,410.88z"/>
								<path d="M306.87,410.91C306.89,410.93,306.88,410.88,306.87,410.91L306.87,410.91z"/>
								<path d="M306.81,410.78l0.03,0.03c0-0.01-0.01-0.04,0-0.04C306.81,410.74,306.81,410.75,306.81,410.78z"/>
								<path d="M306.77,410.75l0.01,0.02C306.78,410.77,306.78,410.76,306.77,410.75z"/>
								<path d="M306.81,410.8l-0.03-0.04c0,0.01-0.01,0.01,0.01,0.02C306.79,410.79,306.8,410.79,306.81,410.8z"/>
								<path d="M306.82,410.83c0,0.02,0.01,0.05-0.02,0.02C306.83,410.92,306.85,410.9,306.82,410.83z"/>
								<path d="M306.81,411.04l0,0.03l0.02,0.02C306.82,411.09,306.82,411.04,306.81,411.04z"/>
								<path d="M306.7,410.54c-0.01,0-0.01,0.02-0.02,0.03l0.02,0.02C306.71,410.58,306.7,410.55,306.7,410.54z"/>
								<path d="M306.69,410.57l-0.03-0.03C306.67,410.58,306.68,410.58,306.69,410.57z"/>
								<polygon points="306.73,410.76 306.79,410.82 306.73,410.75 								"/>
								<polygon points="306.61,410.4 306.63,410.41 306.59,410.39 								"/>
								<path d="M306.53,410.31c0.02,0.01,0-0.03,0.02-0.03c-0.02-0.02-0.05-0.03-0.07-0.04
									C306.5,410.25,306.52,410.28,306.53,410.31z"/>
								<path d="M306.44,410.22c0.01,0,0.02,0.01,0.04,0.02C306.47,410.23,306.45,410.22,306.44,410.22z"/>
								<path d="M306.61,410.47c0-0.01,0.01-0.02,0-0.04l-0.01,0.03L306.61,410.47z"/>
								<path d="M306.6,410.46L306.6,410.46c-0.01-0.02-0.02-0.03-0.02-0.03C306.58,410.43,306.59,410.44,306.6,410.46z"/>
								<path d="M306.62,410.48L306.62,410.48L306.62,410.48z"/>
								<path d="M306.7,410.65c-0.02-0.02-0.06-0.06-0.05,0C306.67,410.66,306.66,410.63,306.7,410.65z"/>
								<path d="M306.61,410.51l0.02,0.04c0,0,0.01-0.02,0.02-0.01L306.61,410.51z"/>
								<polygon points="306.59,410.5 306.61,410.51 306.6,410.5 								"/>
								<path d="M306.48,410.29c-0.02-0.01-0.04-0.03-0.05-0.04c0.02,0.02,0.03,0.05,0.05,0.06
									C306.48,410.31,306.5,410.31,306.48,410.29z"/>
								<path d="M306.54,410.37L306.54,410.37L306.54,410.37z"/>
								<polygon points="306.25,410.08 306.25,410.08 306.25,410.08 								"/>
								<path d="M306.48,410.32c0.01,0.02,0.02,0.02,0.04,0.03C306.49,410.33,306.48,410.32,306.48,410.32
									C306.48,410.31,306.47,410.32,306.48,410.32z"/>
								<path d="M306.38,410.18l0.02,0.03C306.4,410.2,306.39,410.17,306.38,410.18z"/>
								<path d="M306.54,410.36L306.54,410.36C306.54,410.36,306.54,410.36,306.54,410.36z"/>
								<path d="M306.54,410.36c-0.01-0.01-0.02-0.01-0.03-0.01C306.52,410.35,306.53,410.36,306.54,410.36L306.54,410.36z"/>
								<path d="M306.11,410.14c0.01-0.01,0.07,0,0.09,0.05c0.04,0.02,0.06-0.05,0.05-0.1c-0.01,0.01-0.01,0.01-0.05-0.01
									c0.01,0.02,0.06,0.08,0.02,0.07c-0.05-0.03-0.03-0.04-0.05-0.06c0.01,0.03-0.08-0.02-0.09,0.02l0.05,0.02
									C306.12,410.13,306.1,410.12,306.11,410.14z"/>
								<path d="M306.31,410.14l0.02,0.01c-0.01-0.02-0.02-0.03-0.03-0.06c-0.03-0.01-0.04-0.01-0.05-0.01L306.31,410.14
									L306.31,410.14z"/>
								<path d="M306.39,410.22c-0.02,0-0.07-0.02-0.06,0.01c0.04,0.04,0.04,0.02,0.07,0.03
									C306.33,410.2,306.43,410.27,306.39,410.22c0.02,0.02,0.03,0.03,0.04,0.03c-0.01-0.01-0.02-0.02-0.03-0.04l0,0l0,0l0,0l0,0
									L306.39,410.22L306.39,410.22C306.38,410.19,306.39,410.21,306.39,410.22l0.01,0l0,0l-0.07-0.05
									C306.34,410.17,306.36,410.19,306.39,410.22z"/>
								<path d="M306.58,410.63L306.58,410.63C306.58,410.62,306.58,410.62,306.58,410.63z"/>
								<path d="M306.58,410.59c0.01,0,0.02,0,0.02,0.02c0,0.02-0.01,0.01-0.01,0.01c0.01,0.01,0.04,0.03,0.02-0.01l-0.01,0
									c-0.01-0.03-0.01-0.09-0.01-0.08C306.59,410.55,306.58,410.56,306.58,410.59z"/>
								<path d="M306.49,410.4l-0.06-0.05l0.01,0.04l0.01-0.01C306.48,410.42,306.48,410.4,306.49,410.4z"/>
								<polygon points="306.25,410.06 306.27,410.05 306.21,410.05 								"/>
								<polygon points="306.16,410.01 306.18,409.99 306.15,409.99 								"/>
								<path d="M303.38,412.57l0.01,0.01L303.38,412.57z"/>
								<path d="M303.32,412.44L303.32,412.44C303.31,412.44,303.32,412.45,303.32,412.44z"/>
								<path d="M303.87,409.91c-0.04,0-0.08,0-0.07,0.01l0.02,0.01C303.83,409.92,303.85,409.91,303.87,409.91z"/>
								<polygon points="303.06,411.27 303.07,411.26 303.05,411.24 								"/>
								<path d="M303.14,411.3l-0.02,0.04C303.13,411.33,303.13,411.32,303.14,411.3z"/>
								<path d="M303.93,413.12l0.03,0C303.93,413.1,303.94,413.11,303.93,413.12z"/>
								<path d="M305.23,409.63c-0.03-0.01-0.05-0.02-0.07-0.02C305.2,409.62,305.22,409.64,305.23,409.63z"/>
								<path d="M303.16,412.63c0.01,0.01,0.02,0.01,0.02,0.01C303.17,412.63,303.16,412.62,303.16,412.63z"/>
								<path d="M305.08,409.6l0.01,0.01c0.02,0,0.04-0.01,0.07,0C305.14,409.59,305.11,409.59,305.08,409.6z"/>
								<path d="M306.44,412.66L306.44,412.66L306.44,412.66z"/>
								<path d="M306.94,411.91c0,0.02,0,0.03,0,0.04C306.94,411.94,306.94,411.93,306.94,411.91z"/>
								<path d="M305.83,409.79C305.85,409.8,305.83,409.79,305.83,409.79L305.83,409.79z"/>
								<path d="M305.88,409.91c-0.01,0-0.01,0.01-0.01,0.01C305.87,409.91,305.88,409.91,305.88,409.91z"/>
								<path d="M304.87,409.73L304.87,409.73C304.88,409.73,304.87,409.73,304.87,409.73z"/>
								<path d="M305.85,409.81c-0.01-0.01-0.02-0.01-0.02-0.02C305.83,409.8,305.84,409.81,305.85,409.81z"/>
								<path d="M305.85,409.8c0.01,0,0.01,0.01,0.02,0.01C305.87,409.81,305.87,409.81,305.85,409.8z"/>
								<path d="M305.8,409.78c0.01,0,0.01,0.01,0.03,0.02l0-0.01C305.82,409.79,305.81,409.78,305.8,409.78z"/>
								<path d="M305.19,413.49L305.19,413.49C305.21,413.48,305.2,413.48,305.19,413.49z"/>
								<polygon points="303.6,410.4 303.6,410.4 303.6,410.4 								"/>
								<path d="M303.57,410.46c0-0.04,0.01-0.05,0.03-0.06l-0.06-0.02L303.57,410.46z"/>
								<path d="M303.59,412.84l-0.02-0.05c0.06,0.02,0.08,0.06,0.07,0.01c-0.06,0.04-0.12-0.13-0.17-0.1l-0.01-0.03l0.01,0.01
									c-0.01-0.07-0.07-0.01-0.1-0.08c-0.01-0.03-0.01-0.05,0-0.04l-0.05-0.04c-0.01-0.02,0-0.02,0.01,0l-0.05-0.08l0,0
									c-0.01-0.01-0.04-0.03-0.05-0.04c0-0.03,0.01,0.01,0.02,0l-0.04-0.04c0.01-0.03,0.04,0.01,0.05,0.04
									c0.04-0.07-0.04-0.03-0.03-0.14l0.02,0.04c0.02-0.04,0-0.07,0-0.13c-0.01,0.01-0.02,0.12-0.05,0.07
									c0-0.02-0.01-0.04-0.03-0.06c0.02-0.01,0.01-0.03,0-0.07l0.03-0.01c-0.02-0.04-0.03-0.03-0.05-0.05
									c-0.01-0.04,0.01-0.06,0.03-0.07c-0.01-0.07-0.03,0.06-0.05-0.03c0-0.06-0.02-0.1-0.04-0.17c0.01-0.04,0.02,0.01,0.03-0.01
									l-0.03-0.03c0-0.01,0.01-0.01,0.01-0.01c-0.01-0.03-0.03,0-0.04-0.05c-0.04-0.01,0.05-0.1,0.01-0.16
									c0.01-0.01,0.02,0.01,0.03,0c-0.02-0.07-0.01-0.05-0.04-0.14l0.03-0.06c-0.03,0.04-0.05-0.02-0.06-0.07
									c-0.01,0.01-0.03,0.03-0.03,0.03c0-0.03,0-0.06,0-0.08c0.01-0.01,0.02,0,0.02,0.02l0-0.02c0.02-0.03,0.03-0.01,0.04,0.02
									l-0.03,0.02c0.02,0.02,0.03,0.04,0.05,0.04c0-0.01,0-0.02,0-0.03c0,0.01,0.01,0.01,0.01,0.01s0-0.01-0.01-0.03l0.04-0.01
									l-0.01-0.01l0.05-0.09c-0.02-0.08-0.04-0.15-0.01-0.27c0.01,0.04,0.04,0.02,0.06,0.03c-0.04,0.02-0.02,0.09-0.04,0.14
									c0.01-0.03,0.02-0.02,0.03-0.01l0.01-0.11c0.02,0.01,0.02-0.01,0.05-0.03c-0.05,0,0-0.08,0.01-0.13
									c0.02,0.01,0.03,0.02,0,0.07c0.06-0.03-0.02-0.09,0.04-0.13c-0.01,0.01-0.01,0.02-0.01,0.02c0-0.03,0.05-0.09,0.05-0.07
									l-0.01,0.01c0.04-0.07,0.15-0.21,0.12-0.25c0,0,0.03,0.04,0.03,0.05l0-0.21c0.02,0.03,0.11,0.05,0.08,0.12
									c0.02-0.01,0.04-0.03,0.06-0.06c-0.01,0.01-0.06-0.01-0.05-0.03c0.07-0.01,0.04-0.01,0.11-0.03
									c-0.02,0.01-0.04-0.05-0.01-0.07c0,0.01,0.04,0.04,0.03,0.05c0.01-0.03,0.02-0.06,0.03-0.09c-0.01,0.02,0.03,0.04,0.05,0.04
									c-0.01,0,0.06-0.04,0.07-0.06l-0.03,0.01c0.08-0.05,0.03-0.11,0.11-0.16c0,0.02,0.01,0.07,0.05,0.06
									c0-0.04,0.02-0.16,0.09-0.22l0.02,0.01l0.05-0.04c-0.02,0.05-0.09,0.18-0.12,0.24c0.04,0,0.02,0.01,0.06-0.01
									c0.02,0.01-0.01,0.03-0.03,0.04l0.11-0.04c-0.02-0.03,0.07-0.07,0.06-0.09c-0.04,0.02-0.07,0.05-0.1,0.08
									c-0.02-0.02,0.03-0.12,0.11-0.14c0.03,0,0,0.06,0.01,0.07c0.01-0.01,0.07-0.05,0.08-0.04l-0.03,0.03
									c0.05,0,0.06-0.07,0.12-0.05c0.02,0,0.07,0.03,0.06,0.01c-0.04-0.03-0.07-0.14-0.06-0.17c0.01,0,0.11,0.01,0.14,0.02
									c0.04,0.02-0.04,0.08,0,0.1c0-0.01,0.02-0.02,0.02-0.03c0.02,0,0,0.03,0.04,0.02c0-0.03,0.09-0.01,0.02-0.03
									c0.04-0.01,0.05,0,0.1-0.01c-0.02-0.02,0.04-0.07,0.09-0.09c0,0.01,0.01,0.02,0.01,0.02c0.09,0,0.14,0.02,0.23,0.02
									c0.01,0.01,0.05,0.02,0.03,0.03c0.01,0,0.02-0.01,0.05-0.01c0.05,0.04-0.06,0-0.02,0.04c0.01-0.02,0.07-0.02,0.11-0.02
									c-0.01-0.03-0.09-0.02-0.12-0.01c0-0.04,0.07-0.07,0.17-0.08c0.08,0,0.03,0.03,0.04,0.03c0.13,0.04,0.14-0.04,0.24,0.02
									c0.03,0.04-0.02,0.05-0.01,0.07c-0.06-0.01-0.08-0.05-0.12-0.05l0.04,0.02c-0.02,0-0.06,0-0.08-0.01
									c0.03,0.03,0.22,0.07,0.3,0.13c0.02,0,0.05,0.01,0.04-0.01l-0.03-0.01c-0.02-0.03,0.07,0,0.03-0.03
									c0.05,0.01,0.11,0,0.16,0.05l0,0.03c0-0.01-0.03-0.04-0.05-0.04c0.03,0,0.06,0.08,0.11,0.07l-0.03-0.04
									c0.05,0.01,0.12,0.01,0.16,0.06c0-0.04-0.01-0.01-0.03-0.06c0.01,0.05-0.13-0.08-0.1-0.01c-0.02-0.05-0.05-0.05-0.09-0.11
									c0,0.01,0.01,0.03-0.03,0l-0.01,0l0,0l0,0l0,0c0.01,0.01,0.01,0.02,0.02,0.02c-0.03,0.01-0.1-0.02-0.13-0.03
									c-0.02-0.02,0.02-0.01,0.01-0.02l-0.04,0c0-0.02-0.06-0.06,0.01-0.05l-0.06-0.02c-0.03-0.02-0.08-0.05-0.11-0.05
									c-0.03-0.01-0.08,0-0.05-0.01l-0.1-0.01l0-0.01c-0.09-0.02-0.2,0-0.3-0.05c-0.03,0-0.07,0.01-0.12,0l-0.01-0.02
									c-0.04,0-0.13-0.01-0.14,0.01c-0.05-0.05-0.2,0.01-0.28,0.01l0,0.02c-0.05,0.01-0.1,0.03-0.15,0.05l0.01,0.02
									c-0.05,0.03-0.13,0.03-0.21,0.06c0-0.01,0.02-0.02,0.04-0.02c-0.12-0.01-0.18,0.12-0.28,0.13
									c-0.02,0.02-0.03,0.02-0.05,0.03l0,0c0,0-0.01,0-0.01,0l-0.03,0.01c0.01,0,0.02,0,0.03,0c-0.01,0.01-0.04,0.03-0.06,0.04
									l-0.02-0.01l0,0c-0.03,0.01-0.01,0.02,0.01,0.03c-0.01,0.01-0.02,0.02-0.02,0.03c-0.04-0.02-0.05,0.05-0.09,0.04
									c0,0.02-0.09,0.09-0.08,0.13c0,0-0.01,0,0-0.01c-0.02,0.02-0.05,0.03-0.06,0.06l-0.03-0.01l-0.02,0.07
									c-0.04,0.02-0.06,0.02-0.05-0.02c-0.04,0.09-0.04,0.06-0.07,0.14l-0.01-0.02c-0.02,0.02-0.02,0.07-0.04,0.08
									c-0.07,0.03-0.18,0.25-0.27,0.38c0.06-0.01-0.05,0.06-0.01,0.08c-0.02,0-0.03,0.02-0.03-0.01
									c-0.02,0.08-0.07,0.11-0.04,0.18c-0.02,0.01-0.01-0.02-0.02-0.02c0,0.01,0,0.03-0.01,0.04c-0.01,0.01-0.01-0.01-0.01-0.03
									c-0.02,0.08,0.02,0.1,0.05,0.12c-0.03,0.04-0.03,0.06-0.01,0.09c-0.01,0.01-0.03,0.03-0.03-0.02
									c-0.01,0.03-0.05,0.17-0.01,0.18c-0.01,0.01,0,0.04,0,0.05c-0.01,0.06-0.01,0.07-0.01,0.13l0.01-0.02
									c0.03,0.03,0.01,0.05,0.02,0.1l0,0c-0.02,0.12,0.01,0.05-0.01,0.17l0.02-0.01c0.05,0-0.01,0.1,0.02,0.17l0.01-0.03
									c0.02,0.03-0.04,0.11-0.04,0.15c0,0.01-0.01-0.01-0.02-0.02c0,0.1,0.03,0,0.06,0.07c-0.01,0.02-0.05,0-0.03,0.04
									c0,0.03,0.1,0.12,0.1,0.19c0.01-0.02,0.01-0.04,0.03-0.01c0.03,0.04,0.02,0.15,0.08,0.17c0,0.01,0,0.01,0,0.01
									c0.03,0.03,0.08,0.1,0.11,0.11c-0.04,0.08,0.17,0.17,0.12,0.21l0.09,0.09l-0.01,0c0.05,0.06,0.09,0.06,0.12,0.07
									c0.01,0.02-0.01,0.01-0.01,0.01c0.07,0.09,0.09,0.09,0.19,0.12l-0.01,0.03c0.03,0.01,0.12,0.12,0.23,0.15
									c0,0-0.01,0.01-0.02,0c0.12,0.03,0.26,0.18,0.33,0.12c0.03,0,0.06,0,0.09,0c-0.1-0.03,0.03-0.03-0.01-0.06
									c0.04,0.01,0.1,0.05,0.05,0.04l-0.01-0.01c-0.03,0.04,0.12,0.05,0.11,0.08c0.21,0.04,0.41,0.07,0.61,0.05l-0.03-0.03
									l0.07-0.01c0.02,0.01,0.03,0.02-0.02,0.03c0.03,0.02,0.08-0.03,0.08-0.04c0.1,0-0.03,0.05,0,0.04l0.04-0.01l-0.01,0
									c0.03-0.02,0.03-0.03,0.09-0.05c0.04,0,0.02,0.02,0.04,0.01c0,0,0.01,0,0.02,0l0.09-0.02l-0.04-0.02
									c0.03-0.02,0.08-0.02,0.03-0.04c0.07,0.03,0.31-0.1,0.34-0.11c0.04-0.04,0.08-0.07,0.14-0.1c-0.02,0-0.04-0.02,0.01-0.04
									c0.02,0.07,0.1-0.03,0.16-0.03c-0.05,0,0.12-0.11,0.04-0.1c0.04-0.03,0.02,0.02,0.05,0c0.07-0.09,0.19-0.16,0.27-0.28
									c-0.01-0.01-0.03,0-0.02-0.03l0.08-0.03c0.01-0.03-0.02-0.05,0.03-0.07c-0.01,0-0.02,0.01-0.02-0.01
									c0.19-0.21,0.22-0.5,0.34-0.76c-0.02,0.04-0.02,0.01-0.02-0.02c-0.01,0.02-0.02,0-0.03,0l0.05-0.11
									c-0.03-0.02,0-0.13-0.03-0.14l0,0.04c-0.03-0.05-0.08,0.06-0.13,0.05c0.04,0.06-0.08,0.12-0.03,0.22
									c-0.01,0.02-0.01-0.02-0.02-0.01c0.02,0.02,0.01,0.05-0.01,0.09l0-0.01c-0.03,0.13-0.07,0.18-0.13,0.31l0.03,0
									c-0.02,0.03-0.03,0.03-0.04,0.04c0.02,0.05,0.04-0.08,0.06-0.03c-0.06,0.02-0.1,0.2-0.17,0.2c-0.03,0.04,0.03,0,0,0.04
									l-0.02,0l0.01,0.02c-0.02,0.03-0.05,0.03-0.06,0.02c0.01-0.01,0.01-0.02,0.01-0.03c-0.04,0.02-0.06,0.1-0.08,0.1l0.03-0.03
									c-0.06,0.12-0.19,0.22-0.27,0.32l0.01,0c-0.06,0.08-0.07,0.04-0.15,0.11l0,0c-0.01,0.02-0.03,0.04-0.06,0.06
									c0.02-0.02-0.06,0.01-0.03-0.02c-0.08,0.07-0.03,0.04-0.08,0.11l-0.02-0.01c-0.01,0.02-0.01,0.03-0.06,0.06
									c0.03-0.03-0.04-0.01-0.01-0.05c-0.12,0.02-0.14,0.1-0.21,0.07c-0.03,0.06,0.1-0.01,0.08,0.01
									c0.03,0.01-0.03,0.05-0.06,0.06c-0.04,0.01-0.08-0.04-0.17-0.02l0.02-0.01c-0.04-0.01-0.06,0.04-0.11,0.02
									c-0.02,0.03-0.05,0.01-0.05,0.04l0.08-0.02c-0.04,0.02-0.08,0.07-0.17,0.06c0.01-0.01,0.03-0.02,0.04-0.03
									c-0.02-0.01-0.04,0.02-0.07,0c0-0.04,0.1-0.02,0.15-0.06c-0.03-0.01-0.09,0.04-0.07,0c-0.03,0.06-0.09,0.01-0.15,0.05
									l0-0.02c-0.01,0-0.03,0.02-0.05,0.02l0.03-0.03c-0.05,0.03-0.09-0.02-0.14-0.01c0.1,0,0.02,0.03,0.06,0.05
									c-0.12,0.03-0.07-0.06-0.2-0.06c0.02,0,0.07,0.02,0.04,0.03c-0.03,0-0.06-0.02-0.07-0.03c-0.09-0.01,0.01,0.03-0.03,0.03
									c-0.03-0.03-0.05,0-0.09,0.01l0-0.02c-0.1-0.03-0.04,0.04-0.12,0l0.05-0.02l-0.05,0l0.02-0.02c-0.06,0-0.07,0-0.12-0.03
									c0.01,0.02-0.02,0.04-0.06,0.02c-0.02-0.02,0.02-0.01-0.04-0.03c0.02-0.01,0.04-0.02,0.06,0.01l0.02-0.01
									c-0.03-0.03-0.08-0.03-0.1-0.04c0.01,0,0.02,0.01,0.02,0.01c-0.03,0-0.07,0-0.1-0.01c-0.01-0.01,0-0.02,0.02-0.02
									c-0.02-0.01-0.03,0-0.06-0.01c0.01-0.01,0.02-0.03,0.06-0.02l-0.09-0.02c0-0.01-0.03-0.04-0.02-0.04
									c-0.03-0.04-0.12-0.03-0.17-0.08c0,0-0.01,0-0.02-0.01c-0.05-0.04-0.08-0.09-0.15-0.12l-0.01-0.05
									c-0.05-0.03,0.01,0.07-0.07,0.01c-0.06-0.04,0-0.04-0.01-0.06c-0.03-0.01-0.1-0.03-0.12-0.1
									C303.57,412.81,303.58,412.83,303.59,412.84z M303.22,412.25c0.01,0.01,0.03,0.03,0.02,0.05
									C303.22,412.29,303.22,412.27,303.22,412.25z M303.13,411.17c0,0.01,0,0.03-0.02,0.04
									C303.11,411.2,303.12,411.19,303.13,411.17z M305.61,409.72L305.61,409.72C305.57,409.7,305.58,409.71,305.61,409.72z
									 M305.67,409.75C305.68,409.75,305.68,409.75,305.67,409.75c0,0-0.01-0.01-0.03-0.02
									C305.64,409.74,305.65,409.75,305.67,409.75z M305.42,413.6l-0.01,0C305.44,413.59,305.43,413.59,305.42,413.6z"/>
								<path d="M303.13,411.3c0,0-0.01,0-0.01,0C303.12,411.31,303.12,411.31,303.13,411.3z"/>
								<polygon points="303.92,413.12 303.93,413.12 303.93,413.12 								"/>
								<path d="M304.62,409.84c-0.01,0-0.02,0-0.03-0.01C304.6,409.84,304.6,409.84,304.62,409.84z"/>
								<path d="M306.02,409.89l-0.04-0.02c0.02,0.01,0.02,0.02,0.03,0.03C306.02,409.89,306.01,409.88,306.02,409.89z"/>
								<path d="M306.25,410.23c0.01,0.01,0,0,0.02,0.01l0.01-0.01C306.25,410.22,306.23,410.21,306.25,410.23z"/>
								<path d="M306.02,409.97c-0.01,0.02,0.02,0.03,0.05,0.04c0,0,0,0,0,0C306.09,410,306.05,409.98,306.02,409.97z"/>
								<path d="M306.07,410.02c0.01,0.01,0.01,0.01,0.02,0.02C306.11,410.03,306.09,410.03,306.07,410.02z"/>
								<path d="M305.76,409.78c0.01,0.01,0.02-0.02,0.02-0.01C305.81,409.75,305.68,409.75,305.76,409.78z"/>
								<polygon points="306.01,410.04 306.01,410.01 305.98,410.02 								"/>
								<path d="M305.81,409.91l0.04,0.03c0,0,0.01,0,0.02,0C305.84,409.92,305.81,409.9,305.81,409.91z"/>
								<path d="M305.86,409.93c0.01,0.01,0.03,0.02,0.04,0.02C305.89,409.94,305.88,409.94,305.86,409.93z"/>
								<polygon points="305.95,410.01 305.94,410 305.91,409.98 								"/>
								<path d="M305.31,409.73l-0.05,0c-0.01,0.01,0.01,0.01,0.03,0.01C305.3,409.74,305.32,409.74,305.31,409.73z"/>
								<path d="M305.45,409.83c-0.01-0.01-0.01-0.01-0.02-0.02l-0.01,0.03L305.45,409.83z"/>
								<path d="M305.31,409.81c-0.01,0.01-0.08,0.01-0.01,0.02C305.3,409.82,305.35,409.82,305.31,409.81z"/>
								<polygon points="304.53,409.78 304.54,409.77 304.53,409.73 								"/>
								<path d="M303.96,410.14c0.06-0.02,0-0.03,0.05-0.05c0.01-0.02-0.04,0.01-0.04,0C303.95,410.12,303.93,410.12,303.96,410.14z
									"/>
								<path d="M303.97,410.09l0.01-0.02C303.98,410.08,303.97,410.09,303.97,410.09z"/>
								<polygon points="306.98,411.76 306.99,411.72 306.97,411.75 								"/>
								<path d="M306.95,411.68l0.03-0.01l-0.03-0.03C306.95,411.65,306.95,411.67,306.95,411.68z"/>
								<path d="M303.25,412.13L303.25,412.13c-0.01,0.01-0.01,0.02-0.01,0.03L303.25,412.13z"/>
								<polygon points="303.43,412.59 303.43,412.58 303.41,412.61 								"/>
								<path d="M303.72,412.89c-0.01-0.01-0.03-0.02-0.04-0.04C303.71,412.88,303.7,412.92,303.72,412.89z"/>
							</g>
						</g>
					</g>
				</g>
			</g>
		</g>
	</g>
</g>
</svg>
