<?xml version="1.0" encoding="utf-8"?>
<!-- Generator: Adobe Illustrator 25.4.1, SVG Export Plug-In . SVG Version: 6.00 Build 0)  -->
<svg version="1.1" id="Ebene_1" xmlns="http://www.w3.org/2000/svg" xmlns:xlink="http://www.w3.org/1999/xlink" x="0px" y="0px"
	 viewBox="0 0 595.28 841.89" style="enable-background:new 0 0 595.28 841.89;" xml:space="preserve">
<g>
	<g id="XMLID_1434_">
		<g>
			<g id="XMLID_00000125573608404222092860000016278306502355152554_">
				<g id="XMLID_00000160880716974990272470000004637340565363105968_">
					<rect x="284.4" y="413.96" width="6.06" height="19.57"/>
					<g>
						<g>
							<g>
								<g>
									<path d="M284.52,433.47c0,0.08,0.02,0.05,0.02,0.06C284.53,433.4,284.51,433.47,284.52,433.47z"/>
									<polygon points="284.47,432.22 284.48,432.24 284.46,432.06 									"/>
									<path d="M284.47,431.05c-0.03,0.11,0.01,0.42-0.01,0.63l-0.01,0.03l0.03,0.09C284.48,431.56,284.46,431.23,284.47,431.05z"
										/>
									<path d="M284.55,430.43c-0.01,0.04-0.01-0.13,0,0.15c0-0.01,0-0.02,0-0.03C284.55,430.52,284.55,430.49,284.55,430.43z"/>
									<path d="M284.55,430.55C284.55,430.67,284.56,430.47,284.55,430.55L284.55,430.55z"/>
									<path d="M284.54,429.98l0.01,0.16c0.01-0.03,0.01-0.18,0.02-0.12C284.56,429.85,284.55,429.88,284.54,429.98z"/>
									<path d="M284.51,429.82l0.01,0.08C284.52,429.89,284.52,429.87,284.51,429.82z"/>
									<path d="M284.53,430.09l-0.01-0.18c-0.01,0.02-0.02,0.03,0,0.08C284.51,429.98,284.52,430.01,284.53,430.09z"/>
									<path d="M284.52,430.19c-0.01,0.09-0.01,0.21-0.02,0.05C284.5,430.54,284.53,430.5,284.52,430.19z"/>
									<path d="M284.44,430.99l-0.01,0.12l0.01,0.11C284.43,431.16,284.45,430.98,284.44,430.99z"/>
									<path d="M284.56,428.97c-0.01-0.01-0.02,0.05-0.03,0.07l0.01,0.12C284.54,429.09,284.54,428.98,284.56,428.97z"/>
									<path d="M284.53,429.04l-0.01-0.18C284.51,429.02,284.52,429.05,284.53,429.04z"/>
									<polygon points="284.47,429.8 284.5,430.09 284.47,429.74 									"/>
									<polygon points="284.56,428.28 284.57,428.39 284.55,428.21 									"/>
									<path d="M284.55,427.83c0.01,0.08,0.02-0.1,0.03-0.02c0-0.12-0.01-0.23-0.03-0.32
										C284.57,427.59,284.56,427.69,284.55,427.83z"/>
									<path d="M284.54,427.33c0,0.04,0.01,0.1,0.02,0.16C284.56,427.45,284.55,427.4,284.54,427.33z"/>
									<path d="M284.52,428.55c0-0.01,0.02-0.04,0.02-0.14l-0.02,0.07C284.52,428.5,284.52,428.53,284.52,428.55z"/>
									<path d="M284.52,428.48L284.52,428.48c0-0.08,0-0.13,0-0.15C284.52,428.35,284.52,428.39,284.52,428.48z"/>
									<path d="M284.52,428.57l0-0.02C284.52,428.56,284.52,428.56,284.52,428.57z"/>
									<path d="M284.49,429.33c-0.01-0.11-0.02-0.32-0.04-0.11C284.47,429.29,284.48,429.17,284.49,429.33z"/>
									<path d="M284.49,428.66l0,0.19c0.01,0,0.01-0.04,0.02,0.01L284.49,428.66z"/>
									<polygon points="284.49,428.56 284.49,428.66 284.49,428.59 									"/>
									<path d="M284.53,427.65c-0.01-0.08-0.01-0.17-0.01-0.27c0,0.13,0,0.23-0.01,0.33
										C284.51,427.72,284.53,427.77,284.53,427.65z"/>
									<path d="M284.52,428.06l0-0.02C284.52,428.05,284.52,428.06,284.52,428.06z"/>
									<polygon points="284.51,426.38 284.51,426.39 284.51,426.4 									"/>
									<path d="M284.5,427.72c0,0.08,0,0.13,0.01,0.18c0-0.07,0-0.13,0-0.2C284.51,427.7,284.5,427.7,284.5,427.72z"/>
									<path d="M284.54,427.05c0,0.05-0.01,0.1-0.01,0.14C284.53,427.15,284.54,427.06,284.54,427.05z"/>
									<path d="M284.52,428.01l0,0.01C284.53,428,284.53,428,284.52,428.01z"/>
									<path d="M284.52,428.01c0-0.03-0.01-0.07-0.01-0.11c0,0.04,0,0.08,0.01,0.14C284.52,428.03,284.52,428.02,284.52,428.01z"
										/>
									<path d="M284.38,426.08c0.02,0.01,0.04,0.23,0.02,0.42c0.01,0.18,0.08,0.06,0.11-0.1c-0.01-0.01-0.02-0.01-0.03-0.19
										c-0.01,0.07-0.02,0.42-0.04,0.26c-0.01-0.25,0.01-0.2,0.02-0.33c-0.02,0.1-0.03-0.32-0.07-0.26l0.01,0.22
										C284.4,426.09,284.39,426.01,284.38,426.08z"/>
									<path d="M284.51,426.75l0,0.08c0-0.09,0.01-0.15,0.03-0.27c-0.01-0.13-0.02-0.16-0.02-0.16l0,0.38L284.51,426.75z"/>
									<path d="M284.51,427.18c-0.02-0.06-0.03-0.25-0.05-0.13c0,0.23,0.02,0.16,0.03,0.29
										C284.48,426.97,284.5,427.44,284.51,427.18c0,0.09,0,0.15,0,0.2c0-0.06,0.01-0.12,0.01-0.19l0,0.01l0,0l0,0
										c0,0.02,0,0.02,0,0l0-0.01C284.52,427.19,284.51,427.18,284.51,427.18c0-0.11,0.01-0.02,0.01,0.02l0,0l0,0l-0.01-0.37
										C284.51,426.93,284.51,427,284.51,427.18z"/>
									<path d="M284.41,429.02c0-0.01,0-0.01,0-0.01C284.41,428.98,284.41,428.97,284.41,429.02z"/>
									<path d="M284.42,428.87c0,0.03,0.01,0.05,0.01,0.14c-0.01,0.08-0.01,0-0.02,0c0.01,0.05,0.01,0.18,0.02,0.02l0-0.03
										c0.01-0.15,0.03-0.34,0.04-0.31C284.45,428.73,284.44,428.77,284.42,428.87z"/>
									<path d="M284.46,428.01l-0.01-0.31l-0.02,0.16l0.01-0.01C284.44,428.03,284.45,427.99,284.46,428.01z"/>
									<polygon points="284.52,426.34 284.55,426.38 284.52,426.21 									"/>
									<polygon points="284.52,425.95 284.54,425.96 284.53,425.86 									"/>
									<path d="M290.57,418.32l0.01,0.09C290.58,418.37,290.57,418.35,290.57,418.32z"/>
									<path d="M290.57,417.67l-0.01-0.02C290.57,417.68,290.57,417.7,290.57,417.67z"/>
									<path d="M284.52,416.19c0.02-0.13,0.05-0.28,0.02-0.26l-0.02,0.04C284.53,416.07,284.52,416.14,284.52,416.19z"/>
									<path d="M288.84,413.95l-0.04-0.01c-0.03,0.01-0.06,0.01-0.09,0.02C288.76,413.96,288.8,413.96,288.84,413.95z"/>
									<path d="M288.94,413.87l0.17,0.01C289.05,413.88,289,413.87,288.94,413.87z"/>
									<path d="M290.59,421.87l0.02,0.1C290.62,421.81,290.6,421.88,290.59,421.87z"/>
									<path d="M284.51,421.88c0.01-0.15,0.01-0.22,0.01-0.28C284.52,421.73,284.5,421.84,284.51,421.88z"/>
									<path d="M290.35,418.06c0,0.05,0.01,0.08,0.01,0.08C290.36,418.08,290.36,418.05,290.35,418.06z"/>
									<path d="M284.53,421.27c0,0.02,0,0.04,0,0.06c0,0.1,0,0.17,0,0.27C284.54,421.5,284.54,421.38,284.53,421.27z"/>
									<path d="M289.24,433.65c-0.01,0-0.02,0-0.03,0C289.21,433.64,289.22,433.65,289.24,433.65z"/>
									<path d="M285.49,433.44c0.04,0,0.1,0,0.15,0C285.61,433.43,285.58,433.44,285.49,433.44z"/>
									<path d="M284.53,424.35C284.53,424.43,284.53,424.36,284.53,424.35L284.53,424.35z"/>
									<path d="M284.45,424.76c0-0.02-0.01-0.03-0.01-0.03C284.44,424.73,284.45,424.74,284.45,424.76z"/>
									<path d="M284.4,420.43L284.4,420.43C284.39,420.45,284.39,420.45,284.4,420.43z"/>
									<path d="M284.52,424.48c0-0.04,0-0.08,0.01-0.11C284.53,424.39,284.52,424.43,284.52,424.48z"/>
									<path d="M284.53,424.46c0,0.03,0,0.05,0,0.07C284.53,424.54,284.54,424.53,284.53,424.46z"/>
									<path d="M284.53,424.23c0,0.05,0,0.09,0,0.14c0-0.02,0-0.02,0-0.02C284.53,424.32,284.53,424.29,284.53,424.23z"/>
									<path d="M290.52,427.85c0,0.01,0,0.01,0,0.02C290.53,427.95,290.53,427.91,290.52,427.85z"/>
									<polygon points="284.3,413.93 284.3,413.94 284.31,413.93 									"/>
									<path d="M284.66,413.85c-0.09,0.02-0.25,0.02-0.35,0.02c0,0.02,0,0.04,0,0.06l0.02-0.04l0.1,0.04L284.66,413.85z"/>
									<path d="M290.58,419.88l0.02-0.21c0.03,0.26,0.02,0.44,0.05,0.24c-0.07-0.03-0.01-0.83-0.07-0.86l0.01-0.14
										c0,0.03,0,0.05,0,0.09c0.03-0.27-0.05-0.2-0.04-0.55c0-0.12,0.01-0.21,0.02-0.12l-0.02-0.27c0-0.08,0.01-0.06,0.01,0.02
										l-0.01-0.42l0,0c-0.01-0.08-0.03-0.2-0.03-0.26c0.01-0.11,0.01,0.05,0.02,0.03l-0.02-0.23c0.02-0.09,0.03,0.1,0.03,0.26
										c0.07-0.21-0.02-0.19,0.02-0.65l0.01,0.22c0.04-0.14,0.02-0.31,0.05-0.56c-0.01,0.06-0.06,0.49-0.07,0.24
										c0-0.07,0.01-0.16-0.01-0.3c0.02,0,0.02-0.13,0.02-0.3l0.03,0.01c-0.01-0.18-0.02-0.16-0.04-0.27
										c0-0.2,0.03-0.24,0.05-0.29c0-0.32-0.04,0.22-0.04-0.16c0.01-0.26,0-0.45-0.02-0.77c0.01-0.18,0.02,0.03,0.03-0.03
										l-0.02-0.16c0-0.04,0.01-0.03,0.01-0.02c-0.01-0.14-0.03-0.01-0.04-0.23c-0.01-0.02-0.01-0.13,0-0.3
										c-0.22-0.01-0.41-0.03-0.56-0.01c-0.07-0.01,0.03-0.02,0.01-0.03c-0.37,0.03-0.32,0.02-0.62,0.05l-0.26-0.02
										c0.19,0.02-0.05,0.05-0.26,0.07c0.07,0.01,0.13,0.02,0.16,0.03l-0.34,0.02c-0.04-0.01-0.01-0.02,0.05-0.03l-0.06,0.01
										c-0.12-0.01-0.06-0.03,0.03-0.05l0.12,0.02c0.08-0.02,0.16-0.04,0.14-0.06c-0.04,0-0.08,0.01-0.11,0.01
										c0.02-0.01,0.04-0.01,0.03-0.01c-0.01,0-0.05,0-0.1,0.01l-0.08-0.03l-0.02,0.01l-0.44-0.02c-0.32,0.03-0.59,0.09-1.1,0.1
										c0.12-0.03,0.03-0.04,0.03-0.07c0.14,0.03,0.39-0.01,0.65-0.01c-0.14,0-0.11-0.02-0.07-0.02l-0.46,0.03
										c0.01-0.02-0.1-0.02-0.22-0.03c0.09,0.05-0.35,0.03-0.54,0.05c-0.01-0.02,0.03-0.03,0.26-0.03
										c-0.25-0.04-0.33,0.06-0.58,0.03c0.06,0,0.09,0,0.11-0.01c-0.13,0.01-0.45,0-0.38-0.01l0.06,0c-0.37-0.01-1.14,0-1.19,0.04
										c0-0.01,0.05-0.05,0.07-0.06l-0.47,0.1l0.04,0.2c-0.02-0.03-0.05,0.01-0.07,0.02c-0.03,0-0.05,0.02-0.06-0.23
										c-0.01,0.15-0.01,0.28,0,0.45c0-0.06,0.05-0.15,0.05-0.07c-0.04,0.23-0.02,0.16-0.05,0.44c0.01-0.09,0.06,0.01,0.06,0.15
										c-0.01-0.02-0.05,0.01-0.06-0.04l0.05,0.36c-0.01-0.09-0.05-0.02-0.06,0.06c0.01-0.04,0,0.31,0,0.41l0.01-0.15
										c-0.01,0.4,0.08,0.4,0.07,0.8c-0.01-0.05-0.07-0.12-0.08,0.08c0.03,0.09,0.13,0.41,0.15,0.77l-0.02,0.07l0.02,0.27
										c-0.04-0.17-0.13-0.65-0.16-0.91c-0.01,0.15-0.02,0.04-0.02,0.27c-0.01,0.08-0.02-0.12-0.02-0.19l-0.01,0.53
										c0.03-0.02,0.03,0.4,0.06,0.38l-0.03-0.57c0.03-0.02,0.09,0.33,0.09,0.71c-0.01,0.1-0.06-0.07-0.07-0.06
										c0.01,0.05,0.02,0.35,0.01,0.39l-0.02-0.16c-0.01,0.21,0.04,0.34,0.01,0.59c0,0.09-0.04,0.26-0.02,0.27
										c0.04-0.14,0.15-0.17,0.18-0.07c0,0.03-0.04,0.45-0.05,0.55c-0.03,0.14-0.07-0.21-0.09-0.09c0.01,0.01,0.02,0.08,0.02,0.12
										c-0.01,0.09-0.03-0.04-0.02,0.16c0.03,0.03,0,0.4,0.03,0.09c0.01,0.19-0.01,0.2-0.01,0.43c0.02-0.07,0.07,0.2,0.08,0.4
										c-0.01-0.01-0.02,0.03-0.02,0.05c-0.01,0.37-0.01,0.63-0.02,0.98c-0.01,0.03-0.02,0.21-0.03,0.14
										c0.01,0.05,0.02,0.1,0.02,0.22c-0.03,0.22,0-0.25-0.04-0.09c0.02,0.01,0.03,0.29,0.04,0.46c0.03-0.05,0.01-0.37-0.01-0.54
										c0.04,0,0.08,0.28,0.1,0.67c0.01,0.31-0.03,0.13-0.02,0.19c-0.01,0.57,0.07,0.49,0.04,0.97c-0.03,0.19-0.05,0.01-0.07,0.05
										c-0.01-0.25,0.02-0.38,0.02-0.55l-0.01,0.21c-0.01-0.08-0.02-0.25-0.01-0.34c-0.02,0.16,0,0.97-0.03,1.41
										c0.01,0.08,0.02,0.21,0.03,0.15l0-0.14c0.02-0.13,0.03,0.26,0.04,0.09c0.01,0.19,0.04,0.4,0.03,0.66l-0.03,0.05
										c0.01-0.01,0.02-0.17,0.01-0.25c0.01,0.11-0.04,0.41,0,0.53l0.02-0.19c0.01,0.19,0.05,0.42,0.04,0.66
										c0.03-0.11,0-0.05,0.03-0.22c-0.04,0.14,0-0.6-0.04-0.37c0.04-0.17,0.02-0.3,0.05-0.52c-0.01,0.01-0.02,0.08-0.01-0.12
										c0-0.01-0.01-0.03-0.01-0.04l0-0.01l0,0.01c0-0.01,0-0.01,0,0c0,0.05-0.01,0.08-0.01,0.1c-0.02-0.1-0.02-0.41-0.03-0.52
										c0-0.12,0.01,0.05,0.02-0.01l-0.02-0.16c0.02-0.02,0.04-0.31,0.05-0.04l0-0.25c0.01-0.15,0.02-0.35,0.01-0.47
										c0-0.12-0.02-0.3-0.01-0.19l-0.01-0.39l0.01,0c0-0.38-0.04-0.79,0-1.23c-0.01-0.13-0.01-0.26-0.01-0.48l0.02-0.04
										c-0.01-0.17,0.02-0.5,0-0.57c0.05-0.18,0.01-0.8,0.02-1.1l-0.02-0.01c0-0.18-0.01-0.36-0.02-0.64l-0.02,0.02
										c-0.02-0.21,0.02-0.55,0.01-0.89c0.01,0.02,0.01,0.11,0,0.17c0.05-0.41-0.04-0.86,0-1.22c-0.01-0.09-0.01-0.16,0-0.22
										c0,0.01,0,0.01,0,0.02c0-0.01,0-0.02,0-0.04c0-0.04,0.01-0.09,0.01-0.13c-0.01,0.05-0.01,0.09-0.01,0.11
										c0-0.06,0-0.15-0.01-0.28l0.02-0.04c0-0.01,0-0.01,0-0.02c0.01-0.1-0.01-0.08-0.03-0.03c0-0.04-0.01-0.09-0.01-0.14
										c0.04-0.08-0.01-0.28,0.03-0.39c-0.02-0.07-0.01-0.53-0.06-0.59c0.01,0,0.01-0.03,0.01,0.02c0-0.12,0.01-0.23,0-0.34
										l0.03-0.05l-0.04-0.26c0.02-0.14,0.03-0.13,0.05-0.05c-0.01-0.04-0.01-0.07-0.01-0.09c0.16-0.01,0.09-0.01,0.38-0.03
										l-0.02,0.02c0.11,0,0.29-0.03,0.36-0.01c0.25,0.04,1.26,0,1.91,0.04c-0.13-0.06,0.3,0.03,0.33-0.02
										c0.04,0.01,0.13,0.02,0.02,0.03c0.33-0.01,0.5,0.02,0.73-0.02c0.04,0.01-0.07,0.02-0.04,0.03c0.03,0,0.11-0.01,0.14,0
										c0.03,0.01-0.05,0.01-0.1,0.02c0.34,0,0.37-0.04,0.4-0.08c0.17,0.02,0.26,0.02,0.38-0.01c0.06,0.01,0.16,0.03-0.05,0.03
										c0.12,0,0.72,0.02,0.74-0.01c0.04,0.01,0.17,0,0.2,0c0.24,0,0.26,0,0.5,0l-0.05-0.01c0.03-0.01,0.06-0.02,0.1-0.02
										c0,0.07,0,0.16-0.01,0.27l0-0.01c-0.03,0.48,0.01,0.21-0.02,0.69l0.02-0.03c0.05,0.04-0.03,0.42-0.01,0.7l0.01-0.1
										c0.02,0.15-0.07,0.42-0.07,0.57c0,0.03-0.01-0.05-0.01-0.1c-0.03,0.4,0.03,0.05,0.04,0.35c-0.02,0.05-0.04-0.07-0.04,0.13
										c-0.01,0.1,0.05,0.58,0.02,0.85c0.01-0.06,0.03-0.12,0.03,0.02c0,0.21-0.05,0.57-0.01,0.76c0,0.03-0.01,0.04-0.01,0.04
										c0.01,0.16,0.02,0.52,0.04,0.62c-0.08,0.15,0.04,1-0.03,1l0,0.5l-0.01-0.01c0,0.32,0.01,0.43,0.03,0.54
										c-0.01,0.07-0.01,0.02-0.02,0.01c-0.01,0.46-0.01,0.51,0.02,0.9l-0.02,0.04c0.01,0.11-0.04,0.67-0.01,1.12
										c0,0-0.01-0.01-0.01-0.05c0.03,0.51-0.07,1.22,0.02,1.41l0.02,0.34c0.01-0.44,0.04,0.06,0.05-0.11
										c0.01,0.17-0.03,0.44-0.03,0.23l0-0.03c-0.05-0.08-0.02,0.54-0.05,0.53c-0.01,0.84-0.02,1.71-0.02,2.5l0.04-0.09l0,0.28
										c-0.01,0.07-0.03,0.1-0.03-0.1c-0.02,0.11,0.02,0.34,0.02,0.34c-0.01,0.39-0.04-0.15-0.04-0.03l0,0.16l0-0.04
										c0.01,0.13,0.03,0.14,0.03,0.38c-0.01,0.15-0.02,0.08-0.02,0.14c0,0,0,0.02,0,0.09l0,0.35l0.03-0.14
										c0.01,0.16,0,0.33,0.03,0.17c-0.05,0.24-0.02,1.32-0.03,1.46c0.02,0.22,0.02,0.44,0.02,0.7c0.01-0.07,0.04-0.11,0.03,0.12
										c-0.06-0.08-0.03,0.42-0.07,0.61c0.03-0.17,0.01,0.66,0.05,0.4c-0.01,0.19-0.02,0.01-0.04,0.16c0,0.18,0.01,0.29,0.01,0.42
										c0,0.11-0.01,0.24-0.01,0.37c-0.09,0-0.17,0-0.25-0.01c-0.12,0-0.23,0-0.35,0c-0.01,0.01,0.09,0.02-0.04,0.03l-0.3-0.04
										c-0.11,0-0.1,0.05-0.31,0.02c0.03,0.01,0.07,0.02,0,0.02c-1.11-0.04-2.27,0.03-3.4-0.04c0.15,0.02,0.05,0.02-0.07,0.02
										c0.08,0,0,0.02,0.01,0.03l-0.47-0.03c-0.09,0.03-0.51,0-0.56,0.03l0.15-0.01c-0.2,0.04,0.28,0.08,0.25,0.13
										c0.22-0.04,0.59,0.06,0.95,0c0.08,0.01-0.07,0.01-0.03,0.03c0.09-0.02,0.2-0.02,0.41-0.01l-0.02,0
										c0.58,0,0.83,0.01,1.49,0.03l-0.05-0.02c0.14,0,0.17,0.01,0.24,0.02c0.16-0.03-0.4,0-0.25-0.04c0.19,0.05,0.99,0,1.12,0.05
										c0.22,0-0.06-0.03,0.15-0.03l0.06,0.01l0.05-0.02c0.14,0,0.21,0.02,0.22,0.03c-0.04,0-0.1,0-0.13,0
										c0.18,0.02,0.52-0.01,0.58,0l-0.21-0.01c0.32,0,0.63,0,0.95-0.01c0-0.21,0-0.43,0-0.64c0-0.15-0.01-0.31-0.01-0.5
										l-0.01,0.04c-0.02-0.44,0.01-0.35,0-0.83l0,0.02c-0.01-0.1-0.02-0.22-0.01-0.35c0.01,0.12,0.02-0.23,0.04-0.07
										c-0.02-0.47-0.02-0.23-0.06-0.55l0.02-0.07c-0.02-0.11-0.02-0.12-0.03-0.35c0.02,0.2,0.03-0.15,0.05,0.07
										c0.04-0.5-0.04-0.75,0.02-0.98c-0.05-0.23-0.03,0.43-0.04,0.31c-0.02,0.11-0.04-0.19-0.03-0.35c0-0.16,0.06-0.27,0.06-0.68
										c0,0.03,0,0.05,0,0.08c0.01-0.15-0.02-0.3,0-0.48c-0.03-0.1,0-0.24-0.04-0.27l0.01,0.37c-0.01-0.21-0.05-0.41-0.03-0.75
										c0.01,0.03,0.02,0.13,0.02,0.2c0.01-0.1-0.01-0.19,0-0.3c0.04,0.03,0.01,0.45,0.04,0.67c0.02-0.11-0.03-0.42,0.01-0.31
										c-0.05-0.16,0.01-0.4-0.03-0.67l0.02,0.02c0-0.04-0.01-0.13-0.01-0.21l0.03,0.14c-0.03-0.22,0.02-0.43,0.01-0.64
										c0,0.44-0.03,0.1-0.04,0.29c-0.03-0.55,0.06-0.31,0.05-0.93c0,0.08-0.01,0.31-0.02,0.18c0-0.12,0.01-0.27,0.03-0.34
										c0-0.41-0.02,0.06-0.04-0.11c0.03-0.14-0.01-0.2-0.02-0.38l0.02,0c0.01-0.46-0.05-0.12-0.03-0.54l0.03,0.18l-0.01-0.22
										l0.03,0.04c-0.02-0.24-0.01-0.31-0.01-0.54c-0.02,0.05-0.04-0.03-0.04-0.24c0.01-0.14,0.02,0.08,0.02-0.21
										c0.01,0.07,0.03,0.14,0.01,0.26l0.02,0.08c0.02-0.15,0-0.38,0-0.48c0,0.03,0,0.06-0.01,0.11l-0.03-0.42
										c0.01-0.07,0.02-0.01,0.02,0.04c0-0.06-0.01-0.18-0.02-0.27c0.02,0.03,0.04,0.02,0.05,0.2l-0.02-0.4
										c0.01-0.03,0.02-0.21,0.03-0.15c0.01-0.22-0.04-0.55-0.02-0.84c0-0.02-0.01-0.05-0.01-0.11c0-0.28,0.03-0.52,0-0.85
										l0.03-0.19c-0.01-0.26-0.04,0.25-0.06-0.18c-0.01-0.3,0.03-0.11,0.04-0.22c-0.02-0.15-0.05-0.41-0.02-0.69
										C290.58,419.77,290.58,419.78,290.58,419.88z M290.56,416.7c0,0.06,0.02,0.18,0.01,0.23
										C290.54,416.86,290.56,416.81,290.56,416.7z M288.38,413.91c0.05-0.01,0.12,0,0.2,0
										C288.51,413.92,288.45,413.92,288.38,413.91z M284.51,423.43L284.51,423.43C284.52,423.28,284.52,423.33,284.51,423.43z
										 M284.5,423.71c0,0.03,0.01,0.03,0.01,0.01c-0.01-0.02-0.01-0.08,0-0.16C284.5,423.59,284.5,423.63,284.5,423.71z
										 M290.37,428.74l0.01-0.06C290.38,428.81,290.37,428.78,290.37,428.74z"/>
									<path d="M288.92,413.88c0.02,0,0.02,0.01,0.03,0.01C288.97,413.89,288.97,413.88,288.92,413.88z"/>
									<path d="M290.59,421.85L290.59,421.85c0,0.01,0,0.02,0,0.02L290.59,421.85z"/>
									<path d="M284.31,419.3c0-0.06,0.01-0.09,0.01-0.11C284.31,419.18,284.31,419.21,284.31,419.3z"/>
									<path d="M284.54,425.22l-0.01-0.18c0,0.09,0,0.12-0.01,0.16C284.53,425.2,284.54,425.16,284.54,425.22z"/>
									<path d="M284.4,426.8c0,0.05,0,0.03,0,0.08l0.01-0.01C284.41,426.77,284.4,426.69,284.4,426.8z"/>
									<path d="M284.46,425.39c-0.02,0.01-0.01,0.13-0.01,0.26v-0.02C284.48,425.66,284.47,425.52,284.46,425.39z"/>
									<path d="M284.46,425.68c0,0.04,0,0.08,0,0.12C284.47,425.81,284.46,425.75,284.46,425.68z"/>
									<path d="M284.52,424.07c-0.01,0.06,0.02,0.04,0.02,0.07C284.56,424.21,284.5,423.74,284.52,424.07z"/>
									<polygon points="284.4,425.49 284.42,425.45 284.41,425.38 									"/>
									<path d="M284.42,424.48l-0.01,0.2c0,0,0.01,0.02,0.01,0.05C284.42,424.62,284.43,424.48,284.42,424.48z"/>
									<path d="M284.42,424.74c0,0.05,0,0.09,0,0.16C284.42,424.88,284.42,424.81,284.42,424.74z"/>
									<polygon points="284.39,425.21 284.4,425.15 284.4,425.01 									"/>
									<path d="M284.42,422.29l-0.01-0.22c-0.01-0.02-0.01,0.04-0.01,0.12C284.41,422.24,284.41,422.32,284.42,422.29z"/>
									<path d="M284.36,422.96c0-0.06,0.01-0.06,0.02-0.1l-0.03-0.01L284.36,422.96z"/>
									<path d="M284.35,422.31c-0.01-0.02-0.02-0.32-0.02-0.04C284.34,422.29,284.34,422.52,284.35,422.31z"/>
									<polygon points="284.39,418.95 284.39,419.01 284.44,419 									"/>
									<path d="M284.27,415.99c-0.01,0.26,0.03,0.06,0.02,0.3c0.01,0.06,0.01-0.2,0.02-0.13C284.3,416,284.3,415.92,284.27,415.99
										z"/>
									<path d="M284.31,416.16c0,0.02,0,0.05,0.01,0.08C284.31,416.21,284.31,416.18,284.31,416.16z"/>
									<polygon points="284.87,433.41 284.7,433.4 284.81,433.42 									"/>
									<path d="M284.54,433.45l-0.04-0.03l-0.1,0.03C284.44,433.44,284.51,433.44,284.54,433.45z"/>
									<path d="M290.63,416.23l-0.01-0.01c-0.01,0.03-0.01,0.07-0.01,0.15L290.63,416.23z"/>
									<polygon points="290.6,418.53 290.6,418.49 290.57,418.57 									"/>
									<path d="M290.64,420.47c0-0.08,0-0.17,0-0.25C290.64,420.39,290.6,420.49,290.64,420.47z"/>
								</g>
							</g>
						</g>
					</g>
				</g>
				<g id="XMLID_00000062151003612263802730000007693244477076155573_">
					<path d="M287.4,411.4c1.98,0,3.58-1.62,3.58-3.61c0-1.99-1.6-3.61-3.58-3.61c-1.98,0-3.58,1.62-3.58,3.61
						C283.82,409.78,285.42,411.4,287.4,411.4z"/>
					<g>
						<g>
							<g>
								<g>
									<path d="M287.37,411.28c0.03,0,0.02-0.02,0.03-0.02C287.35,411.26,287.38,411.28,287.37,411.28z"/>
									<polygon points="286.84,411.28 286.85,411.27 286.77,411.28 									"/>
									<path d="M286.35,411.16c0.04,0.05,0.18,0.04,0.26,0.08l0.01,0.01l0.05-0.02C286.56,411.21,286.42,411.19,286.35,411.16z"/>
									<path d="M286.12,411c0.01,0.02-0.06-0.01,0.06,0.03c0,0-0.01-0.01-0.01-0.01C286.16,411.01,286.15,411.01,286.12,411z"/>
									<path d="M286.17,411.02C286.22,411.04,286.14,411,286.17,411.02L286.17,411.02z"/>
									<path d="M285.95,410.93l0.07,0.02c-0.01-0.01-0.06-0.04-0.04-0.04C285.91,410.89,285.91,410.9,285.95,410.93z"/>
									<path d="M285.88,410.92l0.03,0.01C285.91,410.93,285.9,410.92,285.88,410.92z"/>
									<path d="M285.98,410.96l-0.07-0.02c0.01,0.01,0,0.02,0.03,0.01C285.93,410.95,285.95,410.95,285.98,410.96z"/>
									<path d="M286.02,410.98c0.03,0.02,0.08,0.05,0.01,0.03C286.15,411.06,286.14,411.03,286.02,410.98z"/>
									<path d="M286.31,411.19l0.05,0.03l0.05,0C286.38,411.21,286.31,411.18,286.31,411.19z"/>
									<path d="M285.58,410.71c-0.01,0,0.01,0.03,0.01,0.04l0.05,0.02C285.62,410.75,285.58,410.72,285.58,410.71z"/>
									<path d="M285.59,410.75l-0.07-0.03C285.57,410.76,285.59,410.76,285.59,410.75z"/>
									<polygon points="285.85,410.95 285.97,410.98 285.83,410.94 									"/>
									<polygon points="285.34,410.54 285.39,410.56 285.31,410.53 									"/>
									<path d="M285.19,410.43c0.03,0.01-0.02-0.05,0.01-0.03c-0.04-0.03-0.08-0.05-0.12-0.07
										C285.12,410.35,285.16,410.38,285.19,410.43z"/>
									<path d="M285.03,410.29c0.01,0.01,0.04,0.02,0.06,0.03C285.07,410.31,285.05,410.3,285.03,410.29z"/>
									<path d="M285.41,410.64c0-0.01,0-0.02-0.04-0.05l0.01,0.03L285.41,410.64z"/>
									<path d="M285.39,410.63L285.39,410.63c-0.03-0.02-0.04-0.03-0.05-0.04C285.34,410.59,285.36,410.6,285.39,410.63z"/>
									<path d="M285.42,410.65L285.42,410.65L285.42,410.65z"/>
									<path d="M285.68,410.84c-0.04-0.01-0.13-0.05-0.06,0.01C285.65,410.86,285.61,410.82,285.68,410.84z"/>
									<path d="M285.43,410.69c0.02,0.02,0.04,0.03,0.07,0.05c0-0.01-0.01-0.02,0.02-0.01
										C285.49,410.71,285.46,410.71,285.43,410.69z"/>
									<polygon points="285.4,410.67 285.43,410.69 285.41,410.67 									"/>
									<path d="M285.12,410.4c-0.03-0.02-0.06-0.04-0.09-0.07c0.05,0.05,0.08,0.08,0.1,0.1
										C285.13,410.43,285.15,410.43,285.12,410.4z"/>
									<path d="M285.24,410.51L285.24,410.51C285.24,410.51,285.24,410.51,285.24,410.51z"/>
									<polygon points="284.73,410.02 284.73,410.02 284.74,410.02 									"/>
									<path d="M285.13,410.43c0.02,0.03,0.04,0.04,0.06,0.05C285.16,410.46,285.14,410.44,285.13,410.43
										C285.12,410.43,285.12,410.43,285.13,410.43z"/>
									<path d="M284.94,410.21c0.01,0.02,0.02,0.03,0.03,0.05C284.96,410.25,284.95,410.22,284.94,410.21z"/>
									<path d="M285.23,410.5L285.23,410.5C285.23,410.49,285.23,410.49,285.23,410.5z"/>
									<path d="M285.23,410.5c-0.01,0-0.03-0.01-0.04-0.02c0.01,0.01,0.03,0.02,0.05,0.03L285.23,410.5z"/>
									<path d="M284.55,409.99c0.02-0.01,0.08,0.06,0.13,0.13c0.06,0.05,0.08-0.03,0.06-0.1c-0.01,0-0.02,0.01-0.07-0.05
										c0.01,0.03,0.1,0.15,0.04,0.11c-0.08-0.08-0.05-0.07-0.07-0.12c0.01,0.05-0.11-0.09-0.12-0.05l0.07,0.07
										C284.56,409.99,284.54,409.97,284.55,409.99z"/>
									<path d="M284.83,410.14l0.02,0.02c-0.02-0.03-0.04-0.06-0.06-0.1c-0.04-0.03-0.06-0.04-0.06-0.04L284.83,410.14
										L284.83,410.14z"/>
									<path d="M284.96,410.27c-0.03,0-0.09-0.06-0.08,0c0.07,0.07,0.06,0.04,0.11,0.07
										C284.87,410.23,285.03,410.36,284.96,410.27c0.04,0.03,0.05,0.04,0.07,0.06c-0.01-0.02-0.03-0.04-0.05-0.06l0,0l0,0l0,0
										c0,0.01,0,0.01,0,0l0,0L284.96,410.27c-0.03-0.03,0-0.01,0.01,0l0,0l0,0c-0.04-0.03-0.08-0.07-0.11-0.11
										C284.88,410.19,284.91,410.22,284.96,410.27z"/>
									<path d="M285.52,410.85C285.52,410.84,285.52,410.84,285.52,410.85C285.51,410.84,285.5,410.84,285.52,410.85z"/>
									<path d="M285.47,410.8c0.01,0,0.02,0,0.06,0.02c0.02,0.02-0.01,0.01-0.01,0.01c0.02,0.01,0.08,0.03,0.02-0.02l-0.01,0
										c-0.05-0.04-0.11-0.1-0.1-0.1C285.44,410.74,285.44,410.76,285.47,410.8z"/>
									<path d="M285.19,410.55c-0.04-0.02-0.07-0.05-0.11-0.08l0.04,0.06l0-0.01C285.18,410.57,285.18,410.55,285.19,410.55z"/>
									<polygon points="284.73,410 284.76,410 284.69,409.96 									"/>
									<polygon points="284.63,409.87 284.65,409.86 284.61,409.83 									"/>
									<path d="M289.29,404.59l0.04,0.02L289.29,404.59z"/>
									<path d="M289.03,404.44l-0.01,0.01C289.03,404.45,289.04,404.45,289.03,404.44z"/>
									<path d="M284.46,405.95c0.04-0.04,0.1-0.08,0.08-0.08l-0.03,0C284.49,405.91,284.47,405.94,284.46,405.95z"/>
									<path d="M286.69,404.24l-0.02,0l-0.03,0.03C286.66,404.26,286.67,404.25,286.69,404.24z"/>
									<path d="M286.72,404.15l0.08,0L286.72,404.15z"/>
									<path d="M290.47,405.67l0.04,0.03C290.47,405.64,290.48,405.67,290.47,405.67z"/>
									<path d="M283.97,408.28c0-0.05,0-0.09-0.01-0.12C283.96,408.22,283.95,408.27,283.97,408.28z"/>
									<path d="M289.08,404.72c0.02,0.01,0.03,0.01,0.03,0.01C289.09,404.71,289.08,404.71,289.08,404.72z"/>
									<path d="M283.96,408.02c0,0.01,0,0.02,0,0.03c0.01,0.05,0.01,0.08,0.01,0.11C283.97,408.12,283.97,408.07,283.96,408.02z"
										/>
									<path d="M289.48,410.87l-0.01,0.01C289.46,410.88,289.47,410.88,289.48,410.87z"/>
									<path d="M287.87,411.27c0.03,0,0.04-0.01,0.07-0.01C287.92,411.26,287.9,411.26,287.87,411.27z"/>
									<path d="M284.29,409.28C284.3,409.31,284.29,409.28,284.29,409.28L284.29,409.28z"/>
									<path d="M284.29,409.47c-0.01-0.01-0.02-0.01-0.02-0.01C284.28,409.47,284.28,409.47,284.29,409.47z"/>
									<path d="M283.82,407.66L283.82,407.66C283.82,407.67,283.82,407.67,283.82,407.66z"/>
									<path d="M284.3,409.33c-0.01-0.02-0.01-0.03-0.01-0.04C284.29,409.3,284.3,409.31,284.3,409.33z"/>
									<path d="M284.31,409.32c0.01,0.01,0.01,0.02,0.01,0.03C284.32,409.35,284.32,409.35,284.31,409.32z"/>
									<path d="M284.26,409.23c0.01,0.02,0.01,0.03,0.02,0.05c0-0.01,0-0.01,0-0.01C284.28,409.27,284.28,409.25,284.26,409.23z"
										/>
									<path d="M291.01,408.26L291.01,408.26C291.01,408.31,291.01,408.29,291.01,408.26z"/>
									<polygon points="284.89,405.08 284.89,405.08 284.9,405.08 									"/>
									<path d="M284.99,404.97c-0.03,0.06-0.05,0.08-0.09,0.1l0.07,0.01L284.99,404.97z"/>
									<path d="M289.86,405l-0.06-0.08c0.11,0.06,0.16,0.12,0.11,0.04c-0.05,0.03-0.3-0.24-0.35-0.19l-0.04-0.05l0.03,0.02
										c-0.08-0.1-0.1-0.02-0.23-0.11c-0.04-0.03-0.07-0.06-0.04-0.05l-0.11-0.05c-0.03-0.02-0.02-0.03,0.01-0.01
										c-0.05-0.03-0.11-0.05-0.17-0.08l0,0c-0.04-0.01-0.09-0.02-0.12-0.02c-0.04-0.03,0.02,0,0.02-0.01l-0.1-0.03
										c-0.03-0.03,0.05-0.01,0.12,0.02c-0.06-0.1-0.08-0.03-0.27-0.13l0.1,0.03c-0.05-0.06-0.12-0.07-0.22-0.13
										c0.02,0.02,0.19,0.13,0.08,0.11c-0.03-0.02-0.07-0.03-0.13-0.04c0.01-0.02-0.05-0.03-0.13-0.05l0.01-0.03
										c-0.08-0.01-0.08,0-0.13,0.01c-0.09-0.03-0.1-0.05-0.12-0.08c-0.14-0.03,0.09,0.05-0.08,0.03
										c-0.12-0.03-0.2-0.04-0.35-0.03c-0.08-0.01,0.02-0.02-0.01-0.03l-0.08,0.02c-0.02,0-0.01-0.01-0.01-0.01
										c-0.06,0.01-0.01,0.03-0.1,0.03c-0.03,0.03-0.2-0.05-0.32-0.01c-0.03-0.01,0.01-0.02,0-0.03
										c-0.17,0.03-0.14,0.02-0.27,0.08l-0.12,0c0.09,0.01-0.02,0.05-0.1,0.09c0.03,0.01,0.06,0.01,0.08,0.01
										c-0.05,0.01-0.1,0.03-0.14,0.04c-0.02,0-0.01-0.01,0.01-0.03l-0.02,0.01c-0.05,0-0.03-0.02,0-0.05l0.06,0
										c0.03-0.02,0.06-0.05,0.05-0.07c-0.01,0-0.03,0.01-0.05,0.02c0.01-0.01,0.01-0.01,0.01-0.01c-0.01,0-0.02,0.01-0.04,0.02
										l-0.04-0.02l-0.01,0.02l-0.2,0.03c-0.13,0.07-0.23,0.16-0.43,0.26c0.04-0.05-0.01-0.04-0.01-0.07
										c0.07,0,0.16-0.07,0.27-0.11c-0.06,0.02-0.05,0-0.04-0.01l-0.19,0.1c-0.01-0.02-0.05,0-0.1,0.01
										c0.06,0.03-0.13,0.1-0.2,0.15c-0.01-0.01,0-0.04,0.09-0.08c-0.12,0.02-0.11,0.11-0.22,0.14c0.02-0.01,0.03-0.02,0.04-0.03
										c-0.04,0.04-0.17,0.11-0.15,0.08l0.02-0.01c-0.15,0.07-0.42,0.3-0.41,0.34c0,0-0.02-0.05-0.01-0.07l-0.13,0.3
										c0-0.04-0.14-0.03-0.05-0.14c-0.03,0.02-0.08,0.05-0.12,0.12c0.02-0.02,0.08-0.01,0.06,0.01c-0.1,0.05-0.06,0.04-0.17,0.11
										c0.03-0.03,0.04,0.04,0,0.09c0-0.01-0.04-0.03-0.03-0.05c-0.02,0.05-0.04,0.1-0.06,0.16c0.02-0.04-0.03-0.03-0.07-0.01
										c0.02-0.01-0.08,0.11-0.11,0.15l0.05-0.05c-0.12,0.14-0.04,0.19-0.13,0.34c0-0.02-0.03-0.08-0.08-0.01
										c0,0.05,0.03,0.23-0.02,0.37l-0.03,0.02c-0.01,0.04-0.02,0.08-0.03,0.12c-0.02-0.08,0-0.31,0.02-0.43
										c-0.04,0.06-0.02,0.01-0.07,0.1c-0.03,0.03,0-0.06,0.02-0.09l-0.11,0.21c0.03,0-0.04,0.18-0.01,0.18
										c0.02-0.09,0.05-0.17,0.07-0.25c0.04,0.01,0.01,0.17-0.04,0.33c-0.03,0.04-0.04-0.05-0.05-0.05c0,0.02-0.03,0.16-0.05,0.17
										l0.01-0.07c-0.05,0.09-0.01,0.16-0.07,0.26c-0.01,0.04-0.07,0.1-0.05,0.11c0.05-0.05,0.16-0.04,0.18,0.01
										c0,0.01-0.07,0.15-0.1,0.22c-0.04,0.06-0.05-0.11-0.09-0.06c0.01,0,0.01,0.04,0.01,0.06c-0.01,0.04-0.02-0.02-0.03,0.07
										c0.03,0.02-0.03,0.18,0.02,0.05c0,0.09-0.03,0.09-0.03,0.19c0.02-0.03,0.07,0.1,0.07,0.18c-0.01-0.01-0.02,0.01-0.03,0.02
										c-0.02,0.17-0.01,0.27-0.01,0.43c-0.01,0.02-0.01,0.1-0.03,0.06c0.01,0.02,0.02,0.04,0.03,0.09
										c-0.01,0.1-0.02-0.11-0.04-0.03c0.02,0,0.05,0.13,0.07,0.2c0.03-0.03-0.02-0.16-0.04-0.24c0.04,0,0.1,0.11,0.14,0.27
										c0.03,0.13-0.01,0.06,0,0.08c0.06,0.24,0.11,0.19,0.15,0.39c0,0.09-0.05,0.02-0.06,0.04c-0.05-0.1-0.04-0.16-0.06-0.24
										l0.01,0.09c-0.02-0.03-0.04-0.1-0.04-0.14c-0.01,0.08,0.11,0.41,0.18,0.6c0.02,0.03,0.06,0.08,0.05,0.05l-0.03-0.05
										c-0.01-0.06,0.08,0.09,0.05,0.02c0.05,0.07,0.1,0.14,0.15,0.24l-0.01,0.03c0.01-0.01-0.02-0.07-0.05-0.1
										c0.03,0.04,0.06,0.17,0.12,0.2l-0.02-0.08c0.06,0.06,0.13,0.13,0.18,0.22c0-0.05-0.02-0.02-0.03-0.09
										c0,0.08-0.13-0.22-0.12-0.11c0-0.08-0.06-0.11-0.07-0.22c-0.01,0.01,0,0.04-0.03-0.04c-0.01,0-0.02-0.01-0.02-0.01l0-0.01
										l0,0c0,0,0,0,0,0c0,0.02,0.01,0.04,0.01,0.05c-0.04-0.03-0.1-0.15-0.13-0.19c-0.02-0.05,0.02,0.01,0.02-0.01
										c-0.02-0.02-0.03-0.04-0.04-0.06c0.02-0.01-0.01-0.14,0.04-0.03l-0.04-0.1c-0.01-0.06-0.04-0.14-0.06-0.19
										c-0.01-0.05-0.05-0.12-0.03-0.08l-0.05-0.16l0,0c-0.03-0.16-0.1-0.33-0.07-0.52c-0.01-0.05-0.02-0.11-0.02-0.2l0.02-0.02
										c-0.01-0.07,0.03-0.21,0.01-0.24c0.05-0.07,0.04-0.34,0.07-0.46l-0.02-0.01c0.01-0.06,0.02-0.13,0.05-0.27l-0.02,0
										c0-0.1,0.09-0.22,0.13-0.36c0,0.01-0.01,0.05-0.02,0.07c0.1-0.15,0.11-0.35,0.22-0.48c0.01-0.04,0.03-0.06,0.05-0.08
										c0,0,0,0,0,0.01l0.01-0.01l0.04-0.04c-0.02,0.01-0.03,0.03-0.03,0.03c0.01-0.02,0.02-0.05,0.06-0.11l0.03,0c0,0,0,0,0-0.01
										c0.03-0.03,0.01-0.04-0.02-0.03c0.01-0.02,0.01-0.03,0.02-0.06c0.05-0.01,0.06-0.1,0.12-0.12c0-0.04,0.13-0.19,0.12-0.23
										c0.01,0,0.02-0.01,0,0.01c0.04-0.03,0.07-0.07,0.1-0.11l0.04,0c0.01-0.04,0.03-0.07,0.05-0.11
										c0.06-0.03,0.09-0.04,0.06,0.02c0.09-0.13,0.09-0.1,0.17-0.22l0.01,0.02c0.04-0.03,0.09-0.1,0.12-0.1
										c0.1-0.05,0.45-0.31,0.72-0.39c-0.07-0.03,0.13-0.03,0.12-0.07c0.02,0.01,0.06,0,0.02,0.03c0.13-0.06,0.2-0.06,0.29-0.11
										c0.02,0.01-0.02,0.03-0.01,0.03c0.01-0.01,0.04-0.02,0.06-0.02c0.02,0-0.02,0.02-0.04,0.03c0.14-0.04,0.14-0.08,0.14-0.12
										c0.08,0,0.11-0.01,0.16-0.04c0.03,0.01,0.07,0.01-0.02,0.03c0.05-0.01,0.31-0.03,0.31-0.06c0.02,0.01,0.07,0,0.09-0.01
										c0.11-0.01,0.12-0.01,0.24-0.01l-0.03,0c0.04-0.04,0.09-0.01,0.19-0.01l0,0c0.21,0.04,0.09-0.02,0.29,0.04l-0.01-0.02
										c0.03-0.05,0.18,0.06,0.3,0.06l-0.04-0.02c0.07-0.01,0.16,0.11,0.22,0.13c0.01,0.01-0.02,0-0.04,0
										c0.16,0.07,0.03-0.02,0.15,0c0.02,0.02-0.04,0.03,0.04,0.06c0.03,0.03,0.25,0.03,0.35,0.11c-0.02-0.02-0.04-0.05,0.02-0.03
										c0.08,0.04,0.2,0.15,0.29,0.15c0.01,0.01,0.01,0.02,0.01,0.02c0.06,0.03,0.2,0.1,0.25,0.11c0.01,0.1,0.37,0.23,0.32,0.29
										l0.16,0.14l-0.01,0c0.09,0.1,0.13,0.13,0.18,0.15c0.02,0.03-0.01,0.01-0.01,0.01c0.13,0.16,0.13,0.18,0.26,0.29l-0.01,0.03
										c0.04,0.03,0.13,0.26,0.24,0.42c0,0-0.01,0-0.02-0.01c0.13,0.18,0.15,0.5,0.25,0.55c0.03,0.04,0.04,0.09,0.06,0.13
										c-0.04-0.19,0.04,0.02,0.04-0.06c0.02,0.07,0.02,0.2,0,0.11l0-0.02c-0.05-0.02,0.05,0.23,0.01,0.23
										c0.07,0.36,0.05,0.73,0.02,1.07l0.04-0.04l-0.02,0.12c-0.01,0.03-0.03,0.04-0.02-0.05c-0.03,0.04-0.01,0.14,0,0.15
										c-0.04,0.16-0.03-0.07-0.04-0.02l-0.01,0.07l0.01-0.01c0,0.06,0.03,0.07,0,0.17c-0.02,0.06-0.03,0.03-0.04,0.05
										c0,0-0.01,0.01-0.01,0.04l-0.04,0.15l0.04-0.05c0,0.07-0.04,0.14,0.01,0.08c-0.07,0.09-0.22,0.53-0.27,0.57
										c-0.02,0.1-0.08,0.17-0.14,0.27c0.02-0.02,0.06-0.02,0,0.06c-0.03-0.06-0.13,0.14-0.21,0.17c0.07-0.04-0.17,0.23-0.06,0.17
										c-0.06,0.06-0.02-0.01-0.08,0.03c-0.11,0.17-0.31,0.31-0.5,0.46c0,0.01,0.04-0.01,0.01,0.04l-0.13,0.04
										c-0.04,0.03,0,0.07-0.1,0.09c0.01,0,0.04,0,0.01,0.02c-0.42,0.23-0.87,0.49-1.37,0.49c0.07,0.01,0.02,0.01-0.02,0.02
										c0.03,0,0,0.02,0.01,0.03l-0.21,0c-0.03,0.03-0.22,0.01-0.24,0.04l0.06-0.01c-0.09,0.04,0.13,0.07,0.12,0.12
										c0.1-0.04,0.27,0.03,0.42-0.05c0.04,0-0.03,0.02-0.01,0.03c0.04-0.02,0.08-0.04,0.18-0.06l-0.01,0.01
										c0.25-0.07,0.37-0.09,0.64-0.19l-0.03-0.01c0.06-0.02,0.07-0.02,0.1-0.03c0.05-0.06-0.16,0.08-0.12,0.01
										c0.1,0.01,0.4-0.2,0.47-0.19c0.08-0.05-0.04-0.01,0.05-0.06l0.03,0l0.01-0.03c0.06-0.03,0.09-0.04,0.1-0.03
										c-0.01,0.01-0.03,0.03-0.05,0.04c0.08-0.04,0.19-0.15,0.21-0.16l-0.08,0.05c0.21-0.16,0.45-0.39,0.6-0.6l-0.02,0.01
										c0.11-0.16,0.11-0.12,0.23-0.29l0,0.01c0.02-0.04,0.04-0.09,0.07-0.14c-0.02,0.05,0.07-0.08,0.05-0.01
										c0.09-0.19,0.04-0.1,0.07-0.24l0.03-0.02c0.01-0.05,0-0.06,0.04-0.16c-0.02,0.09,0.05-0.05,0.03,0.05
										c0.14-0.19,0.09-0.33,0.18-0.4c-0.01-0.11-0.09,0.17-0.08,0.12c-0.03,0.04-0.01-0.09,0.02-0.16
										c0.03-0.07,0.09-0.1,0.14-0.28c0,0.01,0,0.03-0.01,0.04c0.03-0.06,0.02-0.13,0.05-0.21c-0.02-0.05,0.02-0.11-0.02-0.13
										l-0.02,0.17c0-0.1-0.03-0.19,0.02-0.34c0.01,0.01,0.01,0.06,0.01,0.09c0.02-0.04,0.01-0.09,0.02-0.13
										c0.04,0.02-0.02,0.2-0.01,0.31c0.02-0.05,0-0.19,0.03-0.14c-0.04-0.08,0.03-0.18,0-0.31l0.02,0.01
										c0-0.02-0.01-0.06-0.01-0.1l0.03,0.07c-0.02-0.1,0.04-0.19,0.01-0.29c0.01,0.2-0.02,0.05-0.04,0.13
										c-0.04-0.25,0.06-0.14,0.03-0.42c0.01,0.04-0.01,0.14-0.02,0.08c0-0.05,0-0.12,0.01-0.16c-0.03-0.18-0.02,0.03-0.04-0.04
										c0.02-0.07-0.02-0.09-0.05-0.17l0.02,0c-0.02-0.21-0.06-0.04-0.08-0.23l0.05,0.07l-0.03-0.09l0.03,0.01
										c-0.05-0.1-0.04-0.13-0.07-0.24c-0.01,0.03-0.04,0-0.08-0.09c-0.01-0.06,0.03,0.03-0.02-0.1c0.02,0.02,0.05,0.05,0.05,0.11
										c0.01,0,0.02,0.02,0.03,0.03c-0.01-0.07-0.06-0.16-0.07-0.21c0.01,0.02,0.01,0.04,0.01,0.05c-0.03-0.06-0.06-0.11-0.1-0.16
										c-0.01-0.03,0.01-0.01,0.03,0.01c-0.02-0.03-0.04-0.05-0.07-0.1c0.02,0.01,0.04-0.01,0.08,0.06l-0.1-0.16
										c0-0.01-0.02-0.1,0-0.08c-0.04-0.09-0.16-0.2-0.22-0.32c-0.01,0-0.02-0.01-0.04-0.03c-0.07-0.1-0.11-0.22-0.24-0.31
										l-0.03-0.09c-0.08-0.08,0.05,0.11-0.09-0.02c-0.1-0.09-0.01-0.06-0.04-0.1c-0.06-0.04-0.17-0.09-0.25-0.2
										C289.81,404.95,289.83,404.98,289.86,405z M288.62,404.28c0.03,0.01,0.09,0.01,0.1,0.03
										C288.68,404.33,288.66,404.31,288.62,404.28z M286.48,404.25c0.02-0.01,0.05-0.02,0.09-0.02
										C286.54,404.24,286.51,404.25,286.48,404.25z M284.12,408.92L284.12,408.92C284.11,408.86,284.11,408.88,284.12,408.92z
										 M284.15,409.04c0.01,0.01,0.01,0.01,0.01,0c-0.01-0.01-0.02-0.03-0.03-0.06C284.13,408.99,284.14,409.01,284.15,409.04z
										 M290.78,408.62l0.01-0.02C290.79,408.66,290.79,408.64,290.78,408.62z"/>
									<path d="M286.71,404.16c0.01,0,0.01,0.01,0.01,0.01C286.74,404.17,286.74,404.16,286.71,404.16z"/>
									<polygon points="290.46,405.67 290.46,405.67 290.47,405.67 									"/>
									<path d="M283.78,407.15c0.01-0.03,0.01-0.04,0.02-0.05C283.8,407.1,283.79,407.11,283.78,407.15z"/>
									<path d="M284.47,409.6l-0.05-0.06c0.02,0.03,0.02,0.05,0.03,0.06C284.46,409.59,284.46,409.58,284.47,409.6z"/>
									<path d="M284.77,410.23c0.02,0.02,0.01,0.01,0.03,0.02l0.01-0.01C284.77,410.21,284.74,410.19,284.77,410.23z"/>
									<path d="M284.44,409.7c-0.01,0.02,0.02,0.06,0.05,0.1c0,0,0,0-0.01-0.01C284.52,409.79,284.48,409.75,284.44,409.7z"/>
									<path d="M284.5,409.81c0.01,0.02,0.02,0.02,0.03,0.04C284.55,409.85,284.52,409.83,284.5,409.81z"/>
									<path d="M284.22,409.18c0.01,0.03,0.03,0,0.03,0.02C284.28,409.22,284.15,409.06,284.22,409.18z"/>
									<polygon points="284.41,409.77 284.42,409.74 284.39,409.73 									"/>
									<path d="M284.21,409.38l0.03,0.08c0,0,0.01,0.01,0.02,0.02C284.24,409.43,284.22,409.38,284.21,409.38z"/>
									<path d="M284.26,409.48c0.01,0.03,0.03,0.05,0.04,0.06C284.29,409.53,284.28,409.52,284.26,409.48z"/>
									<polygon points="284.34,409.67 284.33,409.65 284.3,409.59 									"/>
									<path d="M283.91,408.47l-0.02-0.1c-0.01-0.01-0.01,0.02,0,0.05C283.89,408.45,283.9,408.49,283.91,408.47z"/>
									<path d="M283.91,408.77c0-0.03,0-0.03,0.01-0.05l-0.03,0L283.91,408.77z"/>
									<path d="M283.84,408.49c-0.01-0.01-0.05-0.14-0.02-0.01C283.82,408.49,283.85,408.59,283.84,408.49z"/>
									<polygon points="283.89,407.01 283.88,407.04 283.93,407.04 									"/>
									<path d="M284.29,405.75c-0.07,0.1,0.01,0.04-0.06,0.13c0,0.03,0.06-0.07,0.05-0.04
										C284.31,405.76,284.34,405.73,284.29,405.75z"/>
									<path d="M284.28,405.83c0,0.01-0.01,0.02-0.01,0.04C284.28,405.85,284.28,405.84,284.28,405.83z"/>
									<polygon points="287.6,411.27 287.53,411.26 287.57,411.28 									"/>
									<path d="M287.46,411.31l-0.02-0.03l-0.04,0.03C287.42,411.31,287.45,411.31,287.46,411.31z"/>
									<path d="M288.43,404.15L288.43,404.15c0,0.02,0.02,0.02,0.05,0.03L288.43,404.15z"/>
									<polygon points="289.39,404.61 289.37,404.6 289.39,404.64 									"/>
									<path d="M290.1,405.14c-0.02-0.03-0.06-0.05-0.08-0.08C290.08,405.11,290.08,405.18,290.1,405.14z"/>
								</g>
							</g>
						</g>
					</g>
				</g>
			</g>
			<g id="XMLID_00000170974137223990529030000015557055507797570222_">
				<path d="M300.14,423.25c0-2.75,1.27-4.39,3.69-4.39c2.23,0,3.3,1.57,3.3,4.39c0,2.82,0,10.27,0,10.27h6.03c0,0,0-7.15,0-12.39
					c0-5.24-2.97-7.78-7.12-7.78c-4.15,0-5.9,3.23-5.9,3.23v-2.64h-5.81v19.57h5.81C300.14,433.53,300.14,426.27,300.14,423.25z"/>
				<g>
					<g>
						<g>
							<g>
								<path d="M300.02,423.38c0-0.15-0.02-0.1-0.02-0.12C300.01,423.51,300.03,423.37,300.02,423.38z"/>
								<polygon points="300.07,425.93 300.06,425.88 300.08,426.26 								"/>
								<path d="M300.07,428.31c0.03-0.23-0.01-0.86,0.01-1.29l0.01-0.07l-0.03-0.19C300.06,427.27,300.08,427.94,300.07,428.31z"/>
								<path d="M300,429.58c0.01-0.08,0.01,0.27,0-0.3c0,0.03,0,0.04,0,0.05C300,429.39,300,429.46,300,429.58z"/>
								<path d="M300,429.34C300,429.08,299.98,429.5,300,429.34L300,429.34z"/>
								<path d="M300,430.49l-0.01-0.33c-0.01,0.07-0.01,0.36-0.02,0.25C299.98,430.76,299.99,430.69,300,430.49z"/>
								<path d="M300.03,430.81l-0.01-0.17C300.02,430.67,300.02,430.71,300.03,430.81z"/>
								<path d="M300.01,430.27l0.01,0.36c0.01-0.05,0.02-0.05,0-0.17C300.03,430.5,300.02,430.43,300.01,430.27z"/>
								<path d="M300.02,430.07c0.01-0.19,0.01-0.42,0.02-0.09C300.04,429.34,300.01,429.44,300.02,430.07z"/>
								<path d="M300.1,428.43l0.01-0.25l-0.01-0.21C300.11,428.07,300.09,428.44,300.1,428.43z"/>
								<path d="M299.99,432.55c0.01,0.02,0.02-0.11,0.03-0.14l-0.01-0.24C300,432.3,300,432.54,299.99,432.55z"/>
								<path d="M300.01,432.42l0.01,0.37C300.03,432.46,300.02,432.4,300.01,432.42z"/>
								<polygon points="300.07,430.87 300.04,430.27 300.07,430.98 								"/>
								<polygon points="299.72,433.37 299.93,433.35 299.56,433.38 								"/>
								<path d="M298.79,433.37c0.15-0.01-0.21-0.02-0.05-0.03c-0.2,0.01-0.43,0.02-0.66,0.03
									C298.29,433.36,298.51,433.36,298.79,433.37z"/>
								<path d="M297.76,433.38c0.09,0,0.2-0.01,0.32-0.02C298,433.37,297.9,433.38,297.76,433.38z"/>
								<path d="M300.02,433.37c0,0.01-0.01,0.01-0.01,0.03l-0.05-0.01c0.01,0.01,0.03,0.01,0.05,0.02l0.01,0L300.02,433.37z"/>
								<path d="M300.02,433.41L300.02,433.41c-0.11,0-0.18,0-0.21,0C299.84,433.41,299.9,433.41,300.02,433.41z"/>
								<path d="M300.02,433.35l0,0.01C300.02,433.37,300.03,433.36,300.02,433.35z"/>
								<path d="M300.05,431.82c0.01,0.21,0.02,0.66,0.04,0.23C300.08,431.9,300.07,432.15,300.05,431.82z"/>
								<path d="M300.05,433.19l0-0.39c-0.01,0.01-0.01,0.08-0.02-0.03L300.05,433.19z"/>
								<polygon points="300.06,433.36 300.05,433.19 300.05,433.33 								"/>
								<path d="M298.43,433.4c-0.23,0-0.37,0.01-0.56,0.01c0.23,0,0.46,0,0.67,0.01C298.57,433.41,298.67,433.4,298.43,433.4z"/>
								<path d="M299.25,433.41l-0.04,0C299.24,433.41,299.26,433.41,299.25,433.41z"/>
								<polygon points="295.83,433.41 295.86,433.42 295.87,433.41 								"/>
								<path d="M298.58,433.42c0.17,0,0.27,0,0.36-0.01c-0.13,0-0.26,0-0.4,0C298.52,433.42,298.52,433.42,298.58,433.42z"/>
								<path d="M297.19,433.39l0.29,0.01C297.4,433.4,297.22,433.39,297.19,433.39z"/>
								<path d="M299.16,433.4l0.02,0C299.13,433.4,299.14,433.4,299.16,433.4z"/>
								<path d="M299.16,433.4c-0.07,0-0.15,0.01-0.22,0.01c0.1,0,0.19,0,0.28-0.01C299.2,433.41,299.18,433.41,299.16,433.4z"/>
								<path d="M295.21,433.54c0.03-0.02,0.47-0.04,0.85-0.02c0.37-0.01,0.13-0.08-0.2-0.11c-0.01,0.01-0.01,0.02-0.39,0.03
									c0.13,0.01,0.85,0.02,0.53,0.04c-0.51,0.01-0.42-0.01-0.66-0.02c0.21,0.02-0.65,0.03-0.54,0.07l0.45-0.01
									C295.25,433.53,295.09,433.54,295.21,433.54z"/>
								<path d="M296.59,433.42l0.16,0c-0.14-0.01-0.27-0.01-0.55-0.03c-0.26,0.01-0.32,0.02-0.34,0.02l0.78,0L296.59,433.42z"/>
								<path d="M297.46,433.42c-0.12,0.02-0.5,0.03-0.27,0.05c0.46,0,0.32-0.02,0.6-0.03
									C297.04,433.45,298.01,433.43,297.46,433.42c0.16,0,0.29,0,0.41,0l-0.39-0.01l0.02,0l0,0l0,0c0.03,0,0.04,0,0.01,0
									c-0.01,0-0.02,0-0.02,0C297.49,433.41,297.47,433.41,297.46,433.42c-0.22,0-0.03-0.01,0.03-0.01l0.01,0l0,0l-0.75,0.01
									C296.92,433.42,297.11,433.42,297.46,433.42z"/>
								<path d="M300.13,432.45c0,0.02,0,0.02,0,0.02C300.13,432.52,300.13,432.54,300.13,432.45z"/>
								<path d="M300.12,432.76c0-0.05-0.01-0.1-0.01-0.28c0.01-0.15,0.01,0,0.02-0.01c-0.01-0.11-0.01-0.37-0.02-0.04l0,0.05
									c-0.01,0.3-0.03,0.69-0.04,0.64C300.09,433.04,300.1,432.96,300.12,432.76z"/>
								<path d="M299.16,433.47l-0.62,0.01l0.32,0.02l-0.02-0.01C299.19,433.49,299.12,433.48,299.16,433.47z"/>
								<polygon points="295.76,433.4 295.84,433.38 295.48,433.41 								"/>
								<polygon points="294.95,433.41 294.98,433.39 294.77,433.4 								"/>
								<path d="M313.12,419.21c0.02,0.06,0.02,0.12,0.03,0.18C313.14,419.3,313.13,419.25,313.12,419.21z"/>
								<path d="M312.81,417.9l-0.02-0.03C312.81,417.93,312.82,417.96,312.81,417.9z"/>
								<path d="M294.45,414.26c0.01-0.13,0.01-0.14,0.02-0.16c0.02,0,0.04,0.01,0.04,0.01c0.04,0,0.06,0,0.05-0.01
									c-0.03-0.01-0.06-0.01-0.06-0.02c-0.02,0-0.04,0-0.05,0C294.45,414.14,294.45,414.2,294.45,414.26z"/>
								<path d="M303.92,413.67l-0.08,0.02c-0.06,0.03-0.11,0.05-0.16,0.08C303.75,413.74,303.83,413.7,303.92,413.67z"/>
								<path d="M304.07,413.54l0.35-0.07C304.33,413.48,304.22,413.51,304.07,413.54z"/>
								<path d="M313.29,426.46l0.02,0.21C313.32,426.34,313.3,426.49,313.29,426.46z"/>
								<path d="M294.44,425.85c0.01-0.26,0.01-0.43,0.01-0.57C294.44,425.55,294.43,425.78,294.44,425.85z"/>
								<path d="M312.8,418.74c0.03,0.11,0.04,0.15,0.04,0.15C312.82,418.78,312.8,418.71,312.8,418.74z"/>
								<path d="M294.46,424.61c0,0.05,0,0.08,0,0.12c0,0.18,0,0.34,0,0.54C294.47,425.07,294.47,424.84,294.46,424.61z"/>
								<path d="M306.47,420.5c-0.01-0.02-0.02-0.03-0.02-0.05C306.45,420.44,306.46,420.46,306.47,420.5z"/>
								<path d="M300.41,421.04c0.02-0.07,0.08-0.19,0.12-0.3C300.51,420.79,300.46,420.88,300.41,421.04z"/>
								<path d="M294.46,430.89C294.46,431.06,294.46,430.92,294.46,430.89L294.46,430.89z"/>
								<path d="M294.38,431.72c0-0.04-0.01-0.06-0.01-0.07C294.37,431.67,294.38,431.69,294.38,431.72z"/>
								<path d="M294.33,422.9l0-0.01C294.32,422.94,294.32,422.93,294.33,422.9z"/>
								<path d="M294.45,431.15l0.01-0.22C294.46,430.97,294.45,431.04,294.45,431.15z"/>
								<path d="M294.46,431.11c0,0.06,0,0.11,0,0.15C294.46,431.28,294.46,431.26,294.46,431.11z"/>
								<path d="M294.46,430.65c0,0.1,0,0.19,0,0.28c0-0.03,0-0.05,0-0.04C294.46,430.84,294.46,430.77,294.46,430.65z"/>
								<path d="M308.04,433.59c-0.01,0-0.02,0-0.04,0C307.83,433.6,307.9,433.6,308.04,433.59z"/>
								<polygon points="298.5,413.86 298.48,413.86 298.51,413.86 								"/>
								<path d="M299.12,413.85c-0.26,0.03-0.41,0.02-0.61,0.02l0.2,0.06L299.12,413.85z"/>
								<path d="M313.28,422.39l0.02-0.43c0.03,0.52,0.02,0.9,0.05,0.49c-0.07-0.06,0-1.68-0.09-1.75l0-0.29
									c0,0.08,0.01,0.1,0.01,0.18c0.01-0.56-0.07-0.41-0.13-1.13c-0.02-0.25-0.06-0.42-0.01-0.26l-0.13-0.55
									c-0.03-0.16-0.01-0.12,0.02,0.04c-0.05-0.28-0.15-0.55-0.23-0.83l0,0.01c-0.04-0.12-0.15-0.37-0.21-0.49
									c-0.07-0.2,0.05,0.1,0.03,0.04l-0.19-0.43c-0.06-0.18,0.11,0.17,0.23,0.48c-0.11-0.43-0.13-0.37-0.58-1.23
									c0.09,0.12,0.15,0.26,0.23,0.39c-0.1-0.28-0.3-0.57-0.59-1c0.07,0.1,0.54,0.88,0.23,0.46c-0.09-0.12-0.17-0.3-0.37-0.49
									c0.01-0.01-0.16-0.23-0.4-0.47l0.04-0.01c-0.28-0.24-0.27-0.21-0.44-0.35c-0.33-0.25-0.39-0.32-0.45-0.39
									c-0.55-0.37,0.37,0.27-0.3-0.14c-0.47-0.28-0.83-0.45-1.46-0.62c-0.36-0.12,0.07,0-0.06-0.05
									c-0.11-0.02-0.22-0.06-0.33-0.07c-0.08-0.02-0.05-0.02-0.04-0.02c-0.28-0.05-0.03,0.02-0.47-0.06
									c-0.12,0-0.9-0.18-1.46-0.15c-0.14-0.01,0.07-0.02,0.02-0.03c-0.76,0.05-0.66,0.01-1.27,0.13
									c-0.18,0.02-0.35,0.03-0.53,0.07c0.38-0.07-0.1,0.07-0.51,0.2c0.14-0.03,0.26-0.05,0.33-0.06
									c-0.22,0.05-0.44,0.13-0.65,0.22c-0.08,0.02-0.02-0.01,0.08-0.06c-0.04,0.02-0.08,0.03-0.12,0.05
									c-0.24,0.07-0.12,0.01,0.04-0.06c0.08-0.02,0.16-0.04,0.24-0.06c0.15-0.08,0.31-0.12,0.27-0.14
									c-0.07,0.02-0.14,0.04-0.22,0.07c0.04-0.02,0.07-0.03,0.05-0.03c-0.02,0-0.09,0.04-0.2,0.08l-0.16,0.02l-0.03,0.03
									c-0.29,0.09-0.57,0.22-0.85,0.35c-0.56,0.34-1.02,0.69-1.73,1.43c0.16-0.2,0.01-0.07,0-0.1c0.21-0.19,0.57-0.57,1.01-0.87
									c-0.24,0.15-0.19,0.12-0.14,0.06c-0.25,0.2-0.49,0.41-0.72,0.64c0-0.03-0.16,0.13-0.34,0.31c0.17-0.13-0.49,0.61-0.55,0.78
									c0.02-0.05,0.01-0.09,0.21-0.34c-0.15,0.16-0.14,0.19-0.23,0.35c-0.04,0.07-0.03-0.12-0.03-0.27c0,0.08,0,0.12,0.01,0.14
									c-0.01-0.09,0-0.83,0.01-0.65l0,0.11c0-0.47,0-1.19-0.01-1.77c-0.21,0-0.39,0.01-0.57,0.01c-0.13,0.01-0.21,0.01-0.24,0.02
									c-0.01-0.01,0.1-0.05,0.15-0.06l-1.36,0.14c0.12-0.04-0.34-0.12,0.29-0.14c-0.18-0.01-0.41-0.01-0.79,0
									c0.12,0.01,0.31,0.05,0.14,0.05c-0.46-0.04-0.32-0.02-0.9-0.05c0.19,0.01-0.02,0.06-0.31,0.06
									c0.05-0.01-0.02-0.05,0.08-0.06l-0.73,0.05c0.18-0.01,0.03-0.05-0.13-0.06c0.08,0.01-0.63,0-0.83,0l0.31,0.01
									c-0.55-0.01-0.68,0.03-1.03,0.05c0.01,0.2,0.02,0.37,0.02,0.67c-0.01-0.1-0.07-0.24-0.08,0.17
									c0.03,0.19,0.13,0.84,0.15,1.57l-0.02,0.14l0.02,0.56c-0.04-0.35-0.13-1.32-0.16-1.85c-0.01,0.31-0.02,0.09-0.02,0.55
									c-0.01,0.16-0.02-0.25-0.02-0.39l-0.01,1.08c0.03-0.05,0.03,0.82,0.06,0.78l-0.03-1.17c0.03-0.05,0.09,0.68,0.09,1.44
									c-0.01,0.19-0.06-0.15-0.07-0.13c0.01,0.1,0.02,0.72,0.01,0.79l-0.02-0.32c-0.01,0.42,0.04,0.69,0.01,1.2
									c0,0.18-0.04,0.53-0.02,0.56c0.04-0.29,0.15-0.34,0.18-0.15c0,0.06-0.04,0.82-0.05,1.13c-0.03,0.29-0.07-0.44-0.09-0.19
									c0.01,0.01,0.02,0.17,0.02,0.24c-0.01,0.18-0.03-0.08-0.02,0.33c0.03,0.07,0,0.82,0.03,0.19c0.01,0.39-0.01,0.42-0.01,0.88
									c0.02-0.15,0.07,0.41,0.08,0.81c-0.01-0.02-0.02,0.07-0.02,0.11c-0.01,0.79-0.01,1.25-0.02,1.99
									c-0.01,0.07-0.02,0.43-0.03,0.28c0.01,0.11,0.02,0.21,0.02,0.44c-0.03,0.45,0-0.52-0.04-0.17c0.02,0.03,0.03,0.6,0.04,0.93
									c0.03-0.1,0.01-0.76-0.01-1.09c0.04,0,0.08,0.57,0.1,1.36c0.01,0.62-0.03,0.27-0.02,0.38c-0.01,1.17,0.07,1,0.04,1.97
									c-0.03,0.39-0.05,0.02-0.07,0.1c-0.01-0.51,0.02-0.78,0.02-1.13l-0.01,0.42c-0.01-0.16-0.02-0.5-0.01-0.69
									c-0.02,0.32,0,1.98-0.03,2.88c0.01,0.16,0.02,0.44,0.03,0.31l0-0.29c0.02-0.26,0.03,0.54,0.04,0.18
									c0.01,0.38,0.04,0.81,0.03,1.35l-0.03,0.1c0.01-0.01,0.02-0.35,0.01-0.51c0.01,0.23-0.04,0.83,0,1.08l0.02-0.38
									c0.01,0.3,0.03,0.71,0.04,1c0.04,0,0.08,0,0.13,0c-0.12-0.02-0.07-0.01-0.12-0.01c0-0.01,0.01-0.04,0.02-0.09
									c-0.04,0.3,0-1.23-0.04-0.75c0.04-0.35,0.02-0.6,0.05-1.06c-0.01,0.01-0.02,0.16-0.01-0.24c0-0.03-0.01-0.07-0.01-0.09
									c0-0.01,0-0.02,0-0.03l0,0.02c0-0.02,0-0.02,0,0.01c0,0.1-0.01,0.17-0.01,0.2c-0.02-0.2-0.02-0.84-0.03-1.06
									c0-0.24,0.01,0.1,0.02-0.03l-0.02-0.32c0.02-0.03,0.04-0.63,0.05-0.07l0-0.51c0.01-0.3,0.02-0.71,0.01-0.96
									c0-0.24-0.02-0.6-0.01-0.39l-0.01-0.79l0.01-0.01c0-0.78-0.04-1.61,0-2.51c0-0.28,0-0.53-0.01-0.98l0.02-0.09
									c-0.01-0.34,0.02-1.02,0-1.16c0.05-0.36,0.01-1.64,0.02-2.24l-0.02-0.02c0-0.4-0.01-0.78-0.02-1.31l-0.02,0.03
									c-0.02-0.44,0.02-1.13,0.01-1.82c0.01,0.05,0.01,0.22,0,0.35c0.05-0.83-0.04-1.75,0-2.5c-0.01-0.19-0.01-0.32,0-0.45
									c0,0.02,0,0.03,0,0.05c0-0.02,0-0.05,0-0.08c0-0.08,0.01-0.17,0.01-0.26c0,0.09-0.01,0.17-0.01,0.22c0-0.1,0-0.25-0.01-0.41
									l0.03,0c0.02,0.01,0.03,0.02,0.05,0.02l0.03,0c0.21,0.01,0.17-0.01,0.06-0.03c0.09,0,0.19-0.01,0.28-0.01
									c0.17,0.04,0.56-0.01,0.8,0.03c0.14-0.02,1.08-0.01,1.19-0.06c0.01,0.01,0.07,0.01-0.05,0.01c0.24,0,0.48,0.01,0.69,0
									l0.1,0.03l0.52-0.04c0.32,0.02,0.45,0.03,0.13,0.05c0.82-0.03,0.51-0.02,1.26-0.05l-0.03,0.02c0.15,0,0.44-0.01,0.58-0.02
									c0,0.02,0,0.04,0,0.07c-0.01,0.13-0.02,0.54-0.02,0.99c0,0.23,0,0.49,0,0.75c0.01,0.22-0.01,0.79,0.01,1.05
									c0.18-0.32,0.42-0.68,0.55-0.83c0.13-0.17,0.28-0.32,0.41-0.46c-0.22,0.14,0.45-0.42,0.46-0.47
									c0.06-0.04,0.21-0.15,0.06-0.01c0.51-0.44,0.81-0.59,1.19-0.84c0.07-0.03-0.11,0.09-0.05,0.06
									c0.05-0.03,0.18-0.12,0.25-0.14c0.06-0.02-0.08,0.05-0.17,0.11c0.6-0.31,0.66-0.36,0.69-0.41c0.34-0.1,0.49-0.17,0.73-0.24
									c0.12-0.02,0.32-0.05-0.09,0.05c0.12-0.02,0.47-0.13,0.81-0.16c0.33-0.06,0.65-0.07,0.66-0.09c0.08,0,0.34-0.01,0.4-0.02
									c0.54,0.02,0.59,0,1.11,0.06l-0.15-0.02c0.21,0,0.44,0.02,0.86,0.12l-0.01,0c0.48,0.11,0.58,0.15,0.68,0.18
									c0.1,0.04,0.21,0.03,0.64,0.24l-0.04-0.04c0.11-0.02,0.78,0.36,1.24,0.68l-0.16-0.13c0.13,0.08,0.29,0.22,0.45,0.36
									c0.15,0.15,0.29,0.32,0.4,0.42c0.05,0.05-0.08-0.07-0.15-0.13c0.55,0.57,0.1,0.04,0.51,0.47c0.06,0.09-0.12-0.08,0.14,0.22
									c0.08,0.11,0.22,0.31,0.42,0.58c0.16,0.29,0.37,0.61,0.44,0.88c-0.03-0.12-0.07-0.23,0.05,0.02
									c0.18,0.39,0.34,1.1,0.44,1.47c0.01,0.05,0.01,0.08,0.01,0.08c0.1,0.31,0.17,1.04,0.22,1.24c-0.04,0.3,0.09,2.04,0.01,2.03
									l0,1.01l-0.01-0.03c0,0.65,0.01,0.87,0.03,1.1c-0.01,0.15-0.01,0.04-0.02,0.03c-0.01,0.94-0.01,1.04,0.02,1.83l-0.02,0.08
									c0.01,0.21-0.04,1.37-0.01,2.29c0-0.01-0.01-0.03-0.01-0.1c0.03,1.04-0.07,2.5,0.02,2.88l0.02,0.69
									c0.01-0.89,0.04,0.13,0.05-0.23c0.01,0.35-0.03,0.9-0.03,0.47l0-0.07c-0.05-0.16-0.02,1.11-0.05,1.08l0,0.26
									c-1.6-0.01-3.18-0.02-4.69-0.02l0.19,0.04l-0.57,0c-0.15-0.01-0.2-0.03,0.21-0.03c-0.21-0.02-0.68,0.02-0.7,0.02
									c-0.22,0-0.26-0.01-0.25-0.01c0,0,0.01-0.01,0.08-0.01c0.15-0.01,0.36-0.02,0.24-0.02l-0.3,0l0.04,0
									c-0.04,0-0.08,0.01-0.11,0.01c0-0.03-0.01-0.05-0.01-0.12c0-0.1,0-0.21,0-0.37c0.01-0.31,0.02-0.16,0.02-0.28
									c0,0,0-0.04,0-0.19l0-0.72l-0.03,0.29c-0.01-0.32,0-0.68-0.03-0.35c0.05-0.49,0.02-2.69,0.03-2.99
									c-0.02-0.45-0.02-0.89-0.02-1.44c-0.01,0.14-0.04,0.22-0.03-0.25c0.06,0.17,0.03-0.86,0.07-1.25
									c-0.03,0.34-0.01-1.34-0.05-0.81c0.01-0.39,0.02-0.02,0.04-0.32c-0.05-0.93,0.1-2.08-0.19-3.23
									c-0.01-0.02,0.02,0.18-0.05-0.06c-0.04-0.2-0.08-0.41-0.15-0.6c-0.09-0.22-0.12-0.18-0.3-0.57
									c0.03,0.05,0.07,0.14-0.02,0.01c-0.29-0.5-0.74-0.93-1.3-1.14c-0.55-0.23-1.16-0.28-1.74-0.23c-1.19,0.04-2.35,0.74-2.9,1.8
									c0.18-0.27,0.06-0.09-0.04,0.13c0.07-0.14,0.02,0.01,0.04-0.01c-0.15,0.29-0.27,0.6-0.35,0.92
									c-0.04,0.18-0.16,1.04-0.13,1.14l0.02-0.31c-0.01,0.41,0.14-0.56,0.19-0.49c0.04-0.45,0.31-1.15,0.7-1.77
									c0.1-0.12-0.07,0.12-0.01,0.06c0.09-0.16,0.22-0.35,0.54-0.61l-0.03,0.03c0.44-0.37,0.85-0.52,1.26-0.63
									c0.42-0.09,0.88-0.15,1.53-0.08c-0.03-0.01-0.06-0.03-0.09-0.03c0.28,0.04,0.34,0.05,0.46,0.09
									c0.33,0.01-0.77-0.13-0.48-0.12c0.18,0.04,0.68,0.09,1.11,0.32c0.43,0.21,0.76,0.55,0.81,0.67c0.27,0.33-0.05-0.12,0.2,0.22
									l0.05,0.1l0.07,0.08c0.13,0.25,0.17,0.39,0.16,0.4c-0.02-0.07-0.09-0.17-0.12-0.24c0.16,0.32,0.37,0.96,0.38,1.09
									c-0.02-0.14-0.06-0.27-0.09-0.4c0.37,1.13,0.24,2.62,0.29,3.79l0.01-0.09c0.02,0.89-0.01,0.71,0,1.69l0-0.04
									c0.01,0.2,0.02,0.46,0.01,0.72c-0.01-0.25-0.02,0.46-0.04,0.14c0.02,0.96,0.02,0.48,0.06,1.11l-0.02,0.15
									c0.02,0.22,0.02,0.24,0.03,0.72c-0.02-0.4-0.03,0.31-0.05-0.14c-0.04,1.02,0.04,1.52-0.02,1.99
									c0.05,0.47,0.03-0.89,0.04-0.62c0.02-0.22,0.04,0.39,0.03,0.71c0,0.33-0.06,0.56-0.06,1.38c0-0.07,0-0.09,0-0.17
									c-0.01,0.15,0,0.3,0,0.46c0,0.18,0.01,0.27,0,0.61l0,0.02c0.38-0.03,0.55,0,0.64-0.03l-0.61,0.01l0-0.29
									c0,0.08,0,0.18,0.01,0.28c0.2-0.01,0.43-0.02,0.64-0.03c0.21-0.01,0.45-0.01,0.74,0c-0.11,0.01-0.29,0.02-0.41,0.02
									c0.28,0,0.32,0,0.61,0c-0.07,0.04-0.89,0.01-1.4,0.04c0.27,0.02,0.88-0.03,0.66,0.01c0.33-0.05,0.81,0.01,1.37-0.03
									l-0.04,0.02c0.09,0,0.3-0.01,0.43-0.01l-0.29,0.03c0.45-0.03,0.87,0.02,1.3,0.01c-0.91,0-0.2-0.03-0.59-0.04
									c1.12-0.03,0.64,0.06,1.89,0.05c-0.17,0-0.64-0.01-0.37-0.02c0.24,0,0.55,0.01,0.7,0.03c0.83,0-0.13-0.02,0.23-0.04
									c0.27,0.02,0.3,0,0.7-0.01c0-0.08,0-0.15-0.01-0.22l0.02,0c0.01-0.98-0.05-0.26-0.03-1.12l0.03,0.36l-0.01-0.44l0.03,0.09
									c-0.02-0.48-0.01-0.63-0.01-1.1c-0.02,0.11-0.04-0.06-0.04-0.48c0.01-0.29,0.02,0.16,0.02-0.43
									c0.01,0.13,0.03,0.28,0.01,0.54l0.02,0.16c0.02-0.31,0-0.77,0-0.99c0,0.07,0,0.16-0.01,0.23l-0.03-0.86
									c0.01-0.14,0.02-0.03,0.02,0.08c0-0.16-0.01-0.33-0.02-0.55c0.02,0.07,0.04,0.05,0.05,0.41l-0.02-0.82
									c0.01-0.05,0.02-0.42,0.03-0.31c0.01-0.45-0.04-1.11-0.02-1.72c0-0.06-0.01-0.12-0.01-0.22c0-0.57,0.03-1.07,0-1.74
									l0.03-0.38c-0.01-0.53-0.04,0.51-0.06-0.36c-0.01-0.62,0.03-0.23,0.04-0.45c-0.02-0.31-0.05-0.84-0.02-1.41
									C313.28,422.1,313.28,422.21,313.28,422.39z M311.94,416.1c0.08,0.1,0.23,0.31,0.25,0.4
									C312.11,416.39,312.06,416.28,311.94,416.1z M303.01,413.98c0.08-0.04,0.22-0.11,0.37-0.16
									C303.27,413.86,303.18,413.9,303.01,413.98z M294.44,429c0,0,0-0.01,0-0.01C294.45,428.71,294.45,428.81,294.44,429z
									 M294.43,429.59c0,0.06,0.01,0.05,0.01,0.03c-0.01-0.04-0.01-0.17,0-0.32C294.43,429.34,294.43,429.41,294.43,429.59z
									 M307.22,432.6l-0.01,0.11C307.21,432.46,307.22,432.53,307.22,432.6z"/>
								<path d="M304.05,413.55c0.04,0,0.05,0,0.06,0C304.16,413.53,304.16,413.53,304.05,413.55z"/>
								<polygon points="313.29,426.42 313.29,426.44 313.29,426.46 								"/>
								<path d="M294.24,420.58c0-0.09,0.01-0.16,0.01-0.23C294.24,420.35,294.24,420.4,294.24,420.58z"/>
								<path d="M294.47,432.67l-0.01-0.37c0,0.16-0.01,0.23-0.01,0.34C294.46,432.62,294.47,432.55,294.47,432.67z"/>
								<path d="M296.7,433.53c0.07,0,0.1,0,0.17,0l-0.01-0.01C296.62,433.52,296.46,433.52,296.7,433.53z"/>
								<path d="M294.39,433.01c-0.02,0-0.01,0.31-0.01,0.46l0,0h0v-0.03c0.01,0.01,0.02-0.02,0.02-0.08
									C294.4,433.29,294.4,433.15,294.39,433.01z"/>
								<path d="M294.43,433.47c0.07,0,0.14,0,0.21,0C294.68,433.46,294.52,433.47,294.43,433.47z"/>
								<path d="M294.45,430.32c-0.01,0.12,0.02,0.08,0.02,0.15C294.49,430.61,294.43,429.65,294.45,430.32z"/>
								<polygon points="294.33,433.22 294.35,433.13 294.33,432.98 								"/>
								<path d="M294.35,431.16l-0.01,0.42c0-0.01,0.01,0.05,0.01,0.11C294.35,431.43,294.36,431.15,294.35,431.16z"/>
								<path d="M294.35,431.69c0,0.13,0,0.23,0,0.34C294.35,431.96,294.35,431.81,294.35,431.69z"/>
								<polygon points="294.32,432.65 294.33,432.53 294.33,432.23 								"/>
								<path d="M294.35,426.68l-0.01-0.45c-0.01-0.05-0.01,0.08-0.01,0.25C294.34,426.58,294.34,426.75,294.35,426.68z"/>
								<path d="M294.29,428.06c0.01-0.12,0.01-0.13,0.02-0.2l-0.03-0.01L294.29,428.06z"/>
								<path d="M294.28,426.73c-0.01-0.05-0.02-0.66-0.02-0.08C294.27,426.7,294.27,427.15,294.28,426.73z"/>
								<polygon points="294.32,419.88 294.32,420 294.37,419.98 								"/>
								<path d="M294.4,413.83c-0.08,0-0.15,0-0.2,0c0,0.31,0.01,0.33,0.01,0.35c0.01,0.02,0.01,0.06,0,0.28
									c0.01,0.13,0.01-0.4,0.02-0.27c0-0.14-0.01-0.24-0.01-0.33C294.48,413.85,294.59,413.85,294.4,413.83z"/>
								<path d="M294.24,414.19c0,0.05,0,0.1,0.01,0.17C294.24,414.27,294.24,414.23,294.24,414.19z"/>
								<polygon points="300.08,422.29 300.04,422.64 300.08,422.41 								"/>
								<path d="M300.07,422.96l-0.03,0.08l0.02,0.21C300.06,423.18,300.06,423.02,300.07,422.96z"/>
								<path d="M311.38,415.29l-0.02-0.02c0.03,0.05,0.08,0.11,0.19,0.24L311.38,415.29z"/>
								<polygon points="313.21,419.64 313.2,419.56 313.19,419.71 								"/>
								<path d="M313.34,423.6c0-0.16,0-0.35,0-0.51C313.34,423.44,313.3,423.64,313.34,423.6z"/>
							</g>
						</g>
					</g>
				</g>
			</g>
		</g>
	</g>
</g>
</svg>
