<?xml version="1.0" encoding="utf-8"?>
<!-- Generator: Adobe Illustrator 25.4.1, SVG Export Plug-In . SVG Version: 6.00 Build 0)  -->
<svg version="1.1" id="Ebene_1" xmlns="http://www.w3.org/2000/svg" xmlns:xlink="http://www.w3.org/1999/xlink" x="0px" y="0px"
	 viewBox="0 0 595.28 841.89" style="enable-background:new 0 0 595.28 841.89;" xml:space="preserve">
<style type="text/css">
	.st0{fill:none;}
</style>
<g>
	<g id="XMLID_1425_">
		<path d="M296.19,403.37c-9.45,0-17.11,7.66-17.11,17.11c0,9.45,7.66,17.11,17.11,17.11c9.45,0,17.11-7.66,17.11-17.11
			C313.3,411.03,305.64,403.37,296.19,403.37z M304.06,428.09c-0.34,0.51-0.94,0.68-1.45,0.34c-4.02-2.48-9.07-2.99-15.06-1.63
			c-0.6,0.17-1.11-0.26-1.28-0.77c-0.17-0.6,0.26-1.11,0.77-1.28c6.5-1.45,12.15-0.86,16.6,1.88
			C304.23,426.9,304.32,427.58,304.06,428.09z M306.12,423.39c-0.43,0.6-1.2,0.86-1.8,0.43c-4.62-2.82-11.64-3.68-17.03-1.97
			c-0.68,0.17-1.45-0.17-1.63-0.86c-0.17-0.68,0.17-1.45,0.86-1.63c6.25-1.88,13.95-0.94,19.25,2.31
			C306.29,421.93,306.54,422.79,306.12,423.39z M306.29,418.6c-5.48-3.25-14.63-3.59-19.85-1.97c-0.86,0.26-1.71-0.26-1.97-1.03
			c-0.26-0.86,0.26-1.71,1.03-1.97c6.07-1.8,16.08-1.45,22.42,2.31c0.77,0.43,1.03,1.45,0.6,2.22
			C308.08,418.77,307.06,419.02,306.29,418.6z"/>
		<g>
			<path class="st0" d="M296.19,403.37c-9.45,0-17.11,7.66-17.11,17.11c0,9.45,7.66,17.11,17.11,17.11
				c9.45,0,17.11-7.66,17.11-17.11C313.3,411.03,305.64,403.37,296.19,403.37z M304.06,428.09c-0.34,0.51-0.94,0.68-1.45,0.34
				c-4.02-2.48-9.07-2.99-15.06-1.63c-0.6,0.17-1.11-0.26-1.28-0.77c-0.17-0.6,0.26-1.11,0.77-1.28c6.5-1.45,12.15-0.86,16.6,1.88
				C304.23,426.9,304.32,427.58,304.06,428.09z M306.12,423.39c-0.43,0.6-1.2,0.86-1.8,0.43c-4.62-2.82-11.64-3.68-17.03-1.97
				c-0.68,0.17-1.45-0.17-1.63-0.86c-0.17-0.68,0.17-1.45,0.86-1.63c6.25-1.88,13.95-0.94,19.25,2.31
				C306.29,421.93,306.54,422.79,306.12,423.39z M306.29,418.6c-5.48-3.25-14.63-3.59-19.85-1.97c-0.86,0.26-1.71-0.26-1.97-1.03
				c-0.26-0.86,0.26-1.71,1.03-1.97c6.07-1.8,16.08-1.45,22.42,2.31c0.77,0.43,1.03,1.45,0.6,2.22
				C308.08,418.77,307.06,419.02,306.29,418.6z"/>
			<g>
				<g>
					<g>
						<path d="M306.29,418.73c-0.07-0.04-0.06-0.01-0.07-0.01C306.35,418.78,306.29,418.72,306.29,418.73z"/>
						<path d="M307.63,418.82l-0.02,0.01c0.06-0.02,0.12-0.05,0.18-0.08C307.74,418.78,307.68,418.8,307.63,418.82z"/>
						<path d="M308.63,418.09c-0.05,0.11-0.27,0.39-0.47,0.5l-0.04,0.01l-0.08,0.07C308.29,418.54,308.55,418.28,308.63,418.09z"/>
						<path d="M308.86,417.44c-0.02,0.04,0-0.15-0.02,0.16c0-0.01,0.01-0.02,0.01-0.03C308.85,417.54,308.86,417.51,308.86,417.44z"
							/>
						<path d="M308.85,417.57C308.83,417.71,308.87,417.48,308.85,417.57L308.85,417.57z"/>
						<path d="M308.8,416.93c0.02,0.06,0.04,0.12,0.05,0.18c0.01-0.04-0.03-0.2-0.01-0.14C308.79,416.79,308.79,416.83,308.8,416.93
							z"/>
						<path d="M308.73,416.78l0.03,0.09C308.76,416.85,308.76,416.82,308.73,416.78z"/>
						<path d="M308.82,417.06c-0.02-0.06-0.03-0.13-0.06-0.19c0,0.03-0.01,0.03,0.03,0.09
							C308.78,416.94,308.79,416.97,308.82,417.06z"/>
						<path d="M308.83,417.17c0.01,0.1,0,0.23-0.02,0.05C308.82,417.56,308.85,417.51,308.83,417.17z"/>
						<path d="M308.62,418.01c-0.02,0.04-0.04,0.08-0.06,0.11c-0.01,0.03-0.03,0.07-0.05,0.1
							C308.55,418.18,308.64,418.01,308.62,418.01z"/>
						<path d="M308.22,415.97c-0.01,0,0.04,0.05,0.04,0.07l0.1,0.09C308.32,416.07,308.23,415.98,308.22,415.97z"/>
						<path d="M308.26,416.04c-0.06-0.04-0.11-0.08-0.17-0.11C308.24,416.03,308.27,416.05,308.26,416.04z"/>
						<path d="M308.69,416.76c0.04,0.1,0.08,0.2,0.11,0.3c-0.03-0.13-0.07-0.25-0.13-0.36L308.69,416.76z"/>
						<polygon points="307.59,415.59 307.69,415.63 307.51,415.56 						"/>
						<path d="M307.17,415.37c0.08,0.03-0.08-0.07-0.01-0.04c-0.11-0.06-0.22-0.1-0.31-0.14
							C306.95,415.23,307.05,415.29,307.17,415.37z"/>
						<path d="M306.7,415.13c0.04,0.01,0.09,0.04,0.16,0.06C306.8,415.16,306.75,415.14,306.7,415.13z"/>
						<path d="M307.82,415.76c-0.01-0.01-0.03-0.03-0.12-0.09l0.05,0.05C307.77,415.73,307.79,415.75,307.82,415.76z"/>
						<path d="M307.75,415.72L307.75,415.72c-0.07-0.04-0.12-0.07-0.14-0.08C307.63,415.65,307.67,415.68,307.75,415.72z"/>
						<path d="M307.83,415.77l-0.02-0.01C307.82,415.76,307.82,415.77,307.83,415.77z"/>
						<path d="M308.46,416.3c-0.08-0.09-0.26-0.25-0.11-0.07C308.41,416.29,308.33,416.18,308.46,416.3z"/>
						<path d="M307.9,415.83c0.06,0.03,0.12,0.07,0.17,0.11c0-0.01-0.03-0.03,0.02-0.01C308.03,415.9,307.96,415.86,307.9,415.83z"
							/>
						<polygon points="307.81,415.79 307.9,415.83 307.84,415.8 						"/>
						<path d="M306.99,415.3c-0.08-0.03-0.16-0.08-0.26-0.13c0.11,0.06,0.21,0.12,0.3,0.17C307.05,415.35,307.1,415.36,306.99,415.3
							z"/>
						<path d="M307.36,415.51l-0.02-0.01C307.35,415.51,307.36,415.51,307.36,415.51z"/>
						<polygon points="305.78,414.74 305.79,414.75 305.8,414.75 						"/>
						<path d="M307.05,415.36c0.07,0.04,0.12,0.06,0.17,0.08c-0.06-0.03-0.12-0.06-0.18-0.09
							C307.03,415.34,307.02,415.34,307.05,415.36z"/>
						<path d="M306.43,415.01c0.05,0.03,0.09,0.05,0.13,0.07C306.52,415.06,306.44,415.02,306.43,415.01z"/>
						<path d="M307.32,415.48l0.01,0.01C307.31,415.47,307.31,415.47,307.32,415.48z"/>
						<path d="M307.32,415.48c-0.03-0.01-0.07-0.03-0.11-0.04c0.04,0.02,0.08,0.04,0.13,0.06L307.32,415.48z"/>
						<path d="M305.44,414.74c0.02-0.01,0.23,0.06,0.4,0.16c0.18,0.07,0.09-0.04-0.05-0.14c-0.01,0.01-0.01,0.01-0.2-0.06
							c0.06,0.04,0.39,0.2,0.23,0.15c-0.24-0.1-0.19-0.09-0.3-0.15c0.09,0.06-0.32-0.1-0.28-0.04c0.07,0.02,0.15,0.04,0.22,0.07
							C305.46,414.73,305.38,414.71,305.44,414.74z"/>
						<path d="M306.13,414.91l0.07,0.03c-0.08-0.04-0.14-0.08-0.24-0.14c-0.13-0.05-0.16-0.05-0.17-0.05l0.36,0.17L306.13,414.91z"
							/>
						<path d="M306.54,415.09c-0.07-0.01-0.25-0.08-0.15-0.01c0.22,0.1,0.16,0.05,0.29,0.1
							C306.33,415.03,306.79,415.22,306.54,415.09c0.09,0.04,0.14,0.06,0.19,0.08c-0.05-0.03-0.11-0.06-0.18-0.09l0.01,0l0,0l0,0
							c0.01,0.01,0.02,0.01,0,0l-0.01,0C306.56,415.09,306.55,415.09,306.54,415.09c-0.1-0.05-0.01-0.01,0.02,0l0.01,0l0,0
							l-0.36-0.15C306.3,414.98,306.37,415.02,306.54,415.09z"/>
						<path d="M308.17,416.12c-0.01-0.01-0.01-0.01-0.01-0.01C308.14,416.09,308.13,416.09,308.17,416.12z"/>
						<path d="M308.05,416.01c0.02,0.01,0.05,0.02,0.12,0.08c0.06,0.05-0.01,0.01-0.01,0.02c0.05,0.03,0.15,0.12,0.03-0.01
							l-0.02-0.02c-0.11-0.11-0.28-0.23-0.26-0.22C307.95,415.9,307.98,415.94,308.05,416.01z"/>
						<path d="M307.29,415.54l-0.29-0.14l0.13,0.09l0-0.01C307.3,415.57,307.27,415.54,307.29,415.54z"/>
						<polygon points="305.75,414.72 305.8,414.72 305.62,414.67 						"/>
						<polygon points="305.37,414.56 305.39,414.54 305.28,414.52 						"/>
						<path d="M284.92,416.12c0.02,0.02,0.04,0.04,0.07,0.06C284.96,416.16,284.94,416.14,284.92,416.12z"/>
						<path d="M284.59,415.6l-0.01-0.01C284.59,415.61,284.6,415.62,284.59,415.6z"/>
						<path d="M295.42,412.51c-0.14-0.03-0.29-0.06-0.27-0.04l0.04,0.02C295.29,412.5,295.36,412.5,295.42,412.51z"/>
						<path d="M288.49,412.98l0.04,0c0.03-0.01,0.06-0.02,0.09-0.03C288.57,412.96,288.53,412.97,288.49,412.98z"/>
						<path d="M288.4,413.08l-0.18,0.01C288.28,413.09,288.34,413.09,288.4,413.08z"/>
						<path d="M288.31,416.03l0.1-0.04C288.25,416.02,288.32,416.01,288.31,416.03z"/>
						<path d="M301.31,413.3c-0.11-0.04-0.2-0.06-0.28-0.08C301.16,413.26,301.27,413.31,301.31,413.3z"/>
						<path d="M284.58,416.06c0.04,0.05,0.06,0.06,0.06,0.06C284.6,416.07,284.58,416.05,284.58,416.06z"/>
						<path d="M300.69,413.16c0.02,0.01,0.04,0.01,0.06,0.02c0.1,0.02,0.18,0.03,0.27,0.05C300.92,413.2,300.8,413.17,300.69,413.16
							z"/>
						<path d="M301.66,416.58c0.01,0,0.02,0.01,0.03,0.01C301.69,416.59,301.68,416.59,301.66,416.58z"/>
						<path d="M305.25,418.14c-0.03-0.02-0.09-0.05-0.14-0.07C305.14,418.09,305.16,418.1,305.25,418.14z"/>
						<path d="M303.8,413.98C303.88,414,303.81,413.98,303.8,413.98L303.8,413.98z"/>
						<path d="M304.18,414.19c-0.02,0-0.03-0.01-0.04,0C304.15,414.18,304.16,414.19,304.18,414.19z"/>
						<path d="M299.8,413.12L299.8,413.12C299.82,413.13,299.82,413.13,299.8,413.12z"/>
						<path d="M303.92,414.02c-0.04-0.01-0.07-0.03-0.11-0.04C303.84,413.99,303.87,414.01,303.92,414.02z"/>
						<path d="M303.91,414.01c0.03,0.01,0.05,0.02,0.07,0.02C303.99,414.03,303.98,414.03,303.91,414.01z"/>
						<path d="M303.68,413.94c0.05,0.01,0.09,0.03,0.14,0.04c-0.02-0.01-0.02-0.01-0.02-0.01
							C303.77,413.97,303.74,413.96,303.68,413.94z"/>
						<path d="M294.53,415.63c0.01,0,0.01,0,0.02,0C294.64,415.63,294.6,415.63,294.53,415.63z"/>
						<polygon points="293.14,412.69 293.15,412.69 293.14,412.69 						"/>
						<path d="M292.82,412.71c0.13-0.03,0.21-0.03,0.31-0.02l-0.1-0.06L292.82,412.71z"/>
						<path d="M286.3,416.54c-0.07,0.01-0.14,0.01-0.2,0.01c0.24-0.05,0.4-0.11,0.22-0.08c0,0.04-0.2,0.08-0.39,0.07
							c-0.19-0.01-0.38-0.07-0.41-0.04c-0.04-0.02-0.08-0.04-0.12-0.06c0.03,0.02,0.04,0.01,0.08,0.03
							c-0.22-0.14-0.21-0.02-0.48-0.24c-0.09-0.08-0.13-0.16-0.07-0.1c-0.07-0.06-0.13-0.12-0.18-0.19
							c-0.04-0.07-0.02-0.06,0.02,0.01c-0.08-0.11-0.14-0.23-0.19-0.35l0,0c-0.03-0.05-0.07-0.17-0.09-0.24
							c-0.01-0.1,0.01,0.05,0.02,0.02c-0.02-0.07-0.03-0.15-0.03-0.23c0.02-0.09,0.02,0.1,0.05,0.25c0.05-0.21-0.07-0.19,0.05-0.62
							c-0.02,0.07-0.03,0.14-0.03,0.2c0.05-0.12,0.08-0.29,0.2-0.48c-0.05,0.03-0.22,0.41-0.16,0.18c0.03-0.08,0.03-0.08,0.12-0.27
							c0.02,0.01,0.08-0.1,0.18-0.23l0.02,0.03c0.05-0.06,0.1-0.13,0.16-0.21c0.15-0.12,0.21-0.11,0.25-0.12
							c0.27-0.13-0.21,0.06,0.11-0.1c0.27-0.08,0.38-0.12,0.75-0.23c0.19-0.04-0.03,0.03,0.04,0.02l0.16-0.07
							c0.04-0.01,0.03,0,0.02,0.01c0.14-0.05,0-0.03,0.22-0.1c0.05-0.05,0.46-0.05,0.73-0.14c0.07-0.01-0.03,0.03-0.01,0.03
							c0.37-0.1,0.32-0.08,0.62-0.18l0.27-0.02c-0.2,0.01,0.05-0.06,0.26-0.11c-0.07,0-0.14,0-0.17,0l0.35-0.07
							c0.04,0,0.01,0.01-0.05,0.04l0.06-0.02c0.13-0.01,0.06,0.02-0.02,0.05l-0.13,0c-0.08,0.03-0.16,0.06-0.14,0.08
							c0.04-0.01,0.08-0.02,0.11-0.03c-0.02,0.01-0.04,0.02-0.02,0.02c0.01,0,0.05-0.01,0.1-0.03l0.08,0.02l0.02-0.02l0.46-0.05
							c0.32-0.08,0.6-0.15,1.12-0.23c-0.13,0.04-0.02,0.04-0.03,0.07c-0.15-0.02-0.4,0.06-0.67,0.08c0.14-0.01,0.11,0.01,0.08,0.01
							l0.48-0.08c-0.01,0.03,0.1,0.01,0.23,0c-0.1-0.04,0.35-0.08,0.55-0.1c0.01,0.02-0.03,0.03-0.27,0.05
							c0.27,0.01,0.34-0.08,0.6-0.07c-0.06,0-0.09,0-0.11,0.01c0.14-0.02,0.47-0.03,0.39-0.01l-0.06,0c0.39-0.03,1.18-0.06,1.24-0.1
							c0,0.01-0.05,0.05-0.07,0.06l0.69-0.15c-0.06,0.04,0.17,0.11-0.15,0.14c0.09,0,0.21,0.01,0.4-0.01
							c-0.06,0-0.16-0.05-0.07-0.05c0.32,0.04,0.17,0.02,0.46,0.06c-0.09-0.01,0.01-0.06,0.16-0.06c-0.02,0.01,0.01,0.05-0.04,0.06
							l0.37-0.05c-0.09,0.01-0.02,0.05,0.07,0.06c-0.04-0.01,0.32,0.01,0.42,0l-0.16-0.02c0.42,0.01,0.42-0.06,0.83-0.04
							c-0.05,0.01-0.13,0.06,0.08,0.08c0.1-0.02,0.44-0.11,0.81-0.11l0.07,0.02l0.28,0.01c-0.18,0.02-0.68,0.08-0.95,0.1
							c0.16,0.02,0.04,0.02,0.28,0.03c0.08,0.02-0.13,0.01-0.2,0.01l0.55,0.04c-0.02-0.04,0.42,0.01,0.4-0.02
							c-0.2-0.01-0.4-0.02-0.6-0.02c-0.02-0.03,0.35-0.07,0.74-0.02c0.1,0.02-0.08,0.05-0.07,0.06c0.05-0.01,0.37,0.02,0.4,0.03
							l-0.17,0c0.21,0.03,0.36-0.01,0.61,0.05c0.09,0.01,0.26,0.07,0.28,0.05c-0.14-0.05-0.16-0.17-0.06-0.18
							c0.03,0,0.46,0.1,0.56,0.13c0.14,0.05-0.23,0.04-0.11,0.08c0.01-0.01,0.09-0.01,0.12-0.01c0.09,0.02-0.04,0.02,0.16,0.05
							c0.04-0.03,0.41,0.06,0.1-0.01c0.2,0.02,0.21,0.04,0.44,0.07c-0.07-0.03,0.22-0.05,0.42-0.01c-0.01,0.01,0.03,0.03,0.05,0.03
							c0.38,0.08,0.64,0.14,0.99,0.21c0.03,0.01,0.21,0.06,0.13,0.06c0.06,0.01,0.11,0,0.22,0.03c0.22,0.08-0.26-0.05-0.1,0.02
							c0.02-0.02,0.3,0.05,0.47,0.07c-0.04-0.04-0.37-0.11-0.54-0.12c0.01-0.04,0.3-0.02,0.7,0.06c0.31,0.07,0.13,0.06,0.18,0.07
							c0.58,0.16,0.52,0.04,0.99,0.22c0.18,0.08-0.01,0.05,0.03,0.08c-0.25-0.07-0.38-0.13-0.55-0.17l0.21,0.06
							c-0.08-0.01-0.25-0.05-0.34-0.08c0.16,0.05,0.97,0.28,1.41,0.44c0.08,0.02,0.22,0.05,0.16,0.02l-0.14-0.04
							c-0.12-0.06,0.27,0.05,0.1-0.01c0.19,0.04,0.41,0.09,0.66,0.2l0.04,0.05c0-0.01-0.16-0.08-0.24-0.1
							c0.11,0.03,0.38,0.19,0.51,0.19l-0.17-0.09c0.19,0.06,0.43,0.11,0.66,0.21c-0.09-0.07-0.05-0.02-0.21-0.11
							c0.13,0.09-0.59-0.22-0.38-0.1c-0.15-0.1-0.28-0.12-0.49-0.24c0,0.01,0.07,0.04-0.12-0.03c-0.01,0-0.03,0-0.05-0.01l-0.01,0
							l0.01,0c-0.01,0-0.01,0,0,0c0.05,0.02,0.08,0.04,0.1,0.04c-0.1-0.01-0.42-0.11-0.53-0.13c-0.12-0.04,0.05,0-0.01-0.03
							l-0.16-0.03c-0.01-0.03-0.3-0.13-0.02-0.06l-0.25-0.08c-0.14-0.06-0.34-0.12-0.47-0.15c-0.12-0.03-0.31-0.05-0.2-0.04
							l-0.4-0.09l0-0.01c-0.34-0.08-0.47-0.11-1.25-0.29c-0.13-0.02-0.27-0.04-0.49-0.09l-0.04-0.03c-0.17-0.03-0.51-0.12-0.58-0.11
							c-0.18-0.08-0.83-0.13-1.13-0.19l-0.01,0.02c-0.21-0.03-0.41-0.06-0.67-0.07l0.01,0.02c-0.23-0.01-0.57-0.07-0.93-0.11
							c0.02-0.01,0.11,0.01,0.18,0.02c-0.42-0.1-0.89-0.04-1.28-0.1c-0.1,0-0.17,0-0.23-0.01c0.01,0,0.01,0,0.02,0
							c-0.01,0-0.02,0-0.04,0c-0.04-0.01-0.09-0.01-0.13-0.02c0.05,0.01,0.09,0.01,0.11,0.02c-0.06,0-0.16-0.01-0.3-0.01l-0.05-0.03
							c-0.01,0-0.01,0-0.03,0c-0.11-0.01-0.09,0.01-0.03,0.03c-0.06,0-0.11,0.01-0.15,0.01c-0.09-0.04-0.29,0.01-0.41-0.04
							c-0.07,0.02-0.55,0-0.61,0.04c0-0.01-0.04-0.01,0.02-0.01c-0.12-0.01-0.24-0.01-0.35,0l-0.05-0.03l-0.27,0.05
							c-0.16-0.01-0.23-0.02-0.07-0.05c-0.45,0.04-0.22,0.02-0.65,0.06l0.02-0.02c-0.12,0-0.31,0.03-0.38,0.02
							c-0.27-0.02-1.31,0.06-1.99,0.1c0.14,0.04-0.32,0.01-0.34,0.05c-0.04-0.01-0.14-0.01-0.03-0.03c-0.34,0.05-0.52,0.03-0.75,0.1
							c-0.04-0.01,0.07-0.03,0.03-0.03c-0.03,0.01-0.11,0.03-0.14,0.03c-0.04,0,0.05-0.02,0.1-0.03c-0.35,0.06-0.38,0.1-0.4,0.14
							c-0.18,0.01-0.27,0.03-0.39,0.07c-0.06,0-0.17,0,0.05-0.04c-0.12,0.01-0.75,0.1-0.76,0.14c-0.04,0-0.17,0.03-0.2,0.04
							c-0.27,0.06-0.29,0.06-0.56,0.11l0.08-0.01c-0.1,0.06-0.22,0.05-0.43,0.11l0.01-0.01c-0.5,0.1-0.21,0.07-0.7,0.17l0.03,0.02
							c-0.03,0.07-0.45,0.05-0.7,0.24c0.03-0.02,0.07-0.03,0.1-0.04c-0.13,0.08-0.42,0.2-0.53,0.33c-0.03,0.02,0.03-0.05,0.07-0.09
							c-0.31,0.32-0.02,0.06-0.21,0.33c-0.04,0.04,0-0.09-0.11,0.1c-0.09,0.09-0.19,0.62-0.17,0.93c0.01-0.07,0.02-0.13,0.04,0.02
							c0.01,0.23,0.12,0.63,0.29,0.77c0.02,0.03,0.02,0.04,0.02,0.04c0.11,0.14,0.42,0.39,0.53,0.41c0.05,0.08,0.31,0.19,0.56,0.22
							c0.25,0.03,0.48-0.02,0.48,0.02c0.18-0.03,0.35-0.09,0.51-0.13l-0.01,0.01c0.32-0.08,0.43-0.13,0.53-0.18
							c0.07-0.02,0.02,0.01,0.02,0.01c0.47-0.11,0.52-0.11,0.9-0.23l0.05,0.01c0.1-0.05,0.69-0.1,1.15-0.19c0,0-0.01,0.01-0.05,0.02
							c0.52-0.13,1.27-0.08,1.45-0.2c0.12-0.02,0.23-0.04,0.35-0.05c-0.45,0.03,0.06-0.04-0.12-0.04c0.18-0.02,0.46,0,0.24,0.01
							l-0.03,0c-0.08,0.05,0.56-0.02,0.55,0.01c0.89-0.06,1.76-0.05,2.59-0.02l-0.1-0.04l0.29,0.01c0.08,0.01,0.1,0.03-0.11,0.02
							c0.11,0.02,0.35-0.01,0.36-0.02c0.41,0.02-0.16,0.04-0.04,0.04l0.17,0l-0.04-0.01c0.14-0.01,0.15-0.02,0.4,0
							c0.16,0.02,0.08,0.03,0.14,0.03c0,0,0.02,0,0.1,0.01l0.37,0.02l-0.14-0.04c0.16,0,0.34,0.02,0.18-0.02
							c0.25,0.05,1.36,0.15,1.51,0.17c0.23,0,0.45,0.04,0.73,0.08c-0.07-0.02-0.1-0.05,0.13-0.01c-0.1,0.05,0.43,0.09,0.62,0.16
							c-0.16-0.07,0.67,0.12,0.41,0.03c0.2,0.04,0.01,0.03,0.15,0.07c0.48,0.06,1.03,0.22,1.6,0.36c0.01-0.01-0.08-0.04,0.04-0.02
							l0.29,0.11c0.11,0.02,0.12-0.03,0.31,0.06c-0.03-0.02-0.07-0.04,0.01-0.02c1.1,0.35,2.26,0.69,3.29,1.26
							c-0.14-0.08-0.04-0.04,0.07,0.01c-0.07-0.04,0.01-0.02,0-0.03c0.15,0.07,0.28,0.17,0.42,0.25c0.09,0.01,0.46,0.25,0.52,0.25
							l-0.14-0.07c0.2,0.07-0.22-0.21-0.17-0.23c-0.22-0.07-0.51-0.35-0.89-0.45c-0.07-0.04,0.07,0.02,0.04-0.01
							c-0.1-0.02-0.21-0.07-0.4-0.16l0.02,0.01c-0.55-0.26-0.8-0.33-1.44-0.59l0.04,0.04c-0.09-0.04-0.15-0.07-0.23-0.1
							c-0.17-0.02,0.39,0.14,0.23,0.13c-0.16-0.13-0.99-0.31-1.1-0.4c-0.22-0.07,0.06,0.04-0.16-0.02l-0.05-0.03l-0.06,0
							c-0.14-0.05-0.21-0.08-0.21-0.09c0.04,0.01,0.1,0.02,0.14,0.03c-0.18-0.06-0.53-0.12-0.59-0.15l0.21,0.06
							c-0.6-0.14-1.34-0.32-1.93-0.4l0.04,0.02c-0.45-0.07-0.36-0.08-0.85-0.15l0.02,0c-0.1,0-0.23-0.02-0.37-0.04
							c0.13,0.01-0.23-0.06-0.07-0.05c-0.49-0.05-0.24-0.02-0.57-0.02l-0.07-0.03c-0.11,0-0.12,0.01-0.37-0.01
							c0.21,0.01-0.16-0.04,0.07-0.04c-0.52-0.09-0.78-0.04-1.01-0.12c-0.24,0.03,0.45,0.06,0.31,0.07c0.11,0.03-0.2,0.01-0.36,0
							c-0.17-0.01-0.28-0.08-0.7-0.1c0.03,0,0.06,0,0.09,0c-0.16-0.02-0.31,0-0.5-0.03c-0.11,0.02-0.25-0.01-0.28,0.03
							c0.13,0,0.26,0,0.39,0.01c-0.22-0.01-0.43,0.04-0.79,0.01c0.03-0.01,0.14-0.02,0.21-0.02c-0.11-0.01-0.2,0-0.31-0.01
							c0.03-0.04,0.47,0,0.7-0.02c-0.11-0.02-0.44,0.02-0.33-0.02c-0.17,0.05-0.42-0.01-0.7,0.02l0.02-0.02
							c-0.05,0-0.14,0.01-0.22,0.01l0.15-0.03c-0.23,0.02-0.45-0.02-0.67,0c0.46-0.01,0.1,0.03,0.3,0.04
							c-0.57,0.04-0.33-0.05-0.97-0.03c0.09-0.01,0.33,0.01,0.19,0.02c-0.12,0-0.28-0.01-0.36-0.02c-0.42,0.02,0.07,0.02-0.11,0.04
							c-0.15-0.02-0.21,0.02-0.39,0.05l0-0.02c-0.48,0.02-0.12,0.06-0.56,0.07l0.18-0.04l-0.23,0.02l0.04-0.03
							c-0.25,0.03-0.32,0.03-0.56,0.05c0.06,0.01-0.03,0.05-0.24,0.07c-0.15,0,0.08-0.03-0.22,0.01c0.07-0.02,0.14-0.05,0.27-0.04
							l0.08-0.03c-0.16,0-0.39,0.04-0.5,0.05c0.03,0,0.07,0,0.12-0.01l-0.43,0.08c-0.07,0-0.02-0.01,0.04-0.03
							c-0.09,0.01-0.15,0.03-0.28,0.05c0.03-0.02,0.02-0.04,0.2-0.08l-0.41,0.08c-0.03,0-0.22,0.01-0.16,0
							c-0.23,0.03-0.56,0.11-0.86,0.17c-0.02,0.01-0.05,0.02-0.11,0.03c-0.28,0.06-0.54,0.08-0.87,0.19l-0.2,0.02
							c-0.26,0.08,0.27-0.03-0.16,0.1c-0.3,0.09-0.12,0-0.23,0.02c-0.15,0.05-0.4,0.19-0.67,0.17
							C286.15,416.56,286.22,416.56,286.3,416.54z M284.59,414.68c-0.01,0.06-0.03,0.18-0.05,0.22
							C284.52,414.82,284.55,414.77,284.59,414.68z M288.97,412.95c-0.05,0.01-0.12,0.02-0.2,0.03
							C288.83,412.97,288.9,412.96,288.97,412.95z M302.87,413.71L302.87,413.71C302.73,413.66,302.78,413.68,302.87,413.71z
							 M303.15,413.81c0.03,0.01,0.03,0,0.02,0c-0.02,0-0.09-0.02-0.16-0.04C303.03,413.77,303.07,413.79,303.15,413.81z
							 M295.46,415.83l-0.06-0.01C295.54,415.82,295.5,415.82,295.46,415.83z"/>
						<path d="M288.42,413.07c-0.02,0-0.02,0-0.03-0.01C288.36,413.07,288.36,413.08,288.42,413.07z"/>
						<path d="M288.29,416.03L288.29,416.03c0.02,0,0.02-0.01,0.02-0.01L288.29,416.03z"/>
						<path d="M298.62,413.03c-0.06-0.01-0.09-0.02-0.11-0.03C298.5,413.01,298.53,413.01,298.62,413.03z"/>
						<path d="M304.66,414.27l-0.18-0.06c0.09,0.03,0.12,0.05,0.16,0.07C304.64,414.27,304.61,414.25,304.66,414.27z"/>
						<path d="M306.14,415.03c0.05,0.02,0.03,0.01,0.08,0.03l0-0.01C306.11,415.01,306.03,414.98,306.14,415.03z"/>
						<path d="M304.8,414.4c0.01,0.02,0.12,0.06,0.25,0.1l-0.02-0.01C305.07,414.49,304.94,414.45,304.8,414.4z"/>
						<path d="M305.08,414.52c0.04,0.02,0.08,0.03,0.12,0.04C305.21,414.56,305.15,414.54,305.08,414.52z"/>
						<path d="M303.52,413.91c0.06,0.02,0.05-0.01,0.08,0.01C303.67,413.91,303.18,413.82,303.52,413.91z"/>
						<polygon points="304.88,414.5 304.84,414.46 304.77,414.46 						"/>
						<path d="M303.9,414.12c0.07,0.02,0.13,0.05,0.2,0.07c0,0,0.02,0,0.06,0.01C304.03,414.16,303.9,414.12,303.9,414.12z"/>
						<path d="M304.15,414.21c0.05,0.02,0.09,0.03,0.16,0.06C304.28,414.26,304.22,414.23,304.15,414.21z"/>
						<polygon points="304.6,414.41 304.55,414.38 304.41,414.33 						"/>
						<path d="M301.7,413.5l-0.23-0.05c-0.02,0,0.04,0.02,0.12,0.04C301.65,413.49,301.73,413.51,301.7,413.5z"/>
						<path d="M302.36,413.73c-0.06-0.02-0.06-0.03-0.09-0.04l-0.01,0.03L302.36,413.73z"/>
						<path d="M301.71,413.57c-0.02,0-0.33-0.06-0.05,0.01C301.68,413.58,301.91,413.63,301.71,413.57z"/>
						<polygon points="298.28,412.9 298.34,412.9 298.33,412.85 						"/>
						<path d="M295.2,412.75c0.27,0.03,0.07-0.03,0.31,0c0.06-0.01-0.2-0.02-0.14-0.03C295.21,412.72,295.13,412.71,295.2,412.75z"
							/>
						<path d="M295.38,412.72c0.02,0,0.05,0,0.08,0C295.43,412.72,295.4,412.72,295.38,412.72z"/>
						<polygon points="305.8,418.47 305.95,418.56 305.86,418.49 						"/>
						<path d="M306.12,418.6l0.02,0.05l0.11,0.03C306.21,418.65,306.14,418.62,306.12,418.6z"/>
						<path d="M284.85,414.31l0-0.01c-0.02,0.02-0.05,0.04-0.09,0.11C284.79,414.37,284.82,414.34,284.85,414.31z"/>
						<polygon points="285.09,416.24 285.06,416.21 285.1,416.28 						"/>
						<path d="M286.87,416.32c-0.08,0.02-0.18,0.05-0.25,0.07C286.79,416.34,286.9,416.35,286.87,416.32z"/>
					</g>
				</g>
			</g>
			<g>
				<g>
					<g>
						<path d="M306.24,423.41c-0.04,0.06-0.01,0.05-0.01,0.06C306.29,423.36,306.24,423.41,306.24,423.41z"/>
						<path d="M306.33,422.25l0.01,0.02c-0.03-0.05-0.05-0.1-0.08-0.15C306.29,422.16,306.3,422.21,306.33,422.25z"/>
						<path d="M305.59,421.49c0.03,0.04,0.12,0.08,0.21,0.13l0,0c0.1,0.05,0.21,0.12,0.27,0.2l0.02,0.03l0.08,0.05
							c-0.09-0.11-0.22-0.23-0.36-0.29l0.01,0C305.72,421.57,305.68,421.54,305.59,421.49z"/>
						<path d="M305.15,421.15c0.02,0.03-0.11-0.05,0.11,0.07c-0.01-0.01-0.01-0.01-0.02-0.01
							C305.22,421.19,305.19,421.18,305.15,421.15z"/>
						<path d="M305.24,421.2C305.33,421.26,305.18,421.16,305.24,421.2L305.24,421.2z"/>
						<path d="M304.79,420.96l0.13,0.06c-0.02-0.02-0.13-0.09-0.09-0.07C304.7,420.89,304.72,420.91,304.79,420.96z"/>
						<path d="M304.66,420.92l0.07,0.03C304.72,420.94,304.7,420.93,304.66,420.92z"/>
						<path d="M304.87,421.02c-0.05-0.02-0.1-0.04-0.15-0.06c0.02,0.01,0.01,0.02,0.07,0.03
							C304.78,420.98,304.81,420.99,304.87,421.02z"/>
						<path d="M304.95,421.06c0.07,0.05,0.16,0.1,0.02,0.04C305.22,421.24,305.19,421.2,304.95,421.06z"/>
						<path d="M305.53,421.5l0.09,0.06l0.09,0.04C305.66,421.58,305.53,421.48,305.53,421.5z"/>
						<path d="M303.99,420.54c-0.01,0,0.04,0.04,0.04,0.05l0.1,0.04C304.08,420.61,303.99,420.56,303.99,420.54z"/>
						<path d="M304.03,420.6l-0.15-0.06C304.01,420.6,304.03,420.61,304.03,420.6z"/>
						<path d="M304.62,420.94c0.08,0.03,0.17,0.06,0.25,0.1c-0.09-0.05-0.19-0.08-0.29-0.12L304.62,420.94z"/>
						<polygon points="303.43,420.29 303.52,420.31 303.36,420.27 						"/>
						<path d="M303.05,420.14c0.07,0.01-0.08-0.06-0.01-0.04c-0.1-0.04-0.19-0.07-0.28-0.09
							C302.86,420.04,302.94,420.08,303.05,420.14z"/>
						<path d="M302.63,419.97c0.03,0.01,0.08,0.02,0.14,0.04C302.74,420,302.7,419.99,302.63,419.97z"/>
						<path d="M303.63,420.42c-0.01-0.01-0.03-0.03-0.11-0.07l0.05,0.04L303.63,420.42z"/>
						<path d="M303.58,420.4L303.58,420.4c-0.06-0.03-0.11-0.05-0.13-0.06C303.47,420.35,303.5,420.36,303.58,420.4z"/>
						<path d="M303.65,420.43l-0.01-0.01C303.64,420.42,303.64,420.43,303.65,420.43z"/>
						<path d="M304.25,420.74c-0.09-0.03-0.27-0.11-0.11-0.01C304.21,420.75,304.11,420.7,304.25,420.74z"/>
						<path d="M303.71,420.48l0.15,0.08c0-0.01-0.02-0.03,0.02-0.01L303.71,420.48z"/>
						<polygon points="303.63,420.45 303.71,420.48 303.65,420.45 						"/>
						<path d="M302.89,420.1c-0.07-0.02-0.15-0.05-0.23-0.08c0.11,0.05,0.19,0.08,0.27,0.12
							C302.95,420.13,302.99,420.14,302.89,420.1z"/>
						<path d="M303.23,420.25l-0.02-0.01C303.22,420.25,303.23,420.25,303.23,420.25z"/>
						<polygon points="301.83,419.71 301.84,419.72 301.84,419.71 						"/>
						<path d="M302.95,420.14c0.07,0.03,0.11,0.04,0.15,0.05c-0.06-0.02-0.11-0.04-0.16-0.06
							C302.93,420.13,302.92,420.14,302.95,420.14z"/>
						<path d="M302.39,419.89c0.04,0.02,0.08,0.04,0.12,0.05C302.48,419.93,302.41,419.89,302.39,419.89z"/>
						<path d="M303.19,420.22l0.01,0C303.18,420.21,303.18,420.22,303.19,420.22z"/>
						<path d="M303.19,420.22c-0.02-0.01-0.06-0.02-0.09-0.03c0.03,0.01,0.07,0.03,0.11,0.04L303.19,420.22z"/>
						<path d="M301.53,419.74c0.02-0.01,0.2,0.03,0.35,0.11c0.16,0.04,0.08-0.05-0.04-0.13c-0.01,0.01-0.01,0.01-0.17-0.03
							c0.05,0.03,0.34,0.15,0.2,0.12c-0.21-0.07-0.17-0.07-0.27-0.11c0.08,0.05-0.28-0.06-0.24-0.01l0.19,0.05
							C301.55,419.73,301.48,419.72,301.53,419.74z"/>
						<path d="M302.14,419.83l0.07,0.02c-0.07-0.03-0.12-0.06-0.22-0.11c-0.11-0.03-0.14-0.03-0.15-0.03l0.32,0.12L302.14,419.83z"
							/>
						<path d="M302.5,419.95c-0.06,0-0.22-0.05-0.13,0.01c0.19,0.07,0.14,0.03,0.26,0.07C302.31,419.92,302.72,420.05,302.5,419.95
							c0.06,0.02,0.12,0.04,0.17,0.06c-0.05-0.02-0.1-0.04-0.15-0.07l0.01,0l0,0l0,0c0.01,0.01,0.02,0.01,0,0l-0.01,0
							C302.51,419.95,302.5,419.95,302.5,419.95c-0.09-0.04-0.01-0.01,0.02,0l0,0l0,0l-0.31-0.1
							C302.29,419.88,302.35,419.9,302.5,419.95z"/>
						<path d="M303.96,420.7C303.96,420.69,303.96,420.69,303.96,420.7C303.94,420.68,303.93,420.68,303.96,420.7z"/>
						<path d="M303.85,420.63c0.02,0.01,0.04,0.01,0.11,0.05c0.06,0.04,0,0.01,0,0.02c0.04,0.02,0.15,0.06,0.03-0.02l-0.02-0.01
							c-0.12-0.06-0.26-0.16-0.23-0.16C303.75,420.55,303.78,420.57,303.85,420.63z"/>
						<path d="M303.17,420.28l-0.26-0.1l0.12,0.07l0-0.01C303.17,420.31,303.15,420.28,303.17,420.28z"/>
						<polygon points="301.8,419.69 301.84,419.68 301.68,419.66 						"/>
						<polygon points="301.46,419.57 301.48,419.56 301.39,419.54 						"/>
						<path d="M287.98,421.54l0.08-0.03C288.03,421.52,288,421.53,287.98,421.54z"/>
						<path d="M287.42,421.69l-0.01,0.01C287.43,421.69,287.44,421.69,287.42,421.69z"/>
						<path d="M292.88,418.29c-0.12-0.02-0.25-0.04-0.23-0.02l0.04,0.02C292.76,418.29,292.83,418.29,292.88,418.29z"/>
						<path d="M287.01,419.24l0.03,0c0.03-0.01,0.05-0.03,0.07-0.04C287.09,419.21,287.05,419.22,287.01,419.24z"/>
						<path d="M286.96,419.34l-0.15,0.03C286.85,419.36,286.9,419.35,286.96,419.34z"/>
						<path d="M291.1,420.95l0.09-0.03C291.04,420.93,291.11,420.94,291.1,420.95z"/>
						<path d="M297.94,418.7c-0.1-0.03-0.18-0.05-0.25-0.06C297.81,418.67,297.9,418.71,297.94,418.7z"/>
						<path d="M287.82,421.81c0.05-0.02,0.06-0.03,0.06-0.03C287.83,421.8,287.8,421.81,287.82,421.81z"/>
						<path d="M297.4,418.6c0.02,0.01,0.03,0.01,0.05,0.01c0.09,0.01,0.15,0.02,0.24,0.03C297.6,418.62,297.5,418.6,297.4,418.6z"/>
						<path d="M302.37,422.67c0.01,0,0.01,0.01,0.02,0.01C302.39,422.69,302.38,422.68,302.37,422.67z"/>
						<path d="M305.38,424.05c-0.03,0.01-0.09,0.03-0.14,0.04C305.27,424.09,305.31,424.08,305.38,424.05z"/>
						<path d="M300.1,419.16C300.17,419.17,300.11,419.16,300.1,419.16L300.1,419.16z"/>
						<path d="M300.43,419.33c-0.02,0-0.03,0-0.03,0C300.4,419.33,300.41,419.33,300.43,419.33z"/>
						<path d="M296.64,418.62L296.64,418.62C296.66,418.63,296.66,418.62,296.64,418.62z"/>
						<path d="M300.2,419.19c-0.03-0.01-0.06-0.02-0.09-0.03C300.13,419.17,300.16,419.18,300.2,419.19z"/>
						<path d="M300.19,419.18c0.03,0.01,0.04,0.01,0.06,0.02C300.26,419.2,300.26,419.19,300.19,419.18z"/>
						<path d="M299.99,419.13c0.04,0.01,0.07,0.02,0.12,0.03c-0.01,0-0.02-0.01-0.02-0.01
							C300.07,419.15,300.04,419.14,299.99,419.13z"/>
						<path d="M296.43,421.11l0.02,0C296.52,421.12,296.48,421.12,296.43,421.11z"/>
						<polygon points="290.94,418.62 290.95,418.62 290.94,418.62 						"/>
						<path d="M290.68,418.66c0.11-0.04,0.18-0.04,0.26-0.04l-0.09-0.05L290.68,418.66z"/>
						<path d="M289.33,421.21l-0.19,0.02c0.22-0.08,0.39-0.09,0.2-0.09c-0.01,0.07-0.72,0.16-0.73,0.23l-0.13,0.01
							c0.03-0.01,0.05-0.01,0.07-0.02c-0.25,0.02-0.17,0.08-0.47,0.15c-0.11,0.02-0.18,0.04-0.11,0.01l-0.23,0.08
							c-0.07,0.02-0.05,0,0.01-0.02l-0.36,0.11l0,0c-0.05,0.02-0.16,0.07-0.21,0.09c-0.09,0.01,0.04-0.02,0.02-0.02
							c-0.06,0.02-0.12,0.03-0.19,0.04c-0.08-0.02,0.08-0.03,0.2-0.06c-0.18-0.04-0.16,0.07-0.53-0.01
							c0.06,0.01,0.12,0.01,0.18,0.01c-0.11-0.04-0.25-0.05-0.42-0.14c0.03,0.04,0.36,0.16,0.16,0.13
							c-0.07-0.02-0.06-0.02-0.23-0.07c0.01-0.02-0.09-0.06-0.2-0.13l0.03-0.02c-0.12-0.08-0.12-0.06-0.19-0.11
							c-0.11-0.12-0.1-0.17-0.1-0.21c-0.11-0.22,0.04,0.17-0.09-0.09c-0.07-0.2-0.1-0.35-0.11-0.61c0.03-0.15,0.01,0.03,0.03-0.03
							c0-0.04,0-0.09,0-0.14c0.01-0.03,0.01-0.02,0.02-0.01c0.02-0.11-0.03-0.02,0.02-0.19c-0.02-0.07,0.2-0.32,0.35-0.48
							c0.05-0.03-0.01,0.03,0.01,0.03c0.23-0.19,0.2-0.16,0.43-0.27l0.23-0.04c-0.17,0.02,0.03-0.06,0.21-0.13
							c-0.06,0.01-0.12,0.01-0.15,0.01l0.29-0.09c0.04,0,0.01,0.01-0.03,0.04l0.05-0.02c0.11-0.02,0.06,0.01-0.01,0.05l-0.11,0.01
							c-0.07,0.04-0.13,0.08-0.11,0.09c0.04-0.01,0.07-0.02,0.09-0.03c-0.02,0.01-0.03,0.02-0.02,0.02c0.01,0,0.04-0.01,0.08-0.03
							l0.07,0.02l0.01-0.02l0.38-0.08c0.26-0.11,0.49-0.2,0.93-0.31c-0.1,0.05-0.02,0.05-0.02,0.08c-0.13-0.01-0.34,0.08-0.56,0.12
							c0.12-0.02,0.1,0,0.07,0.01l0.4-0.11c0,0.03,0.09,0,0.2-0.01c-0.09-0.03,0.29-0.1,0.46-0.14c0.01,0.02-0.02,0.03-0.23,0.07
							c0.23-0.01,0.28-0.1,0.5-0.11c-0.05,0.01-0.08,0.01-0.09,0.02c0.11-0.03,0.4-0.06,0.33-0.04l-0.05,0.01
							c0.33-0.05,1-0.14,1.05-0.18c0,0-0.04,0.05-0.06,0.06l0.58-0.2c-0.05,0.04,0.16,0.1-0.11,0.15c0.08,0,0.18-0.01,0.34-0.04
							c-0.05,0-0.14-0.04-0.06-0.05c0.28,0.02,0.15,0.01,0.39,0.02c-0.08,0,0-0.06,0.13-0.07c-0.02,0.01,0.01,0.05-0.03,0.06
							l0.31-0.07c-0.08,0.01-0.01,0.05,0.06,0.06c-0.03-0.01,0.27-0.01,0.36-0.02l-0.13-0.01c0.36-0.01,0.35-0.1,0.71-0.09
							c-0.04,0.01-0.11,0.07,0.08,0.08c0.08-0.03,0.37-0.13,0.68-0.15l0.06,0.02c0.08-0.01,0.16-0.01,0.24-0.01
							c-0.15,0.03-0.58,0.13-0.81,0.16c0.13,0.01,0.04,0.02,0.24,0.02c0.07,0.01-0.11,0.02-0.17,0.02l0.47,0.01
							c-0.02-0.04,0.36-0.02,0.34-0.05c-0.17,0-0.34,0.01-0.51,0.02c-0.02-0.03,0.3-0.1,0.63-0.07c0.08,0.02-0.07,0.05-0.06,0.07
							c0.04-0.01,0.32-0.01,0.35,0l-0.14,0.01c0.18,0.02,0.3-0.03,0.52,0.01c0.08,0.01,0.23,0.05,0.24,0.03
							c-0.12-0.04-0.14-0.16-0.05-0.18c0.03,0,0.4,0.07,0.49,0.1c0.12,0.04-0.19,0.05-0.09,0.09c0.01-0.01,0.08-0.01,0.1-0.01
							c0.08,0.02-0.04,0.02,0.14,0.04c0.03-0.03,0.35,0.04,0.08-0.02c0.17,0.01,0.18,0.02,0.38,0.04c-0.06-0.03,0.19-0.06,0.36-0.04
							c-0.01,0.01,0.03,0.02,0.04,0.03c0.32,0.05,0.56,0.09,0.86,0.14c0.03,0.01,0.18,0.04,0.11,0.05c0.05,0,0.09-0.01,0.19,0.01
							c0.19,0.06-0.22-0.04-0.08,0.02c0.02-0.02,0.26,0.02,0.4,0.04c-0.04-0.04-0.32-0.07-0.47-0.08c0.01-0.04,0.26-0.04,0.6,0.01
							c0.27,0.04,0.11,0.05,0.16,0.05c0.5,0.11,0.45,0,0.85,0.14c0.16,0.07,0,0.05,0.03,0.08c-0.22-0.04-0.33-0.1-0.48-0.12
							l0.18,0.05c-0.07-0.01-0.22-0.03-0.3-0.05c0.14,0.04,0.84,0.2,1.22,0.31c0.07,0.01,0.19,0.03,0.14,0.01l-0.12-0.03
							c-0.11-0.05,0.24,0.03,0.08-0.02c0.17,0.02,0.35,0.06,0.58,0.14l0.03,0.04c0-0.01-0.14-0.06-0.21-0.07
							c0.1,0.02,0.34,0.14,0.45,0.14l-0.15-0.07c0.17,0.03,0.37,0.06,0.57,0.13c-0.08-0.06-0.05-0.01-0.18-0.09
							c0.11,0.08-0.51-0.16-0.33-0.05c-0.14-0.08-0.25-0.09-0.43-0.18c0,0.01,0.06,0.04-0.1-0.02c-0.01,0-0.03,0-0.04,0l-0.01,0
							l0.01,0c-0.01,0-0.01,0,0,0c0.04,0.01,0.07,0.03,0.08,0.04c-0.09-0.01-0.36-0.07-0.46-0.08c-0.1-0.03,0.05,0-0.01-0.02
							l-0.14-0.02c-0.01-0.02-0.26-0.1-0.02-0.05l-0.22-0.05c-0.12-0.04-0.3-0.09-0.41-0.11c-0.1-0.03-0.26-0.03-0.17-0.03
							l-0.34-0.05l0-0.01c-0.34-0.06-0.7-0.11-1.08-0.2c-0.12-0.01-0.23-0.02-0.42-0.06l-0.03-0.02c-0.15-0.01-0.44-0.08-0.5-0.07
							c-0.15-0.07-0.72-0.08-0.97-0.11l-0.01,0.02c-0.18-0.02-0.35-0.03-0.57-0.02l0.01,0.02c-0.19,0.01-0.49-0.04-0.8-0.05
							c0.02-0.01,0.1,0,0.15,0.01c-0.36-0.07-0.77,0.02-1.09-0.02c-0.08,0.01-0.14,0.01-0.2,0c0.01,0,0.01,0,0.02,0l-0.03,0
							c-0.04,0-0.08-0.01-0.11-0.01c0.04,0.01,0.08,0.01,0.1,0.01c-0.05,0-0.13,0-0.25,0.01l-0.04-0.02c-0.01,0-0.01,0-0.02,0
							c-0.09,0-0.07,0.01-0.02,0.03c-0.04,0.01-0.08,0.01-0.12,0.02c-0.08-0.03-0.25,0.02-0.35-0.01c-0.06,0.02-0.47,0.04-0.52,0.08
							c0-0.01-0.03-0.01,0.02-0.01c-0.1,0-0.21,0-0.3,0.02l-0.05-0.02l-0.22,0.06c-0.14,0-0.2-0.01-0.06-0.04
							c-0.33,0.07-0.27,0.04-0.55,0.1l0.01-0.02c-0.1,0.01-0.26,0.05-0.32,0.04c-0.23,0.01-1.11,0.14-1.68,0.24
							c0.12,0.03-0.27,0.03-0.28,0.08c-0.04-0.01-0.12,0-0.03-0.03c-0.29,0.08-0.44,0.06-0.63,0.16c-0.04,0,0.06-0.04,0.03-0.04
							c-0.02,0.01-0.09,0.04-0.12,0.04c-0.03,0,0.04-0.02,0.08-0.04c-0.29,0.08-0.31,0.13-0.32,0.17c-0.15,0.02-0.23,0.04-0.33,0.1
							c-0.05,0-0.14,0.01,0.04-0.04c-0.1,0.03-0.64,0.14-0.64,0.21c-0.04,0-0.14,0.07-0.16,0.09c-0.2,0.15-0.22,0.17-0.35,0.37
							l0.04-0.05c-0.02,0.1-0.1,0.17-0.16,0.36l0-0.01c-0.13,0.43-0.06,0.19-0.09,0.62l0.02-0.03c0.05,0.03,0.01,0.4,0.19,0.61
							l-0.04-0.09c0.07,0.11,0.18,0.36,0.31,0.45c0.02,0.02-0.05-0.02-0.08-0.05c0.3,0.25,0.05,0.01,0.3,0.15
							c0.04,0.04-0.08,0.01,0.1,0.09c0.09,0.07,0.55,0.09,0.81,0.07c-0.06-0.01-0.11-0.01,0.01-0.04c0.2-0.04,0.51-0.09,0.66-0.17
							c0.02,0,0.04,0,0.04,0c0.14-0.05,0.44-0.15,0.52-0.18c0.15,0.05,0.86-0.23,0.87-0.15c0.14-0.04,0.29-0.05,0.43-0.08
							l-0.01,0.01c0.28-0.04,0.37-0.07,0.47-0.11c0.06-0.01,0.02,0.01,0.01,0.01c0.41-0.05,0.45-0.05,0.79-0.12l0.04,0.02
							c0.09-0.02,0.59-0.03,0.99-0.07c0,0-0.01,0.01-0.04,0.01c0.45-0.06,1.08,0.02,1.25-0.06l0.3-0.02
							c-0.39-0.01,0.06-0.04-0.1-0.05c0.15-0.01,0.39,0.02,0.21,0.03l-0.03,0c-0.07,0.04,0.48,0.02,0.47,0.06
							c0.76,0.02,1.5,0.11,2.21,0.2l-0.08-0.05l0.25,0.04c0.06,0.02,0.08,0.04-0.09,0.01c0.09,0.03,0.3,0.03,0.3,0.02
							c0.34,0.06-0.14,0.02-0.03,0.04l0.14,0.02l-0.03-0.01c0.12,0,0.13-0.01,0.34,0.02c0.13,0.03,0.07,0.03,0.12,0.04
							c0,0,0.02,0,0.08,0.01l0.31,0.06l-0.12-0.05c0.14,0.01,0.29,0.06,0.15,0c0.2,0.08,1.14,0.24,1.26,0.3
							c0.19,0.03,0.38,0.07,0.61,0.13c-0.06-0.02-0.08-0.06,0.12,0c-0.09,0.04,0.35,0.13,0.5,0.22c-0.13-0.07,0.56,0.16,0.35,0.05
							c0.16,0.06,0,0.03,0.12,0.08c0.39,0.12,0.85,0.3,1.31,0.5c0.01,0-0.06-0.05,0.04-0.02l0.23,0.14c0.09,0.03,0.1-0.01,0.26,0.09
							c-0.02-0.02-0.05-0.04,0.01-0.02c0.62,0.31,1.27,0.62,1.88,0.99l0,0c0.26,0.19,0.59,0.28,0.91,0.24
							c-0.15,0-0.05-0.01,0.06-0.03c-0.07,0.01,0-0.02-0.02-0.03c0.15-0.02,0.29-0.06,0.43-0.13c0.06-0.06,0.38-0.28,0.38-0.35
							c-0.03,0.04-0.06,0.07-0.09,0.1c0.11-0.14-0.24,0.11-0.25,0.04c-0.14,0.15-0.46,0.2-0.76,0.23c-0.07-0.01,0.06-0.01,0.02-0.03
							c-0.08,0.02-0.18,0.02-0.34-0.05l0.02,0c-0.11-0.03-0.19-0.09-0.27-0.14l0,0l0,0c-0.24-0.15-0.49-0.3-0.86-0.52l0.03,0.04
							c-0.06-0.04-0.12-0.07-0.18-0.11c-0.14-0.04,0.31,0.16,0.18,0.14c-0.12-0.12-0.8-0.39-0.87-0.49
							c-0.17-0.09,0.04,0.05-0.13-0.04l-0.04-0.03l-0.05,0c-0.12-0.05-0.17-0.09-0.17-0.11c0.03,0.01,0.09,0.03,0.11,0.04
							c-0.15-0.08-0.43-0.17-0.48-0.2l0.17,0.08c-0.49-0.2-1.1-0.42-1.59-0.57l0.03,0.02c-0.38-0.09-0.3-0.1-0.71-0.21l0.02,0
							c-0.09-0.01-0.2-0.04-0.31-0.08c0.11,0.02-0.19-0.08-0.05-0.05c-0.42-0.08-0.21-0.03-0.49-0.06l-0.06-0.03
							c-0.1-0.01-0.11,0-0.31-0.05c0.17,0.03-0.13-0.06,0.07-0.03c-0.43-0.15-0.66-0.1-0.85-0.2c-0.21,0.01,0.38,0.1,0.26,0.09
							c0.09,0.03-0.17,0-0.31-0.03c-0.14-0.03-0.23-0.11-0.58-0.17l0.07,0.01c-0.13-0.03-0.26-0.02-0.42-0.06
							c-0.1,0.02-0.21-0.03-0.24,0l0.33,0.04c-0.19-0.02-0.37,0-0.67-0.06c0.02,0,0.12,0,0.18,0c-0.09-0.02-0.17-0.02-0.26-0.04
							c0.03-0.03,0.4,0.05,0.6,0.05c-0.09-0.03-0.38-0.03-0.27-0.05c-0.15,0.03-0.35-0.06-0.6-0.04l0.02-0.02c-0.04,0-0.12,0-0.19,0
							l0.13-0.02c-0.2,0.01-0.38-0.06-0.57-0.06c0.4,0.04,0.09,0.04,0.25,0.07c-0.49-0.01-0.27-0.1-0.82-0.11
							c0.07,0,0.28,0.03,0.16,0.03c-0.1-0.01-0.24-0.02-0.3-0.04c-0.36-0.01,0.05,0.03-0.1,0.03c-0.12-0.03-0.18,0-0.34,0l0-0.02
							c-0.41-0.03-0.11,0.04-0.48,0.02l0.16-0.03l-0.19,0.01l0.04-0.03c-0.21,0.02-0.28,0.02-0.48,0.01
							c0.05,0.02-0.03,0.04-0.21,0.04c-0.13-0.01,0.07-0.02-0.19-0.02c0.06-0.01,0.12-0.03,0.24-0.01l0.07-0.02
							c-0.13-0.01-0.34-0.01-0.43,0c0.04,0,0.08,0,0.1,0l-0.38,0.05c-0.06-0.01-0.01-0.02,0.03-0.02c-0.06,0.01-0.17,0.02-0.24,0.03
							c0.03-0.02,0.02-0.04,0.18-0.06l-0.36,0.04c-0.02-0.01-0.19-0.01-0.14-0.02c-0.2-0.01-0.48,0.07-0.75,0.09
							c-0.01,0.01-0.04,0.01-0.1,0.02c-0.25,0.03-0.47,0.01-0.76,0.09l-0.17-0.01c-0.23,0.04,0.23,0.01-0.15,0.08
							c-0.27,0.05-0.1-0.01-0.2-0.01c-0.13,0.04-0.36,0.1-0.61,0.14C289.25,421.23,289.25,421.23,289.33,421.21z M286.63,421.75
							c0.05,0.01,0.15,0.01,0.19,0.02C286.75,421.79,286.71,421.78,286.63,421.75z M287.42,419.17c-0.04,0.02-0.1,0.03-0.17,0.04
							C287.3,419.2,287.36,419.18,287.42,419.17z M299.29,418.98L299.29,418.98C299.17,418.94,299.21,418.95,299.29,418.98z
							 M299.54,419.05c0.03,0,0.02,0,0.01-0.01c-0.02,0-0.07-0.01-0.14-0.03C299.43,419.02,299.46,419.03,299.54,419.05z
							 M297.19,421.38l-0.05-0.01C297.26,421.38,297.23,421.38,297.19,421.38z"/>
						<path d="M286.96,419.33c-0.02,0-0.02,0-0.03-0.01C286.92,419.33,286.92,419.34,286.96,419.33z"/>
						<polygon points="291.08,420.95 291.09,420.95 291.1,420.95 						"/>
						<path d="M295.63,418.61c-0.05-0.01-0.08-0.02-0.1-0.02C295.53,418.59,295.55,418.6,295.63,418.61z"/>
						<path d="M300.85,419.36l-0.16-0.04c0.08,0.02,0.1,0.03,0.14,0.05C300.83,419.37,300.8,419.35,300.85,419.36z"/>
						<path d="M302.14,419.95c0.04,0.01,0.03,0.01,0.07,0.02l0-0.01C302.12,419.92,302.05,419.91,302.14,419.95z"/>
						<path d="M300.97,419.48c0.01,0.02,0.11,0.05,0.22,0.07l-0.02-0.01C301.21,419.53,301.09,419.51,300.97,419.48z"/>
						<path d="M301.21,419.56c0.04,0.01,0.06,0.02,0.1,0.03C301.33,419.59,301.27,419.58,301.21,419.56z"/>
						<path d="M299.85,419.11c0.05,0.02,0.04-0.02,0.07,0C299.98,419.1,299.56,419.05,299.85,419.11z"/>
						<polygon points="301.04,419.57 301.01,419.53 300.94,419.53 						"/>
						<path d="M300.18,419.29l0.17,0.06c0,0,0.02,0,0.05,0.01C300.3,419.32,300.18,419.28,300.18,419.29z"/>
						<path d="M300.41,419.36c0.06,0.02,0.11,0.03,0.14,0.04C300.52,419.39,300.47,419.37,300.41,419.36z"/>
						<polygon points="300.8,419.5 300.75,419.48 300.63,419.44 						"/>
						<path d="M298.28,418.86l-0.2-0.03c-0.02,0,0.03,0.02,0.1,0.03C298.23,418.86,298.31,418.87,298.28,418.86z"/>
						<path d="M298.85,419.04c-0.05-0.02-0.05-0.02-0.08-0.03l-0.01,0.03L298.85,419.04z"/>
						<path d="M298.29,418.93c-0.02,0-0.29-0.03-0.04,0.01C298.27,418.94,298.46,418.97,298.29,418.93z"/>
						<polygon points="295.33,418.5 295.38,418.5 295.38,418.45 						"/>
						<path d="M292.7,418.54c0.23,0.01,0.05-0.03,0.27-0.02c0.05-0.01-0.17-0.01-0.12-0.02
							C292.71,418.52,292.64,418.51,292.7,418.54z"/>
						<path d="M292.85,418.51c0.02,0,0.04,0,0.07-0.01C292.89,418.5,292.87,418.5,292.85,418.51z"/>
						<polygon points="305.91,423.78 306.04,423.68 305.95,423.74 						"/>
						<path d="M306.1,423.54l0.05-0.01l0.04-0.09C306.16,423.47,306.12,423.52,306.1,423.54z"/>
						<path d="M286.3,421.55l-0.01,0c0.01,0.02,0.04,0.04,0.1,0.06C286.35,421.6,286.33,421.57,286.3,421.55z"/>
						<polygon points="288.16,421.45 288.12,421.46 288.19,421.47 						"/>
						<path d="M289.85,421.07c-0.07,0.01-0.15,0.03-0.22,0.04C289.78,421.08,289.87,421.1,289.85,421.07z"/>
					</g>
				</g>
			</g>
			<g>
				<g>
					<g>
						<path d="M304.19,428.1c-0.03,0.06,0,0.05,0,0.06C304.23,428.06,304.18,428.1,304.19,428.1z"/>
						<path d="M304.18,427.09l0.01,0.01c-0.02-0.05-0.05-0.09-0.08-0.13C304.14,427.01,304.17,427.05,304.18,427.09z"/>
						<path d="M303.5,426.48c0.05,0.08,0.29,0.13,0.42,0.26l0.02,0.02c0.03,0.01,0.05,0.02,0.07,0.04
							C303.86,426.63,303.6,426.56,303.5,426.48z"/>
						<path d="M303.12,426.17c0.02,0.03-0.1-0.04,0.1,0.06c-0.01-0.01-0.01-0.01-0.02-0.01
							C303.18,426.21,303.16,426.2,303.12,426.17z"/>
						<path d="M303.2,426.22C303.28,426.27,303.15,426.18,303.2,426.22L303.2,426.22z"/>
						<path d="M302.81,426.01l0.12,0.05c-0.02-0.02-0.12-0.08-0.08-0.06C302.73,425.95,302.75,425.97,302.81,426.01z"/>
						<path d="M302.7,425.98l0.06,0.02C302.75,426,302.73,425.99,302.7,425.98z"/>
						<path d="M302.88,426.06l-0.13-0.05c0.01,0.01,0.01,0.02,0.06,0.02C302.8,426.03,302.83,426.03,302.88,426.06z"/>
						<path d="M302.95,426.1c0.06,0.04,0.13,0.09,0.02,0.04C303.18,426.26,303.16,426.22,302.95,426.1z"/>
						<path d="M303.44,426.49l0.08,0.06l0.08,0.03C303.56,426.56,303.44,426.47,303.44,426.49z"/>
						<path d="M302.12,425.64c-0.01,0,0.03,0.04,0.03,0.05l0.09,0.03C302.2,425.7,302.12,425.66,302.12,425.64z"/>
						<path d="M302.16,425.69l-0.13-0.05C302.14,425.7,302.16,425.7,302.16,425.69z"/>
						<polygon points="302.66,426 302.87,426.08 302.62,425.98 						"/>
						<polygon points="301.64,425.43 301.72,425.44 301.58,425.41 						"/>
						<path d="M301.32,425.29c0.06,0.01-0.06-0.05,0-0.04c-0.09-0.04-0.17-0.06-0.24-0.08C301.15,425.2,301.22,425.24,301.32,425.29
							z"/>
						<path d="M300.95,425.15c0.03,0.01,0.07,0.02,0.12,0.03C301.03,425.17,300.99,425.16,300.95,425.15z"/>
						<path d="M301.81,425.54c-0.01-0.01-0.02-0.03-0.09-0.06l0.04,0.04L301.81,425.54z"/>
						<path d="M301.77,425.52L301.77,425.52c-0.06-0.03-0.09-0.04-0.11-0.05C301.67,425.48,301.7,425.49,301.77,425.52z"/>
						<path d="M301.83,425.55c0,0-0.01-0.01-0.01-0.01C301.82,425.55,301.82,425.55,301.83,425.55z"/>
						<path d="M302.34,425.82c-0.08-0.03-0.23-0.09-0.1,0C302.31,425.84,302.23,425.79,302.34,425.82z"/>
						<path d="M301.88,425.6c0.04,0.02,0.09,0.04,0.13,0.07c0-0.01-0.02-0.03,0.02-0.01C301.98,425.63,301.93,425.61,301.88,425.6z"
							/>
						<polygon points="301.81,425.58 301.88,425.6 301.83,425.58 						"/>
						<path d="M301.18,425.26c-0.12-0.04-0.15-0.05-0.2-0.07c0.1,0.04,0.17,0.07,0.23,0.1C301.22,425.29,301.26,425.3,301.18,425.26
							z"/>
						<path d="M301.46,425.39l-0.01,0C301.46,425.39,301.46,425.39,301.46,425.39z"/>
						<polygon points="300.25,424.93 300.26,424.93 300.27,424.93 						"/>
						<path d="M301.22,425.3c0.06,0.03,0.09,0.04,0.13,0.05c-0.05-0.02-0.1-0.04-0.14-0.06C301.2,425.29,301.2,425.3,301.22,425.3z"
							/>
						<path d="M300.74,425.08c0.04,0.02,0.07,0.03,0.1,0.05C300.81,425.12,300.76,425.08,300.74,425.08z"/>
						<path d="M301.43,425.37L301.43,425.37C301.42,425.36,301.42,425.36,301.43,425.37z"/>
						<path d="M301.43,425.37c-0.02-0.01-0.05-0.01-0.08-0.02c0.03,0.01,0.06,0.02,0.1,0.04L301.43,425.37z"/>
						<path d="M299.99,424.98c0.02-0.02,0.18,0.02,0.31,0.09c0.14,0.03,0.07-0.06-0.03-0.13c-0.01,0.01-0.01,0.01-0.15-0.03
							c0.04,0.03,0.29,0.13,0.17,0.11c-0.18-0.06-0.14-0.06-0.23-0.1c0.07,0.05-0.24-0.04-0.21,0.01l0.16,0.04
							C300.01,424.97,299.95,424.96,299.99,424.98z"/>
						<path d="M300.52,425.03l0.06,0.02c-0.06-0.03-0.11-0.05-0.19-0.1c-0.1-0.03-0.12-0.03-0.13-0.02l0.28,0.1L300.52,425.03z"/>
						<path d="M300.83,425.14c-0.05,0-0.19-0.04-0.11,0.01c0.16,0.06,0.12,0.03,0.22,0.05
							C300.67,425.12,301.02,425.22,300.83,425.14c0.07,0.03,0.11,0.04,0.15,0.05c-0.04-0.02-0.08-0.04-0.13-0.06l0.01,0l0,0l0,0
							c0.01,0.01,0.01,0.01,0,0l-0.01,0C300.84,425.14,300.84,425.14,300.83,425.14c-0.08-0.03-0.01-0.01,0.01,0l0,0l0,0l-0.27-0.09
							C300.65,425.08,300.7,425.09,300.83,425.14z"/>
						<path d="M302.09,425.8C302.09,425.79,302.09,425.79,302.09,425.8C302.07,425.78,302.06,425.78,302.09,425.8z"/>
						<path d="M301.99,425.73c0.02,0.01,0.04,0.01,0.1,0.04c0.05,0.03,0,0.01,0,0.02c0.04,0.01,0.13,0.05,0.02-0.02l-0.02-0.01
							c-0.1-0.06-0.22-0.14-0.2-0.14C301.91,425.66,301.93,425.68,301.99,425.73z"/>
						<path d="M301.41,425.43l-0.22-0.08l0.1,0.06l0-0.01C301.41,425.46,301.39,425.43,301.41,425.43z"/>
						<polygon points="300.23,424.91 300.27,424.9 300.13,424.88 						"/>
						<polygon points="299.94,424.81 299.95,424.8 299.87,424.79 						"/>
						<path d="M288.39,426.52l0.07-0.02C288.43,426.5,288.41,426.51,288.39,426.52z"/>
						<path d="M287.9,426.62l-0.01,0.01C287.91,426.62,287.92,426.61,287.9,426.62z"/>
						<path d="M292.5,423.9c-0.1-0.01-0.22-0.03-0.2-0.01l0.03,0.02C292.4,423.89,292.45,423.89,292.5,423.9z"/>
						<path d="M287.42,424.68l0.03,0l0.06-0.03C287.49,424.66,287.46,424.67,287.42,424.68z"/>
						<path d="M287.37,424.78l-0.13,0.01C287.29,424.79,287.33,424.78,287.37,424.78z"/>
						<path d="M291.09,426.08l0.08-0.03C291.05,426.06,291.1,426.06,291.09,426.08z"/>
						<path d="M296.88,424.12c-0.12-0.02-0.17-0.03-0.21-0.04C296.76,424.1,296.85,424.13,296.88,424.12z"/>
						<path d="M288.25,426.77c0.04-0.01,0.05-0.02,0.05-0.02C288.26,426.76,288.24,426.77,288.25,426.77z"/>
						<path d="M296.41,424.04c0.02,0,0.03,0.01,0.05,0.01c0.08,0.01,0.13,0.02,0.2,0.02C296.59,424.05,296.5,424.04,296.41,424.04z"
							/>
						<path d="M300.85,427.38c0.01,0,0.01,0.01,0.02,0.01C300.87,427.39,300.86,427.38,300.85,427.38z"/>
						<path d="M303.43,428.67c-0.04,0.01-0.08,0.02-0.13,0.03C303.33,428.7,303.36,428.69,303.43,428.67z"/>
						<path d="M298.75,424.47C298.81,424.48,298.76,424.47,298.75,424.47L298.75,424.47z"/>
						<path d="M299.04,424.63c-0.01,0-0.02,0-0.03,0C299.02,424.63,299.02,424.62,299.04,424.63z"/>
						<path d="M295.76,424.1L295.76,424.1C295.77,424.1,295.77,424.1,295.76,424.1z"/>
						<path d="M298.84,424.5c-0.03-0.01-0.06-0.02-0.08-0.03C298.78,424.48,298.81,424.49,298.84,424.5z"/>
						<path d="M298.83,424.49c0.02,0.01,0.04,0.01,0.05,0.02C298.9,424.5,298.89,424.5,298.83,424.49z"/>
						<path d="M298.66,424.45c0.03,0.01,0.06,0.02,0.1,0.03c-0.01,0-0.01-0.01-0.01-0.01C298.73,424.47,298.7,424.46,298.66,424.45z
							"/>
						<path d="M295.7,426.11c0,0,0.01,0,0.01,0C295.78,426.11,295.75,426.1,295.7,426.11z"/>
						<polygon points="290.84,424.23 290.84,424.23 290.83,424.23 						"/>
						<path d="M290.61,424.27c0.1-0.04,0.15-0.04,0.23-0.04l-0.08-0.05L290.61,424.27z"/>
						<path d="M289.57,426.29l-0.16,0.01c0.19-0.06,0.33-0.08,0.18-0.08c-0.01,0.07-0.63,0.12-0.64,0.18l-0.11,0.01
							c0.02-0.01,0.04-0.01,0.07-0.01c-0.21,0.01-0.15,0.07-0.41,0.12c-0.09,0.01-0.16,0.02-0.1,0l-0.2,0.06
							c-0.06,0.01-0.05,0,0.01-0.01l-0.31,0.07l0,0c-0.06,0.02-0.15,0.06-0.19,0.07c-0.08,0.01,0.04-0.02,0.02-0.02l-0.17,0.05
							c-0.07,0,0.06-0.05,0.19-0.07c-0.17-0.04-0.16,0.07-0.47,0.06c0.05,0,0.1-0.01,0.14-0.02c-0.09-0.02-0.2,0-0.35-0.07
							c0.02,0.03,0.3,0.1,0.14,0.1c-0.06-0.01-0.04-0.01-0.2-0.04c0.01-0.02-0.08-0.04-0.18-0.1l0.02-0.02
							c-0.1-0.06-0.1-0.04-0.17-0.08c-0.1-0.1-0.09-0.14-0.1-0.18c-0.12-0.18,0.05,0.15-0.1-0.06c-0.08-0.17-0.15-0.27-0.17-0.5
							c0.02-0.13,0.02,0.02,0.03-0.02l-0.01-0.11c0.01-0.03,0.01-0.02,0.01-0.01c0.01-0.09-0.03-0.02,0.01-0.16
							c-0.02-0.06,0.19-0.26,0.32-0.4c0.04-0.02-0.01,0.03,0.01,0.03c0.19-0.17,0.17-0.15,0.36-0.26l0.19-0.02
							c-0.15,0.01,0.03-0.06,0.18-0.11c-0.06,0-0.1,0-0.13,0l0.25-0.07c0.03,0,0.01,0.01-0.03,0.04l0.05-0.02
							c0.09-0.01,0.05,0.02-0.01,0.05l-0.1,0c-0.06,0.03-0.11,0.06-0.1,0.08c0.03-0.01,0.06-0.02,0.08-0.03
							c-0.02,0.01-0.02,0.01-0.02,0.02c0.01,0,0.03-0.01,0.07-0.03l0.06,0.02l0.01-0.02l0.34-0.05c0.23-0.09,0.43-0.17,0.81-0.25
							c-0.09,0.04-0.01,0.04-0.01,0.07c-0.11-0.01-0.29,0.06-0.49,0.09c0.1-0.02,0.08,0,0.06,0.01l0.35-0.09
							c0,0.03,0.08,0.01,0.17,0c-0.08-0.04,0.26-0.08,0.4-0.11c0.01,0.01-0.02,0.04-0.2,0.06c0.2,0,0.24-0.1,0.43-0.1
							c-0.04,0.01-0.07,0.01-0.08,0.02c0.1-0.03,0.34-0.05,0.29-0.03l-0.04,0.01c0.28-0.03,0.86-0.11,0.9-0.16
							c0,0-0.03,0.05-0.05,0.06c0.16-0.07,0.33-0.13,0.49-0.19c-0.04,0.04,0.14,0.11-0.1,0.15c0.07,0,0.15,0,0.29-0.03
							c-0.05,0-0.12-0.04-0.06-0.05c0.18,0.02,0.12,0.01,0.34,0.02c-0.07,0,0-0.06,0.11-0.07c-0.02,0.01,0.01,0.05-0.03,0.06
							l0.27-0.08c-0.07,0.01-0.01,0.05,0.05,0.06c-0.03-0.01,0.24-0.01,0.31-0.02l-0.12-0.01c0.31-0.01,0.3-0.09,0.61-0.1
							c-0.04,0.01-0.09,0.07,0.07,0.07c0.07-0.03,0.31-0.14,0.59-0.17l0.05,0.02l0.21-0.02c-0.13,0.04-0.5,0.13-0.69,0.17
							c0.12,0.01,0.03,0.02,0.21,0.02c0.06,0.01-0.09,0.02-0.14,0.02l0.4,0.01c-0.02-0.03,0.31-0.03,0.29-0.06l-0.44,0.04
							c-0.02-0.03,0.25-0.09,0.54-0.09c0.07,0.01-0.05,0.06-0.05,0.07c0.04-0.01,0.27-0.02,0.3-0.02l-0.12,0.02
							c0.16,0.01,0.26-0.04,0.45,0c0.07,0,0.2,0.05,0.21,0.03c-0.11-0.04-0.12-0.16-0.05-0.18c0.02,0,0.35,0.05,0.42,0.07
							c0.11,0.03-0.17,0.06-0.08,0.09c0-0.01,0.07-0.02,0.09-0.02c0.07,0.01-0.03,0.03,0.12,0.03c0.03-0.03,0.31,0.03,0.07-0.02
							c0.15,0,0.16,0.02,0.33,0.03c-0.05-0.03,0.16-0.06,0.31-0.05c-0.01,0.01,0.02,0.02,0.04,0.03c0.3,0.03,0.46,0.06,0.74,0.1
							c0.02,0.01,0.16,0.04,0.1,0.05c0.04,0,0.08-0.01,0.17,0c0.16,0.05-0.19-0.02-0.07,0.03c0.01-0.02,0.23,0,0.35,0.01
							c-0.03-0.03-0.28-0.04-0.41-0.05c0-0.04,0.23-0.05,0.52-0.03c0.23,0.03,0.1,0.04,0.14,0.05c0.43,0.09,0.38,0,0.74,0.1
							c0.14,0.05,0,0.05,0.02,0.08c-0.19-0.03-0.29-0.07-0.41-0.09l0.15,0.04c-0.06,0-0.19-0.02-0.26-0.04
							c0.12,0.04,0.73,0.14,1.06,0.25c0.06,0.01,0.16,0.02,0.12,0l-0.11-0.02c-0.09-0.04,0.2,0.02,0.07-0.02
							c0.14,0.02,0.31,0.03,0.5,0.1l0.03,0.04c0-0.01-0.12-0.06-0.18-0.06c0.09,0,0.29,0.12,0.39,0.11l-0.13-0.06
							c0.14,0.03,0.33,0.05,0.5,0.11c-0.07-0.05-0.04-0.01-0.15-0.08c0.09,0.07-0.44-0.14-0.28-0.04c-0.12-0.08-0.21-0.08-0.37-0.16
							c0,0.01,0.05,0.03-0.09-0.01c-0.01,0-0.03,0-0.03,0l-0.01,0l0.01,0c-0.01,0-0.01,0,0,0c0.03,0.01,0.06,0.02,0.07,0.03
							c-0.08,0-0.31-0.05-0.4-0.06c-0.09-0.03,0.04,0-0.01-0.02l-0.12-0.01c-0.01-0.02-0.23-0.09-0.02-0.05l-0.19-0.05
							c-0.11-0.04-0.26-0.07-0.36-0.08c-0.09-0.02-0.23-0.02-0.15-0.02l-0.3-0.04l0-0.01c-0.29-0.07-0.61-0.06-0.94-0.14
							c-0.1-0.01-0.2-0.02-0.37-0.04l-0.03-0.02c-0.13,0-0.38-0.05-0.44-0.04c-0.13-0.06-0.62-0.07-0.84-0.08l-0.01,0.02
							c-0.15-0.01-0.3-0.01-0.5,0l0.01,0.02c-0.17,0.01-0.43-0.03-0.69-0.02c0.02-0.01,0.08-0.01,0.13,0
							c-0.31-0.05-0.66,0.04-0.94,0.01c-0.07,0.01-0.12,0.01-0.17,0.01c0,0,0.01,0,0.02,0l-0.03,0c-0.03,0-0.07,0-0.1-0.01
							c0.04,0,0.07,0.01,0.08,0.01c-0.04,0-0.11,0.01-0.22,0.02l-0.04-0.02c-0.01,0-0.01,0-0.02,0c-0.08,0-0.06,0.01-0.02,0.03
							c-0.03,0.01-0.07,0.01-0.11,0.02c-0.07-0.03-0.21,0.02-0.3-0.01c-0.05,0.02-0.41,0.04-0.45,0.09c0-0.01-0.03-0.01,0.02-0.01
							c-0.09,0-0.18,0.01-0.26,0.03l-0.04-0.03l-0.19,0.06c-0.12-0.01-0.17-0.01-0.06-0.05c-0.28,0.06-0.23,0.03-0.47,0.1l0.01-0.02
							c-0.09,0.01-0.22,0.06-0.28,0.05c-0.2-0.01-0.96,0.12-1.46,0.18c0.11,0.04-0.23,0.01-0.25,0.06c-0.03-0.01-0.1,0-0.02-0.03
							c-0.25,0.05-0.38,0.05-0.55,0.12c-0.03-0.01,0.05-0.03,0.02-0.03c-0.02,0.01-0.08,0.03-0.11,0.03c-0.03,0,0.03-0.02,0.07-0.03
							c-0.26,0.05-0.27,0.1-0.28,0.14c-0.13,0.01-0.2,0.02-0.29,0.07c-0.05,0-0.13,0,0.03-0.04c-0.04,0.01-0.19,0.04-0.31,0.06
							c-0.15,0.04-0.25,0.11-0.24,0.12c-0.03,0.01-0.12,0.07-0.13,0.09c-0.17,0.13-0.19,0.15-0.31,0.31l0.04-0.04
							c-0.02,0.09-0.1,0.15-0.15,0.31l0-0.01c-0.1,0.38-0.05,0.16-0.04,0.55l0.02-0.03c0.04,0.02,0.07,0.34,0.24,0.5l-0.04-0.07
							c0.08,0.09,0.17,0.3,0.29,0.38c0.02,0.02-0.04-0.02-0.07-0.04c0.27,0.21,0.05,0.01,0.27,0.11c0.04,0.03-0.07,0.02,0.09,0.08
							c0.08,0.07,0.51,0,0.71-0.05c-0.05,0-0.1-0.01,0.01-0.04c0.16-0.04,0.44-0.04,0.57-0.11c0.02,0,0.03,0,0.03,0
							c0.12-0.03,0.39-0.1,0.46-0.13c0.13,0.06,0.75-0.17,0.76-0.1l0.37-0.06l-0.01,0.01c0.24-0.03,0.32-0.06,0.41-0.09
							c0.06,0,0.02,0.01,0.01,0.01c0.35-0.03,0.39-0.05,0.68-0.11l0.03,0.02c0.08-0.02,0.51-0.01,0.86-0.07c0,0-0.01,0.01-0.04,0.01
							c0.39-0.05,0.94,0.01,1.08-0.08l0.26-0.02c-0.33,0,0.05-0.04-0.09-0.05c0.13-0.01,0.34,0.02,0.18,0.03l-0.03,0
							c-0.06,0.05,0.42,0.01,0.41,0.04c0.66,0,1.3,0.05,1.91,0.11l-0.07-0.04l0.21,0.02c0.06,0.01,0.07,0.03-0.08,0.02
							c0.08,0.03,0.26,0,0.26,0c0.3,0.05-0.12,0.03-0.03,0.04l0.12,0.01l-0.03-0.01c0.1,0,0.11-0.01,0.29,0.01
							c0.11,0.02,0.06,0.03,0.1,0.04c0,0,0.01,0.01,0.07,0.01l0.27,0.04l-0.1-0.04c0.12,0,0.25,0.04,0.13-0.01
							c0.17,0.08,0.99,0.19,1.09,0.24c0.17,0.02,0.33,0.06,0.53,0.11c-0.05-0.02-0.07-0.05,0.1-0.01c-0.08,0.04,0.31,0.11,0.43,0.2
							c-0.11-0.07,0.48,0.14,0.3,0.04c0.14,0.05,0,0.03,0.1,0.07c0.34,0.09,0.73,0.27,1.13,0.42c0.01-0.01-0.05-0.05,0.04-0.02
							l0.19,0.13c0.08,0.03,0.09-0.01,0.22,0.08c-0.02-0.02-0.04-0.04,0.01-0.02c0.38,0.2,0.77,0.38,1.15,0.59
							c0.19,0.11,0.36,0.21,0.57,0.33c0.19,0.13,0.43,0.21,0.67,0.21c-0.13-0.01-0.04-0.01,0.05-0.02c-0.06,0,0-0.02-0.01-0.03
							c0.13,0,0.26-0.04,0.38-0.09c0.06-0.05,0.34-0.25,0.33-0.31c-0.02,0.03-0.05,0.06-0.08,0.09c0.09-0.13-0.21,0.09-0.23,0.02
							c-0.12,0.13-0.4,0.14-0.65,0.15c-0.06-0.02,0.05-0.01,0.02-0.02c-0.07,0.01-0.15,0-0.28-0.07l0.02,0
							c-0.38-0.2-0.54-0.33-0.98-0.59l0.02,0.04c-0.1-0.05-0.11-0.07-0.16-0.1c-0.13-0.03,0.27,0.14,0.15,0.12
							c-0.11-0.11-0.68-0.34-0.75-0.43c-0.15-0.07,0.03,0.04-0.12-0.02l-0.03-0.03l-0.05,0c-0.1-0.05-0.14-0.08-0.14-0.1
							c0.03,0.01,0.07,0.03,0.1,0.04c-0.12-0.07-0.37-0.15-0.41-0.18l0.14,0.07c-0.42-0.17-0.94-0.37-1.37-0.48l0.03,0.02
							c-0.33-0.08-0.25-0.09-0.61-0.19l0.01,0c-0.07-0.01-0.17-0.03-0.27-0.05c0.09,0.01-0.16-0.06-0.04-0.05
							c-0.36-0.07-0.18-0.03-0.42-0.04l-0.05-0.03c-0.08,0-0.09,0-0.27-0.03c0.15,0.01-0.11-0.05,0.06-0.04
							c-0.37-0.11-0.57-0.07-0.74-0.15c-0.18,0.02,0.32,0.09,0.23,0.08c0.08,0.03-0.15,0.01-0.27-0.02
							c-0.12-0.03-0.2-0.09-0.51-0.13l0.06,0.01c-0.11-0.03-0.23-0.01-0.37-0.05c-0.08,0.02-0.18-0.03-0.21,0.01l0.28,0.03
							c-0.16-0.01-0.32,0.01-0.58-0.03c0.02-0.01,0.1-0.01,0.16-0.01c-0.08-0.02-0.15,0-0.23-0.02c0.03-0.03,0.35,0.01,0.52,0.01
							c-0.08-0.03-0.33-0.01-0.24-0.04c-0.13,0.04-0.31-0.03-0.52-0.01l0.02-0.02c-0.03,0-0.1,0.01-0.16,0l0.11-0.02
							c-0.17,0.01-0.33-0.05-0.49-0.04c0.34,0.01,0.08,0.03,0.22,0.05c-0.42,0.01-0.24-0.07-0.71-0.08c0.06,0,0.24,0.02,0.14,0.03
							c-0.09-0.01-0.21-0.02-0.26-0.03c-0.31-0.01,0.05,0.03-0.09,0.03c-0.11-0.03-0.15,0.01-0.29,0.02l0-0.02
							c-0.36-0.01-0.09,0.05-0.42,0.04l0.14-0.03l-0.17,0.01l0.03-0.03c-0.18,0.02-0.24,0.02-0.42,0.01
							c0.04,0.01-0.02,0.04-0.18,0.05c-0.11-0.01,0.06-0.03-0.16-0.01c0.05-0.02,0.1-0.04,0.2-0.02c0.01-0.01,0.05-0.02,0.06-0.03
							c-0.12-0.01-0.29,0.01-0.37,0.02c0.02,0,0.04,0,0.09,0l-0.32,0.05c-0.05-0.01-0.01-0.02,0.03-0.02
							c-0.05,0.01-0.15,0.02-0.21,0.03c0.02-0.02,0.02-0.04,0.15-0.06l-0.31,0.04c-0.02-0.01-0.16-0.01-0.12-0.02
							c-0.17,0.01-0.42,0.08-0.64,0.08c-0.01,0-0.03,0.01-0.08,0.02c-0.21,0.01-0.4,0.02-0.65,0.08l-0.15-0.01
							c-0.2,0.03,0.2,0.02-0.13,0.07c-0.23,0.04-0.09-0.02-0.17-0.01c-0.11,0.03-0.31,0.1-0.52,0.11
							C289.51,426.31,289.5,426.31,289.57,426.29z M287.2,426.74c0.04,0,0.12-0.01,0.16-0.01
							C287.31,426.76,287.27,426.75,287.2,426.74z M287.79,424.65c-0.03,0.01-0.09,0.02-0.15,0.03
							C287.68,424.67,287.73,424.66,287.79,424.65z M298.05,424.33L298.05,424.33C297.94,424.3,297.98,424.31,298.05,424.33z
							 M298.26,424.38c0.02,0,0.02,0,0.01-0.01c-0.02,0-0.06-0.01-0.12-0.02C298.17,424.36,298.2,424.37,298.26,424.38z
							 M296.36,426.34l-0.04-0.01C296.42,426.34,296.39,426.34,296.36,426.34z"/>
						<path d="M287.38,424.77c-0.01,0-0.02,0-0.02-0.01C287.34,424.77,287.34,424.77,287.38,424.77z"/>
						<polygon points="291.08,426.08 291.09,426.08 291.09,426.08 						"/>
						<path d="M294.88,424.12c-0.04-0.01-0.07-0.01-0.09-0.02C294.79,424.11,294.81,424.12,294.88,424.12z"/>
						<path d="M299.4,424.63l-0.14-0.04c0.07,0.02,0.09,0.03,0.12,0.04C299.39,424.64,299.36,424.62,299.4,424.63z"/>
						<path d="M300.52,425.15c0.04,0.01,0.02,0.01,0.06,0.02l0-0.01C300.5,425.13,300.44,425.11,300.52,425.15z"/>
						<path d="M299.51,424.75c0.01,0.02,0.09,0.04,0.19,0.07c-0.01,0-0.01,0-0.02-0.01C299.71,424.79,299.61,424.77,299.51,424.75z"
							/>
						<path d="M299.72,424.82c0.03,0.01,0.05,0.02,0.09,0.03C299.82,424.84,299.77,424.83,299.72,424.82z"/>
						<path d="M298.54,424.44c0.04,0.02,0.03-0.02,0.06,0C298.65,424.42,298.29,424.39,298.54,424.44z"/>
						<polygon points="299.57,424.83 299.54,424.8 299.48,424.8 						"/>
						<path d="M298.82,424.6l0.15,0.04c0,0,0.02,0,0.04,0C298.92,424.63,298.82,424.6,298.82,424.6z"/>
						<path d="M299.02,424.65c0.04,0.01,0.06,0.01,0.12,0.03C299.12,424.67,299.08,424.66,299.02,424.65z"/>
						<polygon points="299.36,424.77 299.32,424.76 299.21,424.72 						"/>
						<path d="M297.17,424.25l-0.17-0.02c-0.02,0.01,0.03,0.02,0.09,0.02C297.13,424.25,297.2,424.26,297.17,424.25z"/>
						<path d="M297.67,424.41c-0.04-0.01-0.05-0.02-0.07-0.03l-0.01,0.03L297.67,424.41z"/>
						<path d="M297.18,424.33c-0.02,0-0.25-0.01-0.03,0.02C297.16,424.34,297.33,424.36,297.18,424.33z"/>
						<polygon points="294.62,424.03 294.67,424.03 294.66,423.98 						"/>
						<path d="M292.36,424.15c0.2,0,0.05-0.03,0.23-0.03c0.05-0.01-0.15,0-0.1-0.02C292.36,424.13,292.3,424.12,292.36,424.15z"/>
						<path d="M292.48,424.11c0.02,0,0.04-0.01,0.06-0.01C292.52,424.1,292.5,424.11,292.48,424.11z"/>
						<path d="M303.9,428.45c0.04-0.03,0.07-0.06,0.11-0.09l-0.08,0.05L303.9,428.45z"/>
						<path d="M304.06,428.23l0.04-0.01l0.03-0.08C304.12,428.17,304.08,428.22,304.06,428.23z"/>
						<path d="M286.93,426.59l-0.01,0c0.01,0.01,0.03,0.03,0.08,0.05L286.93,426.59z"/>
						<polygon points="288.55,426.45 288.52,426.46 288.58,426.47 						"/>
						<path d="M290.01,426.17c-0.06,0.01-0.13,0.02-0.19,0.03C289.95,426.17,290.04,426.2,290.01,426.17z"/>
					</g>
				</g>
			</g>
			<g>
				<g>
					<g>
						<path d="M296.32,403.49c-0.16-0.01-0.1,0.01-0.12,0.02C296.45,403.51,296.31,403.48,296.32,403.49z"/>
						<polygon points="298.91,403.68 298.86,403.68 299.25,403.71 						"/>
						<path d="M301.29,404.21c-0.21-0.1-0.86-0.22-1.27-0.34l-0.07-0.03l-0.2-0.02C300.26,403.96,300.93,404.11,301.29,404.21z"/>
						<path d="M302.48,404.73c-0.07-0.04,0.27,0.09-0.28-0.11c0.02,0.01,0.03,0.02,0.05,0.02
							C302.3,404.66,302.37,404.69,302.48,404.73z"/>
						<path d="M302.25,404.65C302.01,404.56,302.4,404.71,302.25,404.65L302.25,404.65z"/>
						<path d="M303.34,405.1l-0.31-0.14c0.06,0.04,0.33,0.17,0.23,0.13C303.57,405.23,303.51,405.2,303.34,405.1z"/>
						<path d="M303.64,405.21l-0.16-0.07C303.5,405.16,303.55,405.18,303.64,405.21z"/>
						<path d="M303.14,404.99l0.34,0.15c-0.04-0.03-0.04-0.04-0.15-0.07C303.35,405.08,303.28,405.05,303.14,404.99z"/>
						<path d="M302.95,404.9c-0.17-0.09-0.4-0.18-0.08-0.06C302.27,404.61,302.36,404.65,302.95,404.9z"/>
						<path d="M301.42,404.22c-0.08-0.03-0.16-0.07-0.24-0.09l-0.22-0.04C301.07,404.11,301.43,404.23,301.42,404.22z"/>
						<path d="M305.17,406.11c0.02,0-0.09-0.08-0.1-0.1l-0.22-0.12C304.96,405.97,305.16,406.1,305.17,406.11z"/>
						<path d="M305.07,406.02l0.33,0.18C305.11,406.03,305.06,406,305.07,406.02z"/>
						<polygon points="303.71,405.21 303.14,404.96 303.82,405.26 						"/>
						<polygon points="306.34,406.92 306.16,406.81 306.48,407.01 						"/>
						<path d="M307.09,407.49c-0.12-0.09,0.14,0.16,0.02,0.06c0.16,0.13,0.34,0.28,0.51,0.43
							C307.46,407.85,307.3,407.7,307.09,407.49z"/>
						<path d="M307.87,408.19c-0.07-0.06-0.16-0.13-0.26-0.21C307.69,408.04,307.77,408.11,307.87,408.19z"/>
						<path d="M305.92,406.56c0.02,0.02,0.06,0.06,0.22,0.19l-0.11-0.1C306,406.62,305.96,406.59,305.92,406.56z"/>
						<path d="M306.03,406.64L306.03,406.64c0.13,0.1,0.22,0.17,0.26,0.19C306.26,406.81,306.18,406.75,306.03,406.64z"/>
						<path d="M305.89,406.53l0.03,0.02C305.91,406.55,305.9,406.54,305.89,406.53z"/>
						<path d="M304.57,405.67c0.19,0.1,0.59,0.33,0.22,0.09C304.65,405.69,304.86,405.83,304.57,405.67z"/>
						<path d="M305.76,406.4c-0.11-0.08-0.22-0.14-0.33-0.22c0,0.01,0.06,0.05-0.04,0C305.51,406.26,305.64,406.32,305.76,406.4z"/>
						<polygon points="305.92,406.52 305.76,406.4 305.88,406.49 						"/>
						<path d="M307.39,407.72c0.17,0.15,0.28,0.25,0.43,0.37c-0.17-0.16-0.34-0.32-0.5-0.46
							C307.28,407.62,307.2,407.56,307.39,407.72z"/>
						<path d="M306.75,407.18l0.03,0.02C306.76,407.18,306.75,407.17,306.75,407.18z"/>
						<polygon points="309.25,409.6 309.23,409.58 309.22,409.57 						"/>
						<path d="M307.29,407.61c-0.12-0.12-0.2-0.18-0.28-0.24c0.1,0.09,0.2,0.18,0.3,0.27C307.32,407.64,307.33,407.64,307.29,407.61
							z"/>
						<path d="M308.3,408.59c-0.06-0.07-0.12-0.15-0.2-0.22C308.17,408.45,308.25,408.53,308.3,408.59z"/>
						<path d="M306.82,407.24l-0.02-0.01C306.84,407.26,306.84,407.25,306.82,407.24z"/>
						<path d="M306.82,407.24c0.06,0.04,0.12,0.08,0.19,0.13c-0.08-0.06-0.15-0.11-0.23-0.16
							C306.79,407.21,306.81,407.22,306.82,407.24z"/>
						<path d="M309.74,410.02c-0.04-0.01-0.3-0.38-0.56-0.67c-0.27-0.27-0.15-0.05,0.05,0.22c0.01,0.01,0.03-0.01,0.27,0.3
							c-0.06-0.13-0.55-0.68-0.31-0.44c0.36,0.38,0.26,0.34,0.41,0.54c-0.11-0.19,0.42,0.51,0.38,0.4l-0.28-0.36
							C309.7,410,309.81,410.13,309.74,410.02z"/>
						<path d="M308.73,409.02l-0.11-0.12c0.09,0.11,0.18,0.21,0.36,0.43c0.19,0.19,0.23,0.23,0.25,0.24l-0.53-0.59L308.73,409.02z"
							/>
						<path d="M308.13,408.38c0.11,0.06,0.37,0.35,0.23,0.16c-0.33-0.34-0.25-0.22-0.46-0.41
							C308.46,408.64,307.72,407.99,308.13,408.38c-0.12-0.11-0.22-0.2-0.31-0.28l0.29,0.27l-0.01-0.01l0,0l0,0
							c-0.02-0.02-0.03-0.03,0-0.01c0,0,0.01,0.01,0.01,0.01C308.1,408.36,308.11,408.37,308.13,408.38
							c0.16,0.15,0.02,0.03-0.03-0.02l-0.01,0l0,0c0.2,0.16,0.35,0.37,0.53,0.55C308.51,408.79,308.38,408.63,308.13,408.38z"/>
						<path d="M305.16,405.94c0.02,0.01,0.02,0.02,0.02,0.02C305.23,405.98,305.24,405.98,305.16,405.94z"/>
						<path d="M305.43,406.11c-0.05-0.03-0.09-0.04-0.25-0.14c-0.13-0.09,0.01-0.01,0-0.02c-0.1-0.05-0.34-0.19-0.05,0l0.05,0.03
							c0.26,0.17,0.59,0.39,0.54,0.37C305.65,406.28,305.59,406.23,305.43,406.11z"/>
						<path d="M306.86,407.19c0.18,0.12,0.33,0.27,0.49,0.41l-0.23-0.23l0.01,0.02C306.85,407.14,306.9,407.21,306.86,407.19z"/>
						<path d="M309.29,409.66l-0.07-0.05c0.09,0.08,0.17,0.18,0.25,0.27L309.29,409.66z"/>
						<polygon points="309.79,410.32 309.76,410.31 309.9,410.48 						"/>
						<path d="M287.42,435.29l-0.16-0.09C287.33,435.23,287.38,435.26,287.42,435.29z"/>
						<path d="M288.63,435.94l0.03,0.01C288.6,435.92,288.58,435.91,288.63,435.94z"/>
						<path d="M310.63,429.41c-0.16,0.22-0.34,0.47-0.3,0.45l0.06-0.06C310.49,429.64,310.55,429.53,310.63,429.41z"/>
						<path d="M299.56,437.26l0.08-0.01c0.06-0.02,0.12-0.05,0.18-0.07C299.74,437.21,299.65,437.25,299.56,437.26z"/>
						<path d="M299.38,437.37l-0.36,0.04C299.12,437.4,299.24,437.39,299.38,437.37z"/>
						<path d="M281.97,430.23c-0.05-0.05-0.1-0.11-0.14-0.17C282.02,430.35,281.95,430.21,281.97,430.23z"/>
						<path d="M313,418.06c0.03,0.26,0.06,0.43,0.08,0.58C313.04,418.36,313.03,418.13,313,418.06z"/>
						<path d="M287.99,435.37c-0.1-0.06-0.14-0.08-0.14-0.07C287.95,435.36,288.01,435.39,287.99,435.37z"/>
						<path d="M313.12,419.32c0-0.05,0-0.08,0-0.12c-0.02-0.17-0.01-0.34-0.04-0.55C313.1,418.85,313.09,419.09,313.12,419.32z"/>
						<path d="M286.55,406.19l0.05-0.03C286.61,406.16,286.59,406.17,286.55,406.19z"/>
						<path d="M293.92,403.63c-0.08,0.01-0.2,0.03-0.32,0.05C293.67,403.67,293.75,403.65,293.92,403.63z"/>
						<path d="M311.5,413.17C311.42,413.01,311.49,413.14,311.5,413.17L311.5,413.17z"/>
						<path d="M311.2,412.36c0.02,0.03,0.03,0.06,0.04,0.06C311.23,412.41,311.22,412.39,311.2,412.36z"/>
						<path d="M313.28,421.07l0,0.02C313.28,421.03,313.28,421.04,313.28,421.07z"/>
						<path d="M311.39,412.93c0.03,0.07,0.06,0.13,0.09,0.2C311.47,413.09,311.44,413.03,311.39,412.93z"/>
						<path d="M311.4,412.96c-0.03-0.06-0.05-0.1-0.06-0.14C311.32,412.8,311.33,412.82,311.4,412.96z"/>
						<path d="M311.61,413.39c-0.04-0.09-0.08-0.17-0.12-0.26c0.01,0.03,0.02,0.05,0.01,0.04
							C311.52,413.21,311.55,413.28,311.61,413.39z"/>
						<path d="M279.18,418.23c0-0.01,0-0.02,0.01-0.04C279.21,418.01,279.2,418.09,279.18,418.23z"/>
						<polygon points="307.88,433.08 307.9,433.06 307.88,433.08 						"/>
						<path d="M307.42,433.52c0.18-0.2,0.3-0.3,0.46-0.44l-0.2,0.1L307.42,433.52z"/>
						<path d="M284.77,433.36l0.32,0.32c-0.42-0.34-0.71-0.61-0.41-0.31c0.05-0.01,0.36,0.31,0.71,0.57
							c0.35,0.26,0.7,0.52,0.74,0.51l0.23,0.19c-0.07-0.05-0.08-0.06-0.15-0.11c0.44,0.37,0.37,0.21,1,0.61
							c0.22,0.14,0.37,0.24,0.21,0.16l0.5,0.28c0.14,0.08,0.1,0.08-0.04-0.01c0.25,0.15,0.53,0.26,0.79,0.39l-0.01,0
							c0.14,0.06,0.39,0.16,0.51,0.21c0.2,0.11-0.1-0.04-0.06-0.01c0.15,0.06,0.29,0.14,0.45,0.19c0.18,0.09-0.2-0.04-0.5-0.2
							c0.38,0.26,0.36,0.17,1.27,0.54l-0.43-0.15c0.26,0.14,0.61,0.25,1.09,0.45c-0.11-0.05-0.96-0.41-0.46-0.25
							c0.14,0.05,0.32,0.13,0.59,0.21c0,0.02,0.27,0.09,0.6,0.17l-0.03,0.02c0.37,0.09,0.34,0.06,0.56,0.1
							c0.4,0.11,0.48,0.15,0.58,0.18c0.66,0.11-0.45-0.11,0.34,0.01c0.55,0.08,0.94,0.18,1.6,0.19c0.39,0.03-0.07,0.02,0.07,0.03
							l0.35-0.01c0.08,0,0.06,0.01,0.04,0.01c0.29,0.01,0.03-0.03,0.48-0.01c0.06-0.02,0.3,0.02,0.59,0.03
							c0.29,0,0.64-0.01,0.92-0.04c0.14,0-0.07,0.02-0.02,0.03c0.77-0.06,0.67-0.04,1.29-0.17l0.54-0.06
							c-0.4,0.04,0.1-0.07,0.54-0.16c-0.15,0.01-0.27,0.02-0.34,0.03c0.23-0.04,0.47-0.08,0.69-0.15c0.08-0.02,0.02,0.01-0.09,0.05
							c0.04-0.01,0.09-0.03,0.12-0.04c0.25-0.05,0.13,0-0.05,0.06c-0.08,0.01-0.17,0.03-0.25,0.04c-0.17,0.04-0.33,0.09-0.29,0.1
							c0.07-0.01,0.15-0.03,0.23-0.04c-0.04,0.01-0.07,0.02-0.05,0.02c0.02,0,0.1-0.01,0.21-0.05l0.16-0.01l0.04-0.02l0.91-0.21
							c0.32-0.09,0.61-0.2,0.94-0.36c0.4-0.17,0.78-0.33,1.2-0.5c-0.23,0.14-0.03,0.06-0.04,0.1c-0.28,0.08-0.76,0.3-1.28,0.48
							c0.27-0.1,0.22-0.06,0.15-0.03l0.91-0.36c-0.01,0.03,0.2-0.05,0.44-0.16c-0.19,0.04,0.64-0.35,1-0.53
							c0.03,0-0.05,0.06-0.49,0.27c0.5-0.21,0.61-0.33,1.07-0.59c-0.1,0.06-0.16,0.09-0.19,0.12c0.23-0.16,0.81-0.5,0.69-0.4
							l-0.1,0.06c0.71-0.36,1.96-1.39,2.03-1.48c0.01,0-0.04,0.11-0.08,0.14c0.33-0.34,0.64-0.7,0.95-1.04
							c-0.07,0.11,0.34-0.15-0.13,0.3c0.14-0.13,0.33-0.26,0.59-0.56c-0.09,0.09-0.25,0.2-0.14,0.07c0.35-0.33,0.24-0.23,0.66-0.65
							c-0.13,0.14-0.03-0.06,0.17-0.28c-0.03,0.04,0.06,0.02-0.01,0.1c0.16-0.2,0.31-0.39,0.44-0.61c-0.1,0.16,0.02,0.06,0.13-0.07
							c-0.06,0.06,0.39-0.52,0.51-0.69l-0.2,0.25c0.53-0.67,0.42-0.73,0.87-1.44c-0.04,0.09-0.07,0.25,0.16-0.11
							c0.1-0.17,0.31-0.82,0.6-1.5l0.08-0.12c0.08-0.17,0.16-0.34,0.21-0.53c-0.08,0.35-0.46,1.28-0.66,1.79
							c0.15-0.28,0.06-0.07,0.26-0.5c0.09-0.15-0.09,0.25-0.15,0.37l0.49-1c-0.03,0.02,0.06-0.18,0.15-0.38
							c0.07-0.2,0.14-0.41,0.12-0.39c-0.11,0.39-0.3,0.75-0.46,1.12c-0.07,0.02,0.26-0.65,0.51-1.4c0.08-0.18,0,0.16,0.02,0.15
							c0.02-0.1,0.24-0.71,0.27-0.78l-0.1,0.32c0.17-0.41,0.21-0.68,0.36-1.19c0.05-0.18,0.18-0.52,0.17-0.55
							c-0.11,0.28-0.23,0.31-0.21,0.11c0.02-0.06,0.27-0.91,0.3-1.12c0.07-0.29,0,0.46,0.06,0.21c-0.01-0.01,0.01-0.18,0.01-0.25
							c0.04-0.19,0.01,0.08,0.07-0.33c-0.02-0.07,0.13-0.83,0-0.2c0.04-0.4,0.09-0.42,0.12-0.9c-0.03,0.15-0.05-0.43-0.04-0.84
							c0.01,0.02,0.02-0.07,0.03-0.11c0.07-0.83-0.01-1.27-0.03-2.04c0.01-0.07-0.01-0.45,0.02-0.29c-0.02-0.11-0.05-0.21-0.08-0.45
							c-0.04-0.46,0.08,0.53,0.07,0.17c-0.02-0.03-0.12-0.61-0.18-0.94c-0.01,0.11,0.11,0.78,0.18,1.11
							c-0.04,0.01-0.17-0.57-0.31-1.37c-0.12-0.63-0.03-0.28-0.05-0.38c-0.31-1.16-0.28-0.99-0.59-1.93
							c-0.11-0.38,0.04-0.03,0.03-0.12c0.2,0.48,0.25,0.76,0.33,1.11l-0.1-0.43c0.05,0.16,0.14,0.49,0.18,0.68
							c-0.03-0.34-0.57-1.96-0.96-2.8c-0.08-0.15-0.21-0.4-0.16-0.27l0.13,0.26c0.1,0.25-0.27-0.49-0.11-0.15
							c-0.2-0.34-0.36-0.75-0.66-1.22l-0.03-0.1c0,0.01,0.17,0.32,0.26,0.45c-0.13-0.19-0.41-0.75-0.57-0.94l0.18,0.34
							c-0.23-0.32-0.47-0.74-0.78-1.13c0.11,0.2,0.07,0.09,0.25,0.39c-0.12-0.28,0.65,1.07,0.43,0.63c0.14,0.33,0.33,0.53,0.5,0.96
							c0-0.02-0.06-0.16,0.12,0.21c0.01,0.02,0.03,0.06,0.05,0.08c0,0.01,0.01,0.02,0.01,0.03l-0.01-0.02
							c0.01,0.02,0.01,0.02,0-0.01c-0.04-0.09-0.07-0.16-0.08-0.2c0.11,0.17,0.39,0.76,0.5,0.96c0.1,0.22-0.05-0.09-0.01,0.04
							c0.06,0.1,0.11,0.19,0.15,0.3c-0.01,0.04,0.19,0.62-0.02,0.09l0.18,0.49c0.12,0.34,0.23,0.65,0.32,0.92
							c0.06,0.24,0.18,0.59,0.11,0.39l0.21,0.78l0,0.01c0.12,0.38,0.16,0.79,0.24,1.21c0.06,0.42,0.16,0.85,0.14,1.31
							c0.02,0.28,0.03,0.54,0.06,1l-0.01,0.09c0.03,0.34-0.06,1.03-0.04,1.18c-0.03,0.37-0.18,1.66-0.29,2.26l0.02,0.03
							c-0.07,0.41-0.19,0.8-0.3,1.3l0.03-0.03c-0.07,0.45-0.36,1.09-0.6,1.76c0.01-0.05,0.07-0.22,0.12-0.33
							c-0.16,0.39-0.31,0.81-0.51,1.2c-0.19,0.39-0.34,0.8-0.55,1.12c-0.09,0.17-0.17,0.28-0.24,0.4l0.02-0.04
							c-0.01,0.02-0.03,0.04-0.04,0.07c-0.05,0.07-0.1,0.15-0.15,0.22c0.05-0.08,0.1-0.14,0.13-0.18c-0.07,0.12-0.18,0.31-0.3,0.51
							l-0.07,0.07c-0.01,0.02-0.02,0.03-0.03,0.04c-0.12,0.18-0.08,0.15-0.01,0.07c-0.05,0.1-0.11,0.18-0.15,0.25
							c-0.14,0.12-0.34,0.47-0.51,0.64c-0.04,0.07-0.2,0.29-0.36,0.51c-0.18,0.21-0.35,0.41-0.38,0.47c-0.01,0-0.05,0.05,0.03-0.04
							c-0.17,0.18-0.34,0.36-0.48,0.53l-0.09,0.06c-0.11,0.14-0.22,0.28-0.35,0.41c-0.25,0.21-0.36,0.29-0.14,0.06
							c-0.6,0.59-0.38,0.36-0.93,0.9l0.01-0.03c-0.19,0.14-0.48,0.39-0.6,0.46c-0.41,0.33-2.17,1.48-3.44,1.98
							c0.27-0.04-0.59,0.22-0.63,0.27c-0.08,0.01-0.26,0.07-0.06-0.01c-0.65,0.24-0.98,0.36-1.43,0.5
							c-0.08,0.01,0.14-0.06,0.07-0.05c-0.05,0.02-0.21,0.07-0.28,0.08c-0.07,0.01,0.1-0.04,0.2-0.07
							c-0.68,0.18-0.74,0.24-0.78,0.29c-0.37,0.08-0.37,0.08-0.78,0.17c-0.13,0.01-0.33,0.03,0.1-0.05
							c-0.12,0.02-0.5,0.07-0.84,0.12c-0.27,0.05-0.43,0.07-0.68,0.11c-0.08,0-0.35,0.02-0.41,0.02c-0.56,0.03-0.6,0.03-1.15,0.06
							l0.15,0c-0.22,0.06-0.45,0.01-0.89-0.01l0.01,0c-1.01-0.09-0.44,0.02-1.43-0.12l0.05,0.03c-0.1,0.03-0.87-0.16-1.44-0.23
							l0.2,0.05c-0.32-0.02-0.84-0.28-1.15-0.35c-0.07-0.02,0.11,0.02,0.2,0.04c-0.79-0.23-0.11,0-0.71-0.14
							c-0.1-0.05,0.15,0.01-0.24-0.12c-0.18-0.09-1.16-0.34-1.66-0.61c0.11,0.07,0.21,0.13-0.05,0.02
							c-0.35-0.17-0.71-0.36-1.42-0.71c-0.05-0.03-0.06-0.05-0.06-0.05c-0.29-0.17-0.94-0.55-1.13-0.64
							c-0.21-0.24-1.71-1.21-1.63-1.3l-0.77-0.69l0.03,0.01c-0.48-0.46-0.62-0.64-0.8-0.8c-0.1-0.12-0.02-0.04-0.01-0.03
							c-0.65-0.71-0.67-0.82-1.2-1.44l-0.03-0.08c-0.17-0.15-0.75-1.18-1.22-2c0.01,0.01,0.02,0.02,0.05,0.09
							c-0.23-0.48-0.53-1.05-0.71-1.57c-0.18-0.52-0.34-0.96-0.45-1.13c-0.1-0.21-0.14-0.45-0.21-0.67
							c0.22,0.89-0.07-0.12,0.01,0.25c-0.09-0.35-0.21-0.91-0.09-0.48l0.01,0.07c0.09,0.14-0.28-1.1-0.22-1.09
							c-0.35-1.76-0.35-3.52-0.2-5.19c-0.02,0.06-0.05,0.12-0.06,0.19c0.02-0.19,0.06-0.39,0.08-0.58c0.03-0.15,0.06-0.2-0.01,0.21
							c0.05-0.21,0.09-0.69,0.08-0.71c0.14-0.81-0.01,0.32,0.03,0.07l0.05-0.34l-0.02,0.08c0.04-0.27-0.01-0.31,0.12-0.79
							c0.09-0.31,0.06-0.15,0.09-0.27c0,0,0.01-0.04,0.05-0.19l0.19-0.71l-0.1,0.28c0.06-0.32,0.18-0.67,0.06-0.35
							c0.18-0.47,0.36-0.94,0.57-1.5c0.26-0.61,0.55-1.18,0.62-1.32c0.16-0.43,0.44-0.8,0.72-1.28c-0.08,0.12-0.15,0.17,0.11-0.24
							c-0.06,0.17,0.52-0.72,0.8-0.99c-0.12,0.13,0.09-0.15,0.28-0.4c0.19-0.26,0.4-0.46,0.19-0.28c0.28-0.3,0.03,0,0.25-0.22
							c0.61-0.74,1.47-1.52,2.4-2.25c0.01-0.02-0.16,0.09,0.04-0.07l0.53-0.34c0.19-0.14,0.13-0.19,0.52-0.38
							c-0.06,0.03-0.14,0.06-0.01-0.02c1.96-1.23,4.24-2.2,6.59-2.49c-0.32,0.03-0.11,0,0.13-0.04c-0.16,0.02,0-0.02-0.03-0.03
							c0.33-0.03,0.65-0.09,0.98-0.11c0.18-0.04,1.06-0.06,1.16-0.09l-0.31,0.02c0.42-0.06-0.59-0.05-0.53-0.1
							c-0.47,0.03-1.24,0.1-1.99,0.26c-0.17,0.02,0.14-0.04,0.05-0.03c-0.36,0.09-0.47,0.12-0.84,0.21l0.05-0.02
							c-1.19,0.29-1.69,0.46-2.97,0.98l0.1-0.02c-0.23,0.1-0.32,0.14-0.46,0.2c-0.29,0.18,0.75-0.36,0.49-0.19
							c-0.19,0.06-0.66,0.29-1.12,0.51c-0.45,0.23-0.86,0.51-0.99,0.55c-0.39,0.24,0.13-0.05-0.26,0.19l-0.11,0.05l-0.09,0.08
							c-0.26,0.15-0.38,0.24-0.4,0.24c0.06-0.05,0.17-0.13,0.23-0.17c-0.32,0.22-0.87,0.66-0.98,0.74l0.36-0.26
							c-1.02,0.72-2.11,1.8-2.88,2.72l0.07-0.06c-0.58,0.71-0.46,0.57-1.07,1.38l0.02-0.03c-0.12,0.16-0.25,0.4-0.39,0.63
							c0.12-0.22-0.27,0.4-0.11,0.1c-0.49,0.87-0.26,0.42-0.53,1.02l-0.08,0.13c-0.08,0.21-0.08,0.23-0.3,0.68
							c0.17-0.38-0.16,0.28,0.02-0.15c-0.52,0.93-0.55,1.47-0.79,1.9c-0.12,0.47,0.34-0.85,0.26-0.59c0.09-0.21-0.1,0.39-0.22,0.7
							c-0.13,0.31-0.22,0.53-0.44,1.35c0.02-0.08,0.02-0.1,0.04-0.17c-0.08,0.31-0.17,0.6-0.23,0.99c0,0.22-0.08,0.5-0.05,0.57
							l0.11-0.77c-0.06,0.44-0.08,0.85-0.21,1.57c0.01-0.11,0.03-0.3,0.04-0.42c-0.04,0.21-0.07,0.4-0.09,0.62
							c-0.05-0.07,0.13-0.94,0.16-1.41c-0.05,0.22-0.11,0.89-0.11,0.65c0,0.17-0.03,0.38-0.07,0.62c-0.02,0.24-0.03,0.51-0.03,0.79
							l-0.02-0.04c0,0.1-0.01,0.31-0.01,0.45l-0.01-0.3c0,0.47-0.08,0.9-0.03,1.35c-0.04-0.94,0.01-0.21,0.03-0.61
							c0.06,1.15-0.04,0.67,0.04,1.96c-0.02-0.17-0.02-0.66,0-0.39c0,0.25,0.04,0.57,0.05,0.72c0.13,0.85,0-0.13,0.07,0.23
							c0.02,0.29,0.07,0.41,0.14,0.78l-0.02,0.01c0.17,0.96,0.1,0.24,0.28,1.1l-0.12-0.35l0.12,0.44l-0.05-0.09
							c0.15,0.47,0.15,0.64,0.32,1.1c-0.02-0.11,0.06,0.05,0.21,0.45c0.09,0.28-0.08-0.15,0.14,0.43c-0.06-0.12-0.13-0.26-0.2-0.52
							l-0.08-0.15c0.09,0.3,0.27,0.75,0.35,0.96c-0.03-0.07-0.05-0.15-0.08-0.23c0.1,0.28,0.23,0.54,0.38,0.8
							c0.05,0.13,0,0.03-0.06-0.06c0.07,0.14,0.15,0.3,0.26,0.51c-0.05-0.05-0.06-0.03-0.23-0.36l0.39,0.76
							c0.01,0.06,0.17,0.4,0.12,0.31c0.24,0.4,0.62,0.98,0.95,1.5c0.04,0.05,0.08,0.1,0.15,0.18c0.36,0.46,0.61,0.93,1.11,1.41
							l0.24,0.31c0.37,0.4-0.33-0.42,0.29,0.24c0.44,0.46,0.14,0.2,0.29,0.36c0.25,0.2,0.68,0.55,1.1,0.97
							C284.99,433.56,284.91,433.48,284.77,433.36z M290.51,436.72c-0.12-0.04-0.37-0.11-0.46-0.16
							C290.21,436.58,290.31,436.63,290.51,436.72z M300.52,437.07c-0.09,0.03-0.24,0.06-0.4,0.1
							C300.24,437.14,300.34,437.11,300.52,437.07z M312.25,414.94c0,0,0,0.01,0.01,0.01C312.34,415.22,312.31,415.12,312.25,414.94
							z M312.05,414.37c-0.02-0.05-0.03-0.05-0.02-0.03c0.02,0.04,0.07,0.16,0.12,0.31C312.14,414.61,312.12,414.54,312.05,414.37z
							 M279.68,416.41l-0.03,0.11C279.71,416.26,279.69,416.33,279.68,416.41z"/>
						<path d="M299.41,437.36c-0.04,0-0.05,0-0.06,0C299.3,437.37,299.3,437.37,299.41,437.36z"/>
						<polygon points="282,430.26 281.98,430.24 281.97,430.23 						"/>
						<path d="M313.12,423.45c-0.02,0.09-0.03,0.17-0.05,0.23C313.08,423.69,313.09,423.64,313.12,423.45z"/>
						<path d="M310.62,411.58l0.2,0.32c-0.08-0.14-0.12-0.21-0.17-0.3C310.65,411.62,310.68,411.68,310.62,411.58z"/>
						<path d="M308.74,408.87c-0.05-0.05-0.07-0.07-0.12-0.13l0,0.02C308.78,408.94,308.9,409.05,308.74,408.87z"/>
						<path d="M310.51,411.24c-0.01-0.03-0.11-0.25-0.29-0.45l0.03,0.04C310.18,410.78,310.36,411,310.51,411.24z"/>
						<path d="M310.18,410.74c-0.05-0.07-0.1-0.13-0.15-0.2C310.01,410.52,310.09,410.62,310.18,410.74z"/>
						<path d="M311.76,413.68c-0.05-0.12-0.06-0.06-0.08-0.13C311.61,413.43,312.07,414.3,311.76,413.68z"/>
						<polygon points="310.45,411.02 310.48,411.12 310.57,411.23 						"/>
						<path d="M311.48,412.86l-0.18-0.39c0,0.01-0.03-0.04-0.06-0.1C311.36,412.61,311.48,412.88,311.48,412.86z"/>
						<path d="M311.24,412.38c-0.06-0.12-0.14-0.23-0.18-0.29C311.1,412.15,311.19,412.28,311.24,412.38z"/>
						<polygon points="310.76,411.52 310.82,411.63 310.97,411.89 						"/>
						<path d="M312.96,417.2l0.08,0.46c0.02,0.05,0-0.08-0.03-0.25C312.99,417.3,312.96,417.13,312.96,417.2z"/>
						<path d="M312.69,415.81c0.03,0.12,0.02,0.13,0.03,0.2l0.03,0.01L312.69,415.81z"/>
						<path d="M313.02,417.14c0.02,0.04,0.13,0.67,0.03,0.08C313.05,417.17,312.95,416.71,313.02,417.14z"/>
						<polygon points="312.91,424.15 312.94,424.03 312.89,424.04 						"/>
						<path d="M310.62,429.91c0.3-0.47,0.04-0.13,0.32-0.55c0.06-0.12-0.22,0.35-0.16,0.23
							C310.61,429.87,310.51,430.02,310.62,429.91z"/>
						<path d="M310.77,429.58c0.02-0.04,0.05-0.09,0.08-0.15C310.81,429.51,310.79,429.55,310.77,429.58z"/>
						<polygon points="295.22,403.53 295.57,403.53 295.34,403.52 						"/>
						<path d="M295.89,403.46l0.08,0.03l0.21-0.04C296.11,403.46,295.96,403.47,295.89,403.46z"/>
						<path d="M291.44,437.08l0.03,0c-0.05-0.02-0.13-0.04-0.3-0.09L291.44,437.08z"/>
						<polygon points="287.02,435.08 287.09,435.12 286.97,435.02 						"/>
						<path d="M283.82,432.55c0.11,0.13,0.26,0.26,0.38,0.37C283.92,432.68,283.82,432.49,283.82,432.55z"/>
					</g>
				</g>
			</g>
		</g>
	</g>
</g>
</svg>
