<?xml version="1.0" encoding="utf-8"?>
<!-- Generator: Adobe Illustrator 25.4.1, SVG Export Plug-In . SVG Version: 6.00 Build 0)  -->
<svg version="1.1" id="Ebene_1" xmlns="http://www.w3.org/2000/svg" xmlns:xlink="http://www.w3.org/1999/xlink" x="0px" y="0px"
	 viewBox="0 0 595.28 841.89" style="enable-background:new 0 0 595.28 841.89;" xml:space="preserve">
<g>
	<g id="XMLID_1450_">
		<path d="M281.94,430.29c2.83,1.82,6.2,2.88,9.81,2.88c11.88,0,18.59-10.03,18.19-19.03c1.25-0.9,2.33-2.03,3.19-3.31
			c-1.15,0.51-2.38,0.85-3.67,1.01c1.32-0.79,2.34-2.04,2.81-3.54c-1.24,0.73-2.61,1.27-4.06,1.55c-1.17-1.24-2.83-2.02-4.67-2.02
			c-4.13,0-7.17,3.85-6.23,7.86c-5.32-0.27-10.03-2.81-13.19-6.69c-1.68,2.88-0.87,6.64,1.98,8.54c-1.05-0.03-2.04-0.32-2.9-0.8
			c-0.07,2.97,2.06,5.74,5.13,6.36c-0.9,0.25-1.89,0.3-2.89,0.11c0.81,2.54,3.18,4.39,5.98,4.44
			C288.73,429.75,285.34,430.69,281.94,430.29z"/>
		<g>
			<g>
				<g>
					<g>
						<path d="M282.08,430.42c-0.2-0.02-0.13,0.01-0.16,0.01C282.25,430.45,282.08,430.41,282.08,430.42z"/>
						<polygon points="285.31,430.32 285.25,430.33 285.72,430.24 						"/>
						<path d="M288.22,429.55c-0.28,0.07-1.03,0.38-1.55,0.49l-0.09,0.01l-0.23,0.09C286.99,430,287.79,429.71,288.22,429.55z"/>
						<path d="M289.71,428.93c-0.09,0.04,0.3-0.18-0.33,0.17c0.03-0.01,0.04-0.02,0.06-0.03C289.5,429.04,289.58,429,289.71,428.93z
							"/>
						<path d="M289.44,429.08C289.16,429.23,289.63,428.99,289.44,429.08L289.44,429.08z"/>
						<path d="M290.71,428.32c-0.12,0.08-0.23,0.17-0.35,0.24c0.08-0.03,0.39-0.25,0.28-0.16
							C291,428.15,290.92,428.19,290.71,428.32z"/>
						<path d="M291.05,428.05l-0.2,0.15C290.89,428.17,290.9,428.17,291.05,428.05z"/>
						<path d="M290.47,428.47l0.38-0.27c-0.05,0.03-0.07,0.02-0.17,0.12C290.7,428.29,290.63,428.35,290.47,428.47z"/>
						<path d="M290.24,428.6c-0.21,0.12-0.47,0.27-0.11,0.04C289.43,429.04,289.55,429.01,290.24,428.6z"/>
						<path d="M288.35,429.46c-0.1,0.04-0.19,0.08-0.29,0.11l-0.25,0.1C287.93,429.62,288.37,429.46,288.35,429.46z"/>
						<path d="M289.85,427.25c-0.03,0,0.13,0.06,0.15,0.07l0.3,0.06C290.15,427.34,289.87,427.28,289.85,427.25z"/>
						<path d="M290.01,427.32c-0.15-0.03-0.29-0.08-0.44-0.11C289.96,427.33,290.03,427.34,290.01,427.32z"/>
						<path d="M291.09,427.97c-0.27,0.21-0.43,0.31-0.65,0.48c0.26-0.19,0.46-0.32,0.8-0.59L291.09,427.97z"/>
						<path d="M288.29,426.57l0.23,0.11c-0.13-0.07-0.27-0.13-0.4-0.21C288.17,426.51,288.23,426.54,288.29,426.57z"/>
						<path d="M287.37,425.89c0.15,0.12-0.17-0.2-0.02-0.06c-0.23-0.2-0.41-0.39-0.58-0.56
							C286.94,425.45,287.12,425.65,287.37,425.89z"/>
						<path d="M286.51,424.96c0.07,0.09,0.16,0.19,0.26,0.3C286.69,425.18,286.62,425.09,286.51,424.96z"/>
						<path d="M288.86,426.92c-0.03-0.02-0.09-0.06-0.31-0.18l0.15,0.1C288.75,426.87,288.8,426.89,288.86,426.92z"/>
						<path d="M288.7,426.84L288.7,426.84c-0.18-0.08-0.29-0.16-0.34-0.19C288.41,426.68,288.5,426.75,288.7,426.84z"/>
						<path d="M288.9,426.94l-0.04-0.02C288.87,426.93,288.88,426.93,288.9,426.94z"/>
						<path d="M290.72,427.49c-0.27-0.01-0.81-0.13-0.29,0C290.63,427.5,290.32,427.45,290.72,427.49z"/>
						<path d="M289.09,427.05c0.15,0.06,0.3,0.13,0.45,0.17c-0.01-0.01-0.09-0.04,0.04-0.01
							C289.41,427.18,289.25,427.11,289.09,427.05z"/>
						<path d="M288.87,426.96c0.07,0.03,0.14,0.07,0.22,0.09c-0.06-0.02-0.11-0.04-0.16-0.07L288.87,426.96z"/>
						<path d="M287.02,425.6c-0.14-0.15-0.31-0.31-0.46-0.52c0.16,0.22,0.35,0.43,0.54,0.62
							C287.14,425.73,287.24,425.81,287.02,425.6z"/>
						<path d="M287.79,426.28l-0.04-0.03C287.77,426.27,287.79,426.28,287.79,426.28z"/>
						<polygon points="285.76,423.36 285.73,423.35 285.72,423.36 						"/>
						<path d="M287.14,425.74c0.15,0.15,0.24,0.23,0.34,0.3c-0.13-0.09-0.24-0.21-0.37-0.33C287.1,425.7,287.09,425.7,287.14,425.74
							z"/>
						<path d="M286.12,424.38c0.04,0.1,0.11,0.2,0.18,0.31C286.23,424.58,286.16,424.46,286.12,424.38z"/>
						<path d="M287.7,426.2l0.02,0.02C287.67,426.18,287.68,426.18,287.7,426.2z"/>
						<path d="M287.7,426.2l-0.22-0.16c0.09,0.07,0.18,0.14,0.27,0.21C287.73,426.24,287.71,426.22,287.7,426.2z"/>
						<path d="M286.55,423.29c-0.04,0.02-0.59,0.02-1.06-0.09c-0.09-0.03-0.01,0.06-0.01,0.08c0.02,0.04,0.03,0.06,0.04,0.07
							c0.02,0.03,0.03,0.02,0.03,0c0.01-0.01-0.01-0.06,0.02-0.07c0.05,0.02,0.11,0.04,0.15,0.06c0-0.01,0.01,0,0.5,0.02
							c-0.07-0.01-0.38-0.04-0.53-0.07c-0.12-0.03-0.24-0.06-0.09-0.04c0.56,0.07,0.5,0.07,0.79,0.1c-0.26-0.02,0.82-0.03,0.68-0.08
							c-0.19,0.02-0.37,0.02-0.56,0.02C286.5,423.3,286.7,423.3,286.55,423.29z"/>
						<path d="M285.76,423.73l0.08,0.18c-0.04-0.09-0.08-0.18-0.12-0.29c-0.02-0.05-0.03-0.1-0.05-0.16
							c-0.01-0.04-0.01-0.04-0.01-0.07c-0.04-0.06,0.02-0.03,0.03-0.04c0.02,0,0.03,0,0.03-0.01c-0.2-0.09-0.06,0.1,0.07,0.44
							L285.76,423.73z"/>
						<path d="M286.27,424.67c-0.11-0.11-0.34-0.52-0.22-0.26c0.31,0.49,0.22,0.34,0.44,0.61
							C285.95,424.27,286.64,425.25,286.27,424.67c0.1,0.16,0.2,0.29,0.3,0.41c-0.1-0.13-0.19-0.26-0.27-0.39l0.01,0.02l0,0l0,0
							c0.02,0.03,0.03,0.05,0,0.01c0,0-0.01-0.02-0.01-0.02C286.29,424.7,286.28,424.69,286.27,424.67
							c-0.14-0.23-0.02-0.04,0.03,0.03l0.01,0.01l0,0c-0.18-0.25-0.33-0.52-0.46-0.8C285.92,424.09,286.03,424.31,286.27,424.67z"/>
						<path d="M289.94,427.43c-0.03-0.01-0.03-0.01-0.03-0.01C289.85,427.4,289.83,427.4,289.94,427.43z"/>
						<path d="M289.57,427.31c0.07,0.02,0.12,0.03,0.33,0.09c0.19,0.05,0,0.01,0,0.02c0.13,0.02,0.46,0.09,0.05-0.01l-0.07-0.01
							c-0.36-0.11-0.8-0.31-0.74-0.29C289.25,427.15,289.33,427.22,289.57,427.31z"/>
						<path d="M287.66,426.26c-0.21-0.16-0.41-0.32-0.59-0.51l0.28,0.29l-0.01-0.02C287.68,426.3,287.62,426.23,287.66,426.26z"/>
						<path d="M285.85,423.38l-0.11,0.01c0.15,0.01,0.31,0.02,0.46,0.02L285.85,423.38z"/>
						<polygon points="286.88,423.43 286.85,423.45 287.12,423.42 						"/>
						<path d="M310.64,408.97l0.21-0.1C310.76,408.92,310.7,408.95,310.64,408.97z"/>
						<path d="M309.08,409.51l-0.04,0.02C309.12,409.51,309.15,409.49,309.08,409.51z"/>
						<path d="M285.41,410.58c0.23,0.25,0.49,0.53,0.47,0.48l-0.06-0.09C285.65,410.81,285.54,410.7,285.41,410.58z"/>
						<path d="M297.63,411.76l-0.04,0.09c-0.02,0.08-0.05,0.15-0.07,0.22C297.55,411.97,297.59,411.87,297.63,411.76z"/>
						<path d="M297.64,411.51c0.06-0.14,0.14-0.26,0.22-0.39C297.81,411.2,297.72,411.32,297.64,411.51z"/>
						<path d="M312.07,411.08l0.24-0.11C311.92,411.12,312.1,411.06,312.07,411.08z"/>
						<path d="M283.36,416.94c0.03,0.02,0.06,0.03,0.08,0.05c0.06,0.03,0.12,0.06,0.17,0.08c0.12,0.05,0.21,0.09,0.31,0.13
							c-0.16-0.07-0.31-0.14-0.42-0.2C283.36,416.94,283.39,416.95,283.36,416.94z"/>
						<path d="M310.11,409.42c0.13-0.05,0.19-0.08,0.18-0.08C310.16,409.39,310.08,409.42,310.11,409.42z"/>
						<path d="M284.73,417.47c-0.05-0.02-0.1-0.03-0.15-0.04c-0.21-0.05-0.42-0.12-0.66-0.22
							C284.16,417.31,284.45,417.41,284.73,417.47z"/>
						<path d="M293.84,433.17l-0.08,0C293.76,433.17,293.79,433.17,293.84,433.17z"/>
						<path d="M284.45,431.53c0.09,0.04,0.23,0.1,0.36,0.16C284.74,431.65,284.64,431.61,284.45,431.53z"/>
						<path d="M286,421.94C286.17,422.06,286.03,421.96,286,421.94L286,421.94z"/>
						<path d="M286.85,422.53c-0.04-0.02-0.08-0.03-0.08-0.03C286.78,422.51,286.81,422.52,286.85,422.53z"/>
						<path d="M285.45,417.04l-0.01-0.01C285.48,417.07,285.48,417.06,285.45,417.04z"/>
						<path d="M286.26,422.13c-0.07-0.05-0.14-0.1-0.22-0.16C286.08,422,286.14,422.05,286.26,422.13z"/>
						<path d="M286.23,422.09c0.06,0.04,0.11,0.07,0.16,0.1C286.41,422.2,286.38,422.19,286.23,422.09z"/>
						<path d="M285.76,421.77c0.09,0.08,0.19,0.14,0.28,0.2c-0.03-0.02-0.05-0.04-0.04-0.03
							C285.95,421.9,285.87,421.86,285.76,421.77z"/>
						<path d="M307.89,423.46c-0.01,0.01-0.01,0.02-0.02,0.04C307.78,423.7,307.82,423.62,307.89,423.46z"/>
						<polygon points="290.1,413.67 290.08,413.66 290.11,413.68 						"/>
						<path d="M290.81,414c-0.31-0.12-0.47-0.2-0.7-0.32l0.2,0.17L290.81,414z"/>
						<path d="M311.33,410.32c0.12-0.14,0.23-0.29,0.34-0.44c-0.35,0.58-0.7,0.93-0.33,0.55c0-0.05,0.34-0.48,0.59-0.96
							c0.13-0.25,0.23-0.46,0.32-0.71c0.12-0.33,0.18-0.55,0.17-0.55l0.05-0.14c0.04-0.07-0.06,0.02-0.08,0.02l-0.24,0.13
							c0.14-0.08,0.18-0.1,0.32-0.18c-1.03,0.53-0.67,0.44-1.52,0.83c-0.29,0.12-0.49,0.19-0.3,0.11c-0.21,0.1-0.43,0.18-0.64,0.27
							c-0.19,0.07-0.15,0.04,0.04-0.03c-0.33,0.12-0.67,0.23-1.01,0.32l0.01,0c-0.14,0.05-0.47,0.15-0.64,0.19
							c-0.27,0.05,0.13-0.03,0.06-0.03l-0.24,0.06l-0.19-0.18c-0.13-0.15,0.08,0.04,0.2,0.16l0.29-0.06
							c-0.17,0.02-0.24,0.03-0.28,0.03c-0.03-0.03-0.05-0.05-0.09-0.09c-0.05-0.05-0.12-0.1-0.18-0.17
							c-0.15-0.13-0.35-0.31-0.7-0.58c0.16,0.11,0.31,0.22,0.46,0.34c-0.26-0.26-0.63-0.52-1.19-0.85c0.15,0.06,1.07,0.73,0.51,0.38
							c-0.15-0.1-0.36-0.23-0.68-0.37c0.01-0.02-0.3-0.17-0.71-0.31l0.04-0.02c-0.45-0.14-0.42-0.11-0.69-0.16
							c-0.51-0.11-0.61-0.13-0.73-0.17c-0.83-0.08,0.57,0.08-0.41,0.01c-0.69-0.03-1.18,0.02-1.98,0.23c-0.47,0.13,0.08-0.04-0.09,0
							l-0.4,0.15c-0.1,0.03-0.07,0.01-0.06,0c-0.33,0.14-0.02,0.04-0.53,0.27c-0.13,0.07-1.06,0.5-1.55,1.01
							c-0.13,0.11,0.05-0.07,0-0.04c-0.36,0.33-0.48,0.49-0.6,0.63c-0.12,0.14-0.22,0.27-0.43,0.6c-0.14,0.17-0.26,0.36-0.37,0.56
							c0.28-0.41-0.06,0.13-0.23,0.65c0.08-0.15,0.14-0.29,0.19-0.37c-0.11,0.27-0.23,0.53-0.31,0.81c-0.03,0.1-0.02,0.01,0.01-0.13
							c-0.01,0.06-0.03,0.11-0.04,0.15c-0.1,0.29-0.07,0.14-0.02-0.08c0.03-0.1,0.09-0.19,0.13-0.29c0.07-0.21,0.13-0.4,0.09-0.37
							c-0.03,0.07-0.07,0.17-0.1,0.27c0.02-0.05,0.03-0.09,0.01-0.07c-0.01,0.03-0.04,0.11-0.09,0.25c-0.04,0.06-0.08,0.11-0.1,0.18
							l0,0.05c-0.13,0.36-0.23,0.73-0.29,1.12c-0.03,0.41-0.06,0.8,0,1.24c0.02,0.22,0.04,0.46,0.1,0.71
							c0.03,0.13,0.05,0.26,0.08,0.39c-0.04,0.07-0.25,0.01-0.4,0.01c0.32,0,0.07-0.04,0.09-0.06c0.1,0.02,0.16,0.02,0.24,0.03
							c0.01-0.06-0.02-0.14-0.05-0.3c-0.07-0.29-0.1-0.62-0.11-0.96c0.02,0.35,0,0.28-0.01,0.19c0.02,0.2,0.02,0.4,0.07,0.6
							l0.06,0.3c0,0.06,0.05,0.14,0.01,0.16c-0.01-0.01-0.04-0.02-0.1-0.03c-0.1-0.01-0.22-0.02-0.38-0.04
							c0.23,0.08-0.89-0.05-1.37-0.11c-0.03-0.02,0.09-0.02,0.67,0.06c-0.64-0.11-0.84-0.06-1.47-0.21
							c0.14,0.03,0.22,0.04,0.28,0.05c-0.34-0.03-1.13-0.25-0.94-0.22l0.14,0.03c-0.94-0.19-2.78-0.87-2.92-0.92
							c-0.01-0.01,0.14,0,0.19,0.02c-0.55-0.17-1.08-0.38-1.61-0.6c0.15,0.04-0.32-0.3,0.39,0.05c-0.21-0.11-0.41-0.22-0.87-0.47
							c0.13,0.08,0.32,0.23,0.13,0.13c-0.49-0.32-0.34-0.22-0.94-0.63c0.2,0.13-0.06,0.05-0.36-0.17c0.05,0.03,0.01-0.06,0.12,0.01
							c-0.26-0.16-0.53-0.31-0.78-0.49c0.19,0.13,0.06-0.01-0.09-0.15c0.07,0.07-0.63-0.48-0.81-0.65l0.29,0.26
							c-0.78-0.68-0.83-0.61-1.56-1.34c0.09,0.08,0.26,0.17-0.09-0.21c-0.09-0.08-0.31-0.24-0.55-0.49
							c-0.13-0.13-0.27-0.26-0.39-0.38c-0.06-0.12-0.08,0.08-0.12,0.12c-0.05,0.11-0.1,0.2-0.14,0.29c-0.03,0.05-0.06,0.1-0.08,0.15
							c-0.08,0.22-0.17,0.43-0.22,0.66c0.04-0.21,0.15-0.61,0.32-1.02c0.05-0.12,0.11-0.24,0.16-0.35c0.07-0.04,0.18,0.16,0.27,0.22
							c0.16,0.16,0.3,0.31,0.4,0.42c-0.26-0.32-0.02-0.06-0.47-0.57c-0.11-0.14-0.01-0.03,0.11,0.1c0.09,0.1,0.2,0.23,0.25,0.29
							l-0.57-0.67c-0.08,0.14-0.2,0.38-0.26,0.47c-0.05,0.1-0.11,0.2-0.16,0.31c0.03-0.02-0.07,0.23-0.16,0.48
							c-0.08,0.25-0.14,0.51-0.12,0.49c0.06-0.24,0.13-0.48,0.22-0.71c0.09-0.26,0.17-0.41,0.33-0.73c0.01,0.06-0.38,0.82-0.58,1.79
							c-0.06,0.24-0.02-0.19-0.03-0.18c-0.03,0.13-0.15,0.91-0.14,1l0.02-0.41c-0.07,0.54-0.05,0.89-0.02,1.54
							c0,0.23,0.06,0.67,0.08,0.71c-0.03-0.37,0.07-0.45,0.14-0.22c-0.02,0.08,0.23,1.13,0.33,1.37c0.1,0.35-0.26-0.49-0.17-0.19
							c0.01,0.01,0.1,0.2,0.13,0.27c0.09,0.22-0.07-0.08,0.16,0.38c0.04,0.07,0.52,0.9,0.13,0.2c0.27,0.42,0.26,0.46,0.62,0.93
							c-0.1-0.16,0.38,0.37,0.76,0.68c-0.03-0.01,0.05,0.07,0.08,0.11c0.18,0.18,0.37,0.29,0.52,0.41c0.02,0.02,0.13,0.08,0.06,0.07
							l-0.15-0.01l-0.28-0.03c-0.35-0.04-0.74-0.11-1.18-0.25c-0.08-0.03-0.51-0.19-0.32-0.14c-0.13-0.04-0.25-0.07-0.51-0.2
							c-0.51-0.27,0.6,0.27,0.21,0.05c-0.03,0-0.17-0.05-0.43-0.18c-0.07-0.03-0.13-0.07-0.2-0.1c-0.05-0.04-0.02,0.04-0.03,0.07
							l0,0.12c0.01,0.14,0.01,0.27,0.02,0.39c0.01-0.03,0.01-0.11,0.01-0.21c0-0.06,0-0.12,0-0.19c0.01-0.05-0.04-0.2,0.06-0.12
							c0.29,0.15,0.55,0.26,0.75,0.33c-0.01,0.02-0.18-0.02-0.47-0.14l-0.2-0.09c-0.03-0.01-0.08-0.05-0.09-0.03l0.01,0.13
							c0.01,0.14,0.02,0.42,0.06,0.64c0.12,0.77,0.03,0.34,0.05,0.47c0.14,0.72,0.3,1,0.42,1.25c0.13,0.25,0.24,0.47,0.55,0.99
							c0.26,0.41-0.03,0.05,0.02,0.14c-0.36-0.53-0.49-0.85-0.66-1.25c0.06,0.17,0.13,0.33,0.21,0.49
							c-0.11-0.17-0.27-0.57-0.35-0.79c0.06,0.19,0.27,0.79,0.67,1.39c0.38,0.61,0.95,1.2,1.39,1.55c0.16,0.13,0.46,0.31,0.33,0.21
							c-0.1-0.06-0.2-0.13-0.29-0.21c-0.25-0.21,0.56,0.38,0.2,0.11c0.4,0.27,0.87,0.53,1.49,0.79l0.11,0.07
							c-0.01,0-0.41-0.17-0.58-0.25c0.24,0.1,0.68,0.33,1.16,0.43c0.04,0.01,0.09,0.03,0.16,0.05l-0.12-0.06
							c-0.11-0.03-0.24-0.07-0.37-0.11c0.13,0.04,0.27,0.07,0.42,0.1c0.08,0.04,0.15,0.08,0.22,0.12c0.01,0.04-0.1,0.08-0.13,0.15
							c-0.25,0.07-0.67,0.14-0.83,0.15c0.28-0.01,0.11,0,0.8-0.11c-0.15,0.03-0.09,0.01,0.06-0.03c0.02-0.05,0.08-0.11,0.12-0.15
							c-0.05-0.05-0.11-0.11-0.15-0.15c-0.36-0.09-0.54-0.14-0.23-0.03c-0.37-0.11-0.5-0.19-0.7-0.25
							c-0.18-0.09-0.39-0.17-0.63-0.32c0.01,0.02,0.17,0.11-0.26-0.13c-0.03-0.01-0.07-0.03-0.1-0.05
							c-0.01-0.01-0.02-0.01-0.03-0.02l0.02,0.02c-0.02-0.01-0.02-0.01,0.01,0.01c0.08,0.05,0.15,0.1,0.21,0.14
							c-0.24-0.08-0.88-0.56-1.09-0.73c-0.22-0.2,0.1,0.08-0.02-0.04l-0.3-0.27c-0.03-0.03-0.5-0.61-0.03-0.1
							c-0.14-0.15-0.28-0.31-0.41-0.47c-0.21-0.3-0.49-0.72-0.63-1c-0.14-0.26-0.33-0.67-0.21-0.44c-0.13-0.3-0.24-0.61-0.33-0.92
							l0-0.01c-0.04-0.24-0.11-0.48-0.13-0.72c-0.01-0.12-0.04-0.25-0.04-0.37l-0.01-0.26c0-0.01,0-0.03,0-0.04l0.04,0.02l0.08,0.04
							c0.12,0.06,0.24,0.11,0.37,0.17c0.25,0.11,0.52,0.21,0.79,0.29c0.16,0.04,0.33,0.08,0.53,0.11c0.1,0.02,0.21,0.03,0.33,0.05
							c0.18,0.02,0.38,0.04,0.59,0.05l0.21,0.03c0.06,0,0.23,0.03,0.24-0.01c-0.08-0.06-0.17-0.13-0.26-0.2
							c-0.18-0.14-0.37-0.29-0.56-0.43c-0.2-0.18-0.32-0.29-0.47-0.42c-0.14-0.18-0.48-0.55-0.77-1.01
							c-0.3-0.45-0.54-0.98-0.65-1.32l-0.03-0.02c-0.15-0.48-0.29-0.95-0.34-1.58l-0.02,0.04c-0.07-0.54-0.01-1.41,0.23-2.23
							c-0.04,0.15-0.06,0.26-0.1,0.42c0.12-0.5,0.29-1.01,0.52-1.49l0.11-0.23c0.01-0.02,0.04,0.03,0.06,0.04l0.09,0.1
							c0.16,0.19,0.3,0.35,0.49,0.57c0.17,0.17,0.29,0.29,0.4,0.42l-0.04-0.04c0.02,0.02,0.04,0.04,0.07,0.07
							c0.07,0.08,0.14,0.16,0.23,0.24c-0.08-0.08-0.14-0.15-0.19-0.2c0.13,0.13,0.33,0.32,0.53,0.5l0.07,0.1
							c0.02,0.02,0.03,0.03,0.05,0.04c0.19,0.19,0.17,0.14,0.07,0.03c0.1,0.09,0.2,0.17,0.28,0.23c0.14,0.17,0.55,0.46,0.76,0.66
							c0.15,0.11,1.11,0.8,1.26,0.84c0.01,0.01,0.07,0.06-0.05-0.03c0.25,0.17,0.51,0.33,0.74,0.46l0.09,0.09l0.6,0.28
							c0.34,0.21,0.49,0.29,0.12,0.13c0.88,0.39,0.7,0.35,1.47,0.63l-0.04,0c0.27,0.12,0.71,0.26,0.88,0.33
							c0.59,0.29,3.1,0.96,4.79,1.06c-0.15-0.04,0.01-0.02,0.3,0.01c0.08,0,0.2,0.04,0.26,0.01c-0.02-0.1-0.03-0.18-0.04-0.26
							c-0.03-0.16-0.04-0.2-0.05-0.22c0-0.1-0.04-0.32,0.02-0.06c-0.14-0.83-0.07-1.26-0.05-1.83c0.03-0.09-0.01,0.18,0.01,0.1
							c0.01-0.07,0.04-0.26,0.06-0.35c0.02-0.08-0.01,0.12-0.03,0.25c0.13-0.84,0.18-0.92,0.14-1c0.13-0.42,0.25-0.6,0.34-0.91
							c0.09-0.13,0.21-0.35-0.02,0.13c0.05-0.14,0.28-0.55,0.51-0.9c0.23-0.36,0.5-0.65,0.5-0.67c0.07-0.07,0.28-0.32,0.34-0.37
							c0.5-0.46,0.56-0.49,1.11-0.86l-0.16,0.09c0.21-0.15,0.46-0.32,0.96-0.52l-0.01,0.01c0.57-0.24,0.71-0.23,0.83-0.28
							c0.12-0.05,0.25-0.08,0.85-0.16l-0.07-0.01c0.1-0.07,1.08-0.1,1.78,0.01l-0.25-0.04c0.39,0.01,1.05,0.24,1.41,0.38
							c0.08,0.03-0.13-0.04-0.24-0.07c0.94,0.35,0.14,0,0.83,0.27c0.12,0.08-0.18-0.04,0.27,0.18c0.11,0.06,0.42,0.22,0.76,0.45
							c0.17,0.12,0.34,0.25,0.5,0.39c0.08,0.07,0.15,0.14,0.23,0.21c0.08,0.08,0.15,0.16,0.24,0.25l0.06-0.01l-0.06,0.01
							c-0.13-0.14-0.2-0.23,0.01-0.03c0.03-0.01,0.07-0.02,0.12-0.03c0.54-0.1,1.45-0.32,1.9-0.53c0.07-0.02,0.1-0.03,0.1-0.03
							c0.39-0.15,1.24-0.55,1.45-0.7c0.12-0.04,0.21-0.08,0.34-0.15c0.05-0.04,0.02,0.02,0.01,0.05l-0.04,0.11
							c-0.02,0.05-0.08,0.21-0.14,0.34c-0.23,0.54-0.55,0.99-0.57,0.96c-0.24,0.34-0.51,0.66-0.82,0.95l0.02-0.03
							c-0.18,0.17-0.32,0.29-0.46,0.4c-0.18,0.14-0.32,0.25-0.47,0.34c-0.03,0.1-0.08,0.13-0.14,0.18
							c-0.01,0.01-0.02,0.02-0.03,0.02c0.04,0.01,0,0.01,0,0l0.01-0.01l-0.01,0.01c0.07,0.02,0.16,0.02,0.23,0.05
							c0.26-0.03,0.57-0.08,0.7-0.11c0.14-0.03,0.27-0.06,0.4-0.09c0.26-0.06,0.52-0.14,0.93-0.28l0.11-0.01
							c0.11-0.04,0.25-0.08,0.49-0.16c0.29-0.1,0.42-0.15,0.56-0.21c-0.06,0.09-0.11,0.17-0.22,0.31c-0.15,0.19-0.29,0.38-0.45,0.58
							c0.01-0.01,0.02-0.03,0.07-0.11c-0.4,0.51-0.96,1.07-1.48,1.5c-0.27,0.22-0.5,0.4-0.71,0.57l-0.15,0.12
							c-0.03,0.03-0.08,0.05-0.1,0.08l0,0.13c0.01,0.11,0.01,0.18,0.02,0.24l0.02,0.86c0.01-1.12,0.04,0.17,0.05-0.29
							c0,0.44-0.03,1.14-0.03,0.6l0-0.08c0-0.2-0.12,1.38-0.15,1.35c-0.24,2.18-0.9,4.25-1.8,6.1l0.14-0.2l-0.33,0.64
							c-0.09,0.16-0.14,0.21,0.09-0.24c-0.07,0.12-0.16,0.31-0.24,0.48c-0.08,0.17-0.13,0.31-0.13,0.32c-0.52,0.86,0.16-0.36,0-0.1
							c-0.06,0.13-0.13,0.25-0.2,0.36l0.05-0.08c-0.17,0.29-0.17,0.33-0.5,0.85c-0.21,0.33-0.12,0.16-0.21,0.29
							c0,0-0.03,0.04-0.13,0.2c-0.18,0.24-0.37,0.48-0.55,0.72l0.24-0.27c-0.23,0.33-0.52,0.67-0.24,0.36
							c-0.34,0.52-2.28,2.49-2.62,2.68c-0.4,0.4-0.85,0.72-1.43,1.1c0.14-0.09,0.25-0.12-0.24,0.21c0.07-0.09-0.15,0.07-0.46,0.25
							c-0.32,0.17-0.71,0.38-0.93,0.47c0.2-0.09-0.17,0.11-0.52,0.3c-0.35,0.18-0.69,0.3-0.36,0.2c-0.46,0.18-0.04-0.01-0.39,0.12
							c-0.54,0.22-1.13,0.5-1.8,0.65c-0.66,0.18-1.34,0.39-2.07,0.47c-0.02,0.01,0.22-0.01-0.08,0.05l-0.76,0.08
							c-0.28,0.05-0.25,0.11-0.78,0.1c0.07,0,0.19,0.01-0.01,0.02c-2.83,0.25-5.87-0.1-8.53-1.27c0.36,0.16,0.11,0.06-0.16-0.05
							c0.18,0.08-0.01,0.02,0.02,0.04c-0.37-0.17-0.73-0.34-1.09-0.53c-0.22-0.06-1.15-0.61-1.27-0.65l0.34,0.19
							c-0.46-0.22,0.58,0.42,0.5,0.42c0.52,0.23,1.34,0.73,2.25,0.99c0.19,0.08-0.17-0.05-0.07,0c0.23,0.06,0.5,0.16,1.01,0.32
							l-0.06-0.01c1.45,0.4,2.08,0.57,3.76,0.75l-0.12-0.03c0.32,0.03,0.43,0.04,0.61,0.06c0.42,0-1.02-0.07-0.64-0.09
							c0.24,0.05,0.88,0.1,1.5,0.1c0.62,0,1.22-0.05,1.39-0.03c0.56-0.03-0.17-0.02,0.39-0.05l0.15,0.01l0.14-0.03
							c0.37-0.01,0.55-0.04,0.57-0.03c-0.09,0.01-0.25,0.05-0.34,0.05c0.47-0.04,1.33-0.22,1.49-0.23l-0.53,0.08
							c0.38-0.06,0.78-0.13,1.18-0.2c0.4-0.11,0.8-0.23,1.21-0.34c0.82-0.19,1.58-0.57,2.26-0.84l-0.11,0.03
							c1.02-0.48,0.81-0.4,1.9-0.98l-0.04,0.02c0.22-0.12,0.47-0.33,0.76-0.52c-0.25,0.19,0.5-0.31,0.17-0.07
							c0.99-0.72,0.51-0.33,1.1-0.89l0.15-0.11c0.2-0.19,0.21-0.21,0.67-0.62c-0.37,0.34,0.32-0.24-0.1,0.15
							c0.52-0.39,0.8-0.8,1.08-1.07c0.23-0.25,0.31-0.33,0.68-0.73c0.16-0.25-0.01-0.03-0.21,0.21c-0.22,0.23-0.45,0.48-0.34,0.35
							c-0.21,0.18,0.33-0.36,0.56-0.7c0.24-0.33,0.51-0.5,1.09-1.36c-0.05,0.08-0.06,0.1-0.11,0.18c0.22-0.32,0.39-0.66,0.67-1.05
							c0.13-0.24,0.32-0.53,0.32-0.62c-0.13,0.29-0.32,0.55-0.48,0.82c0.3-0.45,0.48-0.93,0.9-1.71c-0.05,0.11-0.15,0.33-0.21,0.47
							c0.15-0.29,0.2-0.38,0.35-0.69c-0.01,0.08-0.5,1.05-0.77,1.56c0.18-0.22,0.48-0.99,0.39-0.7c0.13-0.4,0.51-0.9,0.71-1.58
							l0,0.05c0.04-0.11,0.13-0.35,0.19-0.52l-0.11,0.36c0.18-0.54,0.44-1.01,0.57-1.55c-0.33,1.1-0.09,0.24-0.27,0.69
							c0.38-1.36,0.34-0.75,0.69-2.29c-0.03,0.21-0.19,0.78-0.11,0.46c0.06-0.26,0.14-0.61,0.2-0.86c0.2-1.03-0.05,0.15,0.02-0.29
							c0.09-0.35,0.1-0.51,0.13-0.97l0.02,0c0.13-1.19-0.01-0.32,0.1-1.39c0.01,0.15,0,0.3-0.01,0.46c0.01-0.19,0.04-0.37,0.03-0.56
							l0.03,0.12c-0.02-0.61-0.01-0.8,0-1.4c-0.01,0.07-0.02,0.05-0.03-0.05c0-0.06-0.03-0.12,0.01-0.15
							c0.08-0.06,0.16-0.12,0.25-0.19c0.29-0.21-0.14,0.15,0.44-0.33c-0.12,0.12-0.25,0.25-0.53,0.43
							c-0.02,0.02-0.14,0.12-0.12,0.12c0.27-0.17,0.76-0.59,0.95-0.76c-0.08,0.06-0.16,0.13-0.23,0.19c0.27-0.24,0.53-0.5,0.78-0.76
							c0.13-0.12,0.04-0.01-0.05,0.09c0.14-0.15,0.27-0.3,0.47-0.51c-0.04,0.07-0.01,0.08-0.33,0.41c0.24-0.25,0.47-0.51,0.69-0.78
							c0.05-0.05,0.36-0.4,0.28-0.29c0.05-0.06,0.1-0.12,0.15-0.19c0.06-0.09,0.13-0.18,0.2-0.27c0.16-0.24,0.35-0.52,0.54-0.8
							c-0.31,0.13-0.62,0.27-0.91,0.4c-0.26,0.1-0.37,0.14-0.56,0.2c-0.04,0.02-0.11,0.04-0.26,0.1c-0.32,0.1-0.62,0.18-0.94,0.25
							c-0.23,0.05-0.45,0.09-0.75,0.16l-0.06,0.01c-0.01-0.01-0.02-0.01,0-0.02l0.09-0.04c0.01-0.01,0.01-0.02,0.01-0.01l0,0
							c-0.01,0-0.2,0.1-0.09,0.01c0.02-0.02,0.06-0.04,0.1-0.08c0.13-0.1,0.19-0.15,0.24-0.2c0.05-0.04,0.07-0.05,0.08-0.05
							c0.01,0-0.02,0.05,0.09-0.04c0.29-0.28,0.74-0.79,1.14-1.4C311.58,409.99,311.46,410.14,311.33,410.32z M307.07,408.75
							c0.14,0.08,0.41,0.26,0.49,0.34C307.4,409.01,307.29,408.91,307.07,408.75z M297.23,412.9c0.01-0.12,0.06-0.29,0.13-0.49
							C297.32,412.55,297.26,412.71,297.23,412.9z M284.36,420.3l-0.01-0.01C284.18,419.98,284.24,420.09,284.36,420.3z
							 M284.79,420.88c0.05,0.05,0.05,0.05,0.03,0.02c-0.03-0.04-0.15-0.15-0.25-0.3C284.6,420.64,284.64,420.72,284.79,420.88z
							 M306.59,425.37l0.08-0.12C306.5,425.53,306.54,425.45,306.59,425.37z"/>
						<path d="M297.64,411.54c0.02-0.04,0.03-0.05,0.04-0.06C297.7,411.42,297.7,411.42,297.64,411.54z"/>
						<polygon points="312.03,411.1 312.05,411.1 312.07,411.08 						"/>
						<path d="M283.67,414.73c-0.04-0.12-0.07-0.2-0.09-0.28C283.56,414.45,283.58,414.51,283.67,414.73z"/>
						<path d="M288.26,422.93L288.26,422.93l-0.42-0.11c-0.07-0.02-0.13-0.04-0.2-0.06l-0.11-0.04c0.08,0.03,0.24,0.09,0.35,0.11
							c0.1,0.03,0.19,0.05,0.28,0.08C288.17,422.91,288.03,422.87,288.26,422.93L288.26,422.93z"/>
						<path d="M285.71,423.9c0.04,0.08,0.05,0.12,0.09,0.19l0-0.02C285.69,423.8,285.59,423.62,285.71,423.9z"/>
						<path d="M288.32,423.1c-0.02,0.01-0.11,0.04-0.23,0.1c-0.12,0.03-0.25,0.06-0.41,0.09l0.07-0.01c-0.07,0.03,0.13,0,0.38-0.06
							C288.19,423.17,288.25,423.13,288.32,423.1z"/>
						<path d="M287.59,423.3c-0.1,0.01-0.21,0.03-0.31,0.04C287.24,423.35,287.4,423.33,287.59,423.3z"/>
						<path d="M285.44,421.52c0.12,0.1,0.09,0.04,0.15,0.1C285.72,421.73,284.82,420.96,285.44,421.52z"/>
						<path d="M288.04,423.16c0.05-0.01,0.1-0.01,0.14-0.02l0.15-0.05L288.04,423.16z"/>
						<path d="M286.22,422.23l0.45,0.26c-0.01-0.01,0.05,0.02,0.13,0.05C286.51,422.4,286.21,422.21,286.22,422.23z"/>
						<path d="M286.8,422.54c0.15,0.07,0.28,0.12,0.39,0.17C287.1,422.68,286.93,422.6,286.8,422.54z"/>
						<path d="M287.91,422.99l-0.14-0.04l-0.35-0.12C287.59,422.88,287.75,422.95,287.91,422.99z"/>
						<path d="M283.27,417.64c-0.02-0.19-0.05-0.38-0.05-0.57c-0.01-0.06-0.02,0.1,0.01,0.31
							C283.25,417.52,283.27,417.73,283.27,417.64z"/>
						<path d="M283.66,419.33c-0.05-0.15-0.05-0.16-0.08-0.24l-0.03-0.01L283.66,419.33z"/>
						<path d="M283.21,417.72c-0.01-0.06-0.12-0.83-0.03-0.1C283.18,417.67,283.28,418.24,283.21,417.72z"/>
						<polygon points="283.46,413.86 283.5,414 283.54,413.97 						"/>
						<path d="M285.96,410.76c-0.48-0.47-0.14-0.09-0.57-0.52c-0.12-0.1,0.35,0.36,0.23,0.25
							C285.93,410.76,286.08,410.91,285.96,410.76z"/>
						<path d="M285.62,410.49c-0.05-0.04-0.1-0.09-0.16-0.14C285.55,410.42,285.59,410.46,285.62,410.49z"/>
						<polygon points="283.03,430.8 282.66,430.58 282.9,430.73 						"/>
						<path d="M282.3,430.41l-0.07-0.08l-0.24-0.11C282.07,430.27,282.24,430.36,282.3,430.41z"/>
						<path d="M306,408.13l-0.03-0.01c0.14,0.06,0.19,0.09,0.35,0.16C306.21,408.23,306.11,408.18,306,408.13z"/>
						<polygon points="311.13,408.72 311.04,408.77 311.22,408.71 						"/>
						<path d="M310.28,411.47c0.16-0.13,0.34-0.3,0.49-0.44C310.45,411.35,310.21,411.47,310.28,411.47z"/>
					</g>
				</g>
			</g>
		</g>
	</g>
</g>
</svg>
