<?xml version="1.0" encoding="utf-8"?>
<!-- Generator: Adobe Illustrator 25.4.1, SVG Export Plug-In . SVG Version: 6.00 Build 0)  -->
<svg version="1.1" id="Ebene_1" xmlns="http://www.w3.org/2000/svg" xmlns:xlink="http://www.w3.org/1999/xlink" x="0px" y="0px"
	 viewBox="0 0 595.28 841.89" style="enable-background:new 0 0 595.28 841.89;" xml:space="preserve">
<style type="text/css">
	.st0{fill:none;}
</style>
<g>
	<g>
		<g>
			<g>
				<g>
					<g>
						<path d="M296.94,422.48c-0.02,0.02,0.16,0.01,0.19,0.01C297.1,422.46,296.9,422.48,296.94,422.48z"/>
						<polygon points="296.58,422.18 296.65,422.19 296.47,422.14 						"/>
						<path d="M296.6,421.91c-0.33,0.03,0.05,0.1-0.07,0.15l-0.07,0.01l0.26,0.02C296.68,422.03,296.51,421.95,296.6,421.91z"/>
						<path d="M297.34,421.76c-0.13,0.01-0.11-0.03-0.05,0.03c0.01,0,0.02,0,0.03-0.01C297.33,421.78,297.33,421.77,297.34,421.76z"
							/>
						<path d="M297.33,421.79C297.33,421.81,297.44,421.77,297.33,421.79L297.33,421.79z"/>
						<path d="M297.27,421.65l0.11,0.04c0.08-0.01,0.1-0.04,0.15-0.03C297.48,421.62,297.4,421.63,297.27,421.65z"/>
						<path d="M297.02,421.61l0.05,0.02C297.1,421.63,297.12,421.63,297.02,421.61z"/>
						<path d="M297.17,421.68l-0.1-0.04c-0.06,0.01-0.16,0.01,0.04,0.02C297.01,421.65,297.1,421.66,297.17,421.68z"/>
						<path d="M297.12,421.7c-0.08,0.02-0.12,0.05-0.24,0.01C296.92,421.78,297.16,421.77,297.12,421.7z"/>
						<path d="M296.26,421.89l-0.1,0.03l0.11,0.02C296.22,421.93,296.37,421.89,296.26,421.89z"/>
						<path d="M297.46,421.41c-0.07,0-0.19,0.01-0.29,0.02l0.08,0.03C297.31,421.44,297.35,421.41,297.46,421.41z"/>
						<path d="M297.17,421.43l-0.12-0.04C297.03,421.42,297.09,421.43,297.17,421.43z"/>
						<polygon points="296.65,421.61 296.9,421.68 296.64,421.59 						"/>
						<polygon points="297.48,421.25 297.65,421.27 297.39,421.23 						"/>
						<path d="M297.45,421.14c0.14,0.02,0.24-0.02,0.32-0.01c-0.02-0.03-0.15-0.05-0.25-0.08
							C297.58,421.08,297.57,421.11,297.45,421.14z"/>
						<path d="M297.36,421.02c0.03,0.01,0.09,0.02,0.16,0.04C297.49,421.05,297.44,421.03,297.36,421.02z"/>
						<path d="M297.09,421.31c0.04,0,0.16-0.01,0.21-0.03l-0.21,0.02L297.09,421.31z"/>
						<path d="M297.09,421.3L297.09,421.3c0.01-0.02,0.02-0.03,0.02-0.04C297.11,421.26,297.1,421.27,297.09,421.3z"/>
						<path d="M297.09,421.32L297.09,421.32C297.07,421.31,297.06,421.31,297.09,421.32z"/>
						<path d="M296.84,421.5c-0.11-0.03-0.23-0.08-0.41-0.03C296.57,421.49,296.67,421.46,296.84,421.5z"/>
						<path d="M296.83,421.34l-0.05,0.05c0.05,0,0.13-0.01,0.19,0L296.83,421.34z"/>
						<polygon points="296.77,421.31 296.83,421.34 296.85,421.32 						"/>
						<path d="M297.17,421.1c-0.09-0.02-0.1-0.04-0.11-0.07c-0.04,0.03-0.06,0.05-0.06,0.08
							C297.06,421.11,297.18,421.13,297.17,421.1z"/>
						<path d="M297.11,421.19l-0.01,0C297.08,421.19,297.08,421.19,297.11,421.19z"/>
						<polygon points="297.06,420.85 297.02,420.85 297.05,420.85 						"/>
						<path d="M296.96,421.12c-0.04,0.02,0.01,0.03,0.07,0.04c-0.02-0.01-0.03-0.03-0.04-0.05
							C296.97,421.11,296.95,421.11,296.96,421.12z"/>
						<path d="M297.27,420.95c-0.04,0.01-0.08,0.02-0.11,0.03C297.22,420.98,297.32,420.96,297.27,420.95z"/>
						<path d="M297.16,421.18L297.16,421.18C297.21,421.18,297.19,421.18,297.16,421.18z"/>
						<path d="M297.16,421.18c-0.03-0.01-0.08-0.02-0.13-0.03c0.02,0.01,0.04,0.02,0.07,0.03
							C297.11,421.19,297.14,421.19,297.16,421.18z"/>
						<path d="M295.74,420.71c0.19,0.02,0.37,0.08,0.16,0.11c0.14,0.05,0.77,0.02,1.12,0.03c-0.08,0-0.16-0.01-0.27-0.04
							c-0.1,0-0.24,0.05-0.41,0.02c-0.1-0.05,0.07-0.03,0.17-0.04c-0.24,0-0.35-0.09-0.69-0.12l0.12,0.07
							C295.87,420.72,295.79,420.7,295.74,420.71z"/>
						<path d="M297,420.88l0.02,0.02c0.03-0.02,0.11-0.03,0.26-0.03c-0.09-0.01-0.17-0.01-0.23-0.02c-0.01,0.01-0.02,0.01-0.02,0.04
							L297,420.88z"/>
						<path d="M297.03,420.99c-0.21-0.01-0.3-0.06-0.52-0.03c0.01,0.05,0.17,0.04,0.26,0.07c-0.05-0.09,0.12,0.02,0.23-0.04
							c0.04,0.02,0.05,0.03,0.05,0.05c0.03-0.02,0.06-0.03,0.1-0.05l-0.01,0l0,0l0,0c-0.03,0-0.04,0-0.03,0l0,0
							C297.08,420.99,297.05,420.99,297.03,420.99c0.04-0.03,0.06,0,0.08,0l0.03,0l0,0l-0.11-0.09
							C297,420.92,297,420.94,297.03,420.99z"/>
						<path d="M295.98,421.42c0.02,0,0.03,0,0.05,0C296.01,421.41,295.99,421.41,295.98,421.42z"/>
						<path d="M296.11,421.39c0.03,0.01,0.11,0.01,0.09,0.03c-0.06,0.02-0.1,0-0.17,0c0.05,0.01,0.15,0.04,0.25,0l-0.03-0.01
							c0.07-0.04,0.33-0.08,0.36-0.07C296.42,421.35,296.29,421.36,296.11,421.39z"/>
						<path d="M296.51,421.18l-0.1-0.07l-0.18,0.04l0.11,0C296.3,421.19,296.43,421.18,296.51,421.18z"/>
						<polygon points="297.16,420.85 297.38,420.87 297.07,420.84 						"/>
						<polygon points="297.13,420.83 297.32,420.85 297.2,420.83 						"/>
						<path d="M299.6,419.76l0.07,0C299.65,419.76,299.63,419.75,299.6,419.76z"/>
						<path d="M299.43,419.62l-0.09,0.02C299.4,419.64,299.44,419.63,299.43,419.62z"/>
						<path d="M296.98,420.03c0.16,0.23,0.38,0.57,0.21,0.3l-0.17-0.26C297.05,420.11,297.02,420.09,296.98,420.03z"/>
						<path d="M297.39,419.27l0.01-0.04c-0.03,0.04-0.06,0.08-0.09,0.11L297.39,419.27z"/>
						<path d="M297.71,418.74l-0.01,0.11C297.71,418.81,297.71,418.78,297.71,418.74z"/>
						<path d="M300.68,420.38l0.24,0.02C300.87,420.36,300.79,420.38,300.68,420.38z"/>
						<path d="M297.02,420.51c0.08,0.05,0.11,0.07,0.12,0.07C297.02,420.5,296.85,420.39,297.02,420.51z"/>
						<path d="M297.36,420.27c0.05-0.01,0.09-0.02,0.15-0.03C297.46,420.25,297.42,420.26,297.36,420.27z"/>
						<path d="M297.13,420.55c-0.02-0.01-0.03-0.02-0.05-0.03c0.04,0.03,0.06,0.06,0.05,0.06
							C297.22,420.63,297.27,420.67,297.13,420.55z"/>
						<path d="M297.34,422.68l-0.01-0.01C297.33,422.68,297.34,422.68,297.34,422.68z"/>
						<path d="M295.76,421.7c0-0.01,0.02-0.02,0.03-0.03C295.78,421.67,295.77,421.68,295.76,421.7z"/>
						<path d="M297.2,420.75C297.22,420.76,297.23,420.76,297.2,420.75L297.2,420.75z"/>
						<path d="M296.39,420.55c-0.02-0.01-0.05-0.02-0.1-0.03C296.34,420.53,296.37,420.54,296.39,420.55z"/>
						<path d="M295.88,419.36L295.88,419.36C295.85,419.33,295.85,419.33,295.88,419.36z"/>
						<path d="M297.11,420.73c0.02,0.01,0.05,0.01,0.06,0.01C297.16,420.74,297.14,420.74,297.11,420.73z"/>
						<path d="M297.21,420.76c-0.01,0-0.01,0-0.02,0C297.22,420.77,297.25,420.78,297.21,420.76z"/>
						<path d="M297.19,420.74c0,0-0.01,0-0.02,0c0.01,0,0.03,0.01,0.03,0.01C297.2,420.75,297.2,420.75,297.19,420.74z"/>
						<path d="M298.82,421.3c-0.01,0-0.01,0-0.02,0C298.84,421.33,298.84,421.32,298.82,421.3z"/>
						<polygon points="295.88,417.66 295.89,417.67 295.89,417.68 						"/>
						<path d="M295.89,417.54c0.1,0.27,0.06,0.22,0,0.14l0.37,0.7L295.89,417.54z"/>
						<path d="M300.04,420.02l0.12-0.06c0.35,0.01,0.3,0.06,0.49-0.01c-0.61,0.08-0.28-0.16-0.87-0.06l0.09-0.05
							c0,0.01,0.04,0,0.04,0.01c0.21-0.11-0.47,0.05-0.47-0.02c0.02-0.03,0.08-0.07,0.17-0.07l-0.21-0.01
							c-0.01-0.02,0.09-0.04,0.1-0.02l-0.18-0.08l0.02,0c-0.12,0-0.31,0.01-0.39,0.02c0.02-0.06,0.08-0.01,0.12-0.04l-0.22-0.01
							c0.06-0.09,0.27-0.09,0.35-0.03c0.33-0.3-0.21,0-0.26-0.32l0.19,0.05c0.12-0.21-0.09-0.23-0.18-0.46
							c0.03,0.11,0.08,0.49-0.16,0.47c-0.01-0.05-0.07-0.09-0.19-0.07c0.11-0.11-0.06-0.17-0.07-0.17l0.1-0.17
							c-0.06,0.03-0.11,0.12-0.18,0.18c-0.03-0.04,0.04-0.19,0.1-0.31c-0.05-0.07-0.08,0.25-0.17,0.23
							c-0.01-0.1-0.09-0.05-0.22,0.01c0-0.09,0.07-0.11,0.09-0.17l-0.11,0.12c-0.01-0.01,0.02-0.05,0.04-0.07
							c-0.06,0.04-0.11,0.18-0.18,0.2c-0.13,0.2,0.08-0.35-0.11-0.16c0.02-0.06,0.07-0.11,0.11-0.18c-0.16,0.1-0.13,0.07-0.3,0.24
							l0.02-0.16c-0.04,0.17-0.19,0.3-0.31,0.42c-0.02,0.08-0.05,0.15-0.06,0.18l-0.13,0.06c0.01-0.04,0.05-0.1,0.11-0.17
							l-0.04,0.04c0.02-0.08,0.09-0.19,0.17-0.29c-0.01,0.04-0.03,0.09-0.04,0.13c0.08-0.11,0.17-0.22,0.23-0.34
							c-0.02,0.02-0.04,0.03-0.05,0.04c0.02-0.03,0.04-0.06,0.05-0.08c0.01-0.02-0.02,0.02-0.06,0.06l0.11-0.22l-0.05,0.08
							c-0.03-0.08,0.07-0.08-0.17-0.28c-0.23,0.01-0.42,0.08-0.42,0.24c0,0.16-0.01,0.29-0.04,0.33c-0.04-0.24-0.11-0.41-0.19-0.7
							c0.12,0.33,0.07-0.07,0.17,0.03c-0.05-0.05-0.07-0.19-0.07-0.23c-0.03,0.07-0.05,0.13-0.07,0.21
							c-0.06-0.24-0.08-0.2-0.15-0.32c0.17,0.5-0.01,0.27-0.01,0.39c-0.06-0.17-0.1-0.33-0.02-0.25c-0.2-0.41,0.1,0.53-0.07,0.18
							c0.01,0,0.03,0.03,0.01-0.05c0.02,0.13-0.11-0.04-0.15-0.17l0.01,0.01c-0.13-0.12-0.34-0.19-0.13,0.27
							c-0.03-0.06-0.24-0.54-0.28-0.63c0.17,0.47,0.38,0.98,0.61,1.44c-0.19-0.36-0.75-1.37-0.78-1.54
							c-0.06-0.07-0.13-0.16-0.11-0.05c0.05,0.07,0.35,0.61,0.35,0.64c-0.3-0.49-0.17-0.26-0.47-0.7c0.08,0.1,0.41,0.73,0.36,0.7
							c-0.05-0.09-0.37-0.65-0.39-0.71l0.27,0.59c-0.05-0.1-0.32-0.55-0.45-0.75c0.09,0.13-0.1-0.06-0.09-0.01l0.14,0.18
							c-0.19-0.17,0.47,0.88,0.37,0.79c-0.08-0.14-0.53-0.85-0.65-0.96c0.23,0.37,1.12,1.77,1.3,2.06l-0.14-0.18l0.16,0.26
							c-0.38-0.51-1.14-1.7-1.42-2.22c-0.11-0.11-0.16-0.22-0.15-0.12c-0.13-0.15-0.19-0.32-0.2-0.36l-0.1,0.09
							c0.28,0.38,0.27,0.53,0.51,0.84l-0.28-0.6c0.28,0.39,0.79,1.21,0.74,1.24c-0.11-0.12-0.5-0.68-0.6-0.8
							c0.1,0.15,0.18,0.36,0.11,0.28l-0.15-0.25c-0.11-0.06,0.37,0.58,0.09,0.33c-0.02,0-0.38-0.34-0.21-0.14
							c0.33,0.32,1.35,1.52,1.61,1.83c-0.02-0.02-0.32-0.29-0.49-0.44c-0.27-0.25-0.62-0.73-0.85-0.94
							c0.08,0.09,0.18,0.22,0.21,0.26c-0.07-0.04-0.25-0.28-0.21-0.17c0.3,0.32-0.03,0.1,0.25,0.29c0.08,0.14-0.06,0-0.05,0.08
							c0.19,0.17,0.66,0.7,0.75,0.82c-0.08-0.07-0.18-0.16-0.23-0.2c-0.03,0.07-0.17,0.01-0.17,0.1c-0.08-0.05-0.17-0.07-0.3-0.19
							c0.05,0.06,0.16,0.15,0.17,0.19c-0.27-0.13-0.04-0.11-0.37-0.3c0.18,0.14,0.25,0.28,0.36,0.4c0.28,0.18,0.05-0.06-0.06-0.2
							c0.38,0.29,0.8,0.67,0.98,0.84c0.1,0.11-0.25-0.14-0.2-0.1c-0.07,0.07,0.69,0.46,0.41,0.37c-0.25-0.09-0.5-0.24-0.69-0.32
							c-0.1-0.1,0.16,0,0.15-0.04l-0.12-0.02c-0.08-0.06-0.15-0.14-0.07-0.12c-0.23-0.09-0.04,0.2-0.25,0.23
							c0.08,0.05,0.17,0.11,0.27,0.13l-0.04-0.04c0.2,0.05,0.28,0.15,0.38,0.15c0.14,0.09,0.37,0.18,0.26,0.18l-0.29-0.06
							c0.09,0.02,0.17,0.02,0.08-0.02c0.13,0.05-0.39-0.02-0.01,0.09l0.2,0.02c0.15,0.06,0.46,0.14,0.37,0.14
							c0.29,0.03-0.03-0.01,0.3,0.03c-0.42-0.06,0.01-0.03-0.43-0.11c0.39,0.08,0.16,0.01,0.49,0.09c-0.1-0.03-0.18-0.05-0.14-0.05
							c-0.03-0.01-0.06-0.02-0.08-0.03l0.01,0l-0.01,0c-0.01-0.01-0.02-0.01,0,0c-0.04-0.01-0.09-0.02-0.15-0.04
							c-0.22-0.08-0.22-0.11-0.33-0.17c0.04,0,0.11,0.05,0.21,0.08l-0.17-0.09c0.21,0.08,0.35,0.12,0.48,0.19l0.01-0.01
							c0.12,0.04,0.16,0.06,0.07,0.01c0.04,0.02-0.24-0.14-0.07-0.05l-0.13-0.1l0.05,0.03c0.02,0-0.35-0.3,0.02-0.07
							c-0.06-0.05-0.12-0.12-0.07-0.1l0.18,0.15c-0.07-0.07,0.16,0.12-0.02-0.05c0.47,0.43,0.08,0.05,0.16,0.11l-0.22-0.25
							c0.01,0-0.06-0.09-0.15-0.22l-0.2-0.23c-0.16-0.22,0.13,0.1,0.1,0.04c0.07,0.1,0.06,0.08,0.01,0.03
							c0.42,0.55-0.33-0.54-0.02-0.14c-0.06-0.1-0.03-0.06,0.02,0.01c0,0,0,0.01,0.01,0.01l0.01,0c0.03,0.05,0.07,0.1,0.11,0.15
							c-0.05-0.07-0.09-0.12-0.1-0.15c0,0-0.01-0.04-0.05-0.1l0.19,0.29c0,0,0,0,0-0.01c0.07,0.11-0.08-0.13-0.22-0.35
							c-0.03-0.05-0.06-0.1-0.1-0.17c0.3,0.46-0.06-0.14,0.24,0.35c-0.14-0.23-0.06-0.16-0.32-0.62c0.04,0.06,0.06,0.09,0.05,0.09
							c0.05,0.06,0.09,0.12,0.03,0l0.19,0.33l-0.21-0.42c0.13,0.21,0.19,0.32,0.31,0.56c-0.16-0.36-0.05-0.13-0.19-0.47l0.1,0.2
							c0.01,0-0.09-0.25,0-0.08c0.19,0.37,0.19,0.13,0.36,0.45c-0.15-0.48,0.09,0.22-0.01-0.14c0.03,0.11,0.06,0.17,0.07,0.26
							c-0.02-0.05,0.07,0.01-0.02,0.01c-0.09,0-0.2-0.04-0.26-0.18c-0.06,0.08,0.02,0.15-0.02,0.19c-0.02-0.03-0.07-0.1-0.13-0.06
							c-0.06,0.04,0.01,0.08,0.06,0.14c-0.07-0.02-0.2-0.07-0.15-0.09c0.03-0.03,0.06-0.06,0.09-0.11c0.07-0.09,0.14-0.21,0.21-0.33
							c-0.03,0.13,0,0.12,0.11-0.02c-0.03,0.08-0.06,0.18-0.12,0.18c0.02,0.02,0.09,0.19,0.2,0c-0.02,0.05,0.03,0.03,0.05,0.01
							c0.05,0.04,0.05,0.06,0.11,0.07l0-0.04c0.15-0.21,0.07-0.03,0.13-0.03l-0.01,0.02c0.01,0.21,0.09-0.05,0.09,0.18l0.07-0.14
							c0.17-0.28-0.01,0.22,0.11,0.14l0.02-0.09c0.09-0.08-0.13,0.43-0.12,0.48c-0.01,0.03-0.03,0.03-0.05,0.05
							c-0.03,0.2,0.16-0.15,0.14-0.19c-0.08,0.08-0.13,0.23-0.23,0.23c-0.05,0.03-0.06-0.06-0.05-0.12c0-0.07,0.04-0.1-0.14-0.05
							c0.13-0.04,0.24-0.09,0.3-0.13c0-0.01-0.13,0.03-0.25,0.05c-0.08,0.03-0.09,0.04,0.13-0.01c-0.04,0.01-0.07,0.02-0.11,0.03
							c0.13-0.02,0.25-0.01,0.52-0.06c-0.95,0.18,0.63,0-0.3,0.14l0.11,0.02l-0.1,0.01c-0.03,0.02,0.22,0.01,0.48,0
							c-0.06,0.01-0.16,0.01-0.22,0.02c-0.15,0.05-0.12,0.03,0.48,0.05l-0.35,0.01c0.21,0.01-0.43,0.04-0.11,0.07
							c-0.04,0-0.11,0-0.16-0.01c0.34,0.06-1.04,0,0.14,0.1l0.24,0.05c0.16-0.03,0.49,0.06,0.71,0.06c0.03,0.03-0.43,0.01-0.45-0.02
							l0.06,0c-0.58-0.07-0.29,0.02-0.68-0.03c-0.08,0.07-0.47,0.05-0.54,0.09l0.36,0.11l-0.05,0.02c-0.09-0.02-0.27-0.09-0.24-0.1
							c-0.2-0.06,0.13,0.08,0.2,0.11c-0.17-0.02-0.36-0.16-0.39-0.15l0.01,0.02l0.04,0.01c0.12,0.06,0.26,0.12,0.21,0.13
							c-0.08-0.02-0.2-0.08-0.21-0.08c-0.02-0.01-0.03-0.01-0.02,0l-0.05,0.01l0.24,0.1c0.09,0.07-0.05,0.02,0.22,0.14
							c-0.41-0.18-0.3,0.04-0.42-0.02c0.1,0.12,0.06,0.13,0.02,0.14c0.04,0.02,0.22,0.18,0.16,0.18c-0.32-0.35-0.21-0.11-0.44-0.35
							c0.15,0.16-0.03,0.09,0.17,0.32c-0.05-0.01-0.1-0.14-0.17-0.21c0.06,0.18-0.25,0-0.33,0.1c0.03,0.05,0.09,0.12,0.11,0.21
							l-0.21-0.23c-0.01,0.04,0.15,0.32,0,0.15c0.03,0.04,0.08,0.11,0.07,0.13c-0.4-0.16-0.35,0.47-0.91,0.03
							c0.1,0.1,0.08,0.12,0.06,0.14c0.03,0.02,0.09,0.15,0.14,0.23l-0.24-0.19c0.11,0.24-0.1,0.06,0.01,0.29l0.01-0.06
							c0.11,0.29,0.4,0.57,0.58,0.91c-0.12-0.33,0.36,0.35,0.19-0.12c0.05,0.06,0.05,0.11,0.1,0.18c-0.06-0.15-0.06-0.2,0.02-0.16
							l0.01,0.04c0.09-0.12,0.22-0.01,0.39-0.02l-0.1-0.14c0.04,0,0.07,0.04,0.11,0.07c-0.1-0.25-0.08,0.04-0.2-0.23
							c0.21,0.28,0.2-0.13,0.42,0.19c0.04-0.03-0.11-0.16-0.06-0.19l0.06,0.08l-0.06-0.12c0.04,0,0.12,0.1,0.16,0.18
							c-0.01,0-0.01,0.03-0.01,0.05c0.1,0.08,0.08-0.11,0.11-0.08l-0.07-0.03c0.08-0.17,0.24-0.13,0.33-0.42l-0.05-0.05
							c0.04-0.18,0.14,0.01,0.23-0.12l0.01,0.02c-0.02-0.07-0.01-0.12,0.03-0.13c0.03,0.08,0.18,0.08,0.2,0.18
							c0.03-0.19-0.01-0.13-0.14-0.36l0.11,0.07c-0.06-0.09-0.1-0.13-0.07-0.18c0.04,0.1,0.19,0.09,0.25,0.22
							c0.37,0.07-0.04-0.28,0.38-0.1c-0.25-0.23-0.29-0.03-0.32-0.1c-0.12-0.05-0.18-0.17-0.11-0.18c0.04-0.02,0.48,0.2,0.59,0.12
							c-0.01,0.01,0.01,0.02,0,0.03c0.13,0.01-0.04-0.11,0.16-0.07c-0.19-0.11,0.08-0.04-0.19-0.16l-0.03,0.09
							c-0.01-0.07-0.3-0.23-0.06-0.21c0.05,0.02,0.11,0.07,0.13,0.1c0.11,0.02-0.01-0.05,0.11-0.04c0.29,0.11-0.05,0.1,0.1,0.22
							c0.15,0.03-0.08-0.16,0.2-0.02c-0.36-0.18,0.17-0.06-0.07-0.21l0.18,0.06c-0.02-0.02-0.08-0.06-0.05-0.07l0.2,0.1
							c-0.14-0.1,0.3-0.03,0.24-0.1c-0.11,0.08-0.26-0.04-0.44-0.05c-0.13-0.15,0.58,0.08,0.65-0.06c0.01,0.02-0.2,0.03-0.26-0.01
							c0.07-0.01,0.18-0.02,0.31-0.02c0.06-0.08-0.22-0.03-0.3-0.08c0.28,0.02-0.05-0.05-0.09-0.09l0.21,0.03
							c0.25-0.06-0.41-0.09-0.15-0.13l0.25,0.07l-0.02-0.05l0.23,0.04c-0.12-0.07-0.06-0.07,0.07-0.1
							c-0.17-0.01-0.39-0.04-0.35-0.08c0.16-0.01,0.19,0.03,0.23-0.02c0.12,0.02,0.28,0.05,0.04,0.05c0.06,0.01,0.12,0.02,0.19,0.03
							c0.19-0.01,0.13-0.07,0.16-0.09c-0.02,0.01-0.04,0.01-0.08,0.02l-0.21-0.09c0.1-0.01,0.16,0,0.21,0.02
							c0-0.02-0.09-0.03-0.08-0.05c0.18,0.01,0.37,0.02,0.41,0.06l-0.1-0.08c0.09,0,0.28-0.03,0.33-0.02
							c0.23-0.04-0.37-0.11-0.29-0.16c-0.04,0-0.08-0.01-0.12-0.02c-0.02-0.05,0.14-0.11-0.19-0.16l0.28-0.06
							c-0.14-0.04-0.34,0.08-0.57,0.02c-0.17-0.04,0.24-0.05,0.31-0.08c-0.2-0.01-0.58-0.01-0.39-0.1
							C300.02,419.99,299.99,420.01,300.04,420.02z M298.79,419.32c0.06,0,0.22-0.02,0.17,0.05
							C298.76,419.46,298.81,419.39,298.79,419.32z M297.45,418.93c0.04-0.04,0.04-0.01,0.02,0.06
							C297.45,418.99,297.44,418.98,297.45,418.93z M297.01,420.62c0,0-0.01,0-0.01-0.01C297.09,420.64,297.05,420.63,297.01,420.62
							z M296.91,420.6l0.1,0.04c-0.06-0.03-0.06-0.03-0.05-0.03C296.9,420.58,296.86,420.57,296.91,420.6z M297.36,420.86l0.06,0.02
							C297.46,420.92,297.41,420.89,297.36,420.86z"/>
						<path d="M297.67,418.8c-0.01,0.03-0.03,0.05-0.04,0.08C297.65,418.86,297.67,418.83,297.67,418.8z"/>
						<polygon points="300.64,420.38 300.64,420.38 300.68,420.38 						"/>
						<path d="M295.06,418.2c0.03,0.01,0.07,0.04,0.11,0.08C295.11,418.22,295.07,418.18,295.06,418.2z"/>
						<path d="M297.32,420.82l-0.06-0.02c0.01,0.01-0.04,0-0.07-0.01C297.23,420.8,297.31,420.82,297.32,420.82z"/>
						<path d="M295.89,420.9c0.03,0.01,0,0.01,0.03,0.02l0.11,0C296.03,420.89,295.94,420.87,295.89,420.9z"/>
						<path d="M296.55,420.68c-0.19-0.03-0.13,0-0.09,0.02l0,0C296.73,420.75,296.64,420.72,296.55,420.68z"/>
						<path d="M296.47,420.71c0.01,0.01,0.01,0.01,0.01,0.02C296.58,420.75,296.5,420.73,296.47,420.71z"/>
						<path d="M297.04,420.68c-0.05-0.01,0.25,0.09,0.17,0.07C297.46,420.85,296.91,420.61,297.04,420.68z"/>
						<polygon points="295.91,420.59 296.15,420.62 295.96,420.57 						"/>
						<path d="M296.09,420.4l-0.07,0.02c0.04,0.01,0.06,0.02,0.08,0.04C296.11,420.44,296.16,420.42,296.09,420.4z"/>
						<path d="M296.1,420.46c0,0.01,0,0.03,0.04,0.04C296.14,420.5,296.13,420.48,296.1,420.46z"/>
						<polygon points="295.84,420.5 295.89,420.5 295.91,420.47 						"/>
						<path d="M296.13,419.96l-0.07-0.09c-0.08-0.06-0.13-0.08-0.1-0.04C296.02,419.88,296.05,419.92,296.13,419.96z"/>
						<path d="M295.49,419.75c0.05,0.01,0.1,0.04,0.18,0.07l-0.29-0.16L295.49,419.75z"/>
						<path d="M295.43,419.52c-0.08-0.06-0.23-0.26-0.21-0.15C295.3,419.43,295.36,419.54,295.43,419.52z"/>
						<polygon points="295.8,418.9 295.8,418.92 296.25,419.42 						"/>
						<path d="M295.01,416.92c-0.19-0.19,0.22,0.37,0.02,0.14c0.08,0.13,0.16,0.18,0.22,0.3
							C295.2,417.24,295.29,417.34,295.01,416.92z"/>
						<path d="M295.25,417.36c0.01,0.02,0.02,0.05,0.04,0.08C295.28,417.41,295.26,417.38,295.25,417.36z"/>
						<polygon points="295.51,421.56 295.43,421.5 295.52,421.61 						"/>
						<path d="M295.59,421.86l-0.14-0.23l0.1,0.22C295.55,421.84,295.55,421.81,295.59,421.86z"/>
						<path d="M298.72,418.8l-0.03,0.04c-0.01,0.06,0.02,0.08,0.07,0.12L298.72,418.8z"/>
						<polygon points="299.93,419.73 299.92,419.72 299.69,419.79 						"/>
						<path d="M300.75,420.07c-0.01-0.02-0.09-0.03-0.1-0.05C300.74,420.05,300.42,420.11,300.75,420.07z"/>
					</g>
				</g>
			</g>
		</g>
	</g>
	<g>
		<g>
			<g>
				<g>
					<g>
						<path d="M292.2,413.56c0.02-0.06-0.13-0.04-0.15-0.05C292.07,413.62,292.24,413.56,292.2,413.56z"/>
						<polygon points="292.5,414.59 292.43,414.57 292.58,414.72 						"/>
						<path d="M292.47,415.55c0.27-0.09-0.04-0.35,0.06-0.52l0.06-0.03l-0.21-0.08C292.41,415.13,292.55,415.4,292.47,415.55z"/>
						<path d="M291.88,416.06c0.11-0.03,0.09,0.11,0.04-0.12c-0.01,0.01-0.02,0.01-0.03,0.02
							C291.89,415.98,291.89,416.01,291.88,416.06z"/>
						<path d="M291.89,415.96C291.89,415.86,291.8,416.03,291.89,415.96L291.89,415.96z"/>
						<path d="M291.94,416.43l-0.09-0.13c-0.06,0.03-0.08,0.15-0.12,0.1C291.77,416.54,291.83,416.51,291.94,416.43z"/>
						<path d="M292.14,416.56l-0.04-0.07C292.07,416.5,292.06,416.52,292.14,416.56z"/>
						<path d="M292.02,416.34l0.08,0.15c0.04-0.02,0.13-0.02-0.03-0.07C292.15,416.43,292.07,416.4,292.02,416.34z"/>
						<path d="M292.06,416.26c0.06-0.07,0.1-0.17,0.19-0.04C292.22,415.97,292.03,416,292.06,416.26z"/>
						<path d="M292.75,415.6l0.08-0.1l-0.09-0.09C292.78,415.45,292.67,415.6,292.75,415.6z"/>
						<path d="M291.78,417.26c0.06,0.01,0.16-0.04,0.23-0.05l-0.07-0.1C291.91,417.16,291.87,417.25,291.78,417.26z"/>
						<path d="M292.01,417.2l0.1,0.15C292.13,417.22,292.08,417.2,292.01,417.2z"/>
						<polygon points="292.44,416.58 292.23,416.34 292.44,416.63 						"/>
						<polygon points="291.77,417.82 291.63,417.74 291.84,417.89 						"/>
						<path d="M291.79,418.19c-0.11-0.06-0.19,0.08-0.26,0.02c0.02,0.1,0.12,0.19,0.2,0.27C291.68,418.4,291.7,418.31,291.79,418.19
							z"/>
						<path d="M291.86,418.61c-0.03-0.04-0.08-0.08-0.13-0.13C291.76,418.52,291.8,418.57,291.86,418.61z"/>
						<path d="M292.08,417.6c-0.04,0.01-0.13,0.03-0.17,0.12l0.17-0.06L292.08,417.6z"/>
						<path d="M292.09,417.66L292.09,417.66c-0.01,0.06-0.01,0.11-0.02,0.13C292.07,417.77,292.08,417.73,292.09,417.66z"/>
						<path d="M292.08,417.59l0,0.01C292.1,417.6,292.1,417.59,292.08,417.59z"/>
						<path d="M292.29,416.97c0.09,0.09,0.19,0.27,0.33,0.09C292.51,417,292.42,417.1,292.29,416.97z"/>
						<path d="M292.29,417.52l0.04-0.16c-0.04,0-0.11,0.03-0.15-0.01L292.29,417.52z"/>
						<polygon points="292.34,417.59 292.29,417.52 292.28,417.57 						"/>
						<path d="M292.02,418.34c0.07,0.07,0.08,0.14,0.09,0.22c0.03-0.09,0.05-0.18,0.05-0.27
							C292.11,418.28,292.01,418.25,292.02,418.34z"/>
						<path d="M292.06,418.01l0.01,0.02C292.09,418.02,292.09,418.01,292.06,418.01z"/>
						<polygon points="292.11,419.39 292.14,419.37 292.11,419.37 						"/>
						<path d="M292.19,418.28c0.03-0.07-0.01-0.11-0.06-0.15c0.02,0.05,0.03,0.1,0.03,0.16C292.18,418.3,292.2,418.3,292.19,418.28z
							"/>
						<path d="M291.94,418.84c0.03-0.04,0.06-0.07,0.09-0.12C291.98,418.76,291.9,418.83,291.94,418.84z"/>
						<path d="M292.03,418.05l-0.01-0.01C291.98,418.06,292,418.06,292.03,418.05z"/>
						<path d="M292.03,418.05c0.02,0.03,0.06,0.06,0.1,0.09c-0.01-0.04-0.03-0.08-0.06-0.11
							C292.06,418.03,292.04,418.04,292.03,418.05z"/>
						<path d="M293.18,419.64c-0.15-0.01-0.3-0.19-0.13-0.34c-0.12-0.15-0.62-0.05-0.91,0.08c0.07,0,0.13,0,0.22,0.16
							c0.08-0.05,0.2-0.34,0.34-0.21c0.08,0.2-0.05,0.17-0.14,0.27c0.19-0.08,0.28,0.26,0.56,0.22l-0.1-0.18
							C293.07,419.62,293.14,419.69,293.18,419.64z"/>
						<path d="M292.15,419.08l-0.02-0.06c-0.03,0.07-0.09,0.12-0.21,0.22c0.08,0.11,0.13,0.13,0.18,0.13l0.02-0.31L292.15,419.08z"
							/>
						<path d="M292.13,418.73c0.17,0.05,0.24,0.2,0.42,0.11c-0.01-0.19-0.14-0.13-0.21-0.24c0.04,0.3-0.09-0.09-0.19,0.13
							c-0.03-0.06-0.04-0.11-0.04-0.16c-0.02,0.05-0.05,0.11-0.08,0.16l0.01-0.01l0,0l0,0c0.02-0.01,0.03-0.02,0.02,0l0,0.01
							C292.09,418.72,292.11,418.73,292.13,418.73c-0.04,0.09-0.04,0.01-0.06-0.01l-0.02,0l0,0l0.09,0.3
							C292.16,418.95,292.15,418.87,292.13,418.73z"/>
						<path d="M292.98,417.22c-0.01,0.01-0.03,0.01-0.04,0.01C292.96,417.25,292.97,417.25,292.98,417.22z"/>
						<path d="M292.88,417.34c-0.02-0.02-0.09-0.04-0.07-0.11c0.05-0.06,0.08,0,0.13,0c-0.04-0.04-0.12-0.15-0.2-0.02l0.02,0.02
							c-0.06,0.12-0.27,0.28-0.29,0.26C292.62,417.45,292.73,417.42,292.88,417.34z"/>
						<path d="M292.55,418.05l0.08,0.25l0.15-0.13l-0.09,0.01C292.72,418.03,292.61,418.06,292.55,418.05z"/>
						<polygon points="292.02,419.42 291.85,419.38 292.1,419.53 						"/>
						<polygon points="292.05,419.74 291.89,419.73 291.99,419.82 						"/>
						<path d="M302.06,421.65l0.05-0.06C302.08,421.61,302.07,421.63,302.06,421.65z"/>
						<path d="M301.59,421.9l0.01,0.05C301.61,421.91,301.61,421.89,301.59,421.9z"/>
						<path d="M292.64,428.58c0.05,0.11,0.12,0.28,0.2,0.07l0.05-0.19C292.76,428.57,292.69,428.59,292.64,428.58z"/>
						<path d="M298.06,424.55l-0.05-0.02c0,0.05,0,0.09-0.01,0.14C298.03,424.64,298.04,424.6,298.06,424.55z"/>
						<path d="M297.88,424.08l0.16,0C298,424.08,297.95,424.07,297.88,424.08z"/>
						<path d="M303.75,420.54l-0.16-0.03C303.57,420.52,303.67,420.53,303.75,420.54z"/>
						<path d="M292.15,423.08c-0.06,0.09-0.09,0.17-0.09,0.23C292.15,423.2,292.28,423.11,292.15,423.08z"/>
						<path d="M302.43,422.73c0.03-0.04,0.04-0.07,0.02-0.09C302.42,422.68,302.41,422.71,302.43,422.73z"/>
						<path d="M292.06,423.58c0.02-0.02,0.02-0.03,0.04-0.05c-0.03-0.07-0.05-0.14-0.04-0.22
							C291.99,423.4,291.95,423.49,292.06,423.58z"/>
						<path d="M296.15,416.09c-0.01-0.01-0.01-0.01-0.01-0.02C296.12,416.08,296.13,416.08,296.15,416.09z"/>
						<path d="M294.12,413.42c0.03,0.01,0.07,0.03,0.11,0.06C294.21,413.46,294.18,413.44,294.12,413.42z"/>
						<path d="M291.99,421.06C291.98,420.99,291.97,421.04,291.99,421.06L291.99,421.06z"/>
						<path d="M292.64,420.72c0.02,0.01,0.04,0.03,0.08,0.03C292.69,420.74,292.66,420.73,292.64,420.72z"/>
						<path d="M293.06,424.27L293.06,424.27C293.09,424.26,293.08,424.26,293.06,424.27z"/>
						<path d="M292.06,420.95c-0.02,0.03-0.04,0.06-0.05,0.09C292.03,421.03,292.04,421,292.06,420.95z"/>
						<path d="M291.99,420.96c0.01-0.03,0.01-0.04,0.02-0.06C291.97,420.9,291.96,420.9,291.99,420.96z"/>
						<path d="M292,421.15c0-0.04,0-0.08,0.02-0.11c-0.01,0.01-0.02,0.02-0.03,0.02C291.99,421.08,291.99,421.1,292,421.15z"/>
						<path d="M301.26,418.56c0-0.01,0-0.01-0.01-0.02C301.17,418.55,301.2,418.56,301.26,418.56z"/>
						<polygon points="294.59,425.83 294.59,425.84 294.6,425.84 						"/>
						<path d="M294.73,425.64c-0.01,0.19-0.09,0.22-0.13,0.2c0.07,0.11,0.15,0.22,0.23,0.32L294.73,425.64z"/>
						<path d="M303.16,421l-0.2,0c0.11-0.24,0.27-0.26,0.06-0.3c0.14,0.29-0.58,0.36-0.44,0.65l-0.13,0
							c0.03-0.01,0.03-0.03,0.06-0.05c-0.27-0.03-0.03,0.29-0.3,0.39c-0.1,0.03-0.19,0.02-0.14-0.05l-0.16,0.18
							c-0.06,0.03-0.07-0.03-0.01-0.06l-0.29,0.19l0-0.01c-0.02,0.07-0.07,0.19-0.1,0.25c-0.1,0,0.02-0.05-0.02-0.08l-0.12,0.16
							c-0.11-0.04-0.02-0.19,0.11-0.24c-0.32-0.21-0.1,0.15-0.53,0.16l0.14-0.12c-0.2-0.11-0.28,0.02-0.52,0.01
							c0.07,0.03,0.5,0.07,0.37,0.24c-0.06,0.01-0.14,0.03-0.2,0.14c-0.06-0.11-0.14-0.03-0.26,0.04l-0.07-0.15
							c-0.11,0.11-0.05,0.18-0.09,0.28c-0.15,0.06-0.24-0.03-0.33-0.1c-0.24,0.1,0.26,0.09,0,0.27c-0.22,0.05-0.32,0.18-0.5,0.39
							c-0.16,0.02-0.03-0.1-0.1-0.12l-0.05,0.18c-0.03,0.01-0.04-0.03-0.05-0.05c-0.07,0.1,0.07,0.15-0.06,0.28
							c0.05,0.19-0.46-0.06-0.54,0.23c-0.07-0.02-0.03-0.1-0.08-0.15c-0.2,0.27-0.18,0.21-0.3,0.5l-0.24,0
							c0.2,0.04,0.1,0.27,0.02,0.47c0.08,0.03,0.15,0.05,0.19,0.06l-0.19,0.22c-0.04-0.01-0.05-0.08-0.05-0.16l-0.02,0.06
							c-0.12-0.01-0.13-0.12-0.11-0.24c0.05,0.01,0.09,0.03,0.14,0.05c0.01-0.13,0-0.26-0.06-0.35c-0.01,0.03-0.03,0.06-0.06,0.09
							c0-0.03,0-0.06-0.02-0.07c-0.02-0.01-0.02,0.04-0.04,0.1l-0.15-0.14l0.03,0.08l-0.38,0.07c-0.13,0.3-0.18,0.67-0.49,0.95
							c0.01-0.18-0.1-0.23-0.19-0.39c0.19,0.11,0.24-0.22,0.45-0.29c-0.11,0.04-0.13-0.05-0.12-0.09l-0.25,0.33
							c-0.06-0.13-0.13-0.06-0.24-0.06c0.21,0.22-0.15,0.31-0.24,0.46c-0.06-0.08-0.08-0.19,0.1-0.26
							c-0.29-0.09-0.07,0.43-0.34,0.37c0.04-0.02,0.07-0.02,0.06-0.08c-0.05,0.13-0.32,0.2-0.31,0.09l0.04-0.02
							c-0.29,0.12-0.82,0.45-0.73,0.7c-0.02-0.03-0.12-0.3-0.13-0.35c-0.03,0.35,0.01,0.67-0.08,1.07c-0.06-0.23-0.33-0.7-0.26-0.89
							c-0.05-0.01-0.09-0.03-0.14,0.09c0.02,0.02,0.15,0.29,0.11,0.34c-0.17-0.19-0.12-0.09-0.25-0.26c0.04,0.03,0,0.46-0.09,0.5
							c0.02-0.07,0.03-0.42,0.05-0.47c-0.05,0.16-0.13,0.34-0.23,0.53c0.07-0.11,0.08-0.38,0.09-0.5c-0.01,0.09-0.1,0.04-0.15,0.11
							c0,0.03,0.01,0.06,0.01,0.09c-0.11-0.01-0.48,0.84-0.76,0.98c0.11-0.15,0.46-0.78,0.43-0.82c-0.27,0.47-0.97,1.36-1.13,1.11
							l0.11-0.21c-0.04-0.04-0.09-0.09-0.13-0.15c0.15-0.06,0.38-0.15,0.6-0.31c0.22-0.15,0.43-0.38,0.55-0.52
							c0.09-0.2,0.13-0.22,0.13-0.29c0.11-0.17,0.16-0.19,0.16-0.19l0.08-0.21c-0.23,0.3-0.22,0.15-0.42,0.34
							c0.08,0.01,0.15-0.01,0.23-0.05c-0.23,0.35-0.65,0.67-0.6,0.33c0.09-0.14,0.41-0.33,0.49-0.42c-0.08,0.06-0.15-0.03-0.09-0.08
							c0.04-0.01,0.08-0.02,0.12-0.03c0.09-0.11-0.31,0.06-0.08-0.17c0.02-0.05,0.31-0.19,0.17-0.15c-0.27,0.1-1.1,0.46-1.31,0.41
							c0.02-0.05,0.25-0.54,0.39-0.59c0.21-0.11,0.51,0.16,0.69,0.07c-0.07,0.01-0.14-0.07-0.17-0.09c0.06-0.07,0.2,0.03,0.17-0.13
							c-0.24-0.03,0.02-0.33-0.2-0.08c-0.07-0.16,0.05-0.17,0.04-0.35c-0.16,0.06-0.54-0.17-0.61-0.33
							c0.06,0.01,0.14-0.03,0.18-0.04c0.02-0.32,0.14-0.5,0.14-0.8c0.06-0.03,0.14-0.17,0.24-0.11c-0.04-0.04-0.13-0.08-0.14-0.18
							c0.22-0.18,0.03,0.21,0.3,0.07c-0.15-0.01-0.2-0.24-0.29-0.37c-0.23,0.04-0.04,0.31,0.05,0.44c-0.31,0-0.64-0.23-0.79-0.55
							c-0.08-0.25,0.2-0.11,0.16-0.15c0.05-0.47-0.56-0.4-0.33-0.79c0.2-0.16,0.41-0.01,0.55-0.04c0.08,0.2-0.13,0.31-0.12,0.45
							l0.1-0.17c0.07,0.07,0.12,0.2,0.06,0.28c0.18-0.13,0.03-0.8,0.21-1.16c-0.07-0.06-0.14-0.18-0.22-0.12l0.03,0.12
							c-0.17,0.11-0.23-0.22-0.31-0.07c-0.12-0.15-0.3-0.33-0.21-0.55l0.24-0.04c-0.07,0-0.14,0.14-0.07,0.2
							c-0.11-0.09,0.32-0.33,0.01-0.43l-0.16,0.15c-0.12-0.16-0.37-0.35-0.3-0.54c-0.23,0.09,0.03,0.04-0.25,0.18
							c0.34-0.12-0.01,0.49,0.35,0.3c-0.32,0.14-0.13,0.24-0.4,0.43c0.08-0.01,0.15-0.07,0.11,0.1c0.02,0.01,0.05,0.02,0.07,0.04
							c0,0,0,0.01-0.01,0.01l0.01-0.01c0.01,0.01,0.01,0.01,0,0c0.03-0.04,0.07-0.07,0.12-0.08c0.18,0.08,0.18,0.34,0.27,0.42
							c-0.04,0.1-0.09-0.04-0.17,0.01l0.14,0.13c-0.17,0.01-0.28,0.26-0.38,0.03l0,0.2c-0.09,0.12-0.13,0.28-0.06,0.39
							c-0.04,0.1,0.19,0.24,0.06,0.16l0.11,0.32l-0.04,0c-0.02,0.32,0.29,0.65-0.01,1.01c0.04,0.11,0.1,0.22,0.05,0.39l-0.14,0.03
							c0.05,0.14-0.13,0.41,0.02,0.47c-0.37,0.16-0.07,0.62-0.13,0.94l0.18,0.01c-0.01,0.28,0.05,0.55,0.12,0.86l0.16-0.09
							c0.13,0.19-0.1,0.76-0.08,1.19c-0.06,0.03-0.05-0.1-0.01-0.21c-0.17,0.42-0.1,0.67-0.02,0.84c0.09,0.17,0.15,0.31,0.06,0.69
							c0.16-0.15,0.21-0.16,0.25-0.14c-0.01,0.01-0.02,0.02-0.03,0.03c0.01-0.01,0.03-0.01,0.04-0.02c0.02,0.02,0.05,0.04,0.08,0.04
							c-0.02-0.03-0.03-0.06-0.06-0.06c0.08-0.05,0.22-0.15,0.36-0.27l-0.06,0.21c0.01-0.01,0.02-0.01,0.03-0.02
							c0.09,0.02,0.14-0.16,0.16-0.31c0.07-0.07,0.14-0.15,0.2-0.22c-0.05,0.31,0.32-0.28,0.33,0.03c0.13-0.22,0.61-0.47,0.67-0.81
							c0,0.04,0.03,0.04-0.02,0.08c0.11-0.03,0.23-0.06,0.32-0.2l0.08,0.18c0.07-0.14,0.13-0.28,0.18-0.41
							c0.18,0.03,0.29,0.04,0.18,0.28c0.16-0.22,0.2-0.27,0.24-0.32c0.04-0.05,0.07-0.09,0.13-0.25l0.05,0.11
							c0.08-0.05,0.13-0.27,0.22-0.21c0.29,0.09,0.91-0.49,1.47-0.59c-0.26-0.24,0.29,0,0.18-0.23c0.07,0.05,0.15,0.05,0.11,0.16
							c0.2-0.21,0.41-0.1,0.47-0.39c0.07,0.05,0.01,0.13,0.05,0.16c0.01-0.03,0.04-0.1,0.09-0.08c0.05,0.03,0,0.08-0.02,0.13
							c0.23-0.16,0.14-0.38,0.05-0.58c0.17,0.02,0.23-0.03,0.24-0.21c0.08,0.04,0.19,0.06,0.05,0.17c0.09-0.04,0.57-0.21,0.49-0.37
							c0.05,0.02,0.12-0.06,0.14-0.09c0.19-0.1,0.22-0.1,0.4-0.22l-0.07,0.01c-0.03-0.22,0.13-0.13,0.27-0.24l0.01,0.02
							c0.42-0.07,0.11-0.15,0.53-0.2l-0.08-0.1c-0.1-0.25,0.38-0.04,0.52-0.24l-0.11-0.02c0.06-0.14,0.48,0.14,0.6,0.1
							c0.03,0.01-0.02,0.05-0.04,0.09c0.36-0.03-0.04-0.16,0.15-0.32c0.08,0.05,0.06,0.22,0.21,0.15c0.1,0.02,0.27-0.48,0.55-0.45
							c-0.07-0.03-0.15-0.06-0.08-0.16c0.14-0.11,0.53-0.02,0.56-0.28c0.03,0,0.04,0.01,0.05,0.03c0.09-0.11,0.33-0.29,0.35-0.42
							c0.3,0.29,0.62-0.58,0.8-0.26l0.34-0.22l0.01,0.04c0.1-0.04,0.24-0.14,0.3-0.21c0.07-0.07,0.09-0.14,0.11-0.2
							c0.09-0.02,0.07,0.03,0.08,0.05c0.52-0.22,0.63-0.29,0.71-0.55l0.21,0.01c0-0.04,0.22-0.12,0.5-0.24
							c0.07-0.03,0.14-0.07,0.21-0.1l0.1-0.05c0.04-0.02-0.04-0.04-0.05-0.05c-0.11-0.07-0.26-0.15-0.43-0.21
							c0.03,0,0.07,0,0.14,0.02c-0.38-0.14-0.54-0.34-0.8-0.53c-0.24-0.19-0.52-0.36-0.76-0.25c-0.13-0.03-0.28-0.08-0.37-0.09
							c0.34,0.23-0.15,0.12-0.04,0.27c-0.14-0.05-0.25-0.29-0.09-0.23l0.01,0.03c0.16-0.16-0.35-0.29-0.26-0.42
							c-0.62-0.34-1.15-0.79-1.72-1.13l-0.02,0.19l-0.19-0.12c-0.03-0.07,0-0.16,0.14-0.07c-0.03-0.13-0.28-0.07-0.3-0.03
							c-0.24-0.22,0.21-0.12,0.13-0.17l-0.12-0.06l0.02,0.03c-0.13,0.01-0.18,0.07-0.34-0.04c-0.09-0.09,0-0.13-0.04-0.16
							c0.01-0.01,0-0.02-0.06-0.04l-0.24-0.16l0.03,0.18c-0.15,0-0.23-0.14-0.2,0.06c-0.05-0.31-0.89-0.62-0.96-0.75
							c-0.21,0-0.36-0.09-0.55-0.21c0.03,0.05-0.02,0.22-0.18,0.1c0.23-0.26-0.23-0.3-0.24-0.6c0.04,0.21-0.49-0.24-0.42,0.08
							c-0.12-0.1,0.06-0.12-0.01-0.25c-0.39-0.07-0.67-0.5-1.09-0.7c-0.03,0.04,0,0.14-0.12,0.16l-0.09-0.34
							c-0.09-0.03-0.21,0.2-0.27-0.03c0,0.05,0,0.12-0.06,0.1c-0.66-0.69-1.72-0.76-2.26-1.68c0.05,0.16-0.02,0.13-0.11,0.08
							c0.04,0.06-0.07,0.12-0.1,0.19l-0.23-0.39c-0.17,0.15-0.36-0.21-0.5-0.04l0.12,0.03c-0.27,0.14-0.08,0.6-0.25,0.86
							c0.3-0.15,0.23,0.58,0.68,0.38c0.03,0.09-0.1,0.06-0.1,0.14c0.13-0.08,0.23-0.06,0.35,0.07l-0.03,0.02
							c0.44,0.2,0.56,0.41,0.99,0.73l0.03-0.14c0.09,0.07,0.09,0.12,0.12,0.18c0.22-0.12-0.28-0.16-0.06-0.31
							c-0.01,0.32,0.71,0.4,0.65,0.72c0.16,0.09,0.03-0.16,0.19-0.07l0,0.1l0.09-0.07c0.09,0.07,0.09,0.19,0.06,0.25
							c-0.02-0.02-0.08-0.02-0.11-0.03c0.09,0.16,0.39,0.17,0.42,0.22l-0.13-0.12c0.47,0.16,0.93,0.54,1.43,0.62l0-0.07
							c0.37,0.08,0.22,0.19,0.59,0.34l-0.02,0.01c0.1-0.01,0.2,0.01,0.29,0.07c-0.12,0.01,0.1,0.2-0.05,0.21
							c0.4,0.09,0.21,0.02,0.54-0.04l0.01,0.11c0.12-0.03,0.15-0.07,0.33,0.01c-0.18-0.01,0.04,0.18-0.17,0.19
							c0.26,0.38,0.64,0.12,0.66,0.47c0.29-0.13-0.24-0.3-0.12-0.29c-0.04-0.12,0.23-0.09,0.33,0c0.11,0.07,0.04,0.39,0.33,0.55
							c-0.03-0.02-0.04,0-0.07-0.02c0.08,0.12,0.25,0.04,0.34,0.21c0.15-0.09,0.17,0.1,0.28-0.05l-0.29-0.11
							c0.18,0.04,0.43-0.07,0.62,0.16c-0.04,0.02-0.14,0.02-0.2,0.02c0.04,0.09,0.16,0.05,0.2,0.14c-0.12,0.15-0.34-0.14-0.58-0.11
							c0.04,0.11,0.37,0.05,0.19,0.18c0.25-0.16,0.27,0.19,0.56,0.12l-0.07,0.09c0.04,0,0.13-0.01,0.19,0.03l-0.18,0.07
							c0.22-0.02,0.25,0.27,0.44,0.29c-0.32-0.18,0-0.16-0.1-0.31c0.47,0.09,0.08,0.38,0.55,0.58c-0.07-0.02-0.19-0.18-0.07-0.18
							c0.07,0.07,0.16,0.17,0.18,0.25c0.3,0.14,0.01-0.13,0.17-0.12c0.03,0.17,0.17,0.03,0.32,0.07l-0.06,0.1
							c0.29,0.25,0.21-0.16,0.46,0.09l-0.2,0.07l0.18,0.05l-0.1,0.09c0.23,0.02,0.24,0.06,0.27,0.12c0.04-0.07,0.16-0.15,0.25-0.1
							c-0.01,0.08-0.13,0.05-0.01,0.11c-0.1,0.02-0.2,0.07-0.14-0.02c-0.04,0.02-0.08,0.04-0.11,0.06
							c-0.04,0.08,0.06,0.07,0.09,0.09c0-0.01-0.01-0.02,0.01-0.03c0.09-0.01,0.2,0,0.33,0c-0.04,0.03-0.11,0.03-0.17,0.04
							c0.04,0.01,0.14,0,0.2,0.02c-0.16,0.02-0.32,0.05-0.41,0.05c0.07,0,0.15,0,0.25,0.02c-0.06,0.01-0.17,0.04-0.24,0.04
							c-0.05,0.01,0.09,0.01,0.14,0.03c0.06,0.01,0.1,0.05,0,0.05c0.03,0.01,0.05,0.01,0.05,0.03c-0.12,0.04-0.27,0-0.21,0.12
							c-0.06-0.03-0.12-0.06-0.17-0.09c-0.02,0.06,0.22,0.11,0.15,0.24c-0.03,0.05-0.07,0.03-0.1-0.01c-0.03-0.04-0.04-0.1-0.09-0.1
							c-0.07,0.13-0.17,0.39-0.44,0.38C303.04,421.05,303.1,421.05,303.16,421z M300.92,422.33c0.03-0.05,0.08-0.16,0.15-0.12
							C301.08,422.36,301.01,422.33,300.92,422.33z M297.6,424.52c0.01-0.06,0.07-0.07,0.16-0.05
							C297.72,424.5,297.67,424.52,297.6,424.52z M292.15,421.81L292.15,421.81C292.09,421.93,292.12,421.89,292.15,421.81z
							 M292.23,421.58c-0.03-0.02-0.05-0.02-0.08-0.01c0.05,0.02,0.05,0.07,0.04,0.13C292.23,421.68,292.27,421.65,292.23,421.58z
							 M301.01,417.51l0.02,0.05C300.93,417.54,300.97,417.52,301.01,417.51z"/>
						<path d="M297.9,424.14c0.02,0.01,0.04,0.03,0.05,0.05C297.96,424.16,297.95,424.14,297.9,424.14z"/>
						<polygon points="303.78,420.55 303.78,420.55 303.75,420.54 						"/>
						<path d="M293.73,425.21c-0.03,0.05-0.06,0.08-0.09,0.09C293.68,425.3,293.72,425.28,293.73,425.21z"/>
						<path d="M291.9,420.34l0.05,0.15c-0.01-0.07,0.03-0.1,0.06-0.14C291.96,420.36,291.9,420.39,291.9,420.34z"/>
						<path d="M293.05,419.04c-0.02-0.02,0-0.05-0.03-0.07l-0.09,0.01C292.94,419.07,293.01,419.13,293.05,419.04z"/>
						<path d="M292.51,420.2c0.16-0.01,0.1-0.11,0.07-0.21c0,0.01,0,0.01,0,0.02C292.37,419.98,292.44,420.09,292.51,420.2z"/>
						<path d="M292.58,419.96c-0.01-0.03-0.01-0.07,0-0.1C292.49,419.86,292.56,419.91,292.58,419.96z"/>
						<path d="M292.12,421.28c0.04-0.05-0.2-0.03-0.14-0.06C291.79,421.17,292.23,421.56,292.12,421.28z"/>
						<polygon points="293.03,420.12 292.84,420.15 292.99,420.21 						"/>
						<path d="M292.89,420.94l0.05-0.17c-0.03,0-0.05-0.02-0.07-0.04C292.87,420.83,292.83,420.95,292.89,420.94z"/>
						<path d="M292.88,420.73c0-0.05,0-0.11-0.03-0.14C292.85,420.63,292.85,420.69,292.88,420.73z"/>
						<polygon points="293.09,420.34 293.05,420.39 293.04,420.51 						"/>
						<path d="M292.86,422.75l0.05,0.18c0.06,0.02,0.1-0.03,0.08-0.1C292.95,422.79,292.92,422.72,292.86,422.75z"/>
						<path d="M293.37,422.19c-0.04,0.05-0.08,0.05-0.14,0.08l0.23,0.01L293.37,422.19z"/>
						<path d="M293.43,422.73c0.06,0.02,0.18,0.27,0.17,0.03C293.53,422.74,293.48,422.56,293.43,422.73z"/>
						<polygon points="293.13,425.47 293.12,425.43 292.76,425.48 						"/>
						<path d="M294.06,425.88c0.01-0.1-0.17,0.32-0.15,0.2c-0.09,0.14-0.01,0.1-0.08,0.22C293.95,426.14,293.93,426.2,294.06,425.88
							z"/>
						<path d="M293.82,426.29c-0.02,0.03-0.04,0.06-0.07,0.1C293.79,426.35,293.81,426.32,293.82,426.29z"/>
						<polygon points="293.77,412.99 293.69,412.86 293.71,413.01 						"/>
						<path d="M293.42,413.07l0.08-0.21l-0.17,0.13C293.36,413,293.42,413.02,293.42,413.07z"/>
						<path d="M300.41,422.23l0.01,0.04c0.04,0.03,0.07,0.01,0.13-0.01L300.41,422.23z"/>
						<polygon points="302.13,421.43 302.1,421.44 302.23,421.54 						"/>
						<path d="M303.38,420.53c0.03-0.02-0.06,0.06-0.11,0.09C303.4,420.51,303.47,420.68,303.38,420.53z"/>
					</g>
				</g>
			</g>
		</g>
	</g>
	<g id="XMLID_95_">
		<g>
			<g id="XMLID_00000167382147284476927990000000476692144804906648_">
				<path d="M320.28,409.13c-0.54-2.03-2.13-3.62-4.15-4.17c-3.65-0.98-18.3-0.98-18.3-0.98s-14.66,0-18.31,0.98
					c-2.02,0.55-3.61,2.14-4.15,4.17c-0.98,3.68-0.98,11.36-0.98,11.36s0,7.67,0.98,11.35c0.54,2.03,2.13,3.63,4.15,4.17
					c3.65,0.99,18.31,0.99,18.31,0.99s14.65,0,18.3-0.99c2.02-0.54,3.61-2.14,4.15-4.17c0.98-3.68,0.98-11.35,0.98-11.35
					S321.25,412.8,320.28,409.13z M293.03,427.44v-13.93l12.25,6.97L293.03,427.44z"/>
				<g>
					<path class="st0" d="M320.28,409.13c-0.54-2.03-2.13-3.62-4.15-4.17c-3.65-0.98-18.3-0.98-18.3-0.98s-14.66,0-18.31,0.98
						c-2.02,0.55-3.61,2.14-4.15,4.17c-0.98,3.68-0.98,11.36-0.98,11.36s0,7.67,0.98,11.35c0.54,2.03,2.13,3.63,4.15,4.17
						c3.65,0.99,18.31,0.99,18.31,0.99s14.65,0,18.3-0.99c2.02-0.54,3.61-2.14,4.15-4.17c0.98-3.68,0.98-11.35,0.98-11.35
						S321.25,412.8,320.28,409.13z M293.03,427.44v-13.93l12.25,6.97L293.03,427.44z"/>
					<g>
						<g>
							<g>
								<path d="M320.2,409.32c-0.05-0.21-0.05-0.13-0.06-0.16C320.23,409.5,320.2,409.31,320.2,409.32z"/>
								<polygon points="320.8,412.75 320.79,412.69 320.86,413.2 								"/>
								<path d="M321.05,416.01c0.02-0.31-0.07-1.18-0.11-1.77l0-0.1l-0.05-0.26C320.96,414.6,321.03,415.51,321.05,416.01z"/>
								<path d="M321.05,417.76c0.01-0.11,0.03,0.38-0.01-0.41c0,0.04,0,0.05,0,0.07C321.04,417.5,321.05,417.59,321.05,417.76z"/>
								<path d="M321.04,417.43C321.03,417.08,321.04,417.65,321.04,417.43L321.04,417.43z"/>
								<path d="M321.1,419.01l-0.02-0.45c-0.01,0.09,0,0.5-0.01,0.35C321.08,419.38,321.09,419.28,321.1,419.01z"/>
								<path d="M321.13,419.44l-0.01-0.23C321.12,419.25,321.12,419.31,321.13,419.44z"/>
								<path d="M321.1,418.71l0.02,0.5c0-0.07,0.01-0.07-0.01-0.23C321.12,419.02,321.11,418.92,321.1,418.71z"/>
								<path d="M321.1,418.43c0-0.25-0.01-0.58,0.02-0.13C321.09,417.43,321.07,417.56,321.1,418.43z"/>
								<path d="M321.1,416.18l-0.01-0.34l-0.03-0.29C321.07,415.69,321.09,416.2,321.1,416.18z"/>
								<path d="M321.08,421.84c0.01,0.03,0.02-0.15,0.03-0.19l0-0.34C321.1,421.49,321.09,421.82,321.08,421.84z"/>
								<path d="M321.11,421.65l0,0.5C321.13,421.71,321.12,421.62,321.11,421.65z"/>
								<polygon points="321.17,419.52 321.13,418.7 321.17,419.68 								"/>
								<polygon points="321.02,423.75 321.02,423.47 321.02,423.97 								"/>
								<path d="M320.97,425.02c0-0.21-0.04,0.29-0.04,0.06c-0.01,0.3-0.02,0.61-0.03,0.9C320.92,425.7,320.94,425.45,320.97,425.02
									z"/>
								<path d="M320.88,426.43c0-0.13,0.01-0.28,0.02-0.45C320.9,426.12,320.89,426.26,320.88,426.43z"/>
								<path d="M321.09,423.01c-0.01,0.04-0.02,0.11-0.03,0.39l0.03-0.2C321.08,423.14,321.09,423.08,321.09,423.01z"/>
								<path d="M321.08,423.2L321.08,423.2c-0.01,0.22-0.02,0.37-0.02,0.43C321.07,423.58,321.07,423.45,321.08,423.2z"/>
								<path d="M321.09,422.96c0,0.02,0,0.03,0,0.05C321.09,422.99,321.09,422.98,321.09,422.96z"/>
								<path d="M321.16,420.84c0.01,0.29,0.01,0.91,0.04,0.31C321.19,420.94,321.17,421.28,321.16,420.84z"/>
								<path d="M321.12,422.71l0.02-0.53c-0.01,0.01-0.02,0.11-0.02-0.04L321.12,422.71z"/>
								<polygon points="321.12,422.97 321.12,422.71 321.12,422.91 								"/>
								<path d="M320.96,425.52c0,0.23-0.02,0.48-0.04,0.76c0.02-0.31,0.04-0.62,0.07-0.92
									C320.99,425.33,320.98,425.2,320.96,425.52z"/>
								<path d="M321.03,424.39l0,0.05C321.03,424.41,321.03,424.39,321.03,424.39z"/>
								<polygon points="320.66,429.07 320.67,429.03 320.66,429.02 								"/>
								<path d="M321,425.32c0.02-0.23,0.02-0.37,0.02-0.5c-0.01,0.17-0.02,0.35-0.03,0.55C320.99,425.39,320.99,425.4,321,425.32z"
									/>
								<path d="M320.83,427.21c0.01-0.13,0.03-0.26,0.04-0.39C320.86,426.93,320.83,427.17,320.83,427.21z"/>
								<path d="M321.02,424.52l0-0.03C321.01,424.56,321.02,424.55,321.02,424.52z"/>
								<path d="M321.02,424.52l0,0.3c0-0.13,0.01-0.26,0.01-0.38C321.03,424.47,321.02,424.5,321.02,424.52z"/>
								<path d="M320.67,429.93c-0.01-0.04,0.06-0.64,0.14-1.16c0.05-0.51-0.05-0.18-0.14,0.25c0,0.02,0.02,0.02-0.04,0.54
									c0.04-0.18,0.17-1.15,0.13-0.71c-0.07,0.69-0.08,0.57-0.14,0.9c0.07-0.28-0.1,0.88-0.05,0.74c0.04-0.2,0.06-0.4,0.09-0.61
									C320.66,429.88,320.64,430.1,320.67,429.93z"/>
								<path d="M320.78,428.03l0.02-0.22c-0.03,0.2-0.05,0.38-0.1,0.74c-0.03,0.36-0.04,0.43-0.03,0.46
									c0.05-0.35,0.09-0.7,0.12-1.06L320.78,428.03z"/>
								<path d="M320.89,426.85c0.01,0.17-0.03,0.69,0.02,0.37c0.05-0.63,0.02-0.45,0.04-0.82
									C320.87,427.42,320.96,426.1,320.89,426.85c0.02-0.22,0.03-0.39,0.04-0.56c-0.02,0.18-0.03,0.35-0.05,0.53l0-0.02l0,0l0,0
									c0.01-0.04,0.01-0.06,0-0.01c0,0.01,0,0.02,0,0.02C320.88,426.81,320.89,426.83,320.89,426.85c-0.03,0.3-0.01,0.05,0-0.05
									l0-0.01l0,0l-0.08,1.02C320.82,427.59,320.84,427.33,320.89,426.85z"/>
								<path d="M321.23,421.7c0,0.03-0.01,0.03-0.01,0.03C321.23,421.8,321.23,421.83,321.23,421.7z"/>
								<path d="M321.21,422.13c0-0.07-0.01-0.14,0-0.38c0.01-0.21,0.01,0,0.02-0.01c0-0.15-0.01-0.51-0.02-0.05l0,0.07
									c-0.02,0.41-0.06,0.94-0.06,0.87C321.17,422.51,321.19,422.4,321.21,422.13z"/>
								<path d="M321.08,424.52l-0.04,0.86l0.04-0.43l-0.01,0.02C321.11,424.48,321.09,424.58,321.08,424.52z"/>
								<polygon points="320.64,429.17 320.63,429.05 320.59,429.54 								"/>
								<polygon points="320.48,430.26 320.47,430.22 320.43,430.51 								"/>
								<path d="M274.29,419.67l0-0.25C274.29,419.53,274.29,419.61,274.29,419.67z"/>
								<path d="M274.3,421.5l0.01,0.04C274.3,421.46,274.3,421.42,274.3,421.5z"/>
								<path d="M296.58,436.86c-0.37-0.02-0.78-0.05-0.73-0.03l0.11,0.02C296.22,436.85,296.39,436.86,296.58,436.86z"/>
								<path d="M278.04,435.37l0.09,0.06c0.08,0.04,0.16,0.07,0.23,0.1C278.26,435.48,278.14,435.43,278.04,435.37z"/>
								<path d="M277.77,435.3c-0.13-0.1-0.26-0.19-0.39-0.3C277.46,435.07,277.59,435.17,277.77,435.3z"/>
								<path d="M275.1,409.74l0.05-0.29C275.04,409.9,275.09,409.7,275.1,409.74z"/>
								<path d="M312.49,436.39c-0.34,0.02-0.58,0.04-0.79,0.05C312.08,436.42,312.39,436.41,312.49,436.39z"/>
								<path d="M274.51,420.39c0-0.15-0.01-0.22-0.01-0.21C274.5,420.33,274.5,420.42,274.51,420.39z"/>
								<path d="M310.79,436.5c0.06,0,0.11,0,0.17-0.01c0.24-0.02,0.47-0.03,0.74-0.05C311.42,436.45,311.1,436.47,310.79,436.5z"/>
								<path d="M308.76,404.1l0.08,0.01C308.85,404.11,308.81,404.11,308.76,404.1z"/>
								<path d="M318.71,406.57c-0.08-0.07-0.2-0.18-0.31-0.29C318.45,406.33,318.54,406.42,318.71,406.57z"/>
								<path d="M318.78,434.25C318.94,434.08,318.81,434.22,318.78,434.25L318.78,434.25z"/>
								<path d="M319.54,433.4c-0.02,0.04-0.04,0.08-0.04,0.08C319.5,433.47,319.52,433.44,319.54,433.4z"/>
								<path d="M308.45,436.76l-0.02,0C308.5,436.76,308.49,436.76,308.45,436.76z"/>
								<path d="M319.02,433.99c-0.06,0.07-0.12,0.14-0.2,0.22C318.86,434.18,318.92,434.12,319.02,433.99z"/>
								<path d="M318.98,434.02c0.05-0.06,0.09-0.11,0.13-0.15C319.13,433.84,319.11,433.86,318.98,434.02z"/>
								<path d="M318.56,434.48c0.1-0.09,0.18-0.18,0.26-0.27c-0.03,0.03-0.05,0.05-0.04,0.04
									C318.74,434.3,318.68,434.37,318.56,434.48z"/>
								<path d="M289.42,404.06c0.02,0,0.03,0,0.05,0C289.71,404.05,289.6,404.05,289.42,404.06z"/>
								<polygon points="290.43,436.97 290.46,436.97 290.42,436.97 								"/>
								<path d="M289.58,436.96c0.36-0.01,0.57,0,0.84,0.01l-0.28-0.07L289.58,436.96z"/>
								<path d="M274.45,415.3l-0.05,0.59c0.01-0.72,0.06-1.24-0.01-0.68c0.05,0.09-0.12,2.32-0.05,2.4l-0.03,0.39
									c0-0.11,0-0.13,0.01-0.24c-0.05,0.76,0.03,0.57,0,1.55c-0.01,0.34-0.02,0.58-0.03,0.35l0.01,0.77
									c0,0.22-0.01,0.17-0.01-0.05l0.02,1.17l0-0.01c0.01,0.2,0.04,0.56,0.05,0.73c0,0.3-0.01-0.15-0.02-0.07l0.03,0.64
									c-0.01,0.26-0.04-0.27-0.05-0.72c-0.05,0.6,0.03,0.54,0.04,1.84l-0.03-0.61c-0.02,0.39,0.01,0.87,0.02,1.56
									c0-0.16-0.01-1.38,0.04-0.68c0.01,0.2,0.01,0.46,0.05,0.83c-0.02,0,0,0.37,0.03,0.83l-0.03-0.03
									c0.04,0.5,0.06,0.46,0.09,0.75c0.04,0.56,0.03,0.67,0.02,0.81c0.08,0.89-0.02-0.62,0.09,0.43c0.06,0.74,0.13,1.26,0.28,2.13
									c0.07,0.52-0.03-0.09-0.01,0.1c0.03,0.15,0.06,0.3,0.1,0.45c0.02,0.11,0.01,0.08,0,0.06c0.08,0.38,0.03,0.03,0.16,0.62
									c0.07,0.14,0.21,1.26,0.65,1.91c0.08,0.17-0.06-0.07-0.04-0.02c0.55,0.89,0.49,0.76,1.08,1.38c0.17,0.18,0.34,0.34,0.53,0.5
									c-0.4-0.37,0.13,0.08,0.66,0.36c-0.15-0.11-0.28-0.2-0.37-0.27c0.26,0.18,0.53,0.33,0.82,0.47c0.1,0.05,0.01,0.03-0.13-0.04
									c0.06,0.03,0.11,0.06,0.16,0.07c0.3,0.15,0.14,0.1-0.09,0.01c-0.1-0.06-0.2-0.12-0.29-0.18c-0.21-0.11-0.41-0.21-0.38-0.17
									c0.07,0.04,0.17,0.1,0.27,0.16c-0.05-0.03-0.09-0.05-0.07-0.03c0.03,0.02,0.11,0.07,0.26,0.14l0.18,0.13l0.05,0.01
									c0.37,0.19,0.77,0.34,1.18,0.45c0.88,0.18,1.66,0.21,3.06,0.35c-0.35-0.01-0.08,0.03-0.1,0.06
									c-0.38-0.08-1.09-0.09-1.81-0.21c0.38,0.06,0.29,0.06,0.2,0.05c0.43,0.06,0.87,0.09,1.3,0.13
									c-0.03,0.02,0.27,0.05,0.61,0.09c-0.25-0.07,0.97,0.06,1.5,0.07c0.03,0.02-0.1,0.03-0.74-0.03
									c0.71,0.09,0.92,0.01,1.62,0.09c-0.16-0.01-0.24-0.02-0.31-0.01c0.37,0.01,1.27,0.07,1.06,0.07l-0.16-0.01
									c1.05,0.07,3.19,0.14,3.35,0.1c0.01,0.01-0.14,0.04-0.2,0.05l1.87-0.08c-0.17,0.03,0.46,0.13-0.41,0.13
									c0.25,0.01,0.56,0.03,1.08,0.03c-0.17-0.01-0.42-0.06-0.19-0.06c0.64,0.06,0.44,0.03,1.23,0.08
									c-0.26-0.01,0.03-0.06,0.43-0.05c-0.06,0.01,0.03,0.05-0.11,0.06l1.01-0.04c-0.25,0.01-0.05,0.05,0.18,0.06
									c-0.1-0.01,0.87,0.01,1.14,0.01l-0.43-0.02c1.13,0.02,1.12-0.06,2.25-0.05c-0.14,0.01-0.34,0.07,0.24,0.08
									c0.26-0.03,1.16-0.13,2.16-0.16l0.19,0.01l0.76-0.03c-0.47,0.05-1.81,0.15-2.54,0.18c0.42,0.01,0.12,0.02,0.75,0.01
									c0.22,0.01-0.35,0.02-0.53,0.03l1.48,0c-0.07-0.03,1.13-0.04,1.07-0.07l-1.61,0.05c-0.07-0.03,0.93-0.1,1.98-0.11
									c0.27,0.01-0.2,0.06-0.18,0.07c0.14-0.01,0.99-0.03,1.09-0.03l-0.44,0.02c0.58,0,0.95-0.06,1.65-0.04
									c0.24,0,0.72,0.03,0.76,0.01c-0.4-0.03-0.48-0.14-0.21-0.17c0.08,0,1.17,0.01,1.55,0.01c0.4,0.02-0.6,0.08-0.26,0.1
									c0.01-0.01,0.23-0.03,0.33-0.03c0.25,0-0.1,0.03,0.45,0.01c0.09-0.04,1.12-0.03,0.26-0.04c0.56-0.02,0.59-0.02,1.21-0.04
									c-0.2-0.01,0.57-0.1,1.11-0.13c-0.03,0.01,0.09,0.02,0.15,0.02c1.11-0.05,1.7-0.06,2.73-0.13c0.1,0,0.59-0.02,0.38,0.01
									c0.16-0.02,0.34-0.04,0.6-0.06c0.62-0.02-0.71,0.06-0.24,0.06c0.04-0.02,0.82-0.09,1.27-0.15c-0.14-0.01-1.04,0.08-1.5,0.13
									c-0.01-0.04,0.78-0.14,1.85-0.27c0.85-0.1,0.37-0.01,0.52-0.04c0.8-0.1,1.14-0.16,1.43-0.25c0.29-0.09,0.57-0.12,1.19-0.34
									c0.49-0.18,0.04,0.04,0.16,0.02c-0.64,0.27-1.03,0.29-1.49,0.4l0.57-0.11c-0.21,0.05-0.67,0.17-0.92,0.19
									c0.22-0.03,0.9-0.11,1.64-0.38c0.74-0.26,1.48-0.76,1.94-1.18c0.16-0.15,0.41-0.44,0.28-0.32c-0.09,0.1-0.18,0.19-0.28,0.28
									c-0.27,0.24,0.5-0.54,0.15-0.19c0.36-0.38,0.7-0.86,1.05-1.51l0.09-0.11c-0.01,0.01-0.23,0.43-0.34,0.6
									c0.17-0.26,0.56-0.99,0.61-1.33c-0.05,0.16-0.13,0.32-0.19,0.48c0.2-0.49,0.31-1.13,0.44-1.77
									c-0.09,0.29-0.02,0.15-0.16,0.6c0.06-0.19-0.02,0.22-0.13,0.59c-0.11,0.37-0.25,0.69-0.11,0.4
									c-0.21,0.42-0.33,0.75-0.71,1.24c0.02-0.01,0.15-0.16-0.18,0.27c-0.02,0.03-0.05,0.07-0.07,0.1
									c-0.01,0.01-0.01,0.02-0.02,0.03l0.02-0.02c-0.01,0.02-0.01,0.02,0.01-0.01c0.07-0.08,0.13-0.15,0.18-0.21
									c-0.13,0.24-0.72,0.88-0.96,1.05c-0.25,0.2,0.1-0.09-0.05,0.01c-0.11,0.1-0.23,0.18-0.34,0.28
									c-0.05,0.01-0.74,0.43-0.11,0.02c-0.19,0.12-0.39,0.24-0.59,0.34c-0.36,0.17-0.88,0.36-1.21,0.44
									c-0.32,0.06-0.79,0.2-0.52,0.12c-0.35,0.08-0.71,0.12-1.07,0.18l-0.01,0c-1.06,0.13-2.19,0.27-3.42,0.31
									c-0.36,0.03-0.73,0.06-1.34,0.09l-0.12-0.01c-0.46,0.03-1.39,0.05-1.59,0.08c-0.5-0.03-2.25,0.07-3.07,0.08l-0.03,0.03
									c-0.55,0.02-1.09,0.03-1.8,0.06l0.04,0.02c-0.6,0.03-1.55,0.01-2.5,0.03c0.06-0.01,0.31-0.01,0.48-0.01
									c-1.14-0.03-2.4,0.06-3.43,0.03c-0.26,0.01-0.44,0-0.62,0l0.06,0c-0.03,0-0.07,0-0.11,0c-0.11,0-0.24-0.01-0.36-0.01
									c0.12,0.01,0.22,0.01,0.3,0.01c-0.19,0-0.49,0-0.79,0l-0.13-0.02c-0.02,0-0.04,0-0.07,0c-0.29-0.01-0.23,0.01-0.08,0.03
									c-0.13,0-0.26,0.01-0.39,0.01c-0.23-0.04-0.77,0-1.09-0.04c-0.2,0.02-1.48-0.01-1.64,0.03c-0.01-0.01-0.1-0.01,0.06-0.01
									c-0.33-0.01-0.66-0.02-0.95-0.02l-0.14-0.03l-0.72,0.02c-0.44-0.03-0.62-0.04-0.18-0.06c-1.1,0-0.75,0-1.74-0.01l0.04-0.02
									c-0.32-0.01-0.83,0-1.02-0.03c-0.71-0.06-3.52-0.16-5.33-0.36c0.35,0.09-0.84-0.11-0.92-0.08c-0.1-0.02-0.36-0.06-0.06-0.04
									c-0.92-0.1-1.38-0.2-2.01-0.31c-0.1-0.04,0.2,0.02,0.11,0c-0.07-0.02-0.29-0.04-0.38-0.09c-0.09-0.03,0.13,0.03,0.28,0.05
									c-0.9-0.23-0.98-0.3-1.07-0.27c-0.43-0.21-0.63-0.34-0.93-0.51c-0.13-0.11-0.35-0.28,0.13,0.05
									c-0.14-0.09-0.55-0.38-0.87-0.71c-0.33-0.33-0.59-0.67-0.61-0.67c-0.06-0.09-0.26-0.38-0.31-0.45
									c-0.36-0.64-0.38-0.71-0.61-1.4l0.05,0.19c-0.12-0.26-0.17-0.58-0.3-1.15l0.01,0.02c-0.22-1.33-0.12-0.57-0.28-1.9
									l-0.01,0.08c-0.07-0.12-0.12-1.18-0.2-1.95l0.01,0.28c-0.05-0.42-0.03-1.18-0.05-1.61c0-0.09,0.02,0.15,0.03,0.27
									c-0.05-1.11-0.04-0.14-0.1-0.97c0.01-0.15,0.05,0.19,0.02-0.36c0-0.28-0.13-1.61-0.12-2.38c-0.01,0.17-0.02,0.34-0.04-0.05
									c-0.02-0.59,0.01-1.6-0.02-2.13c0-0.08,0.01-0.11,0.01-0.11c0-0.45,0-1.27-0.01-1.74c0.08-0.41,0.07-2.81,0.15-2.79
									l0.09-1.39l0,0.04c0.08-0.88,0.09-1.2,0.11-1.51c0.03-0.2,0.02-0.05,0.02-0.04c0.16-1.22,0.17-1.27,0.32-2.49l0.04-0.11
									c0.04-0.29,0.35-1.86,1.12-2.88c0,0.01-0.02,0.04-0.07,0.12c0.38-0.59,1-1.19,1.62-1.58c0.62-0.39,1.2-0.6,1.44-0.72
									c0.29-0.11,0.6-0.15,0.91-0.24c-1.19,0.25,0.17-0.07-0.32,0.02c0.47-0.12,1.23-0.17,0.65-0.09l-0.09,0.01
									c-0.21,0.07,1.5-0.2,1.48-0.15c2.39-0.26,4.74-0.33,6.99-0.41l-0.26-0.03l0.79-0.02c0.21,0,0.28,0.02-0.28,0.04
									c0.15,0.01,0.38-0.01,0.58-0.02c0.2-0.01,0.36-0.03,0.37-0.03c1.1-0.01-0.43,0.05-0.09,0.04l0.46-0.01l-0.1,0
									c0.37-0.02,0.4-0.04,1.08-0.06c0.43,0,0.22,0.02,0.39,0.01c0,0,0.06,0,0.26,0l0.99-0.02l-0.4-0.02
									c0.44-0.02,0.93-0.01,0.47-0.04c0.67,0.03,3.69-0.03,4.11-0.01c0.61-0.02,1.22-0.02,1.97-0.01
									c-0.19-0.01-0.3-0.04,0.35-0.03c-0.24,0.06,1.19,0.04,1.71,0.09c-0.47-0.04,1.84,0.02,1.11-0.03
									c0.54,0.01,0.03,0.02,0.44,0.05c1.29,0,2.84,0.08,4.43,0.13c0.03-0.01-0.24-0.03,0.1-0.03l0.84,0.08
									c0.31,0.01,0.29-0.04,0.86,0.02c-0.08-0.01-0.2-0.03,0.01-0.02c1.56,0.09,3.15,0.19,4.73,0.36c0.79,0.08,1.59,0.2,2.35,0.4
									c0.76,0.22,1.46,0.61,2.05,1.12c-0.32-0.28-0.1-0.11,0.15,0.1c-0.16-0.14,0.02-0.01-0.01-0.05
									c0.32,0.29,0.61,0.62,0.86,0.98c0.2,0.15,0.72,1.2,0.77,1.33c-0.05-0.13-0.11-0.25-0.17-0.38c0.28,0.48-0.27-0.73-0.23-0.67
									c-0.35-0.51-0.97-1.39-1.9-1.89c-0.19-0.13,0.17,0.09,0.08,0.02c-0.23-0.13-0.51-0.29-1.05-0.52l0.06,0.02
									c-0.38-0.16-0.73-0.24-1.05-0.31c-0.32-0.08-0.61-0.13-0.92-0.17c-0.6-0.1-1.24-0.17-2.15-0.26l0.13,0.03
									c-0.35-0.04-0.47-0.05-0.66-0.07c-0.45,0,1.11,0.09,0.69,0.1c-0.52-0.1-2.78-0.21-3.13-0.27c-0.61-0.03,0.18,0.04-0.43,0
									l-0.16-0.02l-0.15,0.01c-0.4-0.02-0.6-0.05-0.61-0.06c0.1,0,0.28,0.01,0.38,0.01c-0.52-0.04-1.46-0.06-1.63-0.07l0.58,0.03
									c-1.66-0.05-3.68-0.13-5.28-0.13l0.12,0.01c-1.27-0.02-0.99-0.02-2.32-0.04l0.05,0c-0.33,0-0.65,0-0.99,0.01
									c0.34-0.01-0.64-0.03-0.19-0.04c-1.33,0.01-0.66,0.01-1.53,0.05l-0.2-0.02c-0.3,0.02-0.32,0.03-0.99,0.04
									c0.55-0.02-0.43-0.02,0.19-0.05c-1.41-0.03-2.09,0.06-2.73,0.01c-0.65,0.06,1.22,0.01,0.86,0.03
									c0.3,0.01-0.53,0.04-0.97,0.05c-0.45,0.01-0.77-0.05-1.9-0.03c0.11,0,0.13,0,0.23-0.01c-0.42,0-0.83,0.04-1.35,0.03
									c-0.29,0.04-0.67,0.02-0.76,0.06l1.04-0.04c-0.59,0.02-1.14,0.08-2.11,0.1c0.13-0.01,0.39-0.03,0.56-0.04
									c-0.35,0.01-0.48,0.01-0.84,0.02c0.08-0.04,1.26-0.05,1.89-0.1c-0.3-0.01-1.19,0.06-0.88,0.01
									c-0.45,0.07-1.11,0.03-1.88,0.1l0.05-0.02c-0.13,0.01-0.4,0.03-0.59,0.04l0.4-0.05c-0.62,0.05-1.2,0.03-1.79,0.08
									c1.24-0.06,0.28,0.01,0.81,0c-1.53,0.11-0.89-0.02-2.6,0.1c0.23-0.02,0.87-0.04,0.51-0.01c-0.3,0.01-0.68,0.03-0.96,0.04
									c-1.14,0.1,0.18,0.01-0.31,0.06c-0.39,0.01-0.56,0.05-1.05,0.12l-0.01-0.02c-1.29,0.13-0.34,0.07-1.5,0.22l0.49-0.1
									l-0.6,0.1l0.12-0.04c-0.65,0.12-0.86,0.16-1.5,0.33c0.15-0.03-0.08,0.05-0.61,0.29c-0.36,0.16,0.18-0.13-0.54,0.26
									c0.16-0.1,0.33-0.23,0.66-0.35c0.03-0.03,0.17-0.08,0.2-0.1c-0.41,0.13-0.98,0.47-1.22,0.64c0.1-0.07,0.22-0.14,0.28-0.17
									c-0.34,0.21-0.65,0.47-0.94,0.75c-0.14,0.12-0.04,0.02,0.06-0.09c-0.18,0.17-0.29,0.29-0.53,0.56
									c0.05-0.08,0.01-0.08,0.37-0.45c-0.27,0.27-0.52,0.56-0.74,0.88c-0.06,0.05-0.34,0.48-0.27,0.35
									c-0.36,0.53-0.64,1.44-0.81,2.25c-0.01,0.07-0.03,0.15-0.05,0.3c-0.16,0.77-0.27,1.45-0.35,2.37l-0.09,0.52
									c-0.06,0.72,0.11-0.7,0.01,0.5c-0.06,0.85-0.06,0.31-0.09,0.61c-0.02,0.42-0.04,1.16-0.1,1.94
									C274.43,415.72,274.44,415.55,274.45,415.3z M274.39,424.21c-0.01-0.17-0.04-0.52-0.03-0.64
									C274.39,423.76,274.38,423.92,274.39,424.21z M279.21,435.95c-0.13-0.03-0.31-0.11-0.52-0.2
									C278.84,435.81,279.02,435.88,279.21,435.95z M316.72,435.68l-0.02,0.01C316.35,435.81,316.47,435.77,316.72,435.68z
									 M317.43,435.35c0.07-0.04,0.06-0.04,0.03-0.03c-0.05,0.03-0.2,0.12-0.38,0.2C317.14,435.51,317.23,435.47,317.43,435.35z
									 M291.95,404.15l-0.16,0C292.14,404.13,292.04,404.14,291.95,404.15z"/>
								<path d="M277.8,435.31c-0.04-0.03-0.05-0.04-0.06-0.05C277.69,435.22,277.68,435.23,277.8,435.31z"/>
								<polygon points="275.09,409.79 275.09,409.77 275.1,409.74 								"/>
								<path d="M305.27,436.96c-0.14,0-0.23,0-0.32,0C304.95,436.97,305.02,436.97,305.27,436.96z"/>
								<path d="M320.01,432.22c-0.06,0.16-0.11,0.31-0.18,0.47c0.1-0.22,0.13-0.3,0.18-0.41
									C319.99,432.28,319.95,432.36,320.01,432.22z"/>
								<path d="M320.91,427.9c0.01-0.09,0.01-0.14,0.02-0.23l-0.01,0.02C320.88,428,320.87,428.23,320.91,427.9z"/>
								<path d="M320.22,431.8c0.03-0.03,0.09-0.35,0.17-0.7l-0.01,0.06C320.37,431.05,320.3,431.43,320.22,431.8z"/>
								<path d="M320.41,431.02l0.06-0.32C320.46,430.65,320.44,430.83,320.41,431.02z"/>
								<path d="M318.24,434.78c0.13-0.1,0.06-0.09,0.14-0.14C318.52,434.51,317.53,435.35,318.24,434.78z"/>
								<polygon points="320.35,431.53 320.29,431.65 320.26,431.85 								"/>
								<path d="M319.12,434.04c0.13-0.14,0.24-0.3,0.35-0.45c-0.01,0.01,0.03-0.06,0.07-0.13c-0.09,0.15-0.21,0.29-0.28,0.41
									C319.17,433.97,319.11,434.05,319.12,434.04z"/>
								<path d="M319.54,433.46c0.1-0.15,0.18-0.31,0.23-0.4C319.72,433.15,319.62,433.33,319.54,433.46z"/>
								<path d="M320.14,432.29l-0.06,0.16c-0.04,0.13-0.11,0.25-0.16,0.37C320,432.64,320.07,432.46,320.14,432.29z"/>
								<path d="M313.64,436.37l-0.62,0.07c-0.06,0.01,0.11,0,0.34-0.03C313.5,436.4,313.73,436.37,313.64,436.37z"/>
								<path d="M315.52,436.17c-0.17,0.03-0.18,0.03-0.27,0.03l-0.01,0.03C315.33,436.22,315.42,436.2,315.52,436.17z"/>
								<path d="M313.71,436.44c-0.06,0.01-0.9,0.12-0.11,0.03C313.66,436.46,314.28,436.38,313.71,436.44z"/>
								<polygon points="304.31,436.91 304.46,436.9 304.44,436.86 								"/>
								<path d="M296.01,437.1c0.74,0.02,0.18-0.03,0.85-0.01c0.17-0.01-0.55-0.02-0.37-0.02
									C296.03,437.08,295.8,437.07,296.01,437.1z"/>
								<path d="M296.48,437.07c0.07,0,0.14,0,0.23-0.01C296.59,437.07,296.53,437.07,296.48,437.07z"/>
								<path d="M319.69,407.96c0.07,0.14,0.13,0.28,0.19,0.42l-0.11-0.28L319.69,407.96z"/>
								<path d="M320.08,408.77l0,0.12l0.11,0.26C320.16,409.05,320.1,408.85,320.08,408.77z"/>
								<path d="M274.4,425.54l0.01,0.04c0-0.07,0-0.19-0.01-0.41L274.4,425.54z"/>
								<polygon points="274.27,419.07 274.27,419.18 274.3,418.97 								"/>
								<path d="M274.52,413.64c-0.02,0.22-0.04,0.48-0.05,0.7C274.5,413.86,274.56,413.59,274.52,413.64z"/>
							</g>
						</g>
					</g>
					<g>
						<g>
							<g>
								<path d="M293.13,427.52c-0.05,0.03-0.03,0.04-0.03,0.04C293.19,427.51,293.13,427.52,293.13,427.52z"/>
								<polygon points="294,426.97 293.99,426.99 294.11,426.9 								"/>
								<path d="M294.84,426.5c-0.1,0.02-0.3,0.18-0.45,0.25l-0.03,0.01l-0.05,0.06C294.48,426.71,294.71,426.56,294.84,426.5z"/>
								<path d="M295.32,426.31c-0.03,0,0.09-0.06-0.11,0.06c0.01,0,0.01-0.01,0.02-0.01C295.25,426.35,295.27,426.34,295.32,426.31
									z"/>
								<path d="M295.23,426.36C295.15,426.41,295.3,426.34,295.23,426.36L295.23,426.36z"/>
								<path d="M295.64,426.12l-0.11,0.08c0.03-0.01,0.13-0.06,0.1-0.04C295.74,426.09,295.71,426.09,295.64,426.12z"/>
								<path d="M295.73,426.04l-0.06,0.04C295.69,426.07,295.7,426.06,295.73,426.04z"/>
								<path d="M295.55,426.16l0.12-0.08c-0.02,0-0.03,0-0.06,0.04C295.62,426.1,295.6,426.12,295.55,426.16z"/>
								<path d="M295.48,426.19c-0.07,0.03-0.15,0.07-0.04,0C295.22,426.32,295.26,426.32,295.48,426.19z"/>
								<path d="M294.86,426.44l-0.09,0.04l-0.07,0.05C294.74,426.51,294.87,426.45,294.86,426.44z"/>
								<path d="M296.37,425.73c0-0.01-0.05,0.01-0.06,0l-0.08,0.06C296.27,425.76,296.35,425.72,296.37,425.73z"/>
								<path d="M296.3,425.73l0.12-0.08C296.31,425.71,296.29,425.73,296.3,425.73z"/>
								<polygon points="295.74,425.99 295.54,426.13 295.78,425.97 								"/>
								<polygon points="296.85,425.45 296.79,425.51 296.91,425.41 								"/>
								<path d="M297.18,425.26c-0.05,0.04,0.09-0.02,0.03,0.02c0.09-0.05,0.16-0.11,0.22-0.15
									C297.36,425.17,297.28,425.22,297.18,425.26z"/>
								<path d="M297.53,425.05c-0.02,0.02-0.06,0.05-0.11,0.08C297.45,425.11,297.48,425.09,297.53,425.05z"/>
								<path d="M296.65,425.52c0.01,0,0.04,0,0.11-0.04l-0.06,0.01L296.65,425.52z"/>
								<path d="M296.69,425.5L296.69,425.5c0.06-0.03,0.09-0.05,0.11-0.06C296.79,425.44,296.76,425.46,296.69,425.5z"/>
								<path d="M296.63,425.53l0.01-0.01C296.64,425.53,296.64,425.53,296.63,425.53z"/>
								<path d="M296.08,425.82c0.07-0.05,0.22-0.15,0.06-0.08C296.09,425.78,296.18,425.74,296.08,425.82z"/>
								<path d="M296.56,425.55l-0.14,0.07c0.01,0,0.03,0,0,0.02L296.56,425.55z"/>
								<polygon points="296.62,425.5 296.56,425.55 296.61,425.52 								"/>
								<path d="M297.29,425.17c0.05-0.04,0.12-0.08,0.19-0.12c-0.1,0.05-0.17,0.09-0.24,0.13
									C297.24,425.19,297.21,425.21,297.29,425.17z"/>
								<path d="M297,425.33l0.01-0.01C297,425.32,297,425.33,297,425.33z"/>
								<polygon points="298.2,424.64 298.18,424.64 298.18,424.65 								"/>
								<path d="M297.23,425.18c-0.06,0.03-0.09,0.05-0.12,0.08c0.05-0.03,0.09-0.06,0.14-0.08
									C297.25,425.17,297.25,425.17,297.23,425.18z"/>
								<path d="M297.73,424.93c-0.04,0.02-0.07,0.03-0.11,0.05C297.65,424.97,297.72,424.94,297.73,424.93z"/>
								<path d="M297.04,425.31L297.04,425.31C297.05,425.31,297.04,425.31,297.04,425.31z"/>
								<path d="M297.04,425.31c0.02-0.01,0.05-0.04,0.07-0.05c-0.03,0.02-0.06,0.04-0.09,0.06L297.04,425.31z"/>
								<path d="M298.35,424.4c0,0.02-0.15,0.12-0.29,0.18c-0.12,0.09-0.01,0.09,0.12,0.06c0-0.01,0-0.02,0.12-0.1
									c-0.05,0.02-0.31,0.15-0.21,0.07c0.17-0.11,0.15-0.08,0.24-0.12c-0.09,0.02,0.21-0.16,0.15-0.17l-0.15,0.1
									C298.34,424.42,298.39,424.38,298.35,424.4z"/>
								<path d="M297.93,424.79l-0.05,0.03c0.06-0.03,0.11-0.05,0.2-0.09c0.09-0.06,0.1-0.08,0.11-0.09l-0.27,0.15L297.93,424.79z"
									/>
								<path d="M297.62,424.96c0.03-0.04,0.16-0.13,0.07-0.1c-0.16,0.09-0.11,0.08-0.2,0.14
									C297.75,424.85,297.43,425.06,297.62,424.96c-0.07,0.04-0.1,0.06-0.14,0.08c0.04-0.02,0.09-0.04,0.14-0.07l-0.01,0l0,0l0,0
									c-0.01,0-0.02,0,0,0l0.01,0C297.62,424.97,297.62,424.97,297.62,424.96c0.08-0.04,0.01,0-0.01,0.01l0,0l0,0l0.26-0.16
									C297.8,424.86,297.75,424.89,297.62,424.96z"/>
								<path d="M296.26,425.62c0.01,0,0.01,0,0.01,0C296.28,425.61,296.29,425.6,296.26,425.62z"/>
								<path d="M296.37,425.57c-0.02,0.01-0.03,0.03-0.09,0.06c-0.06,0.03,0-0.01-0.01-0.01c-0.03,0.03-0.12,0.09,0,0.03l0.02-0.01
									c0.11-0.05,0.26-0.11,0.24-0.1C296.48,425.54,296.45,425.54,296.37,425.57z"/>
								<path d="M297,425.26l0.21-0.13l-0.12,0.05l0.01,0.01C296.98,425.24,297.01,425.24,297,425.26z"/>
								<polygon points="298.23,424.63 298.21,424.67 298.32,424.57 								"/>
								<polygon points="298.51,424.47 298.51,424.49 298.58,424.44 								"/>
								<path d="M296.06,415.36l-0.07-0.03C296.01,415.34,296.03,415.35,296.06,415.36z"/>
								<path d="M296.52,415.63l0.02,0C296.51,415.62,296.5,415.62,296.52,415.63z"/>
								<path d="M305.31,420.36c-0.14-0.1-0.3-0.22-0.27-0.18l0.02,0.03C305.15,420.26,305.24,420.32,305.31,420.36z"/>
								<path d="M300.38,417.7l0.02,0.02c0.03,0.01,0.05,0.01,0.07,0.02C300.44,417.73,300.41,417.71,300.38,417.7z"/>
								<path d="M300.27,417.74l-0.12-0.08C300.19,417.68,300.23,417.71,300.27,417.74z"/>
								<path d="M293.51,413.94l-0.09-0.02C293.54,413.98,293.5,413.95,293.51,413.94z"/>
								<path d="M301.41,422.81c0.11-0.06,0.17-0.08,0.21-0.1C301.51,422.76,301.43,422.78,301.41,422.81z"/>
								<path d="M296.35,415.28c-0.04-0.02-0.06-0.02-0.06-0.02C296.33,415.28,296.35,415.29,296.35,415.28z"/>
								<path d="M301.85,422.58c-0.02,0.01-0.03,0.01-0.05,0.02c-0.07,0.04-0.12,0.07-0.19,0.11
									C301.69,422.68,301.78,422.64,301.85,422.58z"/>
								<path d="M293.15,423.46c0,0.01,0,0.01,0,0.02C293.15,423.49,293.15,423.48,293.15,423.46z"/>
								<path d="M292.94,426.55c0-0.04,0-0.08,0-0.13C292.94,426.45,292.94,426.47,292.94,426.55z"/>
								<path d="M299.65,423.83C299.59,423.87,299.65,423.84,299.65,423.83L299.65,423.83z"/>
								<path d="M299.32,423.93c0.01-0.01,0.02-0.02,0.02-0.02C299.34,423.91,299.33,423.92,299.32,423.93z"/>
								<path d="M302.38,422.13L302.38,422.13C302.37,422.13,302.37,422.13,302.38,422.13z"/>
								<path d="M299.56,423.87c0.03-0.01,0.06-0.03,0.08-0.04C299.62,423.84,299.6,423.86,299.56,423.87z"/>
								<path d="M299.58,423.88c-0.02,0.01-0.04,0.02-0.05,0.03C299.52,423.91,299.52,423.91,299.58,423.88z"/>
								<path d="M299.74,423.78c-0.03,0.02-0.06,0.03-0.1,0.05c0.01-0.01,0.02,0,0.02,0C299.67,423.82,299.7,423.81,299.74,423.78z"
									/>
								<path d="M293.1,417.8c0,0,0,0.01,0,0.01C293.1,417.88,293.1,417.85,293.1,417.8z"/>
								<polygon points="303.54,419.6 303.54,419.6 303.53,419.6 								"/>
								<path d="M303.31,419.49c0.1,0.03,0.16,0.06,0.22,0.11l-0.04-0.09L303.31,419.49z"/>
								<path d="M294.94,414.74l0.14,0.1c-0.2-0.08-0.33-0.16-0.2-0.06c0.05-0.04,0.59,0.33,0.65,0.29l0.09,0.07
									c-0.02-0.01-0.04-0.02-0.06-0.03c0.18,0.14,0.17,0.04,0.41,0.19c0.08,0.05,0.14,0.1,0.08,0.07l0.2,0.1
									c0.06,0.03,0.04,0.04-0.02,0l0.3,0.16l0,0c0.06,0.02,0.16,0.06,0.2,0.08c0.07,0.05-0.04-0.02-0.03,0l0.17,0.08
									c0.06,0.05-0.09-0.01-0.2-0.08c0.12,0.14,0.14,0.06,0.46,0.28l-0.16-0.08c0.08,0.09,0.21,0.15,0.37,0.27
									c-0.04-0.03-0.32-0.25-0.14-0.16c0.05,0.03,0.11,0.07,0.22,0.12c-0.01,0.02,0.09,0.07,0.2,0.13l-0.02,0.02
									c0.13,0.06,0.13,0.05,0.21,0.08c0.14,0.08,0.16,0.12,0.18,0.16c0.22,0.13-0.14-0.12,0.13,0.03
									c0.18,0.12,0.32,0.18,0.56,0.29c0.13,0.08-0.03,0,0.01,0.04l0.13,0.05c0.03,0.02,0.02,0.02,0.01,0.02
									c0.1,0.05,0.02-0.02,0.18,0.06c0.06-0.01,0.29,0.22,0.5,0.3c0.04,0.03-0.03,0-0.02,0.02c0.28,0.13,0.23,0.11,0.47,0.21
									l0.17,0.12c-0.12-0.1,0.06-0.02,0.22,0.04c-0.05-0.04-0.08-0.07-0.1-0.09l0.25,0.12c0.03,0.02,0,0.02-0.05,0l0.05,0.02
									c0.08,0.06,0.03,0.05-0.04,0.03l-0.08-0.07c-0.07-0.02-0.13-0.03-0.13-0.01c0.03,0.01,0.06,0.03,0.08,0.04
									c-0.02,0-0.03-0.01-0.02,0c0.01,0.01,0.04,0.02,0.08,0.03l0.04,0.06l0.02,0l0.31,0.2c0.24,0.1,0.47,0.17,0.83,0.36
									c-0.1-0.03-0.04,0.02-0.06,0.05c-0.08-0.08-0.28-0.15-0.47-0.26c0.1,0.06,0.07,0.06,0.04,0.05l0.35,0.16
									c-0.02,0.02,0.06,0.06,0.14,0.11c-0.04-0.08,0.26,0.11,0.41,0.18c0,0.02-0.04,0.01-0.2-0.08c0.16,0.13,0.26,0.08,0.43,0.21
									c-0.04-0.02-0.06-0.04-0.08-0.04c0.1,0.04,0.33,0.18,0.26,0.16l-0.04-0.02c0.26,0.16,0.81,0.46,0.87,0.45
									c0,0.01-0.06,0.02-0.08,0.02l0.54,0.15c-0.06,0.01,0.06,0.17-0.17,0.06c0.06,0.04,0.14,0.09,0.28,0.16
									c-0.04-0.03-0.08-0.11-0.02-0.07c0.14,0.13,0.1,0.08,0.29,0.23c-0.06-0.04,0.04-0.05,0.14,0.01c-0.02,0-0.02,0.05-0.06,0.04
									l0.28,0.1c-0.07-0.03-0.03,0.03,0.02,0.08c-0.02-0.02,0.22,0.13,0.29,0.16l-0.1-0.07c0.29,0.18,0.31,0.09,0.59,0.25
									c-0.05-0.02-0.15-0.02-0.13,0.01c-0.01,0.01-0.03,0.01-0.03,0.01c0.01,0.01,0.02,0.04-0.06,0.12
									c-0.08,0.08-0.19,0.18-0.31,0.26l-0.06,0.01l-0.19,0.13c0.08-0.09,0.44-0.4,0.52-0.48c-0.08,0.03,0.01-0.03-0.15,0.07
									c-0.08,0.03,0.1-0.08,0.1-0.08l-0.36,0.19c0.03,0.02-0.27,0.19-0.24,0.21l0.39-0.26c0.03,0.02-0.19,0.21-0.46,0.36
									c-0.07,0.03,0.02-0.08,0.01-0.08c-0.03,0.03-0.24,0.16-0.27,0.17l0.1-0.08c-0.15,0.07-0.22,0.18-0.42,0.25
									c-0.06,0.03-0.2,0.07-0.21,0.09c0.12-0.03,0.19,0.06,0.14,0.12c-0.02,0.01-0.34,0.15-0.42,0.18
									c-0.12,0.03,0.12-0.15,0.02-0.12c0,0.01-0.05,0.05-0.07,0.07c-0.07,0.03,0.01-0.04-0.13,0.04
									c-0.01,0.04-0.29,0.16-0.05,0.06c-0.13,0.09-0.15,0.08-0.31,0.17c0.06-0.01-0.11,0.15-0.24,0.23c0-0.01-0.03,0-0.05,0
									c-0.26,0.14-0.47,0.25-0.71,0.38c-0.03,0.01-0.16,0.07-0.11,0.03c-0.03,0.03-0.06,0.06-0.15,0.1
									c-0.17,0.06,0.18-0.11,0.04-0.07c0,0.02-0.2,0.14-0.31,0.22c0.05,0.01,0.27-0.15,0.38-0.22c0.02,0.03-0.16,0.19-0.43,0.36
									c-0.21,0.13-0.11,0.03-0.14,0.06c-0.41,0.23-0.31,0.26-0.67,0.43c-0.15,0.05-0.03-0.04-0.07-0.04
									c0.17-0.11,0.28-0.14,0.4-0.21l-0.15,0.07c0.05-0.04,0.17-0.11,0.24-0.14c-0.12,0.04-0.7,0.39-1.02,0.55
									c-0.05,0.04-0.14,0.1-0.09,0.09l0.1-0.06c0.1-0.03-0.17,0.13-0.04,0.07c-0.13,0.09-0.27,0.19-0.46,0.29l-0.05-0.01
									c0.01,0.01,0.13-0.06,0.18-0.09c-0.07,0.06-0.31,0.13-0.38,0.21l0.14-0.06c-0.13,0.09-0.28,0.21-0.45,0.3
									c0.09-0.02,0.04-0.02,0.17-0.06c-0.12,0.02,0.43-0.24,0.24-0.19c0.14-0.04,0.22-0.11,0.4-0.17
									c-0.01-0.01-0.07,0.02,0.08-0.06c0.01-0.01,0.02-0.02,0.03-0.02l0.01,0l-0.01,0c0.01,0,0.01-0.01,0,0
									c-0.04,0.02-0.07,0.03-0.08,0.03c0.06-0.06,0.28-0.19,0.35-0.24c0.09-0.04-0.03,0.03,0.02,0.01l0.1-0.08
									c0.02,0.01,0.24-0.09,0.05,0.03l0.18-0.1c0.11-0.05,0.26-0.13,0.34-0.18c0.09-0.04,0.2-0.14,0.13-0.08l0.27-0.17l0.01,0
									c0.28-0.15,0.55-0.35,0.88-0.5c0.09-0.06,0.18-0.12,0.34-0.2l0.04,0c0.12-0.07,0.36-0.19,0.41-0.23
									c0.15-0.03,0.58-0.32,0.79-0.43l0-0.03c0.14-0.08,0.28-0.16,0.45-0.27l-0.02-0.01c0.14-0.1,0.4-0.21,0.64-0.35
									c-0.01,0.02-0.08,0.05-0.12,0.07c0.16-0.06,0.31-0.16,0.45-0.25c0.15-0.09,0.26-0.17,0.51-0.3c0.07-0.05,0.13-0.08,0.2-0.11
									c-0.01-0.01-0.03-0.02-0.04-0.03c0.01,0,0.01,0.01,0.03,0.01c-0.01-0.01-0.03-0.02-0.04-0.02
									c-0.04-0.03-0.09-0.06-0.13-0.09c0.05,0.03,0.09,0.06,0.11,0.07c-0.06-0.03-0.17-0.09-0.33-0.18
									c-0.01-0.01-0.03-0.03-0.03-0.05c-0.01,0-0.01-0.01-0.02-0.01c-0.07-0.05-0.06-0.02-0.03,0.01
									c-0.03-0.01-0.07-0.03-0.11-0.04c-0.04-0.07-0.2-0.1-0.27-0.18c-0.06-0.01-0.38-0.2-0.45-0.19c0-0.01-0.02-0.02,0.02,0
									c-0.08-0.05-0.16-0.1-0.24-0.14l-0.02-0.05l-0.2-0.07c-0.1-0.08-0.14-0.11-0.02-0.07c-0.28-0.12-0.22-0.11-0.47-0.21
									l0.02-0.01c-0.08-0.05-0.22-0.1-0.26-0.14c-0.16-0.13-0.89-0.51-1.34-0.81c0.06,0.1-0.2-0.14-0.24-0.12
									c-0.02-0.03-0.08-0.07,0-0.04c-0.24-0.12-0.35-0.22-0.53-0.28c-0.02-0.03,0.06,0.01,0.04-0.01
									c-0.02-0.01-0.08-0.03-0.1-0.05c-0.02-0.02,0.04,0.01,0.08,0.03c-0.24-0.14-0.29-0.11-0.32-0.09
									c-0.11-0.09-0.18-0.12-0.28-0.15c-0.04-0.04-0.1-0.09,0.05-0.01c-0.08-0.05-0.51-0.31-0.53-0.29
									c-0.02-0.02-0.12-0.07-0.14-0.08c-0.19-0.11-0.2-0.12-0.39-0.23l0.05,0.03c-0.09-0.01-0.16-0.08-0.31-0.16l0.01,0
									c-0.33-0.22-0.16-0.07-0.48-0.29l0.01,0.03c-0.06,0.02-0.29-0.2-0.49-0.29l0.06,0.05c-0.12-0.05-0.27-0.23-0.37-0.3
									c-0.02-0.02,0.04,0.02,0.08,0.03c-0.27-0.19-0.05,0.01-0.27-0.11c-0.03-0.04,0.07-0.01-0.07-0.09
									c-0.06-0.05-0.44-0.19-0.62-0.33c0.04,0.04,0.07,0.07-0.03,0.02c-0.15-0.08-0.38-0.27-0.54-0.32
									c-0.02-0.01-0.02-0.02-0.02-0.02c-0.12-0.06-0.38-0.2-0.46-0.22c-0.07-0.13-0.73-0.37-0.7-0.44l-0.36-0.2l0.01,0
									c-0.22-0.13-0.31-0.16-0.4-0.19c-0.05-0.03-0.01-0.02,0-0.02c-0.32-0.2-0.36-0.22-0.65-0.34l-0.02-0.04
									c-0.09-0.04-0.28-0.18-0.78-0.46c0,0.08,0,0.16,0.01,0.29c0-0.01-0.01-0.02-0.01-0.07c0,0.11,0,0.18,0.01,0.25
									c0,0.05,0,0.11,0,0.18c0,0.1-0.01,0.23-0.01,0.34c-0.01,0.22-0.01,0.4,0.03,0.48l0.02,0.28c0.01-0.36,0.04,0.05,0.05-0.09
									c0.01,0.14-0.03,0.36-0.03,0.19l0-0.03c-0.05-0.06-0.02,0.45-0.05,0.44c-0.01,0.68-0.02,1.41-0.02,2.05l0.04-0.08l0,0.23
									c-0.01,0.06-0.03,0.08-0.03-0.08c-0.02,0.09,0.02,0.28,0.02,0.28c-0.01,0.32-0.04-0.13-0.04-0.03l0,0.13l0-0.03
									c0.01,0.11,0.03,0.12,0.03,0.32c-0.01,0.13-0.02,0.06-0.02,0.11c0,0,0,0.02,0,0.08l0,0.29l0.03-0.12
									c0.01,0.13,0,0.27,0.03,0.14c-0.05,0.2-0.02,1.08-0.03,1.2c0.02,0.18,0.02,0.36,0.02,0.58c0.01-0.05,0.04-0.09,0.03,0.1
									c-0.06-0.07-0.03,0.35-0.07,0.5c0.03-0.14,0.01,0.54,0.05,0.32c-0.01,0.16-0.02,0.01-0.04,0.13
									c0.02,0.38-0.02,0.83-0.01,1.3c0.01,0.01,0.02-0.07,0.03,0.03l-0.04,0.25c0,0.09,0.05,0.08,0.02,0.25
									c0.01-0.02,0.02-0.06,0.02,0c-0.04,0.91,0.03,1.87-0.04,2.8c0.02-0.13,0.02-0.04,0.02,0.05c0-0.06,0.02,0,0.03-0.01
									l-0.03,0.39c0.03,0.07,0,0.42,0.03,0.46l-0.01-0.12c0.04,0.16,0.08-0.23,0.13-0.21c-0.04-0.18,0.06-0.48,0-0.78
									c0.01-0.07,0.01,0.06,0.03,0.02c-0.02-0.08-0.02-0.17-0.01-0.34l0,0.02c0-0.48,0.01-0.68,0.03-1.22l-0.02,0.04
									c0-0.12,0.01-0.14,0.02-0.19c-0.03-0.13,0,0.32-0.04,0.2c0.05-0.15,0-0.82,0.05-0.92c0-0.18-0.03,0.05-0.03-0.13l0.01-0.05
									l-0.02-0.04c0-0.12,0.02-0.18,0.03-0.18c0,0.03,0,0.08,0,0.11c0.02-0.15-0.01-0.43,0-0.48l-0.01,0.17
									c-0.01-0.49,0.01-1.08-0.02-1.55l-0.01,0.04c-0.02-0.36,0.01-0.29,0-0.68l0,0.01c-0.01-0.08-0.02-0.18-0.01-0.29
									c0.01,0.1,0.02-0.19,0.04-0.06c-0.02-0.39-0.02-0.19-0.06-0.45l0.02-0.06c-0.02-0.09-0.02-0.09-0.03-0.29
									c0.02,0.16,0.03-0.13,0.05,0.06c0.04-0.41-0.04-0.61,0.02-0.8c-0.05-0.19-0.03,0.36-0.04,0.25
									c-0.02,0.09-0.04-0.16-0.03-0.29c0-0.13,0.06-0.22,0.06-0.56l0,0.07c0.01-0.12-0.02-0.24,0-0.4c-0.03-0.09,0-0.2-0.04-0.22
									l0.01,0.3c-0.01-0.17-0.05-0.33-0.03-0.62c0.01,0.02,0.02,0.11,0.02,0.16c0.01-0.08-0.01-0.16,0-0.25
									c0.04,0.02,0.01,0.37,0.04,0.55c0.02-0.09-0.03-0.35,0.01-0.26c-0.05-0.13,0.01-0.33-0.03-0.55l0.02,0.01
									c0-0.04-0.01-0.11-0.01-0.17l0.03,0.12c-0.03-0.18,0.02-0.35,0.01-0.52c0,0.36-0.03,0.08-0.04,0.24
									c-0.03-0.45,0.06-0.26,0.05-0.76c0,0.07-0.01,0.26-0.02,0.15c0-0.1,0.01-0.22,0.03-0.28c0-0.33-0.02,0.05-0.04-0.09
									c0.03-0.11-0.01-0.16-0.02-0.31l0.02,0c0.01-0.38-0.05-0.1-0.03-0.44l0.03,0.14l-0.01-0.18l0.03,0.04
									c-0.02-0.19-0.01-0.25-0.01-0.44c-0.02,0.04-0.04-0.02-0.04-0.19c0.01-0.11,0.02,0.06,0.02-0.17
									c0.01,0.05,0.03,0.11,0.01,0.22c0.01,0.01,0.01,0.05,0.02,0.06c0.02-0.12,0-0.31,0-0.4c0,0.02,0,0.05-0.01,0.09l-0.03-0.35
									c0.01-0.05,0.02-0.01,0.02,0.03c0-0.05-0.01-0.16-0.02-0.22c0.02,0.03,0.04,0.02,0.05,0.17c-0.01-0.12-0.01-0.23-0.02-0.24
									c0.01-0.01,0.02-0.02,0.03,0l0-0.01c0.01,0.01,0.02,0,0.05,0.01c0.08,0.04,0.19,0.1,0.28,0.15c0.01,0,0.04,0.01,0.08,0.04
									c0.2,0.12,0.36,0.24,0.61,0.35l0.12,0.11c0.19,0.1-0.16-0.14,0.15,0.02c0.22,0.11,0.07,0.07,0.14,0.12
									c0.12,0.05,0.32,0.12,0.51,0.26C295.01,414.77,295.01,414.77,294.94,414.74z M297.22,416.01c-0.05-0.02-0.14-0.06-0.17-0.09
									C297.11,415.93,297.14,415.97,297.22,416.01z M300.69,417.93c-0.04-0.01-0.09-0.04-0.14-0.08
									C300.59,417.86,300.64,417.89,300.69,417.93z M300.3,423.44L300.3,423.44C300.41,423.39,300.37,423.4,300.3,423.44z
									 M300.1,423.55c-0.02,0.01-0.02,0.02-0.01,0.01c0.01-0.01,0.06-0.04,0.11-0.07C300.18,423.5,300.15,423.51,300.1,423.55z
									 M292.94,418.54l0.01-0.05C292.95,418.59,292.95,418.56,292.94,418.54z"/>
								<path d="M300.28,417.73c-0.01-0.01-0.01-0.02-0.01-0.02C300.25,417.7,300.25,417.71,300.28,417.73z"/>
								<polygon points="293.53,413.95 293.52,413.94 293.51,413.94 								"/>
								<path d="M303.15,421.58c0.04-0.02,0.07-0.03,0.09-0.04C303.24,421.54,303.22,421.55,303.15,421.58z"/>
								<path d="M299.04,424.19l0.13-0.08c-0.06,0.04-0.09,0.05-0.12,0.06C299.05,424.18,299.08,424.17,299.04,424.19z"/>
								<path d="M297.83,424.71c-0.04,0.02-0.02,0.01-0.06,0.04l0.01,0.01C297.87,424.71,297.92,424.67,297.83,424.71z"/>
								<path d="M298.88,424.2c-0.02-0.01-0.1,0.04-0.19,0.1l0.02-0.01C298.69,424.32,298.79,424.26,298.88,424.2z"/>
								<path d="M298.67,424.3c-0.03,0.02-0.05,0.03-0.08,0.05C298.58,424.37,298.62,424.34,298.67,424.3z"/>
								<path d="M299.84,423.7c-0.05,0.02-0.01,0.04-0.04,0.04C299.76,423.8,300.07,423.56,299.84,423.7z"/>
								<polygon points="298.77,424.18 298.82,424.18 298.86,424.14 								"/>
								<path d="M299.5,423.79l-0.15,0.08c0,0-0.01,0.01-0.04,0.03C299.41,423.84,299.51,423.79,299.5,423.79z"/>
								<path d="M299.32,423.89c-0.05,0.03-0.09,0.05-0.12,0.07C299.22,423.95,299.26,423.93,299.32,423.89z"/>
								<polygon points="298.97,424.06 299.01,424.04 299.12,423.98 								"/>
								<path d="M301.07,422.9l0.16-0.1c0.01-0.02-0.03,0-0.09,0.04C301.1,422.87,301.04,422.91,301.07,422.9z"/>
								<path d="M300.56,423.12c0.05-0.02,0.05-0.02,0.08-0.02l-0.01-0.03L300.56,423.12z"/>
								<path d="M301.02,422.85c0.01-0.02,0.22-0.15,0.02-0.04C301.03,422.83,300.87,422.92,301.02,422.85z"/>
								<polygon points="303.44,421.52 303.4,421.54 303.43,421.58 								"/>
								<path d="M304.94,420.44c0.04,0.04,0.04-0.01,0.09,0.03c0.04,0.01-0.04-0.04-0.01-0.03
									C304.96,420.42,304.92,420.39,304.94,420.44z"/>
								<path d="M305.02,420.44c0.01,0,0.02,0.01,0.04,0.01C305.04,420.45,305.03,420.44,305.02,420.44z"/>
								<polygon points="292.92,427.06 292.9,427.2 292.92,427.11 								"/>
								<path d="M292.95,427.33l-0.03,0.03l0.03,0.08C292.95,427.41,292.94,427.35,292.95,427.33z"/>
								<path d="M297.52,416.26l0.01,0c-0.01-0.02-0.04-0.03-0.1-0.07L297.52,416.26z"/>
								<polygon points="295.89,415.3 295.92,415.32 295.88,415.27 								"/>
								<path d="M294.49,414.55c0.06,0.03,0.13,0.07,0.18,0.1C294.55,414.58,294.49,414.51,294.49,414.55z"/>
							</g>
						</g>
					</g>
				</g>
			</g>
		</g>
	</g>
</g>
</svg>
